<svg width="24px" height="35px" viewBox="0 0 24 35" version="1.1" xmlns="http://www.w3.org/2000/svg" xmlns:xlink="http://www.w3.org/1999/xlink">
    <g id="Page-1" stroke="none" stroke-width="1" fill="none" fill-rule="evenodd">
        <g id="Query" transform="translate(-580.000000, -140.000000)" fill="#000000" fill-rule="nonzero">
            <g id="light-bulb" transform="translate(580.000000, 140.000000)">
                <path d="M17.3113043,25.13 L17.3113043,25.13 L6.44556522,25.1268182 C6.18156522,25.1268182 5.95826087,24.9263636 5.92695652,24.6590909 C5.80069565,23.5751515 5.42817391,22.044697 4.36278261,20.9193939 C4.36173913,20.9172727 4.36069565,20.9162121 4.3586087,20.9140909 C1.72486957,18.6528788 0.214956522,15.3554545 0.214956522,11.8565152 C0.216,5.31893939 5.44904348,0 11.88,0 C18.3109565,0 23.544,5.31893939 23.544,11.8565152 C23.544,15.3787879 22.0153043,18.6963636 19.3502609,20.9575758 C18.3276522,22.0457576 17.9551304,23.5772727 17.8288696,24.6622727 C17.7996522,24.9295455 17.5763478,25.13 17.3113043,25.13 Z M6.89843478,24.0662121 L16.8584348,24.0693939 C17.0535652,22.8740909 17.5262609,21.3627273 18.6406957,20.1833333 C21.1095652,18.0843939 22.5015652,15.0627273 22.5015652,11.8554545 C22.5005217,5.90333333 17.7370435,1.06060606 11.88,1.06060606 C6.02295652,1.06060606 1.25947826,5.90333333 1.25947826,11.8565152 C1.25947826,15.0606061 2.65043478,18.0812121 5.07756522,20.1419697 C5.10886957,20.1684848 5.13704348,20.1992424 5.16104348,20.2321212 C6.24313043,21.4030303 6.7053913,22.8878788 6.89843478,24.0662121 Z" id="Shape"></path>
                <path d="M17.3113043,28.3372727 L6.44556522,28.3372727 C6.15756522,28.3372727 5.92382609,28.099697 5.92382609,27.8069697 C5.92382609,27.5142424 6.15756522,27.2766667 6.44556522,27.2766667 L17.3113043,27.2766667 C17.5993043,27.2766667 17.8330435,27.5142424 17.8330435,27.8069697 C17.8330435,28.099697 17.6003478,28.3372727 17.3113043,28.3372727 Z" id="Path"></path>
                <path d="M17.3113043,31.5466667 L6.44556522,31.5466667 C6.15756522,31.5466667 5.92382609,31.3090909 5.92382609,31.0163636 C5.92382609,30.7236364 6.15756522,30.4860606 6.44556522,30.4860606 L17.3113043,30.4860606 C17.5993043,30.4860606 17.8330435,30.7236364 17.8330435,31.0163636 C17.8330435,31.3090909 17.6003478,31.5466667 17.3113043,31.5466667 Z" id="Path"></path>
                <path d="M14.1537391,34.7571212 L9.60417391,34.7571212 C9.31617391,34.7571212 9.08243478,34.5195455 9.08243478,34.2268182 C9.08243478,33.9340909 9.31617391,33.6965152 9.60417391,33.6965152 L14.1537391,33.6965152 C14.4417391,33.6965152 14.6754783,33.9340909 14.6754783,34.2268182 C14.6754783,34.5195455 14.4417391,34.7571212 14.1537391,34.7571212 Z" id="Path"></path>
            </g>
        </g>
    </g>
</svg>