
<svg width="622px" height="400px" viewBox="0 0 622 400" version="1.1" xmlns="http://www.w3.org/2000/svg" xmlns:xlink="http://www.w3.org/1999/xlink">
    <defs>
        <ellipse id="path-1" cx="17.3447133" cy="16.9590643" rx="17.3447133" ry="16.9590643"></ellipse>
    </defs>
    <g id="Page-1" stroke="none" stroke-width="1" fill="none" fill-rule="evenodd">
        <g id="Tabs" transform="translate(-646.000000, -644.000000)">
            <g id="Group" transform="translate(646.000000, 644.000000)">
                <path d="M267.918387,14.209047 C282.905086,5.03072008 333.44827,-18.8006862 385.987573,28.3115466 C391.70309,33.4366769 404.34842,50.6035208 417.826883,70.227063 C428.277732,85.4426473 431.995245,99.0401562 439.303831,111.976376 C443.281135,119.016215 461.404304,140.525998 468.515766,144.771906 C475.647627,149.029995 483.48015,151.600713 490.896843,157.24877 C513.054592,174.122629 559.529825,188.467327 571.849716,195.544613 C578.415471,199.316377 589.403124,212.508889 592.04408,223.078868 C595.234963,235.849842 589.212003,246.33032 587.167049,251.766153 C576.551569,279.983896 514.505921,289.055574 480.569105,303.265981 C448.543077,316.67628 432.458333,328.257724 406.456948,340.876812 C378.637283,354.378354 346.486114,390.234674 313.008283,396.027181 C276.864645,402.28094 229.148989,400.273326 193.889834,396.027181 C151.393914,390.909536 119.833151,352.971315 100.445388,319.364437 C89.9636994,301.195406 98.5422314,286.789115 93.3696087,274.875401 C84.771742,255.072581 -5.36004043,247.083433 0.251307043,223.078868 C1.34582829,218.396658 9.63452359,193.963209 35.8981264,185.967256 C48.9059234,182.007033 135.723074,150.750187 144.016506,146.608951 C160.922363,138.167194 171.346546,128.478148 175.945374,122.500875 C210.786594,77.2164104 252.931688,23.3873738 267.918387,14.209047 Z" id="background" fill="#F6F8FA"></path>
                <g id="Group-4" transform="translate(229.588899, 38.011696)">
                    <rect id="Rectangle" fill="#464F55" x="54.7837565" y="107.02459" width="42.9075575" height="17.5826111"></rect>
                    <rect id="Rectangle" stroke="#555E64" stroke-width="5.298634" fill="#FFFFFF" x="2.649317" y="2.649317" width="147.176437" height="105.166032" rx="5.36347849"></rect>
                    <ellipse id="Oval" fill="#C13737" cx="134.703014" cy="17.4359191" rx="1.53241277" ry="1.52892271"></ellipse>
                    <ellipse id="Oval" fill="#96D587" cx="128.956466" cy="17.4359191" rx="1.53241277" ry="1.52892271"></ellipse>
                    <rect id="Rectangle" stroke="#555E64" stroke-width="1.81368978" x="11.3999407" y="12.9915345" width="129.973808" height="73.4857536"></rect>
                    <rect id="Rectangle" fill="#555E64" x="35.6285969" y="123.842739" width="81.2178768" height="3.05784542"></rect>
                    <g id="content" transform="translate(40.762668, 31.285070)">
                        <path d="M35.6664192,3.87336812 L69.2233307,3.87336812" id="Line-4" stroke="#097BC5" stroke-width="4.36449413" stroke-linecap="square"></path>
                        <path d="M35.6664192,13.0760823 L69.2233307,13.0760823" id="Line-4" stroke="#097BC5" stroke-width="4.36449413" stroke-linecap="square"></path>
                        <rect id="Rectangle" fill="#F6A5A5" x="0.229373886" y="0" width="27.2003267" height="17.2003805"></rect>
                        <rect id="Rectangle" fill="#C0E4F7" x="0.0268416249" y="23.0563879" width="71.8672307" height="23.2489621"></rect>
                    </g>
                    <path d="M11.8339569,22.0226872 L140.748181,22.0226872" id="Line-5" stroke="#555E64" stroke-width="1.53242243" stroke-linecap="square"></path>
                    <rect id="Rectangle" stroke="#555E64" stroke-width="7.27900653" x="5.55501922" y="97.6682498" width="142.131238" height="7.2457592"></rect>
                    <path d="M148.785835,97.0290826 L148.785835,103.65856 C148.544595,104.918148 148.166868,105.733508 147.652652,106.104639 C147.138437,106.47577 146.10403,106.679607 144.549431,106.71615 L124.506365,106.71615 C131.650732,105.1475 136.808764,103.730451 139.980461,102.465001 C143.152159,101.199551 146.087283,99.3875784 148.785835,97.0290826 Z" id="Path-9" fill="#6B7A84"></path>
                    <path d="M27.6785956,97.3550288 L27.6785956,103.984506 C27.4373562,105.244094 27.0596288,106.059454 26.5454134,106.430585 C26.0311979,106.801716 24.9967909,107.005553 23.4421923,107.042096 L3.39912578,107.042096 C10.5434927,105.473446 15.7015249,104.056397 18.8732224,102.790947 C22.0449199,101.525497 24.9800443,99.7135246 27.6785956,97.3550288 Z" id="Path-9" fill="#6B7A84" transform="translate(15.538861, 102.198563) scale(-1, 1) translate(-15.538861, -102.198563) "></path>
                </g>
                <g id="Group-3" transform="translate(36.804327, 81.286550)">
                    <rect id="Rectangle" stroke="#555E64" stroke-width="3.131416" x="1.76138062" y="2.27915829" width="57.868584" height="102.868584" rx="4.9733032"></rect>
                    <ellipse id="Oval" stroke="#555E64" stroke-width="1.42094377" fill="#555E64" cx="30.6956726" cy="97.7134503" rx="3.5" ry="3"></ellipse>
                    <circle id="Oval" fill="#C13737" cx="42.6956726" cy="21.2134503" r="1.5"></circle>
                    <circle id="Oval" fill="#96D587" cx="38.6956726" cy="21.2134503" r="1.5"></circle>
                    <path d="M36.1956726,93.6087304 C43.7646287,93.7533126 48.5108951,93.7533126 50.4344718,93.6087304 C52.4470475,93.4574587 53.4936779,92.6216914 53.7189632,92.4835341 C54.8286878,91.80299 55.0858567,90.7423515 55.0858567,90.7423515 L57.1956726,90.7134503 C57.1956726,96.4878396 57.1956726,99.3750342 57.1956726,99.3750342 C57.1029331,100.087074 56.9798566,100.542203 56.826443,100.740423 C56.2996899,101.421019 55.5643843,101.482757 55.5643843,101.482757 L51.1600898,101.71345 L36.1956726,101.71345 C36.9357205,99.8657262 37.3057445,98.5315411 37.3057445,97.7108951 C37.3057445,95.4356839 36.1956726,93.6087304 36.1956726,93.6087304 Z" id="Path-8" fill="#D5DBE0"></path>
                    <path d="M4.19567262,93.6087304 C11.7646287,93.7533126 16.5108951,93.7533126 18.4344718,93.6087304 C20.4470475,93.4574587 21.4936779,92.6216914 21.7189632,92.4835341 C22.8286878,91.80299 23.0858567,90.7423515 23.0858567,90.7423515 L25.1956726,90.7134503 C25.1956726,96.4878396 25.1956726,99.3750342 25.1956726,99.3750342 C25.1029331,100.087074 24.9798566,100.542203 24.826443,100.740423 C24.2996899,101.421019 23.5643843,101.482757 23.5643843,101.482757 L19.1600898,101.71345 L4.19567262,101.71345 C4.93572053,99.8657262 5.30574448,98.5315411 5.30574448,97.7108951 C5.30574448,95.4356839 4.19567262,93.6087304 4.19567262,93.6087304 Z" id="Path-8" fill="#D5DBE0" transform="translate(14.695673, 96.213450) scale(-1, 1) translate(-14.695673, -96.213450) "></path>
                    <rect id="Rectangle" fill="#D5DBE0" x="24.1956726" y="5.71345029" width="15" height="3"></rect>
                    <g id="content" transform="translate(16.195673, 27.713450)">
                        <path d="M15.8333333,2.58858723 L27.6825397,2.58858723" id="Line-4" stroke="#097BC5" stroke-width="5.25842677" stroke-linecap="square"></path>
                        <path d="M15.8333333,13.191327 L27.6811594,13.191327" id="Line-4" stroke="#097BC5" stroke-width="5.25842677" stroke-linecap="square"></path>
                        <rect id="Rectangle" fill="#F6A5A5" x="0" y="0" width="11.1111111" height="15.9041096"></rect>
                        <rect id="Rectangle" fill="#C0E4F7" x="0" y="21.2054795" width="30" height="26"></rect>
                    </g>
                    <path d="M2,11.3567251 L59.1956726,11.3567251" id="Line-8" stroke="#555E64" stroke-width="2" stroke-linecap="square"></path>
                    <path d="M2,88.3567251 L59.1956726,88.3567251" id="Line-8" stroke="#555E64" stroke-width="2" stroke-linecap="square"></path>
                    <circle id="Oval" fill="#9E9995" cx="51.6956726" cy="7.21345029" r="1.5"></circle>
                </g>
                <g id="Group-2" transform="translate(495.397930, 90.058480)">
                    <ellipse id="Oval" stroke="#005B96" stroke-width="2.62921339" cx="38.0461605" cy="19.5761551" rx="38.0461605" ry="9.01822876"></ellipse>
                    <path d="" id="Path" stroke="#979797" stroke-width="0.5"></path>
                    <path d="M0.874624378,46.7734076 C7.74242345,48.5734706 12.6334781,49.7365381 15.5477883,50.2626099 C24.5840362,51.8937731 31.501364,52.3497181 35.9150874,52.3497181 C45.7353262,52.3497181 53.7336586,51.1876452 59.9309569,50.2626099 C70.5360369,48.6796503 73.5393819,45.2517356 73.5393819,45.2517356 C73.5393819,45.2517356 74.2445909,43.3126063 75.6550087,39.4343476 L75.6550087,33.8615931 L74.8524319,30.3540382" id="Path-3" stroke="#005B96" stroke-width="2.62921339" stroke-linecap="round"></path>
                    <path d="M1.74924876,69.2090011 C8.61704783,71.0090641 13.5081025,72.1721316 16.4224127,72.6982034 C25.4586606,74.3293666 32.3759883,74.7853116 36.7897117,74.7853116 C46.6099506,74.7853116 54.608283,73.6232387 60.8055812,72.6982034 C71.4106613,71.1152438 74.4140063,67.6873291 74.4140063,67.6873291 C74.4140063,67.6873291 75.1192153,65.7481997 76.5296331,61.869941 L76.5296331,56.2971865 L75.7270563,52.7896317" id="Path-3" stroke="#005B96" stroke-width="2.62921339" stroke-linecap="round"></path>
                    <path d="M1.74924876,92.0845081 C8.61704783,93.8845712 13.5081025,95.0476386 16.4224127,95.5737105 C25.4586606,97.2048737 32.3759883,97.6608187 36.7897117,97.6608187 C46.6099506,97.6608187 54.608283,96.4987457 60.8055812,95.5737105 C71.4106613,93.9907508 74.4140063,90.5628362 74.4140063,90.5628362 C74.4140063,90.5628362 75.1192153,88.6237068 76.5296331,84.7454481 L76.5296331,79.1726936 L75.7270563,75.6651388" id="Path-3" stroke="#005B96" stroke-width="2.62921339" stroke-linecap="round"></path>
                    <path d="M2.18656095,43.0453179 C3.12882059,43.894325 3.92523124,44.4648712 4.57579289,44.7569567 C8.13606377,46.3554266 11.7322711,47.0777901 13.9954963,47.4399072 C22.9363911,48.8704544 29.7807252,49.270323 34.1478737,49.270323 C43.8644865,49.270323 51.7784181,48.2511728 57.9103207,47.4399072 C68.4034928,46.051635 71.3751457,43.0453179 71.3751457,43.0453179 C71.3751457,43.0453179 72.0729131,41.3446811 73.4684478,37.9434076 L73.4684478,33.0560435 L71.3751457,28.5943839 C55.7625421,32.447627 44.579995,34.3742485 37.8275044,34.3742485 C15.7527266,34.3742485 3.6876743,29.0342975 2.18656095,29.0342975 C1.46063847,29.0342975 0.547401665,33.0285094 0.874624378,37.9434076 C0.95721104,39.1838626 1.39452323,40.8844993 2.18656095,43.0453179 Z" id="Path-3" fill="#B3CDE0"></path>
                    <path d="M37.8456096,25.0750751 C55.2351111,25.0750751 69.5326381,22.6486543 69.5326381,20.5663998 C69.5326381,18.4841454 55.2351111,14.5171487 37.8456096,14.5171487 C20.4561082,14.5171487 6.55968284,18.4841454 6.55968284,20.5663998 C6.55968284,22.6486543 20.4561082,25.0750751 37.8456096,25.0750751 Z" id="Oval" fill="#B3CDE0"></path>
                    <path d="M3.13298073,65.9129223 C4.07524038,66.7619294 4.87165103,67.3324757 5.52221268,67.6245611 C9.08248356,69.223031 12.6786909,69.9453946 14.9419161,70.3075116 C23.8828109,71.7380588 30.7271449,72.1379274 35.0942934,72.1379274 C44.8109063,72.1379274 52.7248379,71.1187772 58.8567405,70.3075116 C69.3499126,68.9192394 72.3215655,65.9129223 72.3215655,65.9129223 C72.3215655,65.9129223 73.0193329,64.2122856 74.4148676,60.8110121 L74.4148676,55.923648 L72.3215655,51.4619883 C56.7089619,55.3152314 45.5264148,57.241853 38.7739242,57.241853 C16.6991464,57.241853 4.63409409,51.9019019 3.13298073,51.9019019 C2.40705826,51.9019019 1.49382145,55.8961138 1.82104416,60.8110121 C1.90363083,62.051467 2.34094301,63.7521038 3.13298073,65.9129223 Z" id="Path-3" fill="#B3CDE0"></path>
                    <path d="M3.13298073,88.7199399 C4.07524038,89.568947 4.87165103,90.1394932 5.52221268,90.4315786 C9.08248356,92.0300486 12.6786909,92.7524121 14.9419161,93.1145292 C23.8828109,94.5450764 30.7271449,94.9449449 35.0942934,94.9449449 C44.8109063,94.9449449 52.7248379,93.9257948 58.8567405,93.1145292 C69.3499126,91.726257 72.3215655,88.7199399 72.3215655,88.7199399 C72.3215655,88.7199399 73.0193329,87.0193031 74.4148676,83.6180296 L74.4148676,78.7306655 L72.3215655,74.2690058 C56.7089619,78.122249 45.5264148,80.0488705 38.7739242,80.0488705 C16.6991464,80.0488705 4.63409409,74.7089194 3.13298073,74.7089194 C2.40705826,74.7089194 1.49382145,78.7031314 1.82104416,83.6180296 C1.90363083,84.8584846 2.34094301,86.5591213 3.13298073,88.7199399 Z" id="Path-3" fill="#B3CDE0"></path>
                </g>
                <g id="wires" transform="translate(5.841957, 152.631579)">
                    <path d="M62.3189458,35.3217893 C62.2499705,42.814688 61.8228341,47.891929 61.0375365,50.5535123 C58.8047228,58.1211142 54.3948298,61.8993964 53.0751507,62.986973 C44.7623241,69.8377566 17.1907615,78.2971123 17.1907615,78.2971123 C17.1907615,78.2971123 6.49045175,82.9399652 2.32205572,92.6649193 C-0.309442929,98.80426 -2.02107986,117.714183 4.70610295,127.189871 C11.9203974,137.351689 27.9423051,137.874429 35.3291057,137.414433 C37.4575689,137.281887 46.2073422,135.966665 49.8004671,131.228222 C52.8756641,127.172797 57.0442726,107.961505 62.9031415,98.0392525 C66.3249109,92.2443354 71.2489077,93.312454 74.4245167,92.6649193 C78.1130985,91.9127848 84.174567,102.496046 92.9602843,103.551577 C95.3763975,103.841853 98.7267123,104.468557 103.174808,103.551577 C106.565191,102.852645 111.205386,102.152478 117.095393,101.451075" id="Path-4" stroke="#293C5C" stroke-width="3.50561785"></path>
                    <path d="M532.098148,36.5426195 C532.523085,49.9494683 534.126383,58.2698722 536.908044,61.5038312 C543.46425,69.1260776 556.437515,74.9424717 575.82784,78.9530135 C592.538389,78.797018 602.683058,80.2714713 606.261848,83.3763736 C608.955193,85.7130773 617.470931,94.7891977 613.904864,105.011301 C612.46085,109.150557 611.27203,119.722502 594.868968,125.977491 C588.907705,128.250702 567.714206,114.508375 549.7245,112.927788 C541.761766,112.228178 530.220952,123.272914 520.307983,123.333644 C514.325068,123.370298 506.860288,112.195302 498.129227,109.313499 C493.459883,107.77232 485.607558,107.77232 474.572253,109.313499" id="Path-2" stroke="#293C5C" stroke-width="2.92134821"></path>
                    <path d="M320.533433,5.49722786 C325.410627,5.26575118 328.701041,4.87588763 330.404674,4.32763722 C332.727059,3.58026461 340.523956,0.881148788 346.438364,0.234069967 C354.408716,-0.637943993 361.157634,0.970339589 367.244153,4.32763722 C368.930325,5.25772258 376.120002,10.9439681 371.601067,17.1931343 C371.201208,17.7460933 367.284673,23.7281377 354.745661,25.8918692 C346.541834,27.3075214 331.306694,26.2508853 325.610609,27.2531206 C323.788466,27.5737297 312.828061,27.9963609 308.519791,31.228222 C305.312189,33.6344143 306.161115,37.5320478 306.359418,39.7072786 C306.589324,42.2291792 306.849573,41.0130023 306.985001,41.1697425" id="Path-6" stroke="#293C5C" stroke-width="3.50561785"></path>
                    <path d="M477.000101,101.757136 L491.830561,102.726015 C493.238037,104.814284 493.941775,106.427782 493.941775,107.56651 C493.941775,108.705238 493.238037,110.352721 491.830561,112.508959 L477.000101,115.324031" id="Path-12" fill="#41526E"></path>
                    <path d="M99.1232732,96.725298 L113.953733,97.6941764 C115.36121,99.7824456 116.064948,101.395944 116.064948,102.534672 C116.064948,103.6734 115.36121,105.320883 113.953733,107.477121 L99.1232732,110.292193" id="Path-12" fill="#41526E" transform="translate(107.594110, 103.508745) scale(-1, 1) translate(-107.594110, -103.508745) "></path>
                </g>
                <g id="Group-7" transform="translate(120.344309, 188.888889)">
                    <path d="M6.42696606,4.08988749 C5.13623321,4.08988749 4.08988749,5.13623321 4.08988749,6.42696606 L4.08988749,196.498588 C4.08988749,198.75737 5.92099249,200.588475 8.17977498,200.588475 L356.358325,200.588475 C358.617107,200.588475 360.448212,198.75737 360.448212,196.498588 L360.448212,8.17977498 C360.448212,5.92099249 358.617107,4.08988749 356.358325,4.08988749 L6.42696606,4.08988749 Z" id="Rectangle" stroke="#555E64" stroke-width="8.17977498" fill="#FFFFFF"></path>
                    <rect id="Rectangle" fill="#D8D8D8" x="158.317027" y="180.701754" width="67.766698" height="4.09356725"></rect>
                    <rect id="Rectangle" fill="#D8D8D8" x="252.372531" y="54.3859649" width="14.6048918" height="4.09356725"></rect>
                    <rect id="Rectangle" fill="#D8D8D8" x="74.1928504" y="129.239766" width="3.50517404" height="30.994152"></rect>
                    <rect id="Rectangle" fill="#005B96" x="7.59454374" y="19.2982456" width="39.7253057" height="177.777778"></rect>
                    <path d="M84.5623236,116.081871 L84.5623236,175.146199" id="Line-6" stroke="#005B96" stroke-width="2.33707857" stroke-linecap="square"></path>
                    <path d="M84.7990236,175.146199 L318.12304,175.146199" id="Line-2" stroke="#005B96" stroke-width="2.33707857" stroke-linecap="square"></path>
                    <path d="M99.89746,165.666709 C110.802446,148.686086 116.254939,140.195774 116.254939,140.195774 C128.823395,153.282475 135.107623,159.825825 135.107623,159.825825 C149.615275,154.370212 156.869101,151.642405 156.869101,151.642405 C166.837644,157.937004 171.821915,161.084303 171.821915,161.084303 C179.896589,142.161502 183.933926,132.700102 183.933926,132.700102 C193.029789,148.882217 197.577721,156.973275 197.577721,156.973275 C207.56979,149.239154 212.565824,145.372093 212.565824,145.372093 C220.350095,156.060326 224.242231,161.404442 224.242231,161.404442 C243.033143,136.819962 252.4286,124.527721 252.4286,124.527721 C270.213027,147.356956 279.10524,158.771574 279.10524,158.771574 C284.555259,154.473613 287.280269,152.324633 287.280269,152.324633 L297.49547,158.622543" id="Path-10" stroke="#005B96" stroke-width="2.92134821"></path>
                    <path d="M106.056218,163.707415 C113.237541,151.052835 116.828202,144.725545 116.828202,144.725545 C126.216892,156.812434 130.911237,162.855878 130.911237,162.855878 C146.429053,160.063313 154.187961,158.66703 154.187961,158.66703 C163.243251,160.854203 167.770896,161.94779 167.770896,161.94779 C171.441394,163.41315 173.276642,164.14583 173.276642,164.14583 C179.783363,152.007715 183.036724,145.938658 183.036724,145.938658 C190.137361,156.639354 193.68768,161.989702 193.68768,161.989702 C205.073666,156.537291 210.766659,153.811085 210.766659,153.811085 C216.849265,159.825424 219.890568,162.832594 219.890568,162.832594 C221.88864,163.870298 222.887676,164.389151 222.887676,164.389151 C238.287639,150.077833 245.98762,142.922174 245.98762,142.922174 C251.836846,136.919477 254.761459,133.918129 254.761459,133.918129 C266.024165,149.910574 271.655518,157.906797 271.655518,157.906797 C274.648361,160.478938 276.144783,161.765008 276.144783,161.765008 C282.049834,159.511086 285.002359,158.384125 285.002359,158.384125 C287.942479,157.08098 289.412539,156.429407 289.412539,156.429407 C294.086337,159.589865 296.423236,161.170094 296.423236,161.170094 C299.56262,163.285086 301.132312,164.342582 301.132312,164.342582 L102.818438,166.762987" id="Path-11" fill="#91CFF0"></path>
                    <rect id="Rectangle" fill="#E0EAEE" x="7.59454374" y="8.1871345" width="348.764817" height="14.0350877"></rect>
                    <rect id="Rectangle" fill="#D8D8D8" x="96.9764817" y="102.339181" width="64.8457197" height="2.92397661"></rect>
                    <ellipse id="Oval" fill="#D54040" cx="344.675447" cy="14.9122807" rx="3.50517404" ry="3.21637427"></ellipse>
                    <ellipse id="Oval" fill="#43AB45" cx="330.654751" cy="14.9122807" rx="3.50517404" ry="3.21637427"></ellipse>
                </g>
                <g id="Group-6" transform="translate(203.300094, 226.315789)">
                    <path d="M0.876293509,0.289531017 L0.876293509,58.7747965" id="Line-6" stroke="#005B96" stroke-width="2.33707857" stroke-linecap="square"></path>
                    <path d="M1.44370195,59.3567251 L92.8871119,59.3567251" id="Line-2" stroke="#005B96" stroke-width="2.33707857" stroke-linecap="square"></path>
                    <rect id="Rectangle" fill="#005B96" x="11.0997178" y="4.67836257" width="8.17873942" height="46.1988304"></rect>
                    <rect id="Rectangle" fill="#953084" x="26.8730009" y="18.128655" width="8.17873942" height="32.748538"></rect>
                    <rect id="Rectangle" fill="#4178C1" x="41.4778928" y="11.6959064" width="8.17873942" height="39.1812865"></rect>
                    <rect id="Rectangle" fill="#26812B" x="54.9143932" y="34.502924" width="8.17873942" height="16.374269"></rect>
                    <rect id="Rectangle" fill="#953084" x="69.519285" y="22.8070175" width="8.17873942" height="28.0701754"></rect>
                </g>
                <g id="Group-5" transform="translate(327.733772, 242.105263)">
                    <g id="donut_2">
                        <ellipse id="Oval" stroke="#69B6DE" stroke-width="8.92919454" transform="translate(17.344713, 16.959064) scale(1, -1) rotate(180.000000) translate(-17.344713, -16.959064) " cx="17.3447133" cy="16.9590643" rx="17.3447133" ry="16.9590643"></ellipse>
                        <mask id="mask-2" fill="white">
                            <use xlink:href="#path-1"></use>
                        </mask>
                        <use id="Oval" stroke="#005B96" stroke-width="8.92919454" stroke-dasharray="46.48073689321453,15.16739920283971" transform="translate(17.344713, 16.959064) scale(1, -1) rotate(180.000000) translate(-17.344713, -16.959064) " xlink:href="#path-1"></use>
                    </g>
                    <g id="donut_1" transform="translate(69.881599, 0.000000)" stroke-width="8.92710381">
                        <ellipse id="Oval" stroke="#69B6DE" transform="translate(17.344713, 16.959064) scale(1, -1) rotate(180.000000) translate(-17.344713, -16.959064) " cx="17.3447133" cy="16.9590643" rx="17.3447133" ry="16.9590643"></ellipse>
                        <path d="M17.3447133,33.9181287 C26.923934,33.9181287 34.6894267,26.3252969 34.6894267,16.9590643 C34.6894267,7.59283173 26.923934,0 17.3447133,0 C7.76549268,0 0,7.59283173 0,16.9590643 C0,26.3252969 7.76549268,33.9181287 17.3447133,33.9181287 Z" id="Oval" stroke="#005B96" stroke-dasharray="80.83309559339888,55.51924801944347" transform="translate(17.344713, 16.959064) rotate(180.000000) translate(-17.344713, -16.959064) "></path>
                    </g>
                    <path id="Line" d="M58.5849958,17.7367017 L46.2554094,24.1033595 C45.8428804,24.3163781 45.3412491,24.1436924 45.1349846,23.7176552 C45.0770044,23.5978978 45.0468191,23.4658438 45.0468191,23.3319509 L45.0468191,10.5986353 C45.0468191,10.1223112 45.420713,9.73617429 45.8819345,9.73617429 C46.011582,9.73617429 46.1394491,9.76734802 46.2554094,9.82722672 L58.5849958,16.1938845 C58.9975248,16.4069031 59.1647352,16.9249602 58.9584707,17.3509974 C58.8776618,17.5179072 58.7466135,17.6532468 58.5849958,17.7367017 Z" fill="#0A7B61" fill-rule="nonzero"></path>
                </g>
                <g id="person_3" transform="translate(115.000000, 56.000000)" fill-rule="nonzero">
                    <path d="M91.1897723,221.930636 L92.2307692,229.124675 C90.2991632,230.672874 87.7620993,230.77232 85.7465104,229.37555 L85.3832357,229.124675 L83.8461538,221.930636 L91.1897723,221.930636" id="Fill-150" fill="#F0AB85"></path>
                    <path d="M39.1731599,62.1216361 C44.9366251,82.496357 64.2820513,113.774566 64.2820513,113.774566 L49.0018353,107.078331 L38.2027286,80.3545224 C38.2027286,80.3545224 33.4096948,41.7469153 39.1731599,62.1216361" id="Fill-151" fill="#3396C0"></path>
                    <path d="M81.4376298,143.453068 L93.6282051,223.33526 L82.7905341,223.33526 C82.7905341,223.33526 58.4526927,151.461671 55.8974359,130.331147 C55.8974359,118.362078 80.5013209,130.331147 80.5013209,130.331147 L81.4376298,143.453068" id="Fill-152" fill="#1B2441"></path>
                    <polyline id="Fill-153" fill="#EC967C" points="40.525641 29.7129912 36.5515279 40.734104 27.9487179 34.0641162 33.7548546 21.0693642 40.525641 29.7129912"></polyline>
                    <path d="M47.9161433,30.5992981 C52.7585143,25.474856 51.5784076,8.3592194 51.5784076,8.3592194 L46.1676185,4.21387283 L37.6452816,7.67668733 L35.1749251,18.3900422 C34.5140653,21.2488267 35.2417977,24.3082277 37.1319352,26.62622 C39.2403925,28.6672744 41.8405608,30.1304662 44.6590489,30.6952451 C45.9532326,30.9547382 47.186444,31.0179759 47.9161433,30.5992981 Z" id="Fill-154" fill="#F0AB85"></path>
                    <path d="M39.0015188,11.9716682 C39.7886679,10.2123344 41.6778259,9.3828386 43.352307,10.0896939 C44.5728995,10.6025542 46.0490598,11.1421724 47.5088638,11.4766466 C50.982543,12.2704651 57.4637455,12.2013405 58.571888,6.43054708 C59.677986,0.664213336 52.8001421,1.1570052 52.8001421,1.1570052 L43.6630776,1.84379205 C40.9561021,2.04893616 38.2675276,1.45134242 35.7834074,0.269533881 C33.5855233,-0.774025358 31.6350289,1.44688276 31.1647839,2.93417766 C30.134334,6.18972571 31.2077193,11.755375 32.109363,15.3230989 C32.6307216,17.3901489 33.4873853,19.3300988 34.6302849,21.0693642 L39.0015188,11.9716682" id="Fill-155" fill="#1B2441"></path>
                    <path d="M32.8249042,14.2647023 C33.6784873,13.7497837 35.0064951,14.1758536 35.7857707,15.2198257 C36.5650464,16.2617786 36.5059815,17.5258532 35.6504931,18.0407717 C34.7950046,18.5577096 33.4689022,18.1296204 32.6877212,17.0856483 C31.9084455,16.0436955 31.9694158,14.7796208 32.8249042,14.2647023" id="Fill-156" fill="#F0AB85"></path>
                    <path d="M92.2561428,228.539128 C92.2561428,228.539128 92.285397,235.703929 106.488317,240.00408 C109.401201,240.886976 108.454618,241.759287 109,243 C104.338132,243 92.6573434,243 92.6573434,243 L86.2590293,235.712398 L84.2676534,237.444315 L79.6538462,232.851981 C79.6538462,232.851981 80.4562474,226.203792 83.9688424,226.144509 C86.867099,227.145972 92.2561428,228.539128 92.2561428,228.539128" id="Fill-157" fill="#1B2441"></path>
                    <path d="M53.1025641,219.11106 L50.3932621,225.874159 C47.9269659,226.633307 45.2773494,225.763402 43.6189411,223.645175 L43.3205128,223.26214 L45.509697,216.312139 L53.1025641,219.11106" id="Fill-158" fill="#F0AB85"></path>
                    <path d="M29.6055437,30.9017341 C14.680759,46.6102542 9.78205128,106.751445 9.78205128,106.751445 C9.78205128,106.751445 44.6786492,106.751445 48.8069125,106.751445 C50.1253201,72.4290336 38.3935535,38.0979492 38.3935535,38.0979492 C38.3935535,38.0979492 39.5059599,36.2896805 29.6055437,30.9017341 Z" id="Fill-159" fill="#005B96"></path>
                    <path d="M76.8148377,105.198898 C76.9822726,104.42688 76.663349,103.626826 76.0274951,103.227878 L69.8722696,99.3677831 C68.3494093,98.4124635 66.5554641,98.0976177 64.8312833,98.4857838 L58.1578069,98.7725953 L57.2847535,99.9133719 L55.8974359,106.296546 C57.2369151,105.947196 58.0242577,105.725079 58.0242577,105.725079 L62.2619551,105.852311 C62.2619551,105.852311 70.2589644,113.887347 74.2215902,106.898203 C74.3870318,114.335894 76.4002371,113.764427 76.4002371,113.764427 L76.8148377,105.198898" id="Fill-160" fill="#F0AB85"></path>
                    <path d="M10.5014931,106.751445 L9.91976732,111.858901 C9.91165965,111.92845 9.90557889,111.995825 9.89747121,112.065373 C8.86576936,121.815181 14.8553154,130.856466 23.6703868,133.503649 C23.6703868,133.503649 41.1485106,139.710839 63.2115254,141.004003 C48.7271613,160.944816 44.721969,216.894284 44.721969,216.894284 L54.0539048,220.526012 L90.0884733,128.493995 C92.3910535,122.612814 89.1378483,115.938346 83.3205902,114.608234 L48.8994493,106.751445 L10.5014931,106.751445" id="Fill-161" fill="#13374D"></path>
                    <path d="M34.4612101,56.8571128 C34.4612101,56.8571128 27.2977284,63.9028095 23.0824824,71.1317948 C21.9129345,73.1414222 22.0875544,75.740191 23.5332458,77.5294358 C26.4872939,81.1842352 32.2323588,84.7862381 38.3088266,87.8775623 C48.7134625,93.1707861 60.0897436,96.9667436 60.0897436,96.9667436 L58.2420202,108.156069 C58.2420202,108.156069 17.7342368,99.5960606 3.38493829,84.1300034 C-11.3359354,68.2602751 26.7251373,35.1156069 26.7251373,35.1156069" id="Fill-162" fill="#005B96"></path>
                    <path d="M24.1639185,71.3560742 C23.1311991,73.1678117 23.2890034,75.4632656 24.5554329,77.0661256 C28.150974,81.6262514 37.7410809,86.4941966 46.1126989,90.0231272 C46.1007138,90.5903945 46.1226865,90.6255739 46.1126989,91.300578 C37.3235986,87.6661095 27.6296204,82.853132 23.7064857,77.8774499 C22.1124625,75.8590335 21.9147078,72.9743253 23.2091025,70.696461 C27.3499673,63.4275237 34.4311857,56.2575285 34.501099,56.1849711 L35.2601576,57.097436 C35.1902443,57.1677947 28.2208873,64.2278545 24.1639185,71.3560742" id="Fill-163" fill="#2F80AF"></path>
                    <path d="M58.6923077,108.39103 C58.6075151,108.882159 58.533063,109.287126 58.4441341,109.560694 C50.4653555,107.861126 27.4679426,101.711235 11.1794872,92.6964203 C11.1981002,92.2289855 11.2663479,91.7378558 11.3366637,91.300578 C27.182543,100.207689 50.3991759,106.588067 58.6923077,108.39103 Z" id="Fill-164" fill="#2F80AF"></path>
                    <polyline id="Fill-165" stroke="#555E64" stroke-width="1.40224714" fill="#555E64" points="92.7031213 117.988439 104.807692 72.2916793 102.585617 71.6358382 91.0427145 115.211396 56.2910138 108.834802 55.8974359 111.235223 92.7031213 117.988439"></polyline>
                    <path d="M50.9193005,225.668479 C50.9193005,225.668479 50.3635101,232.892562 64.5633294,237.194831 C67.4780952,238.075611 66.5294904,238.950038 67.0769231,240.190751 C62.4132978,240.190751 50.7354301,240.190751 50.7354301,240.190751 L44.3354821,232.901032 L42.3442479,234.635066 L37.7307692,230.040616 C37.7307692,230.040616 39.887069,223.392426 43.399414,223.33526 C46.2974642,224.336724 50.9193005,225.668479 50.9193005,225.668479" id="Fill-166" fill="#1B2441"></path>
                </g>
            </g>
        </g>
    </g>
</svg>