
<svg width="351px" height="275px" viewBox="0 0 351 275" version="1.1" xmlns="http://www.w3.org/2000/svg" xmlns:xlink="http://www.w3.org/1999/xlink">
    <defs>
        <ellipse id="path-1" cx="19.6190481" cy="21.2501434" rx="19.6190481" ry="21.2501434"></ellipse>
    </defs>
    <g id="Page-1" stroke="none" stroke-width="1" fill="none" fill-rule="evenodd">
        <g id="Tabs" transform="translate(-751.000000, -1247.000000)">
            <g id="Group-4" transform="translate(751.000000, 1247.000000)">
                <g id="Group-3" transform="translate(0.000000, 58.188312)">
                    <polygon id="Fill-111" fill="#3396C0" fill-rule="nonzero" points="0 21.9233028 274.112588 21.9233028 274.112588 0 0 0"></polygon>
                    <rect id="Rectangle" fill="#005B96" x="0" y="31.0908138" width="55.9064175" height="185.403935"></rect>
                </g>
                <g id="Group" transform="translate(75.017285, 112.098072)">
                    <text id="Users-from" font-family="Avenir-Light, Avenir" font-size="10.04" font-weight="300" fill="#606F7B">
                        <tspan x="0" y="10">Users from  </tspan>
                    </text>
                    <text id="are-more-likely-to" font-family="Avenir-Light, Avenir" font-size="10.04" font-weight="300" fill="#606F7B">
                        <tspan x="95.8395728" y="10">are more likely to</tspan>
                    </text>
                    <rect id="Rectangle" fill="#E5F8E1" x="51.9131019" y="1.42618412" width="39.3626817" height="13.4061307" rx="3"></rect>
                    <text id="iphone" font-family="Avenir-Light, Avenir" font-size="10.04" font-weight="300" fill="#647261">
                        <tspan x="56.4768911" y="10.5704736">iphone</tspan>
                    </text>
                    <rect id="Rectangle" fill="#E5F8E1" x="232.753248" y="0.855710471" width="36" height="13.4061307" rx="3"></rect>
                    <text id="5-visits" font-family="Avenir-Light, Avenir" font-size="10.04" font-weight="300" fill="#647261">
                        <tspan x="234.982715" y="10.9019282"> 5 visits</tspan>
                    </text>
                    <rect id="Rectangle" fill="#E5F8E1" x="177.132068" y="0.855710471" width="25.956551" height="13.4061307" rx="3"></rect>
                    <text id="buy" font-family="Avenir-Light, Avenir" font-size="10.04" font-weight="300" fill="#647261">
                        <tspan x="181.41062" y="10.2852368">buy</tspan>
                    </text>
                    <text id="after" font-family="Avenir-Light, Avenir" font-size="10.04" font-weight="300" fill="#606F7B">
                        <tspan x="207.652408" y="10.2852368">after</tspan>
                    </text>
                    <text id="." font-family="Avenir-Light, Avenir" font-size="10.04" font-weight="300" fill="#606F7B">
                        <tspan x="274.112588" y="10.5704736">.</tspan>
                    </text>
                </g>
                <g id="Group-6" transform="translate(78.440127, 147.182201)">
                    <path d="M0.255636776,0 L0.255636776,90.4530684" id="Line-6" stroke="#005B96" stroke-width="2.96646286" stroke-linecap="square"></path>
                    <path d="M0.975244764,91.1904922 L112.098072,91.1904922" id="Line-2" stroke="#005B96" stroke-width="2.96646286" stroke-linecap="square"></path>
                    <rect id="Rectangle" fill="#005B96" x="13.2213547" y="21.9017138" width="10.3725743" height="58.5434599"></rect>
                    <rect id="Rectangle" fill="#953084" x="59.0440225" y="39.0774449" width="10.3725743" height="41.4991614"></rect>
                    <rect id="Rectangle" fill="#597BA7" x="82.1482053" y="19.535926" width="10.3725743" height="61.0406803"></rect>
                    <rect id="Rectangle" fill="#26812B" x="36.2250766" y="7.1309206" width="10.3725743" height="73.3058637"></rect>
                </g>
                <g id="Group-5" transform="translate(212.216197, 182.836804)">
                    <g id="donut_2">
                        <ellipse id="Oval" stroke="#69B6DE" stroke-width="11.2205226" transform="translate(19.619048, 21.250143) scale(1, -1) rotate(180.000000) translate(-19.619048, -21.250143) " cx="19.6190481" cy="21.2501434" rx="19.6190481" ry="21.2501434"></ellipse>
                        <mask id="mask-2" fill="white">
                            <use xlink:href="#path-1"></use>
                        </mask>
                        <use id="Oval" stroke="#005B96" stroke-width="11.2205226" stroke-dasharray="58.40820121765137,19.05951690673828" transform="translate(19.619048, 21.250143) scale(1, -1) rotate(180.000000) translate(-19.619048, -21.250143) " xlink:href="#path-1"></use>
                    </g>
                    <g id="donut_1" transform="translate(79.010600, 0.000000)" stroke-width="11.2178954">
                        <ellipse id="Oval" stroke="#69B6DE" transform="translate(19.619048, 21.250143) scale(1, -1) rotate(180.000000) translate(-19.619048, -21.250143) " cx="19.6190481" cy="21.2501434" rx="19.6190481" ry="21.2501434"></ellipse>
                        <path d="M19.6190481,42.5002867 C30.4543492,42.5002867 39.2380963,32.9862735 39.2380963,21.2501434 C39.2380963,9.51401326 30.4543492,0 19.6190481,0 C8.78374705,0 0,9.51401326 0,21.2501434 C0,32.9862735 8.78374705,42.5002867 19.6190481,42.5002867 Z" id="Oval" stroke="#005B96" stroke-dasharray="101.5757331848145,69.76608467102051" transform="translate(19.619048, 21.250143) rotate(180.000000) translate(-19.619048, -21.250143) "></path>
                    </g>
                    <path id="Line" d="M66.3661728,22.1957528 L51.3945323,29.7441775 C50.8936041,29.9967362 50.2844805,29.7919969 50.0340164,29.2868795 C49.9636119,29.144893 49.9269583,28.9883273 49.9269583,28.8295816 L49.9269583,13.7327321 C49.9269583,13.1679937 50.3809723,12.7101827 50.941027,12.7101827 C51.0984562,12.7101827 51.2537233,12.7471429 51.3945323,12.8181361 L66.3661728,20.3665609 C66.8671009,20.6191196 67.0701422,21.2333374 66.8196781,21.7384548 C66.7215531,21.9363461 66.5624229,22.0968071 66.3661728,22.1957528 Z" fill="#0A7B61" fill-rule="nonzero"></path>
                </g>
                <g id="Group-2" transform="translate(63.037338, 0.000000)">
                    <path d="M8.80498729,48.6579399 C10.2882188,47.6082684 12.0538347,47.3218906 13.7669671,47.0686003 C22.4455827,45.7890279 31.1578562,44.834055 39.887244,44.2059635 C53.2517301,43.2435745 67.0628971,43.1294798 79.5266054,48.9460291 C81.5803105,49.9044248 83.9586151,51.848599 83.4611621,54.4048914 C83.0464278,56.5373219 80.9054402,57.3633677 79.0970387,57.768404 C61.4346041,61.7240683 43.3038107,61.1062453 25.3395955,60.4735901 C22.082191,60.3589249 -1.87941366,56.2201385 8.80498729,48.6579399" id="Fill-4" fill="#D67086"></path>
                    <path d="M46.1521856,51.577624 C46.5418191,51.4002067 46.8869556,51.1537621 47.1522259,50.809196 C47.2166894,50.7259068 47.2754482,50.6352015 47.2948443,50.5325163 C47.3182337,50.4127168 47.2857167,50.288924 47.2526292,50.170836 C47.127125,49.7195913 45.8378546,46.2231583 46.1248028,46.045741 C48.3342473,44.8186522 50.2190922,42.7546786 51.3092673,40.6211071 C53.3464287,36.6363487 53.4531073,32.0862509 53.0560577,27.8042757 C52.4850135,21.650006 50.3497307,14.9030141 44.6449942,12.6479318 C40.2700318,10.9176852 34.7803639,12.8013892 31.2536958,16.075908 C26.7184303,20.2871444 27.4144081,27.2269564 28.3716629,32.5762877 C29.0568018,36.4013136 30.6991954,40.1955338 33.3901196,43.0404859 C34.7421421,44.4695224 36.3714149,45.6378524 38.2071991,46.361213 C39.0982789,46.7120543 39.929459,46.6401746 40.1947293,47.5261202 C40.5238926,48.6237115 40.363019,50.2529842 40.4674157,51.4224552 C40.4845299,51.6158457 40.5141945,51.8337667 40.6699338,51.9507138 C40.7811762,52.0340029 40.9300698,52.0442714 41.0698358,52.0499762 C42.0259497,52.0864865 42.9837749,52.0773589 43.9381773,52.0231639 C44.6849274,51.9809489 45.4835905,51.8816865 46.1521856,51.577624" id="Fill-58" fill="#EFBFA5"></path>
                    <path d="M47.3319251,21.0829552 C49.5579133,22.3899103 51.738834,24.6119052 51.3309453,27.1613519 C52.4987049,26.5811802 53.9499899,27.7169932 54.1194205,29.010257 C54.2882807,30.3035207 53.5689135,31.5460123 52.7331696,32.5466231 C54.0372723,32.7668259 55.3168447,31.8261149 55.9112783,30.6452344 C56.5051413,29.464354 56.5644706,28.0940763 56.5872895,26.7717184 C56.6551759,22.8514235 56.4851748,18.8250205 54.975131,15.2059356 C53.4656577,11.5868508 50.3714087,8.41330593 46.499604,7.7903487 C45.3067436,7.59809908 44.0865005,7.65001219 42.885083,7.78008018 C41.9095731,7.88618828 40.9135261,8.05219611 40.0640908,8.54337392 C33.142534,12.5486694 44.4510332,19.3915008 47.3319251,21.0829552" id="Fill-59" fill="#1D2B56"></path>
                    <path d="M31.3312802,28.8065979 C30.1846282,31.8580614 32.9337407,35.2141579 32.2217896,38.395119 C31.7796725,40.3729511 30.0425802,41.9885325 30.0477145,44.0154253 C30.0545602,46.6321879 32.9559892,48.5546841 32.9885062,51.1714468 C31.3267164,49.0846542 28.1468963,48.578644 26.7030275,46.3355417 C26.1080235,45.4113743 25.8889616,44.3023736 25.4742273,43.2840781 C23.7679406,39.0962311 19.1625068,37.0647744 15.2764403,34.7520742 C14.8240547,34.4833811 14.3591187,34.1878758 14.0938485,33.7337788 C13.5068311,32.7297452 14.1143855,31.4844012 14.6158319,30.4347297 C16.1367146,27.2537686 16.6758122,23.6112944 16.1424193,20.1257004 C15.6341273,16.8061142 14.1805605,13.5036423 14.841169,10.2114389 C15.4287568,7.28034526 17.8110548,4.7879459 20.7124837,4.06800815 C23.3246826,3.41995009 26.1268491,4.12391457 28.7441822,3.49411166 C30.4812745,3.07652495 32.0209828,2.09930359 33.6399871,1.34399648 C37.3822942,-0.402223351 42.3186027,-0.758198907 45.2280183,2.17346517 C47.8002839,4.76455648 47.8185391,9.1326732 46.131078,12.3706816 C45.0888227,14.3713327 43.6033093,16.0947336 42.5473626,18.0919618 C41.7361491,19.6271064 41.1594002,21.3082923 39.8307671,22.4994412 C37.2727632,24.7910339 32.6701819,25.2422785 31.3312802,28.8065979" id="Fill-60" fill="#1D2B56"></path>
                    <path d="M54.0321381,66.2678909 C54.2683142,66.3152402 54.5119064,66.3682943 54.704156,66.5126241 C55.2655021,66.9324927 55.0955009,67.7944784 55.2426831,68.4796172 C55.3368113,68.9171705 55.5775512,69.306804 55.8137273,69.6867395 C56.2210455,70.3405023 56.6283636,70.9942651 57.0356818,71.6480279 C57.1041387,71.7581293 57.1765888,71.872224 57.2884017,71.937258 C57.3905164,71.9965873 57.5120273,72.0085672 57.6295449,72.0165538 C58.8583451,72.0958497 60.1704345,71.8379956 61.0786286,71.007386 C61.9628627,70.1995953 62.3416572,68.9668017 62.4380673,67.7728004 C62.4996784,67.0077952 62.4608862,66.2348034 62.3228316,65.4800668 C62.2800461,65.2450316 62.2241396,65.0042918 62.0803803,64.8131831 C61.9628627,64.6568733 61.7957139,64.5467719 61.6291356,64.4452276 C60.5760413,63.8062971 59.3848923,63.3972675 58.1612263,63.25579 C57.4669599,63.1759237 56.7481631,63.1764942 56.1052393,62.9038078 C55.6545651,62.7126991 55.2694954,62.3989386 54.8781505,62.1045742 C54.0943197,61.5135635 53.2619986,60.9881573 52.3920263,60.5340603 C52.2186023,60.4439254 51.4684295,64.3556632 51.4490334,64.7127797 C51.3600395,66.3534619 52.6938069,66.0009092 54.0321381,66.2678909" id="Fill-61" fill="#EFBFA5"></path>
                    <path d="M13.2986082,43.1391778 C12.3185345,43.0324992 11.3464474,42.9554853 10.3863402,42.9109883 C9.33210494,42.8619276 8.25333927,42.8299811 7.24702375,43.145453 C6.29376229,43.4443812 5.46144124,44.0393852 4.70099987,44.6868728 C1.39111176,47.5101469 -2.17605996,53.0391775 1.66436864,56.6999069 C2.81501399,57.7974982 4.38438699,58.3223339 5.91325637,58.7604577 C10.1313385,59.9704323 14.4549583,60.7685249 18.770021,61.5649061 C30.308421,63.6939138 41.8462505,65.822351 53.3846505,67.9513586 C54.1262662,65.5439598 54.8673115,63.1359906 55.6077863,60.7291623 C56.2130588,58.764451 39.9112039,51.1178222 38.036057,50.3083201 C30.5428856,47.074305 21.6201073,44.0433785 13.2986082,43.1391778" id="Fill-62" fill="#D67086"></path>
                </g>
            </g>
        </g>
    </g>
</svg>