<svg width="37px" height="33px" viewBox="0 0 37 33" version="1.1" xmlns="http://www.w3.org/2000/svg" xmlns:xlink="http://www.w3.org/1999/xlink">
    <g id="Page-1" stroke="none" stroke-width="1" fill="none" fill-rule="evenodd">
        <g id="Logo" transform="translate(-189.000000, -845.000000)" fill="#2E9DC3">
            <g id="Group-2" transform="translate(189.000000, 845.000000)">
                <path d="M9.916,27.75 C9.85,27.75 9.784,27.755 9.719,27.76 L4.055,17.951 C4.432,17.537 4.664,16.989 4.664,16.385 C4.664,15.781 4.432,15.232 4.055,14.818 L9.918,4.663 C11.205,4.662 12.248,3.619 12.248,2.332 C12.248,1.044 11.204,-1.13686838e-13 9.916,-1.13686838e-13 C8.628,-1.13686838e-13 7.584,1.044 7.584,2.332 C7.584,2.914 7.8,3.445 8.152,3.854 L2.262,14.056 C1.007,14.094 -2.03392858e-13,15.12 -2.03392858e-13,16.385 C-2.03392858e-13,17.649 1.007,18.676 2.262,18.713 L8.034,28.71 C7.752,29.095 7.584,29.568 7.584,30.082 C7.584,31.37 8.628,32.414 9.916,32.414 C11.204,32.414 12.248,31.37 12.248,30.082 C12.248,28.794 11.204,27.75 9.916,27.75" id="Fill-83"></path>
                <path d="M36.564,16.385 C36.564,15.106 35.534,14.069 34.26,14.054 L28.386,3.881 C28.754,3.469 28.979,2.927 28.979,2.332 C28.979,1.044 27.935,-1.13686838e-13 26.647,-1.13686838e-13 C25.359,-1.13686838e-13 24.315,1.044 24.315,2.332 C24.315,3.605 25.336,4.638 26.604,4.661 L32.483,14.845 C32.121,15.256 31.9,15.794 31.9,16.385 C31.9,16.975 32.121,17.513 32.483,17.924 L26.806,27.758 C26.753,27.754 26.701,27.75 26.647,27.75 C25.359,27.75 24.315,28.794 24.315,30.082 C24.315,31.37 25.359,32.414 26.647,32.414 C27.935,32.414 28.979,31.37 28.979,30.082 C28.979,29.555 28.802,29.07 28.507,28.679 L34.26,18.715 C35.534,18.7 36.564,17.663 36.564,16.385" id="Fill-84"></path>
                <path d="M24.151,5.936 C23.687,5.671 23.097,5.833 22.832,6.296 L12.053,25.158 C11.788,25.621 11.949,26.212 12.412,26.477 C12.876,26.742 13.467,26.581 13.732,26.117 L24.511,7.256 C24.776,6.792 24.615,6.201 24.151,5.936" id="Fill-85"></path>
            </g>
        </g>
    </g>
</svg>