<svg width="39px" height="34px" viewBox="0 0 39 34" version="1.1" xmlns="http://www.w3.org/2000/svg" xmlns:xlink="http://www.w3.org/1999/xlink">
    <g id="Page-1" stroke="none" stroke-width="1" fill="none" fill-rule="evenodd">
        <g id="Logo" transform="translate(-107.000000, -740.000000)" fill="#035DD2" stroke="#035DD2">
            <g id="logo" transform="translate(108.000000, 741.000000)">
                <path d="M9.719,27.76 L4.055,17.951 C4.432,17.537 4.664,16.989 4.664,16.385 C4.664,15.781 4.432,15.232 4.055,14.818 L9.918,4.663 C11.205,4.662 12.248,3.619 12.248,2.332 C12.248,1.044 11.204,-1.13686838e-13 9.916,-1.13686838e-13 C8.628,-1.13686838e-13 7.584,1.044 7.584,2.332 C7.584,2.914 7.8,3.445 8.152,3.854 L2.262,14.056 C1.007,14.094 -2.03392858e-13,15.12 -2.03392858e-13,16.385 C-2.03392858e-13,17.649 1.007,18.676 2.262,18.713 L8.034,28.71 C7.752,29.095 7.584,29.568 7.584,30.082 C7.584,31.37 8.628,32.414 9.916,32.414 C11.204,32.414 12.248,31.37 12.248,30.082 C12.248,28.794 11.204,27.75 9.916,27.75 C9.85,27.75 9.784,27.755 9.719,27.76 Z" id="Fill-83"></path>
                <path d="M36.564,16.385 C36.564,15.106 35.534,14.069 34.26,14.054 L28.386,3.881 C28.754,3.469 28.979,2.927 28.979,2.332 C28.979,1.044 27.935,-1.13686838e-13 26.647,-1.13686838e-13 C25.359,-1.13686838e-13 24.315,1.044 24.315,2.332 C24.315,3.605 25.336,4.638 26.604,4.661 L32.483,14.845 C32.121,15.256 31.9,15.794 31.9,16.385 C31.9,16.975 32.121,17.513 32.483,17.924 L26.806,27.758 C26.753,27.754 26.701,27.75 26.647,27.75 C25.359,27.75 24.315,28.794 24.315,30.082 C24.315,31.37 25.359,32.414 26.647,32.414 C27.935,32.414 28.979,31.37 28.979,30.082 C28.979,29.555 28.802,29.07 28.507,28.679 L34.26,18.715 C35.534,18.7 36.564,17.663 36.564,16.385" id="Fill-84"></path>
                <path d="M23.5781002,8.10414159 C23.1766295,7.88751346 22.6661388,8.01994273 22.4368505,8.39842886 L13.110444,23.8174467 C12.8811558,24.1959329 13.0204592,24.6790545 13.4210647,24.8956826 C13.8225353,25.1123107 14.3338913,24.9806989 14.5631796,24.6013953 L23.8895861,9.1831949 C24.1188743,8.80389132 23.9795709,8.32076972 23.5781002,8.10414159" id="Fill-85"></path>
            </g>
        </g>
    </g>
</svg>