<svg width="96" height="117" viewBox="0 0 96 117" fill="none" xmlns="http://www.w3.org/2000/svg">
<g opacity="0.8">
<g clip-path="url(#clip0_6184_19758)">
<rect x="31.8906" width="33.7344" height="33.7344" rx="16.8672" fill="#FF4D4F"/>
<path d="M50.6735 24.5469H47.4258V26.4782H50.6735V24.5469Z" fill="#F8BB94"/>
<g style="mix-blend-mode:multiply">
<path d="M49.4828 26.2171C48.8009 25.9991 48.2307 25.5743 48.1441 24.8253C48.1329 24.7218 48.1441 24.6296 48.172 24.543H47.4258V26.4743H50.6735V26.2311C50.2738 26.3317 49.8574 26.3345 49.4828 26.2143V26.2171Z" fill="#DADADA"/>
</g>
<path d="M57.1778 18.3512C57.1778 19.1506 56.507 19.7962 55.6797 19.7962C54.8524 19.7962 54.1816 19.1478 54.1816 18.3512C54.1816 17.5547 54.8524 16.9062 55.6797 16.9062C56.507 16.9062 57.1778 17.5547 57.1778 18.3512Z" fill="#F8BB94"/>
<g style="mix-blend-mode:multiply">
<path d="M55.8711 17.5465C55.8711 17.5465 55.9074 17.541 55.9717 17.5438C56.036 17.5438 56.131 17.5549 56.2372 17.5969C56.3434 17.636 56.4692 17.7114 56.5559 17.84C56.5782 17.8736 56.5922 17.9099 56.6117 17.9434C56.6257 17.9798 56.6369 18.0189 56.6453 18.058L56.6593 18.1782C56.6593 18.2173 56.6565 18.2565 56.6537 18.2956C56.6481 18.3683 56.6285 18.4493 56.6062 18.522C56.5838 18.5946 56.5503 18.6617 56.5139 18.726C56.4413 18.8518 56.3378 18.9496 56.2344 19.0055C56.1869 19.0362 56.1338 19.0502 56.0919 19.0642C56.0444 19.0726 56.008 19.081 55.9745 19.0838C55.9102 19.0838 55.8739 19.0838 55.8739 19.0838C55.8739 19.0838 55.9074 19.0698 55.9661 19.0474C55.9969 19.0362 56.0276 19.0139 56.0639 18.9971C56.0975 18.972 56.1394 18.9496 56.1729 18.9133C56.2093 18.8825 56.2456 18.8406 56.2792 18.7959C56.3127 18.7512 56.3406 18.7009 56.3686 18.645C56.3937 18.5891 56.4133 18.5304 56.4329 18.4689C56.4496 18.4046 56.4636 18.3459 56.4664 18.276L56.4748 18.181L56.4692 18.0888C56.4608 18.0608 56.4552 18.0301 56.4496 18.0021C56.4385 17.977 56.4301 17.949 56.4161 17.9239C56.3658 17.8232 56.2792 17.7478 56.1953 17.6919C56.1087 17.636 56.0304 17.5996 55.9717 17.5773C55.913 17.5549 55.8795 17.5438 55.8795 17.5438L55.8711 17.5465Z" fill="#DADADA"/>
</g>
<g style="mix-blend-mode:multiply">
<path d="M56.0644 18.4201C56.0644 18.5738 55.9554 18.6996 55.8213 18.6996C55.6871 18.6996 55.5781 18.5738 55.5781 18.4201C55.5781 18.2664 55.6871 18.1406 55.8213 18.1406C55.9554 18.1406 56.0644 18.2664 56.0644 18.4201Z" fill="#DADADA"/>
</g>
<path d="M41.127 18.3512C41.127 19.1506 41.7977 19.7962 42.6222 19.7962C43.4467 19.7962 44.1203 19.1478 44.1203 18.3512C44.1203 17.5547 43.4495 16.9062 42.6222 16.9062C41.7949 16.9062 41.127 17.5547 41.127 18.3512Z" fill="#F8BB94"/>
<g style="mix-blend-mode:multiply">
<path d="M42.4319 17.5465C42.4319 17.5465 42.3955 17.541 42.3312 17.5438C42.267 17.5438 42.1747 17.5549 42.0657 17.5969C41.9595 17.636 41.8337 17.7114 41.7471 17.84C41.7275 17.8736 41.7108 17.9099 41.6912 17.9434C41.6772 17.9798 41.666 18.0189 41.6577 18.058L41.6465 18.1782C41.6465 18.2173 41.6493 18.2565 41.6521 18.2956C41.6577 18.3683 41.6772 18.4493 41.6996 18.522C41.7219 18.5946 41.7555 18.6617 41.7918 18.726C41.8673 18.8518 41.9707 18.9496 42.0713 19.0055C42.1188 19.0362 42.1747 19.0502 42.2166 19.0642C42.2614 19.0726 42.3005 19.081 42.334 19.0838C42.4011 19.0838 42.4347 19.0838 42.4347 19.0838C42.4347 19.0838 42.4011 19.0698 42.3424 19.0474C42.3145 19.0362 42.2809 19.0139 42.2446 18.9971C42.2111 18.972 42.1691 18.9496 42.1356 18.9133C42.0993 18.8825 42.0629 18.8406 42.0294 18.7959C41.9959 18.7512 41.9679 18.7009 41.9427 18.645C41.9148 18.5891 41.8952 18.5304 41.8785 18.4689C41.8617 18.4046 41.8477 18.3459 41.8449 18.276L41.8393 18.181L41.8449 18.0888C41.8533 18.0608 41.8589 18.0301 41.8645 18.0021C41.8757 17.977 41.8841 17.949 41.898 17.9239C41.9511 17.8232 42.0378 17.7478 42.1188 17.6919C42.2027 17.636 42.2837 17.5996 42.3424 17.5773C42.4011 17.5549 42.4347 17.5438 42.4347 17.5438L42.4319 17.5465Z" fill="#DADADA"/>
</g>
<g style="mix-blend-mode:multiply">
<path d="M42.2402 18.4201C42.2402 18.5738 42.3492 18.6996 42.4834 18.6996C42.6176 18.6996 42.7266 18.5738 42.7266 18.4201C42.7266 18.2664 42.6176 18.1406 42.4834 18.1406C42.3492 18.1406 42.2402 18.2664 42.2402 18.4201Z" fill="#DADADA"/>
</g>
<path d="M55.6799 16.4442C55.6799 21.3549 53.3741 24.8039 49.0503 24.8039C44.7266 24.8039 42.418 21.3549 42.418 16.4442C42.418 11.5336 44.8104 7.55078 49.137 7.55078C53.4635 7.55078 55.6799 11.5336 55.6799 16.4442Z" fill="#F8BB94"/>
<path d="M47.4914 26.3984C47.4914 26.3984 43.3717 26.9434 41.8932 28.2235C40.3839 29.5288 39.9395 30.6579 39.3945 33.2376H58.7047C58.1625 30.6579 57.7153 29.5288 56.206 28.2235C54.7247 26.9434 50.6078 26.3984 50.6078 26.3984H47.4914Z" fill="#F8BB94"/>
<path d="M46.2477 26.6109C46.2477 26.6109 43.3745 26.9434 41.8932 28.2235C40.3839 29.5288 39.9395 30.6579 39.3945 33.2376H58.7047C58.1625 30.6579 57.7237 29.5204 56.206 28.2235C54.9539 27.1531 52.1422 26.6695 52.1422 26.6695L50.605 26.3984H47.4886L46.2449 26.6109H46.2477Z" fill="white"/>
<path d="M48.281 28.9039C48.281 28.9039 48.295 28.8815 48.3369 28.848C48.3202 28.8647 48.3006 28.8843 48.281 28.9039L47.75 33.236H50.3549L49.8238 28.9039L50.1816 27.417C50.3129 27.1934 50.3549 26.9362 50.2179 26.7126C50.0921 26.5086 49.9245 26.4024 49.7316 26.3493C49.427 26.2654 49.0664 26.3157 48.7422 26.3157C48.418 26.3157 48.1916 26.3437 47.9764 26.598C47.764 26.8524 47.75 27.1263 47.9205 27.417L48.2782 28.9039H48.281Z" fill="#E74645"/>
<g style="mix-blend-mode:multiply">
<path d="M48.2227 28.6758C48.2227 28.6758 49.3015 28.1727 49.8214 28.9078C49.8214 28.9078 49.0947 28.4941 48.2786 28.9078L48.2227 28.6758Z" fill="#C6C6C6"/>
</g>
<path d="M46.2477 26.6094C46.2477 26.6094 43.3745 26.942 41.8932 28.222C40.3839 29.5273 39.9395 30.6564 39.3945 33.2361H58.7047C58.1625 30.6564 57.7237 29.5189 56.206 28.222C54.9539 27.1516 52.1422 26.6681 52.1422 26.6681L49.0482 33.0601L46.2449 26.6094H46.2477Z" fill="#0D3953"/>
<path d="M46.286 26.6575L49.0502 33.0635L46.1127 31.1657L46.7751 30.031L43.4883 27.3171C43.4883 27.3171 45.3525 26.596 46.2888 26.6603L46.286 26.6575Z" fill="#031D2D"/>
<path d="M52.1448 26.6693L49.0508 33.0613L51.9882 31.1635L51.3259 30.0288L54.6127 27.3149C54.6127 27.3149 53.0783 26.6078 52.142 26.6721L52.1448 26.6693Z" fill="#031D2D"/>
<g style="mix-blend-mode:multiply">
<path d="M45.6719 26.668L48.1566 28.4008L47.9497 27.5344L45.6719 26.668Z" fill="#B2B2B2"/>
</g>
<g style="mix-blend-mode:multiply">
<path d="M52.6673 26.6992L49.9395 28.4377L50.1798 27.4259L52.6673 26.6992Z" fill="#B2B2B2"/>
</g>
<path d="M47.4251 25.8281L45.6699 26.6694L47.7466 27.9103L49.1999 26.3061L47.4251 25.8281Z" fill="white"/>
<g style="mix-blend-mode:multiply">
<path d="M47.4 26.4458C47.6571 26.211 47.9618 26.0517 48.3195 26.0685L47.4251 25.8281L45.6699 26.6666L47.2379 27.6029C47.0422 27.2256 47.0506 26.7616 47.4 26.443V26.4458Z" fill="#DADADA"/>
</g>
<path d="M50.9455 25.8281L52.7008 26.6694L50.6241 27.9103L49.168 26.3061L50.9455 25.8281Z" fill="white"/>
<g style="mix-blend-mode:multiply">
<path d="M50.9703 26.4458C50.7132 26.211 50.4085 26.0517 50.0508 26.0685L50.9452 25.8281L52.7004 26.6666L51.1324 27.6029C51.3281 27.2256 51.3197 26.7616 50.9703 26.443V26.4458Z" fill="#DADADA"/>
</g>
<path d="M42.4429 17.6414L43.1136 18.315L43.2422 12.9068C43.2422 12.9068 43.2869 10.0979 46.2691 10.0979C46.2691 10.0979 48.7175 11.3696 51.8338 10.3187C51.8338 10.3187 54.6232 9.87989 54.9502 12.7754L54.9278 18.424L55.6405 17.5436L55.6796 16.8085C55.6796 16.8085 56.1017 14.4244 55.6796 10.9252C55.6796 10.9252 55.1179 7.04863 51.6158 6.39182C51.6158 6.39182 45.8974 4.91889 43.4854 8.52155C43.4854 8.52155 41.6463 10.6709 42.1298 14.0332L42.4401 17.6442L42.4429 17.6414Z" fill="#956000"/>
</g>
<path d="M23.9102 6.43266C23.9102 7.27958 23.2248 7.96688 22.376 7.96688C21.5272 7.96688 20.8418 7.27958 20.8418 6.43266C20.8418 5.58574 21.5291 4.89844 22.376 4.89844C23.2229 4.89844 23.9102 5.58574 23.9102 6.43266Z" fill="#1DB2A8"/>
<path d="M26.4198 9.98333C26.4198 10.5636 25.9503 11.0331 25.37 11.0331C24.7898 11.0331 24.3203 10.5636 24.3203 9.98333C24.3203 9.40306 24.7898 8.93359 25.37 8.93359C25.9503 8.93359 26.4198 9.40306 26.4198 9.98333Z" fill="#E74645"/>
<path d="M30.3762 6.735C30.3762 7.74905 29.5537 8.57156 28.5377 8.57156C27.5218 8.57156 26.7012 7.74905 26.7012 6.735C26.7012 5.72095 27.5237 4.89844 28.5377 4.89844C29.5518 4.89844 30.3762 5.72095 30.3762 6.735Z" fill="#F9B233"/>
<g clip-path="url(#clip1_6184_19758)">
<rect x="56.0918" y="26.918" width="36.6758" height="36.6758" rx="18.3379" fill="#40A9FF"/>
<path d="M76.8512 53.6445H73.3203V55.7442H76.8512V53.6445Z" fill="#F8BB94"/>
<g style="mix-blend-mode:multiply">
<path d="M73.5248 55.2125C73.9411 54.7962 74.4789 54.5622 75.0684 54.5166C75.5728 54.4802 76.4327 54.5865 76.7032 54.0608C76.7457 53.9788 76.7974 53.915 76.8551 53.8694V53.6445H73.3242V55.4586C73.385 55.3735 73.4488 55.2884 73.5278 55.2125H73.5248Z" fill="#C6C6C6"/>
</g>
<path d="M83.9204 46.9108C83.9204 47.7799 83.1911 48.4818 82.2947 48.4818C81.3983 48.4818 80.666 47.7768 80.666 46.9108C80.666 46.0448 81.3953 45.3398 82.2947 45.3398C83.1942 45.3398 83.9204 46.0448 83.9204 46.9108Z" fill="#F8BB94"/>
<g style="mix-blend-mode:multiply">
<path d="M82.502 46.039C82.502 46.039 82.5415 46.033 82.6113 46.036C82.6812 46.039 82.7815 46.0482 82.9 46.0937C83.0155 46.1363 83.1522 46.2183 83.2464 46.3611C83.2707 46.3946 83.2859 46.4341 83.3072 46.4736C83.3224 46.5131 83.3345 46.5556 83.3467 46.5982L83.3588 46.7288C83.3588 46.7714 83.3558 46.8139 83.3528 46.8564C83.3467 46.9385 83.3254 47.0236 83.3011 47.0995C83.2768 47.1785 83.2403 47.2515 83.2008 47.3213C83.1188 47.4581 83.0094 47.5644 82.897 47.6252C82.8453 47.6586 82.7876 47.6738 82.742 47.689C82.6903 47.6981 82.6508 47.7103 82.6144 47.7103C82.5415 47.7103 82.505 47.7103 82.505 47.7103C82.505 47.7103 82.5415 47.6951 82.6053 47.6708C82.6357 47.6586 82.6691 47.6343 82.7116 47.6161C82.7481 47.5887 82.7937 47.5644 82.8301 47.528C82.8727 47.4945 82.9091 47.449 82.9456 47.4003C82.9821 47.3517 83.0124 47.294 83.0428 47.2363C83.0702 47.1755 83.0945 47.1117 83.1127 47.0448C83.1309 46.9749 83.1461 46.9111 83.1492 46.8352L83.1583 46.7319L83.1492 46.6316C83.1401 46.6012 83.134 46.5678 83.1279 46.5374C83.1158 46.51 83.1066 46.4796 83.0914 46.4523C83.0337 46.3429 82.9426 46.2609 82.8514 46.2001C82.7602 46.1393 82.6721 46.0998 82.6083 46.0755C82.5475 46.0512 82.508 46.039 82.508 46.039H82.502Z" fill="#DADADA"/>
</g>
<g style="mix-blend-mode:multiply">
<path d="M82.7123 46.9875C82.7123 47.1546 82.5938 47.2913 82.448 47.2913C82.3021 47.2913 82.1836 47.1546 82.1836 46.9875C82.1836 46.8203 82.3021 46.6836 82.448 46.6836C82.5938 46.6836 82.7123 46.8203 82.7123 46.9875Z" fill="#DADADA"/>
</g>
<path d="M66.4727 46.9108C66.4727 47.7799 67.2019 48.4818 68.0983 48.4818C68.9947 48.4818 69.724 47.7768 69.724 46.9108C69.724 46.0448 68.9947 45.3398 68.0983 45.3398C67.2019 45.3398 66.4727 46.0448 66.4727 46.9108Z" fill="#F8BB94"/>
<g style="mix-blend-mode:multiply">
<path d="M67.891 46.039C67.891 46.039 67.8515 46.033 67.7816 46.036C67.7117 46.039 67.6114 46.0482 67.4929 46.0937C67.3774 46.1363 67.2407 46.2183 67.1465 46.3611C67.1222 46.3946 67.107 46.4341 67.0857 46.4736C67.0736 46.5131 67.0614 46.5556 67.0493 46.5982L67.0371 46.7288C67.0371 46.7714 67.0371 46.8139 67.0432 46.8564C67.0493 46.9385 67.0705 47.0236 67.0948 47.0995C67.1192 47.1785 67.1556 47.2515 67.1951 47.3213C67.2772 47.4581 67.3896 47.5644 67.499 47.6252C67.5537 47.6586 67.6114 47.6738 67.657 47.689C67.7056 47.6981 67.7481 47.7103 67.7846 47.7103C67.8575 47.7103 67.894 47.7103 67.894 47.7103C67.894 47.7103 67.8575 47.6951 67.7937 47.6708C67.7633 47.6586 67.7299 47.6343 67.6874 47.6161C67.6509 47.5887 67.6053 47.5644 67.5689 47.528C67.5263 47.4945 67.4899 47.449 67.4534 47.4003C67.4169 47.3517 67.3866 47.294 67.3562 47.2363C67.3258 47.1755 67.3075 47.1117 67.2863 47.0448C67.268 46.9749 67.2529 46.9111 67.2498 46.8352L67.2407 46.7319L67.2468 46.6316C67.2559 46.6012 67.262 46.5678 67.268 46.5374C67.2802 46.51 67.2893 46.4796 67.3045 46.4523C67.3622 46.3429 67.4564 46.2609 67.5446 46.2001C67.6357 46.1393 67.7238 46.0998 67.7877 46.0755C67.8515 46.0512 67.8879 46.039 67.8879 46.039H67.891Z" fill="#DADADA"/>
</g>
<g style="mix-blend-mode:multiply">
<path d="M67.6816 46.9875C67.6816 47.1546 67.8001 47.2913 67.946 47.2913C68.0919 47.2913 68.2104 47.1546 68.2104 46.9875C68.2104 46.8203 68.0919 46.6836 67.946 46.6836C67.8001 46.6836 67.6816 46.8203 67.6816 46.9875Z" fill="#DADADA"/>
</g>
<path d="M82.2933 44.8369C82.2933 50.1757 79.7864 53.9254 75.0857 53.9254C70.3849 53.9254 67.875 50.1757 67.875 44.8369C67.875 39.498 70.4761 35.168 75.1799 35.168C79.8836 35.168 82.2933 39.498 82.2933 44.8369Z" fill="#F8BB94"/>
<path d="M73.3908 55.6602C73.3908 55.6602 68.9119 56.2527 67.3044 57.6444C65.6636 59.0634 65.1804 60.291 64.5879 63.0957H85.5817C84.9892 60.291 84.5061 59.0634 82.8652 57.6444C81.2547 56.2527 76.7789 55.6602 76.7789 55.6602H73.3908Z" fill="#F8BB94"/>
<path d="M71.0122 56.1145C71.0122 56.1145 71.4953 55.9109 69.7268 56.467C70.213 60.8669 69.4199 63.0942 69.4199 63.0942H80.9819C79.8606 59.3628 80.9819 56.6493 80.9819 56.6493L79.9123 56.2634C79.9123 56.2634 79.812 61.6235 75.011 61.2498C75.011 61.2498 70.8511 61.657 71.0091 56.1145H71.0122Z" fill="#00B1C3"/>
<path d="M72.6279 34.9913C72.6279 34.9913 67.4622 35.1676 66.4747 43.3323C66.4747 43.3323 65.5114 50.0599 68.7719 55.7937C68.7719 55.7937 70.9506 55.4565 73.3237 55.6661V53.7275C73.3237 53.7275 68.4407 52.8675 68.5045 46.4773C68.5045 46.4773 68.5379 39.1026 72.2845 37.7048L72.6309 34.9883L72.6279 34.9913Z" fill="#732400"/>
<path d="M77.5444 34.9922C77.5444 34.9922 83.4028 34.9011 84.3904 43.0689C84.3904 43.0689 84.8978 48.5323 81.4034 55.7977C81.4034 55.7977 79.2247 55.4604 76.8516 55.6701V53.7314C76.8516 53.7314 81.7346 52.8715 81.6739 46.4813C81.6739 46.4813 81.6435 39.1065 77.8908 37.7088L77.5474 34.9922H77.5444Z" fill="#732400"/>
<path d="M70.5518 37.0618C70.5518 37.0618 73.8821 42.3702 80.8193 41.8598L82.1836 45.3359L83.5358 45.8981C83.5358 45.8981 85.5808 45.3359 83.4538 37.0618C83.4538 37.0618 81.2568 31.0119 73.3169 32.8107C73.3169 32.8107 69.3606 33.5339 70.5487 37.0618H70.5518Z" fill="#732400"/>
</g>
<g clip-path="url(#clip2_6184_19758)">
<rect x="0.324219" y="31.7031" width="55.7676" height="55.7676" rx="27.8838" fill="#FF7A45"/>
<path d="M31.8709 74.0273H26.502V77.22H31.8709V74.0273Z" fill="#F8BB94"/>
<g style="mix-blend-mode:multiply">
<path d="M26.8069 76.3998C27.4399 75.7668 28.2577 75.411 29.1541 75.3417C29.9211 75.2862 31.2286 75.4479 31.6398 74.6486C31.7045 74.5239 31.7831 74.4268 31.8709 74.3575V74.0156H26.502V76.774C26.5944 76.6446 26.6914 76.5199 26.8069 76.3998Z" fill="#C6C6C6"/>
</g>
<path d="M42.6203 63.7755C42.6203 65.0923 41.5114 66.1642 40.1484 66.1642C38.7854 66.1642 37.6719 65.0923 37.6719 63.7755C37.6719 62.4587 38.7808 61.3867 40.1484 61.3867C41.516 61.3867 42.6203 62.4587 42.6203 63.7755Z" fill="#F8BB94"/>
<g style="mix-blend-mode:multiply">
<path d="M40.4616 62.4473C40.4616 62.4473 40.5217 62.4381 40.628 62.4427C40.7343 62.4427 40.8914 62.4612 41.0669 62.5305C41.2425 62.5952 41.4504 62.7199 41.5937 62.9371C41.6306 62.9879 41.6537 63.0526 41.6861 63.108C41.7092 63.1681 41.7276 63.2328 41.7415 63.2975L41.7646 63.4962C41.7646 63.5608 41.7554 63.6255 41.7554 63.6902C41.7461 63.815 41.7138 63.9443 41.6768 64.0645C41.6399 64.1846 41.5844 64.2955 41.5243 64.4017C41.3996 64.6097 41.2333 64.7714 41.0577 64.8638C40.9791 64.9146 40.8913 64.9377 40.8174 64.9608C40.7435 64.9747 40.6788 64.9932 40.6234 64.9932C40.5171 64.9932 40.457 64.9932 40.457 64.9932C40.457 64.9932 40.5125 64.9701 40.6095 64.9331C40.6557 64.9146 40.7111 64.8776 40.7712 64.8499C40.8267 64.8083 40.896 64.7714 40.9514 64.7113C41.0115 64.6605 41.0715 64.5912 41.127 64.5173C41.1824 64.4433 41.2286 64.3555 41.2702 64.2678C41.3118 64.1753 41.3488 64.0783 41.3765 63.9767C41.4042 63.8704 41.4273 63.7734 41.4319 63.6579L41.4458 63.5008L41.4366 63.3483C41.4227 63.3021 41.4135 63.2513 41.4042 63.2051C41.3857 63.1635 41.3719 63.1127 41.3488 63.0757C41.261 62.9094 41.1224 62.7846 40.9838 62.6922C40.8405 62.5998 40.7065 62.5397 40.6141 62.5028C40.5171 62.4658 40.4616 62.4473 40.4616 62.4473Z" fill="#DADADA"/>
</g>
<g style="mix-blend-mode:multiply">
<path d="M40.7825 63.8956C40.7825 64.1498 40.6023 64.3577 40.3805 64.3577C40.1587 64.3577 39.9785 64.1498 39.9785 63.8956C39.9785 63.6415 40.1587 63.4336 40.3805 63.4336C40.6023 63.4336 40.7825 63.6415 40.7825 63.8956Z" fill="#DADADA"/>
</g>
<path d="M16.0879 63.7755C16.0879 65.0923 17.1968 66.1642 18.5598 66.1642C19.9228 66.1642 21.0363 65.0923 21.0363 63.7755C21.0363 62.4587 19.9274 61.3867 18.5598 61.3867C17.1922 61.3867 16.0879 62.4587 16.0879 63.7755Z" fill="#F8BB94"/>
<g style="mix-blend-mode:multiply">
<path d="M18.2483 62.4473C18.2483 62.4473 18.1882 62.4381 18.0819 62.4427C17.9757 62.4427 17.8232 62.4612 17.643 62.5305C17.4674 62.5952 17.2595 62.7199 17.1163 62.9371C17.0793 62.9879 17.0562 63.0526 17.0239 63.108C17.0008 63.1681 16.9823 63.2328 16.9638 63.2975L16.9453 63.4962C16.9453 63.5608 16.9453 63.6255 16.9499 63.6902C16.9592 63.815 16.9915 63.9443 17.0285 64.0645C17.0654 64.1846 17.1209 64.2955 17.181 64.4017C17.3057 64.6097 17.4767 64.7714 17.6476 64.8638C17.7262 64.9146 17.8139 64.9377 17.8879 64.9608C17.9618 64.9747 18.0265 64.9932 18.0819 64.9932C18.1882 64.9932 18.2483 64.9932 18.2483 64.9932C18.2483 64.9932 18.1928 64.9701 18.0958 64.9331C18.0496 64.9146 17.9988 64.8776 17.9341 64.8499C17.8786 64.8083 17.8139 64.7714 17.7539 64.7113C17.6938 64.6605 17.6338 64.5912 17.5783 64.5173C17.5229 64.4433 17.4767 64.3555 17.4351 64.2678C17.3935 64.1753 17.3565 64.0783 17.3288 63.9767C17.3011 63.8704 17.278 63.7734 17.2734 63.6579L17.2595 63.5008L17.2687 63.3483C17.2826 63.3021 17.2918 63.2513 17.3011 63.2051C17.3196 63.1635 17.3334 63.1127 17.3565 63.0757C17.4443 62.9094 17.5875 62.7846 17.7215 62.6922C17.8602 62.5998 17.9941 62.5397 18.0912 62.5028C18.1882 62.4658 18.2436 62.4473 18.2436 62.4473H18.2483Z" fill="#DADADA"/>
</g>
<g style="mix-blend-mode:multiply">
<path d="M17.9219 63.8956C17.9219 64.1498 18.1021 64.3577 18.3238 64.3577C18.5456 64.3577 18.7258 64.1498 18.7258 63.8956C18.7258 63.6415 18.5456 63.4336 18.3238 63.4336C18.1021 63.4336 17.9219 63.6415 17.9219 63.8956Z" fill="#DADADA"/>
</g>
<path d="M40.1445 60.6279C40.1445 68.7459 36.3327 74.4475 29.1803 74.4475C22.0279 74.4475 18.2207 68.7459 18.2207 60.6279C18.2207 52.5098 22.1758 45.9258 29.3281 45.9258C36.4805 45.9258 40.1445 52.5098 40.1445 60.6279Z" fill="#F8BB94"/>
<path d="M26.608 77.082C26.608 77.082 19.7975 77.983 17.3533 80.0992C14.8583 82.2569 14.1236 84.1235 13.2227 88.3881H45.145C44.2486 84.1235 43.5094 82.2569 41.0144 80.0992C38.5655 77.983 31.7551 77.082 31.7551 77.082H26.6033H26.608Z" fill="#F8BB94"/>
<path d="M23.9928 77.5508C23.9928 77.5508 19.8021 77.9851 17.3533 80.1012C14.8583 82.259 14.1236 84.1256 13.2227 88.3902H45.145C44.2486 84.1256 43.5094 82.259 41.0144 80.1012C38.5655 77.9851 34.3933 77.5554 34.3933 77.5554L29.1815 82.7395L23.9882 77.5508H23.9928Z" fill="#373C47"/>
<path d="M17.9227 56.163L18.3201 62.7886L19.2904 63.0612C18.4402 52.365 24.0725 49.9162 24.0725 49.9162L25.648 43.2212C20.8336 43.1057 18.7267 47.0423 18.7267 47.0423C18.7267 47.0423 16.9432 48.8535 17.9227 56.1584V56.163Z" fill="#432918"/>
<path d="M17.9772 57.0208C17.9772 57.0208 17.7785 56.1845 17.6076 54.9278C17.5152 54.2994 17.432 53.5648 17.3581 52.7747C17.3257 52.3819 17.2795 51.9753 17.261 51.5595C17.2472 51.3516 17.2379 51.1437 17.2241 50.9357L17.2148 50.7787V50.7602V50.7001V50.6585V50.58L17.2241 50.2658C17.2241 50.0625 17.2657 49.8269 17.3026 49.5958C17.335 49.3602 17.3904 49.143 17.4505 48.9305C17.4828 48.8242 17.5059 48.7133 17.5383 48.6117L17.6584 48.3067C17.7323 48.1034 17.8247 47.9094 17.9218 47.7246C18.0142 47.5351 18.1112 47.3549 18.2221 47.1886C18.3284 47.0176 18.4392 46.8606 18.5548 46.7081C18.7765 46.3985 19.0168 46.1352 19.2478 45.9088C19.4742 45.6731 19.7006 45.4791 19.9085 45.3173C20.1118 45.151 20.3059 45.0216 20.463 44.92C20.7818 44.7167 20.9758 44.6289 20.9758 44.6289C20.9758 44.6289 20.3706 45.2434 19.6683 46.2599C19.5805 46.3847 19.4927 46.5186 19.4095 46.6619C19.3217 46.8005 19.2293 46.9437 19.1508 47.1008C19.063 47.2533 18.9798 47.4104 18.9059 47.5767C18.8274 47.7384 18.7442 47.9048 18.6795 48.0803C18.6056 48.2513 18.5363 48.4269 18.4855 48.6117C18.4254 48.7919 18.3699 48.9767 18.3284 49.1661C18.2775 49.3556 18.236 49.5404 18.2175 49.7252C18.1897 49.91 18.162 50.0856 18.162 50.3074L18.1435 50.6216V50.7001L18.1389 50.7417C18.1389 50.7417 18.1389 50.6724 18.1389 50.7094V50.7186V50.7371V50.8942C18.1528 51.1021 18.1574 51.3146 18.1666 51.5225C18.1851 51.9384 18.1759 52.345 18.1805 52.7423C18.1805 53.5324 18.1666 54.2717 18.1343 54.9093C18.0789 56.1799 17.9587 57.0301 17.9587 57.0301L17.9772 57.0208Z" fill="#2A1807"/>
<g style="mix-blend-mode:multiply">
<path d="M23.4206 50.3061C23.4206 50.3061 26.8074 56.1463 37.6699 55.846C37.6699 55.846 35.637 53.4434 36.6488 52.3021C36.6488 52.3021 26.1236 47.2982 23.416 50.3061H23.4206Z" fill="#C6C6C6"/>
</g>
<path d="M40.3633 57.4591L39.9659 64.0848L39.0002 64.3574C39.8504 53.6612 34.2181 51.217 34.2181 51.217L32.6426 44.522C37.457 44.4065 39.5639 48.3431 39.5639 48.3431C39.5639 48.3431 41.3474 50.1543 40.3633 57.4591Z" fill="#432918"/>
<path d="M21.6367 44.2046C21.6367 44.2046 23.1984 41.0212 28.8076 40.1525C28.8076 40.1525 38.1408 39.0298 41.1163 45.5076C41.1163 45.5076 42.6226 48.6263 42.0774 54.1108C42.0774 54.1108 41.5137 51.6435 39.9843 50.821C39.9843 50.821 39.7302 53.7411 35.7012 51.9438C35.7012 51.9438 35.059 53.1405 36.4682 55.2705C36.4682 55.2705 23.4248 55.2705 21.6413 44.2046H21.6367Z" fill="#432918"/>
<path d="M21.6367 44.2043C21.6367 44.2043 21.7615 43.8624 22.1265 43.3449C22.3159 43.0908 22.5516 42.7812 22.875 42.4763C23.0275 42.3146 23.2123 42.1667 23.3971 41.9958C23.5912 41.8433 23.8037 41.6769 24.0301 41.5245C24.4875 41.2195 25.0004 40.9053 25.5825 40.6605C26.1555 40.3971 26.7838 40.1707 27.4492 39.9951C27.7772 39.8889 28.1238 39.8426 28.4703 39.7595L28.729 39.704L29.0201 39.6671C29.2003 39.6486 29.3805 39.6394 29.5607 39.6301C30.2815 39.5931 31.0115 39.5978 31.7369 39.644C32.4669 39.6994 33.1923 39.7964 33.8993 39.9397C34.6062 40.0783 35.29 40.2862 35.9369 40.5311C36.5837 40.7713 37.1844 41.0763 37.725 41.4043C38.2748 41.7278 38.7414 42.1113 39.1434 42.4855C39.55 42.8598 39.8734 43.2525 40.1322 43.6129C40.3909 43.9733 40.585 44.3106 40.7236 44.5924C40.8761 44.8696 40.9546 45.1053 41.0147 45.2624C41.0747 45.4195 41.1071 45.5026 41.1071 45.5026C41.1071 45.5026 41.0609 45.4287 40.9685 45.2855C40.8807 45.1422 40.7513 44.9389 40.5619 44.6894C40.3863 44.4353 40.1414 44.1535 39.8503 43.8393C39.7025 43.6868 39.5454 43.5251 39.3652 43.3726C39.1896 43.2109 38.9956 43.0538 38.7923 42.8967C38.3764 42.5918 37.9051 42.2822 37.3784 42.0189C36.8517 41.7509 36.2695 41.5199 35.6596 41.3166C35.0451 41.1133 34.3936 40.97 33.7237 40.8407C33.0537 40.7159 32.3653 40.6374 31.6722 40.5912C30.9792 40.5357 30.2815 40.5218 29.6023 40.545C29.4313 40.5542 29.265 40.5634 29.094 40.5727L28.8676 40.5865L28.6181 40.6281C28.2901 40.6882 27.9574 40.7205 27.6479 40.8037C27.0149 40.9469 26.405 41.0994 25.8505 41.3073C25.7119 41.3581 25.5733 41.409 25.4393 41.4598C25.3053 41.5152 25.1759 41.5753 25.0512 41.6307C24.7878 41.7324 24.5522 41.8664 24.3212 41.9819C23.8638 42.2314 23.4572 42.4855 23.1199 42.7396C22.778 42.9938 22.5007 43.2433 22.279 43.4558C22.0618 43.6776 21.8955 43.8532 21.7938 43.9871C21.6875 44.1165 21.6413 44.1951 21.6413 44.1951L21.6367 44.2043Z" fill="#2A1807"/>
</g>
<rect x="21.0312" y="88.8438" width="27.3477" height="27.3477" rx="13.6738" fill="#FFA940"/>
<path d="M41.3524 103.7C41.3524 103.7 39.6213 109.553 36.5625 109.92V108.585C36.5625 108.585 39.6983 102.74 41.3524 103.7Z" fill="#432918"/>
<path d="M36.6172 108.422H33.9844V109.988H36.6172V108.422Z" fill="#F8BB94"/>
<g style="mix-blend-mode:multiply">
<path d="M34.1339 109.587C34.4466 109.277 34.8454 109.102 35.2849 109.068C35.6611 109.039 36.3023 109.12 36.5039 108.728C36.5334 108.667 36.5742 108.62 36.6172 108.586V108.418H33.9844V109.771C34.0297 109.707 34.0773 109.644 34.1339 109.587Z" fill="#C6C6C6"/>
</g>
<path d="M41.8876 103.402C41.8876 104.048 41.3438 104.573 40.6731 104.573C40.0025 104.573 39.4609 104.048 39.4609 103.402C39.4609 102.756 40.0047 102.23 40.6731 102.23C41.3415 102.23 41.8876 102.756 41.8876 103.402Z" fill="#F8BB94"/>
<g style="mix-blend-mode:multiply">
<path d="M40.8307 102.749C40.8307 102.749 40.8602 102.744 40.9123 102.747C40.9644 102.749 41.0392 102.756 41.1275 102.79C41.2136 102.821 41.3156 102.883 41.3858 102.989C41.4017 103.014 41.4153 103.044 41.4289 103.073C41.4402 103.102 41.4493 103.134 41.4583 103.166L41.4674 103.263C41.4674 103.295 41.4674 103.327 41.4629 103.358C41.4583 103.42 41.4425 103.483 41.4243 103.54C41.4062 103.599 41.379 103.653 41.3496 103.705C41.2884 103.807 41.2046 103.886 41.1207 103.932C41.0822 103.957 41.0392 103.968 41.0029 103.979C40.9644 103.986 40.9349 103.995 40.9077 103.995C40.8534 103.995 40.8262 103.995 40.8262 103.995C40.8262 103.995 40.8534 103.984 40.9009 103.966C40.9236 103.957 40.9508 103.939 40.9802 103.925C41.0074 103.905 41.0392 103.886 41.0686 103.859C41.0981 103.834 41.1275 103.8 41.1547 103.764C41.1819 103.728 41.2046 103.685 41.2249 103.642C41.2476 103.596 41.2635 103.549 41.2771 103.499C41.2907 103.447 41.302 103.399 41.3043 103.343L41.311 103.266L41.3065 103.191C41.2997 103.168 41.2952 103.143 41.2907 103.121C41.2816 103.1 41.2748 103.078 41.2635 103.057C41.2204 102.976 41.1502 102.914 41.0822 102.869C41.0142 102.824 40.9485 102.797 40.9009 102.776C40.8534 102.758 40.8262 102.749 40.8262 102.749H40.8307Z" fill="#DADADA"/>
</g>
<g style="mix-blend-mode:multiply">
<path d="M40.986 103.457C40.986 103.582 40.8977 103.684 40.7889 103.684C40.6802 103.684 40.5918 103.582 40.5918 103.457C40.5918 103.332 40.6802 103.23 40.7889 103.23C40.8977 103.23 40.986 103.332 40.986 103.457Z" fill="#DADADA"/>
</g>
<path d="M28.877 103.402C28.877 104.048 29.4207 104.573 30.0891 104.573C30.7576 104.573 31.3036 104.048 31.3036 103.402C31.3036 102.756 30.7598 102.23 30.0891 102.23C29.4185 102.23 28.877 102.756 28.877 103.402Z" fill="#F8BB94"/>
<g style="mix-blend-mode:multiply">
<path d="M29.9358 102.749C29.9358 102.749 29.9064 102.744 29.8543 102.747C29.8021 102.749 29.7274 102.756 29.639 102.79C29.5529 102.821 29.4509 102.883 29.3807 102.989C29.3626 103.014 29.3513 103.044 29.3354 103.073C29.3241 103.102 29.315 103.134 29.3082 103.166L29.2969 103.263C29.2969 103.295 29.2969 103.327 29.3014 103.358C29.3059 103.42 29.3218 103.483 29.3399 103.54C29.3581 103.599 29.3852 103.653 29.4147 103.705C29.4759 103.807 29.5574 103.886 29.6435 103.932C29.6821 103.957 29.7251 103.968 29.7591 103.979C29.7953 103.986 29.8271 103.995 29.8543 103.995C29.9064 103.995 29.9358 103.995 29.9358 103.995C29.9358 103.995 29.9086 103.984 29.8611 103.966C29.8384 103.957 29.8112 103.939 29.7818 103.925C29.7546 103.905 29.7206 103.886 29.6934 103.859C29.6617 103.834 29.6345 103.8 29.6073 103.764C29.5801 103.728 29.5574 103.685 29.5348 103.642C29.5144 103.596 29.4985 103.549 29.4827 103.499C29.4691 103.447 29.4577 103.399 29.4555 103.343L29.4487 103.266L29.4532 103.191C29.46 103.168 29.4645 103.143 29.4691 103.121C29.4781 103.1 29.4849 103.078 29.4963 103.057C29.5393 102.976 29.6073 102.914 29.6753 102.869C29.7432 102.824 29.8089 102.797 29.8565 102.776C29.9041 102.758 29.9336 102.749 29.9336 102.749H29.9358Z" fill="#DADADA"/>
</g>
<g style="mix-blend-mode:multiply">
<path d="M29.7754 103.457C29.7754 103.582 29.8638 103.684 29.9725 103.684C30.0813 103.684 30.1696 103.582 30.1696 103.457C30.1696 103.332 30.0813 103.23 29.9725 103.23C29.8638 103.23 29.7754 103.332 29.7754 103.457Z" fill="#DADADA"/>
</g>
<path d="M40.6766 101.85C40.6766 105.831 38.8096 108.627 35.3022 108.627C31.7947 108.627 29.9277 105.831 29.9277 101.85C29.9277 97.8694 31.8672 94.6406 35.3747 94.6406C38.8821 94.6406 40.6789 97.8694 40.6789 101.85H40.6766Z" fill="#F8BB94"/>
<path d="M34.0366 109.918C34.0366 109.918 30.6991 110.36 29.4983 111.398C28.2747 112.456 27.9122 113.371 27.4727 115.462H43.1292C42.6896 113.371 42.3271 112.456 41.1036 111.398C39.9027 110.36 36.5652 109.918 36.5652 109.918H34.0389H34.0366Z" fill="#F8BB94"/>
<path d="M36.5619 109.918C36.5619 109.918 38.2817 110.145 39.6978 110.657C39.6978 110.657 38.8617 112.68 39.6978 115.462H31.0742C31.0742 115.462 31.6679 113.765 31.3008 110.521C32.6195 110.104 34.0333 109.918 34.0333 109.918L35.2433 112.272L36.5597 109.918H36.5619Z" fill="#E74645"/>
<path d="M40.8734 102.241C39.0608 101.797 38.1817 99.5448 38.1817 99.5448C38.082 100.114 38.2406 100.635 38.2406 100.635C34.9756 99.1166 32.9727 96.699 32.9727 96.699C31.3051 94.6394 33.9832 93.2867 33.9832 93.2867C38.2814 91.7687 40.1303 94.6394 40.1303 94.6394C40.1303 94.6394 43.1845 97.4014 41.6801 102.74C41.6801 102.74 41.4671 102.386 40.8712 102.239L40.8734 102.241Z" fill="#432918"/>
<path d="M33.4648 94.5084C33.4648 94.5084 29.613 94.6399 28.8744 100.728C28.8744 100.728 27.8095 111.867 32.8078 113.763C32.8078 113.763 32.4792 110.611 33.9814 109.923V108.477C33.9814 108.477 30.3381 107.836 30.3856 103.071C30.3856 103.071 30.4083 97.5718 33.2065 96.5295L33.4648 94.5039V94.5084Z" fill="#432918"/>
<path d="M41.0807 104.523C41.0807 104.747 40.8994 104.928 40.6751 104.928C40.4508 104.928 40.2695 104.747 40.2695 104.523C40.2695 104.298 40.4508 104.117 40.6751 104.117C40.8994 104.117 41.0807 104.298 41.0807 104.523Z" fill="white"/>
<g clip-path="url(#clip3_6184_19758)">
<rect x="68.8418" y="11.0312" width="12.7539" height="12.7539" rx="6.37695" fill="#FFA940"/>
<path d="M78.474 17.6904C78.474 17.6904 77.6667 20.4198 76.2402 20.5909V19.9686C76.2402 19.9686 77.7027 17.2423 78.474 17.6904Z" fill="#432918"/>
<path d="M76.2669 19.8945H75.0391V20.6247H76.2669V19.8945Z" fill="#F8BB94"/>
<g style="mix-blend-mode:multiply">
<path d="M75.1088 20.4359C75.2546 20.2911 75.4406 20.2097 75.6456 20.1939C75.821 20.1802 76.12 20.2182 76.2141 20.0354C76.2278 20.0069 76.2468 19.9847 76.2669 19.9688V19.8906H75.0391V20.5215C75.0602 20.4919 75.0824 20.4623 75.1088 20.4359Z" fill="#C6C6C6"/>
</g>
<path d="M78.7235 17.5541C78.7235 17.8553 78.4699 18.1004 78.1571 18.1004C77.8443 18.1004 77.5918 17.8553 77.5918 17.5541C77.5918 17.253 77.8454 17.0078 78.1571 17.0078C78.4688 17.0078 78.7235 17.253 78.7235 17.5541Z" fill="#F8BB94"/>
<g style="mix-blend-mode:multiply">
<path d="M78.2306 17.2514C78.2306 17.2514 78.2444 17.2492 78.2687 17.2503C78.293 17.2514 78.3278 17.2545 78.3691 17.2704C78.4092 17.2852 78.4568 17.3137 78.4895 17.3634C78.4969 17.375 78.5033 17.3887 78.5096 17.4025C78.5149 17.4162 78.5191 17.431 78.5233 17.4458L78.5276 17.4912C78.5276 17.506 78.5276 17.5208 78.5254 17.5356C78.5233 17.5641 78.5159 17.5937 78.5075 17.6201C78.499 17.6476 78.4863 17.673 78.4726 17.6973C78.4441 17.7448 78.405 17.7818 78.3659 17.8029C78.3479 17.8146 78.3278 17.8198 78.3109 17.8251C78.293 17.8283 78.2792 17.8325 78.2666 17.8325C78.2412 17.8325 78.2285 17.8325 78.2285 17.8325C78.2285 17.8325 78.2412 17.8272 78.2634 17.8188C78.274 17.8146 78.2866 17.8061 78.3004 17.7998C78.313 17.7903 78.3278 17.7818 78.3416 17.7691C78.3553 17.7575 78.3691 17.7416 78.3817 17.7247C78.3944 17.7078 78.405 17.6878 78.4145 17.6677C78.4251 17.6465 78.4325 17.6244 78.4388 17.6011C78.4451 17.5768 78.4504 17.5546 78.4515 17.5282L78.4546 17.4923L78.4525 17.4574C78.4494 17.4468 78.4472 17.4352 78.4451 17.4246C78.4409 17.4151 78.4377 17.4046 78.4325 17.3951C78.4124 17.357 78.3796 17.3285 78.3479 17.3074C78.3162 17.2862 78.2856 17.2735 78.2634 17.264C78.2412 17.2556 78.2285 17.2514 78.2285 17.2514H78.2306Z" fill="#DADADA"/>
</g>
<g style="mix-blend-mode:multiply">
<path d="M78.303 17.5783C78.303 17.6364 78.2618 17.684 78.2111 17.684C78.1604 17.684 78.1191 17.6364 78.1191 17.5783C78.1191 17.5202 78.1604 17.4727 78.2111 17.4727C78.2618 17.4727 78.303 17.5202 78.303 17.5783Z" fill="#DADADA"/>
</g>
<path d="M72.6582 17.5541C72.6582 17.8553 72.9118 18.1004 73.2235 18.1004C73.5352 18.1004 73.7899 17.8553 73.7899 17.5541C73.7899 17.253 73.5363 17.0078 73.2235 17.0078C72.9107 17.0078 72.6582 17.253 72.6582 17.5541Z" fill="#F8BB94"/>
<g style="mix-blend-mode:multiply">
<path d="M73.1515 17.2514C73.1515 17.2514 73.1378 17.2492 73.1135 17.2503C73.0892 17.2514 73.0543 17.2545 73.0131 17.2704C72.9729 17.2852 72.9254 17.3137 72.8926 17.3634C72.8842 17.375 72.8789 17.3887 72.8715 17.4025C72.8662 17.4162 72.862 17.431 72.8588 17.4458L72.8535 17.4912C72.8535 17.506 72.8535 17.5208 72.8556 17.5356C72.8577 17.5641 72.8651 17.5937 72.8736 17.6201C72.882 17.6476 72.8947 17.673 72.9085 17.6973C72.937 17.7448 72.975 17.7818 73.0152 17.8029C73.0332 17.8146 73.0532 17.8198 73.0691 17.8251C73.086 17.8283 73.1008 17.8325 73.1135 17.8325C73.1378 17.8325 73.1515 17.8325 73.1515 17.8325C73.1515 17.8325 73.1388 17.8272 73.1166 17.8188C73.1061 17.8146 73.0934 17.8061 73.0796 17.7998C73.067 17.7903 73.0511 17.7818 73.0384 17.7691C73.0236 17.7575 73.011 17.7416 72.9983 17.7247C72.9856 17.7078 72.975 17.6878 72.9645 17.6677C72.955 17.6465 72.9476 17.6244 72.9402 17.6011C72.9338 17.5768 72.9285 17.5546 72.9275 17.5282L72.9243 17.4923L72.9264 17.4574C72.9296 17.4468 72.9317 17.4352 72.9338 17.4246C72.938 17.4151 72.9412 17.4046 72.9465 17.3951C72.9666 17.357 72.9983 17.3285 73.03 17.3074C73.0617 17.2862 73.0923 17.2735 73.1145 17.264C73.1367 17.2556 73.1504 17.2514 73.1504 17.2514H73.1515Z" fill="#DADADA"/>
</g>
<g style="mix-blend-mode:multiply">
<path d="M73.0781 17.5783C73.0781 17.6364 73.1193 17.684 73.1701 17.684C73.2208 17.684 73.262 17.6364 73.262 17.5783C73.262 17.5202 73.2208 17.4727 73.1701 17.4727C73.1193 17.4727 73.0781 17.5202 73.0781 17.5783Z" fill="#DADADA"/>
</g>
<path d="M78.1593 16.8311C78.1593 18.6877 77.2886 19.9916 75.6529 19.9916C74.0172 19.9916 73.1465 18.6877 73.1465 16.8311C73.1465 14.9745 74.051 13.4688 75.6867 13.4688C77.3225 13.4688 78.1604 14.9745 78.1604 16.8311H78.1593Z" fill="#F8BB94"/>
<path d="M75.0631 20.5898C75.0631 20.5898 73.5067 20.7959 72.9466 21.2799C72.376 21.7733 72.2069 22.2002 72.002 23.1755H79.3036C79.0986 22.2002 78.9295 21.7733 78.3589 21.2799C77.7989 20.7959 76.2424 20.5898 76.2424 20.5898H75.0642H75.0631Z" fill="#F8BB94"/>
<path d="M76.2409 20.5898C76.2409 20.5898 77.0429 20.6955 77.7033 20.9343C77.7033 20.9343 77.3134 21.8779 77.7033 23.1755H73.6816C73.6816 23.1755 73.9585 22.3841 73.7873 20.8709C74.4023 20.6765 75.0617 20.5898 75.0617 20.5898L75.6259 21.6877L76.2398 20.5898H76.2409Z" fill="#E74645"/>
<path d="M78.2522 17.0115C77.4068 16.8044 76.9968 15.754 76.9968 15.754C76.9503 16.0193 77.0243 16.2623 77.0243 16.2623C75.5016 15.5543 74.5675 14.4268 74.5675 14.4268C73.7898 13.4663 75.0388 12.8355 75.0388 12.8355C77.0433 12.1275 77.9056 13.4663 77.9056 13.4663C77.9056 13.4663 79.33 14.7544 78.6283 17.2439C78.6283 17.2439 78.529 17.0791 78.2511 17.0104L78.2522 17.0115Z" fill="#432918"/>
<path d="M74.7965 13.4045C74.7965 13.4045 73.0001 13.4657 72.6557 16.305C72.6557 16.305 72.159 21.4996 74.4901 22.3841C74.4901 22.3841 74.3368 20.9142 75.0374 20.593V19.9189C75.0374 19.9189 73.3383 19.6198 73.3605 17.3976C73.3605 17.3976 73.371 14.8331 74.676 14.347L74.7965 13.4023V13.4045Z" fill="#432918"/>
<path d="M78.349 18.0759C78.349 18.1805 78.2645 18.265 78.1598 18.265C78.0552 18.265 77.9707 18.1805 77.9707 18.0759C77.9707 17.9713 78.0552 17.8867 78.1598 17.8867C78.2645 17.8867 78.349 17.9713 78.349 18.0759Z" fill="white"/>
</g>
<rect x="11.8457" y="12.7578" width="16.3633" height="16.3633" rx="8.18164" fill="#BAE637"/>
<path d="M21.1326 24.3984H19.5586V25.3352H21.1326V24.3984Z" fill="#F8BB94"/>
<g style="mix-blend-mode:multiply">
<path d="M19.6481 25.098C19.8338 24.9123 20.0738 24.8065 20.3368 24.7875C20.5618 24.7713 20.9455 24.8187 21.0648 24.5842C21.0838 24.5476 21.1068 24.5191 21.1326 24.4988V24.3984H19.5586V25.2078C19.5857 25.1698 19.6142 25.1332 19.6481 25.098Z" fill="#C6C6C6"/>
</g>
<path d="M24.2879 21.3962C24.2879 21.7839 23.9625 22.0971 23.5626 22.0971C23.1627 22.0971 22.8359 21.7826 22.8359 21.3962C22.8359 21.0098 23.1613 20.6953 23.5626 20.6953C23.9639 20.6953 24.2879 21.0098 24.2879 21.3962Z" fill="#F8BB94"/>
<g style="mix-blend-mode:multiply">
<path d="M23.6562 21.0056C23.6562 21.0056 23.6739 21.0029 23.7051 21.0043C23.7362 21.0043 23.781 21.0097 23.8339 21.03C23.8854 21.049 23.9464 21.0856 23.9884 21.1493C23.9992 21.1643 24.006 21.1819 24.0155 21.1995C24.0223 21.2171 24.0277 21.2361 24.0318 21.2551L24.0386 21.3134C24.0386 21.3324 24.0372 21.3513 24.0359 21.3717C24.0331 21.4083 24.0236 21.4462 24.0128 21.4801C24.002 21.5154 23.9857 21.5479 23.9681 21.5791C23.9315 21.6401 23.8813 21.6876 23.8325 21.7147C23.8094 21.7296 23.7837 21.7364 23.7634 21.7431C23.7403 21.7472 23.7227 21.7526 23.7064 21.7526C23.6752 21.7526 23.6576 21.7526 23.6576 21.7526C23.6576 21.7526 23.6739 21.7459 23.7023 21.7337C23.7159 21.7282 23.7322 21.7174 23.7498 21.7093C23.7661 21.6971 23.7864 21.6862 23.8027 21.6699C23.8216 21.655 23.8379 21.6347 23.8542 21.613C23.8705 21.5913 23.884 21.5669 23.8976 21.5398C23.9111 21.5127 23.9193 21.4842 23.9287 21.4544C23.9369 21.4232 23.9437 21.3947 23.945 21.3608L23.9491 21.3147L23.9464 21.27C23.9423 21.2564 23.9396 21.2415 23.9369 21.228C23.9315 21.2158 23.9274 21.2022 23.9206 21.19C23.8949 21.1412 23.8542 21.1046 23.8135 21.0775C23.7715 21.0504 23.7322 21.0341 23.7051 21.0219C23.6779 21.0111 23.6603 21.0056 23.6603 21.0056H23.6562Z" fill="#DADADA"/>
</g>
<g style="mix-blend-mode:multiply">
<path d="M23.7496 21.4324C23.7496 21.507 23.6967 21.568 23.6316 21.568C23.5665 21.568 23.5137 21.507 23.5137 21.4324C23.5137 21.3579 23.5665 21.2969 23.6316 21.2969C23.6967 21.2969 23.7496 21.3579 23.7496 21.4324Z" fill="#DADADA"/>
</g>
<path d="M16.502 21.3962C16.502 21.7839 16.8273 22.0971 17.2273 22.0971C17.6272 22.0971 17.9539 21.7826 17.9539 21.3962C17.9539 21.0098 17.6286 20.6953 17.2273 20.6953C16.826 20.6953 16.502 21.0098 16.502 21.3962Z" fill="#F8BB94"/>
<g style="mix-blend-mode:multiply">
<path d="M17.1343 21.0056C17.1343 21.0056 17.1166 21.0029 17.0855 21.0043C17.0543 21.0043 17.0095 21.0097 16.9567 21.03C16.9051 21.049 16.8441 21.0856 16.8021 21.1493C16.7913 21.1643 16.7845 21.1819 16.775 21.1995C16.7682 21.2171 16.7628 21.2361 16.7574 21.2551L16.752 21.3134C16.752 21.3324 16.752 21.3513 16.7547 21.3717C16.7574 21.4083 16.7669 21.4462 16.7777 21.4801C16.7886 21.5154 16.8048 21.5479 16.8225 21.5791C16.8591 21.6401 16.9092 21.6876 16.958 21.7147C16.9811 21.7296 17.0068 21.7364 17.0285 21.7431C17.0502 21.7472 17.0692 21.7526 17.0855 21.7526C17.1166 21.7526 17.1343 21.7526 17.1343 21.7526C17.1343 21.7526 17.118 21.7459 17.0895 21.7337C17.076 21.7282 17.0597 21.7174 17.0421 21.7093C17.0258 21.6971 17.0055 21.6862 16.9892 21.6699C16.9716 21.655 16.954 21.6347 16.9377 21.613C16.9214 21.5913 16.9079 21.5669 16.8943 21.5398C16.8807 21.5127 16.8726 21.4842 16.8631 21.4544C16.855 21.4232 16.8482 21.3947 16.8469 21.3608L16.8428 21.3147L16.8455 21.27C16.8496 21.2564 16.8523 21.2415 16.855 21.228C16.8604 21.2158 16.8645 21.2022 16.8713 21.19C16.897 21.1412 16.9377 21.1046 16.9784 21.0775C17.019 21.0504 17.0583 21.0341 17.0868 21.0219C17.1153 21.0111 17.1316 21.0056 17.1316 21.0056H17.1343Z" fill="#DADADA"/>
</g>
<g style="mix-blend-mode:multiply">
<path d="M17.041 21.4324C17.041 21.507 17.0939 21.568 17.159 21.568C17.224 21.568 17.2769 21.507 17.2769 21.4324C17.2769 21.3579 17.224 21.2969 17.159 21.2969C17.0939 21.2969 17.041 21.3579 17.041 21.4324Z" fill="#DADADA"/>
</g>
<path d="M23.5618 20.4662C23.5618 22.8482 22.4447 24.5212 20.3447 24.5212C18.2447 24.5212 17.1289 22.8482 17.1289 20.4662C17.1289 18.0842 18.2894 16.1523 20.388 16.1523C22.4867 16.1523 23.5618 18.0842 23.5618 20.4662Z" fill="#F8BB94"/>
<path d="M19.5896 25.293C19.5896 25.293 17.5913 25.5573 16.8741 26.1782C16.142 26.8114 15.9251 27.3591 15.6621 28.6104H25.0287C24.7644 27.3591 24.5488 26.8114 23.8167 26.1782C23.0982 25.5573 21.1012 25.293 21.1012 25.293H19.5896Z" fill="#F8BB94"/>
<path d="M22.0706 25.477C22.6847 25.6194 23.4331 25.8499 23.8167 26.1807C24.5488 26.8138 24.7644 27.3615 25.0287 28.6128H15.6621C15.9251 27.3615 16.142 26.8138 16.8741 26.1807C17.2686 25.839 18.0495 25.6058 18.6718 25.4648L20.3447 27.2679L22.0692 25.477H22.0706Z" fill="#881719"/>
<path d="M19.2501 16.0756C19.2501 16.0756 16.9453 16.1542 16.5034 19.797C16.5034 19.797 16.418 22.926 16.418 26.6271C16.418 26.6271 16.9453 25.7025 19.5592 25.2985V24.4335C19.5592 24.4335 17.3792 24.0499 17.4076 21.2002C17.4076 21.2002 17.4226 17.9099 19.0955 17.2862L19.2501 16.0742V16.0756Z" fill="#432918"/>
<path d="M21.4439 16.0748C21.4439 16.0748 24.0618 15.9433 24.5037 19.5861C24.5037 19.5861 24.5552 22.8195 24.2895 26.6643C24.2895 26.6643 23.5642 25.6272 21.1348 25.2991V24.4341C21.1348 24.4341 23.3134 24.0505 23.2863 21.2008C23.2863 21.2008 23.2727 17.9105 21.5984 17.2868L21.4452 16.0748H21.4439Z" fill="#432918"/>
<path d="M19.9891 19.5871L20.3145 17.9548V19.5871H21.9305L22.1976 18.4388L22.4769 19.5871H24.5023C24.5023 18.4239 24.2881 17.4885 24.2881 17.4885C24.2881 17.4885 23.7485 14.9492 19.9471 15.1743C19.9471 15.1743 16.7435 15.1743 16.5117 19.5871H19.9891Z" fill="#432918"/>
<g clip-path="url(#clip4_6184_19758)">
<rect x="48.7578" y="65.9023" width="45.1895" height="45.1895" rx="22.5947" fill="#FFC53D"/>
<path d="M74.3954 100.5H70.0449V103.087H74.3954V100.5Z" fill="#F8BB94"/>
<g style="mix-blend-mode:multiply">
<path d="M70.2959 102.432C70.8089 101.919 71.4715 101.631 72.1979 101.574C72.8194 101.526 73.8789 101.66 74.2121 101.013C74.2646 100.912 74.3282 100.833 74.3993 100.773V100.496H70.0488V102.731C70.1237 102.626 70.2023 102.525 70.2997 102.428L70.2959 102.432Z" fill="#C6C6C6"/>
</g>
<path d="M83.1093 92.1935C83.1093 93.2642 82.2107 94.1291 81.1025 94.1291C79.9943 94.1291 79.0957 93.2605 79.0957 92.1935C79.0957 91.1264 79.9943 90.2578 81.1025 90.2578C82.2107 90.2578 83.1093 91.1264 83.1093 92.1935Z" fill="#F8BB94"/>
<g style="mix-blend-mode:multiply">
<path d="M81.3613 91.122C81.3613 91.122 81.41 91.1145 81.4961 91.1182C81.5822 91.1182 81.7058 91.1332 81.8518 91.1894C81.9941 91.2418 82.1625 91.3429 82.2786 91.5151C82.3086 91.5563 82.3273 91.6087 82.3535 91.6536C82.3722 91.7023 82.3872 91.7547 82.3984 91.8071L82.4134 91.9681C82.4134 92.0205 82.4097 92.073 82.4097 92.1291C82.4022 92.2302 82.376 92.335 82.346 92.4324C82.316 92.5297 82.2711 92.6196 82.2225 92.7057C82.1214 92.8742 81.9866 93.0052 81.8481 93.0801C81.7844 93.1213 81.7133 93.14 81.6534 93.1587C81.5935 93.1699 81.541 93.1849 81.4961 93.1849C81.4063 93.1849 81.3613 93.1849 81.3613 93.1849C81.3613 93.1849 81.4063 93.1662 81.4849 93.1362C81.5223 93.1213 81.5635 93.0913 81.6159 93.0689C81.6608 93.0352 81.7133 93.0052 81.7619 92.9603C81.8106 92.9154 81.8593 92.8629 81.9042 92.803C81.9491 92.7431 81.9866 92.672 82.024 92.6009C82.0577 92.526 82.0839 92.4473 82.1101 92.365C82.1326 92.2789 82.1513 92.2002 82.1551 92.1066L82.1663 91.9793L82.1551 91.8558C82.1438 91.8184 82.1363 91.7772 82.1289 91.7397C82.1139 91.706 82.1026 91.6649 82.0839 91.6349C82.0128 91.5001 81.9005 91.399 81.7844 91.3242C81.6721 91.2493 81.5635 91.2043 81.4849 91.1707C81.4063 91.1407 81.3613 91.1257 81.3613 91.1257V91.122Z" fill="#DADADA"/>
</g>
<g style="mix-blend-mode:multiply">
<path d="M81.6241 92.2924C81.6241 92.4983 81.4781 92.6668 81.2984 92.6668C81.1187 92.6668 80.9727 92.4983 80.9727 92.2924C80.9727 92.0864 81.1187 91.918 81.2984 91.918C81.4781 91.918 81.6241 92.0864 81.6241 92.2924Z" fill="#DADADA"/>
</g>
<path d="M61.6055 92.1935C61.6055 93.2642 62.504 94.1291 63.6085 94.1291C64.713 94.1291 65.6115 93.2605 65.6115 92.1935C65.6115 91.1264 64.713 90.2578 63.6085 90.2578C62.504 90.2578 61.6055 91.1264 61.6055 92.1935Z" fill="#F8BB94"/>
<g style="mix-blend-mode:multiply">
<path d="M63.3548 91.122C63.3548 91.122 63.3061 91.1145 63.22 91.1182C63.1339 91.1182 63.0103 91.1332 62.8643 91.1894C62.7221 91.2418 62.5536 91.3429 62.4375 91.5151C62.4076 91.5563 62.3888 91.6087 62.3626 91.6536C62.3439 91.7023 62.3289 91.7547 62.3177 91.8071L62.3027 91.9681C62.3027 92.0205 62.3065 92.073 62.3102 92.1291C62.3177 92.2302 62.3439 92.335 62.3701 92.4324C62.4001 92.5297 62.445 92.6196 62.4937 92.7057C62.5948 92.8742 62.7333 93.0052 62.8718 93.0801C62.9355 93.1213 63.0103 93.14 63.0665 93.1587C63.1264 93.1699 63.1788 93.1849 63.2238 93.1849C63.3099 93.1849 63.3585 93.1849 63.3585 93.1849C63.3585 93.1849 63.3136 93.1662 63.235 93.1362C63.1976 93.1213 63.1564 93.0913 63.1039 93.0689C63.059 93.0352 63.0066 93.0052 62.9579 92.9603C62.9093 92.9154 62.8606 92.8629 62.8157 92.803C62.7707 92.7431 62.7333 92.672 62.6959 92.6009C62.6584 92.5297 62.636 92.4473 62.6097 92.365C62.5873 92.2789 62.5686 92.2002 62.5648 92.1066L62.5573 91.9793L62.5648 91.8558C62.576 91.8184 62.5835 91.7772 62.591 91.7397C62.606 91.706 62.6172 91.6649 62.6359 91.6349C62.7071 91.5001 62.8194 91.399 62.9355 91.3242C63.0478 91.2493 63.1564 91.2043 63.235 91.1707C63.3136 91.1407 63.3585 91.1257 63.3585 91.1257L63.3548 91.122Z" fill="#DADADA"/>
</g>
<g style="mix-blend-mode:multiply">
<path d="M63.0957 92.2924C63.0957 92.4983 63.2417 92.6668 63.4214 92.6668C63.6011 92.6668 63.7472 92.4983 63.7472 92.2924C63.7472 92.0864 63.6011 91.918 63.4214 91.918C63.2417 91.918 63.0957 92.0864 63.0957 92.2924Z" fill="#DADADA"/>
</g>
<path d="M81.1013 89.6478C81.1013 96.2259 78.0125 100.846 72.2206 100.846C66.4286 100.846 63.3398 96.2259 63.3398 89.6478C63.3398 83.0696 66.5447 77.7344 72.3404 77.7344C78.1361 77.7344 81.1051 83.0696 81.1051 89.6478H81.1013Z" fill="#F8BB94"/>
<path d="M70.1315 102.984C70.1315 102.984 64.6129 103.714 62.6323 105.429C60.6105 107.178 60.0152 108.69 59.2852 112.146H85.1561C84.4261 108.69 83.8308 107.178 81.809 105.429C79.8284 103.714 74.3098 102.984 74.3098 102.984H70.1352H70.1315Z" fill="#F8BB94"/>
<path d="M76.4439 103.359C76.4439 103.359 79.8247 103.707 81.809 105.422C83.8308 107.171 84.4298 108.683 85.1561 112.139H59.2852C60.0152 108.683 60.6105 107.171 62.6323 105.422C64.6166 103.707 68.0124 103.355 68.0124 103.355C68.0124 103.355 67.2786 108.073 72.4078 108.035C72.4078 108.035 76.646 108.2 76.4439 103.359Z" fill="#1A7290"/>
<path d="M68.7144 103.219C68.7293 103.297 68.7331 103.38 68.7181 103.466C68.7181 103.492 68.4822 105.177 69.4444 106.289C70.0585 106.993 71.0581 107.348 72.4097 107.333C72.4209 107.333 72.4322 107.333 72.4434 107.333C72.4509 107.333 73.8811 107.363 74.8358 106.397C75.4947 105.731 75.8017 104.548 75.7456 103.219L77.1608 103.47C77.2057 105.151 76.7565 106.472 75.8242 107.405C74.5625 108.67 72.844 108.745 72.4621 108.745C72.4059 108.745 72.3835 108.745 72.3535 108.745C70.5938 108.745 69.2535 108.224 68.3699 107.202C67.213 105.862 67.2467 104.087 67.2991 103.47L68.7106 103.222L68.7144 103.219Z" fill="#054153"/>
<path d="M63.0974 86.0241L63.4157 91.393L64.2019 91.6139C63.513 82.9465 68.077 80.9622 68.077 80.9622L69.3537 75.5372C65.4524 75.4436 63.7452 78.6335 63.7452 78.6335C63.7452 78.6335 62.3 80.1011 63.0974 86.0204V86.0241Z" fill="#732400"/>
<path d="M63.1368 86.7214C63.1368 86.7214 62.987 86.0437 62.856 85.0254C62.7849 84.5162 62.7212 83.9209 62.6651 83.2807C62.6426 82.9624 62.6052 82.633 62.5902 82.296C62.5789 82.1275 62.5715 81.959 62.5602 81.7906L62.5527 81.6633V81.6483V81.6034V81.5734V81.5098L62.5602 81.2552C62.5602 81.0904 62.5939 80.8995 62.6239 80.716C62.6463 80.5251 62.6913 80.3529 62.7437 80.1806C62.7661 80.0945 62.7886 80.0084 62.8148 79.9223L62.9122 79.679C62.9721 79.5142 63.0469 79.3607 63.1256 79.211C63.2004 79.0574 63.2753 78.9114 63.3689 78.7804C63.4513 78.6419 63.5411 78.5146 63.6347 78.391C63.8107 78.1402 64.0054 77.9268 64.1889 77.7396C64.3686 77.5486 64.552 77.3914 64.7205 77.2566C64.8852 77.1181 65.0387 77.0132 65.1623 76.9309C65.4169 76.7624 65.5741 76.6875 65.5741 76.6875C65.5741 76.6875 65.0762 77.178 64.4996 77.9979C64.4247 78.099 64.3536 78.2076 64.2862 78.3236C64.2151 78.4359 64.1402 78.552 64.0728 78.6793C64.0017 78.8029 63.9305 78.9302 63.8706 79.0649C63.807 79.196 63.7396 79.3308 63.6834 79.473C63.6235 79.6116 63.5674 79.7576 63.5262 79.9073C63.4775 80.0534 63.4326 80.2031 63.3989 80.3566C63.3577 80.5101 63.324 80.6636 63.309 80.8134C63.2866 80.9631 63.2604 81.1092 63.2641 81.2889L63.2491 81.5435V81.6071L63.2454 81.6408C63.2454 81.5846 63.2454 81.6296 63.2454 81.6183V81.6258V81.6408V81.7681C63.2566 81.9366 63.2604 82.1088 63.2678 82.2773C63.2828 82.6142 63.2791 82.9437 63.2828 83.2657C63.2866 83.9059 63.2791 84.505 63.2566 85.0216C63.2192 86.0512 63.1368 86.7364 63.1368 86.7364V86.7214Z" fill="#511800"/>
<path d="M81.2796 87.0749L80.9614 92.4438L80.1752 92.6647C80.9726 81.1032 76.6633 80.9123 76.6633 80.9123L75.0234 76.588C78.9247 76.4944 80.6319 79.6842 80.6319 79.6842C80.6319 79.6842 82.0771 81.1481 81.2796 87.0711V87.0749Z" fill="#732400"/>
<path d="M68.136 80.9341C68.136 80.9341 73.1267 78.9722 78.2673 81.6005L78.6604 77.6356C78.6604 77.6356 77.6532 69.893 67.5482 72.3603C67.5482 72.3603 68.8099 72.9481 69.3565 73.5359C69.3565 73.5359 65.4665 73.2664 63.748 76.8082C63.748 76.8082 66.3801 75.9284 68.4917 76.4974C68.4917 76.4974 65.3168 78.5903 68.1397 80.9416L68.136 80.9341Z" fill="#732400"/>
<path d="M78.661 77.6335C78.661 77.6335 78.6048 77.4201 78.4663 77.0644C78.3278 76.7087 78.1069 76.2145 77.7737 75.6679C77.6089 75.3946 77.403 75.1138 77.1821 74.8292C76.9537 74.5484 76.6879 74.2751 76.3996 74.0093C76.1038 73.7547 75.7819 73.5113 75.4337 73.2979C75.0855 73.0845 74.7111 72.8973 74.3217 72.7551C74.127 72.6802 73.9323 72.6053 73.7302 72.5529C73.5317 72.4892 73.3296 72.4406 73.1274 72.3994C72.723 72.3133 72.3187 72.2421 71.9218 72.2122C71.7234 72.186 71.5287 72.1785 71.334 72.171C71.1431 72.1635 70.9521 72.1448 70.7687 72.1485C70.398 72.1485 70.0498 72.1485 69.7241 72.171C69.3984 72.1822 69.1026 72.2084 68.8368 72.2309C68.5709 72.2496 68.3388 72.2721 68.1516 72.2983C67.7697 72.3395 67.5488 72.3582 67.5488 72.3582C67.5488 72.3582 67.7547 72.2833 68.1217 72.1598C68.3051 72.0961 68.5298 72.025 68.7918 71.9651C69.0539 71.8977 69.3497 71.8191 69.6792 71.7704C69.8439 71.7442 70.0124 71.7067 70.1921 71.6805C70.3718 71.6618 70.559 71.6431 70.7499 71.6244C70.9409 71.5982 71.1393 71.6019 71.3415 71.5907C71.5437 71.5757 71.7496 71.5832 71.963 71.5907C72.1727 71.5982 72.3898 71.6057 72.607 71.6356C72.8241 71.6581 73.045 71.6805 73.2622 71.733C73.4831 71.7741 73.704 71.8228 73.9211 71.8902C74.142 71.9464 74.3591 72.0212 74.5726 72.1036C74.9994 72.2683 75.4112 72.4817 75.7931 72.7288C76.1787 72.9685 76.5119 73.268 76.8227 73.5638C77.4292 74.1778 77.856 74.8629 78.1293 75.4807C78.4027 76.0984 78.5374 76.6451 78.5973 77.0307C78.661 77.4163 78.661 77.6372 78.661 77.6372V77.6335Z" fill="#511800"/>
</g>
<path d="M93.3127 68.2617C92.2177 68.2617 91.3324 69.1497 91.3324 70.242C91.3324 71.3343 92.2204 72.2223 93.3127 72.2223C94.405 72.2223 95.293 71.3343 95.293 70.242C95.293 69.1497 94.4077 68.2617 93.3127 68.2617Z" fill="#1DB2A8"/>
<path d="M88.7255 65.0156C87.9764 65.0156 87.369 65.6231 87.369 66.3721C87.369 67.1212 87.9764 67.7287 88.7255 67.7287C89.4746 67.7287 90.082 67.1212 90.082 66.3721C90.082 65.6231 89.4746 65.0156 88.7255 65.0156Z" fill="#E74645"/>
<path d="M92.9204 59.9023C91.6102 59.9023 90.5479 60.9647 90.5479 62.2749C90.5479 63.5851 91.6102 64.6474 92.9204 64.6474C94.2306 64.6474 95.293 63.5851 95.293 62.2749C95.293 60.9647 94.2306 59.9023 92.9204 59.9023Z" fill="#F9B233"/>
<path d="M51.2447 111.014C51.6353 111.713 51.3842 112.596 50.6846 112.985C49.9851 113.374 49.1021 113.124 48.7135 112.425C48.3229 111.725 48.574 110.842 49.2735 110.454C49.9731 110.063 50.856 110.314 51.2447 111.014Z" fill="#1DB2A8"/>
<path d="M54.9537 112.79C55.2208 113.268 55.0494 113.872 54.569 114.139C54.0907 114.406 53.4868 114.235 53.2197 113.757C52.9527 113.278 53.1241 112.674 53.6024 112.407C54.0807 112.14 54.6866 112.312 54.9517 112.79H54.9537Z" fill="#E74645"/>
<path d="M56.7276 108.286C57.194 109.123 56.893 110.181 56.056 110.648C55.2169 111.114 54.1606 110.813 53.6942 109.976C53.2278 109.139 53.5288 108.08 54.3658 107.614C55.2029 107.148 56.2612 107.449 56.7276 108.286Z" fill="#F9B233"/>
</g>
<defs>
<clipPath id="clip0_6184_19758">
<rect x="31.8906" width="33.7344" height="33.7344" rx="16.8672" fill="white"/>
</clipPath>
<clipPath id="clip1_6184_19758">
<rect x="56.0918" y="26.918" width="36.6758" height="36.6758" rx="18.3379" fill="white"/>
</clipPath>
<clipPath id="clip2_6184_19758">
<rect x="0.324219" y="31.7031" width="55.7676" height="55.7676" rx="27.8838" fill="white"/>
</clipPath>
<clipPath id="clip3_6184_19758">
<rect x="68.8418" y="11.0312" width="12.7539" height="12.7539" rx="6.37695" fill="white"/>
</clipPath>
<clipPath id="clip4_6184_19758">
<rect x="48.7578" y="65.9023" width="45.1895" height="45.1895" rx="22.5947" fill="white"/>
</clipPath>
</defs>
</svg>
