<svg width="141" height="124" viewBox="0 0 141 124" fill="none" xmlns="http://www.w3.org/2000/svg">
<g opacity="0.8">
<rect x="53.5156" y="0.015625" width="35.9924" height="35.9924" rx="17.9962" fill="#FF4D4F"/>
<path d="M73.2405 26.2109H69.7754V28.2715H73.2405V26.2109Z" fill="#F8BB94"/>
<g style="mix-blend-mode:multiply">
<path d="M71.9701 27.9972C71.2425 27.7646 70.6342 27.3113 70.5418 26.5121C70.5298 26.4018 70.5418 26.3034 70.5716 26.2109H69.7754V28.2715H73.2405V28.0121C72.8141 28.1194 72.3697 28.1224 71.9701 27.9942V27.9972Z" fill="#DADADA"/>
</g>
<path d="M80.1811 19.5964C80.1811 20.4492 79.4654 21.1381 78.5827 21.1381C77.7001 21.1381 76.9844 20.4463 76.9844 19.5964C76.9844 18.7465 77.7001 18.0547 78.5827 18.0547C79.4654 18.0547 80.1811 18.7465 80.1811 19.5964Z" fill="#F8BB94"/>
<g style="mix-blend-mode:multiply">
<path d="M78.7871 18.746C78.7871 18.746 78.8259 18.74 78.8945 18.743C78.963 18.743 79.0644 18.755 79.1778 18.7997C79.2911 18.8414 79.4253 18.9219 79.5177 19.0591C79.5416 19.0949 79.5565 19.1337 79.5773 19.1694C79.5923 19.2082 79.6042 19.25 79.6131 19.2917L79.628 19.4199C79.628 19.4617 79.6251 19.5034 79.6221 19.5452C79.6161 19.6227 79.5952 19.7092 79.5714 19.7867C79.5475 19.8643 79.5117 19.9358 79.473 20.0044C79.3954 20.1386 79.2851 20.243 79.1748 20.3026C79.1241 20.3354 79.0674 20.3503 79.0227 20.3652C78.972 20.3742 78.9332 20.3831 78.8974 20.3861C78.8289 20.3861 78.7901 20.3861 78.7901 20.3861C78.7901 20.3861 78.8259 20.3712 78.8885 20.3473C78.9213 20.3354 78.9541 20.3116 78.9929 20.2937C79.0287 20.2668 79.0734 20.243 79.1092 20.2042C79.1479 20.1714 79.1867 20.1267 79.2225 20.079C79.2583 20.0312 79.2881 19.9776 79.3179 19.9179C79.3447 19.8583 79.3656 19.7957 79.3865 19.7301C79.4044 19.6615 79.4193 19.5989 79.4223 19.5243L79.4312 19.4229L79.4253 19.3245C79.4163 19.2947 79.4103 19.2619 79.4044 19.2321C79.3925 19.2052 79.3835 19.1754 79.3686 19.1486C79.3149 19.0412 79.2225 18.9607 79.133 18.9011C79.0406 18.8414 78.9571 18.8027 78.8945 18.7788C78.8318 18.7549 78.7961 18.743 78.7961 18.743L78.7871 18.746Z" fill="#DADADA"/>
</g>
<g style="mix-blend-mode:multiply">
<path d="M78.9935 19.6732C78.9935 19.8372 78.8772 19.9714 78.734 19.9714C78.5909 19.9714 78.4746 19.8372 78.4746 19.6732C78.4746 19.5092 78.5909 19.375 78.734 19.375C78.8772 19.375 78.9935 19.5092 78.9935 19.6732Z" fill="#DADADA"/>
</g>
<path d="M63.0547 19.5964C63.0547 20.4492 63.7704 21.1381 64.6501 21.1381C65.5298 21.1381 66.2484 20.4463 66.2484 19.5964C66.2484 18.7465 65.5327 18.0547 64.6501 18.0547C63.7674 18.0547 63.0547 18.7465 63.0547 19.5964Z" fill="#F8BB94"/>
<g style="mix-blend-mode:multiply">
<path d="M64.4473 18.746C64.4473 18.746 64.4086 18.74 64.34 18.743C64.2714 18.743 64.173 18.755 64.0567 18.7997C63.9434 18.8414 63.8092 18.9219 63.7167 19.0591C63.6959 19.0949 63.678 19.1337 63.6571 19.1694C63.6422 19.2082 63.6302 19.25 63.6213 19.2917L63.6094 19.4199C63.6094 19.4617 63.6124 19.5034 63.6153 19.5452C63.6213 19.6227 63.6422 19.7092 63.666 19.7867C63.6899 19.8643 63.7257 19.9358 63.7644 20.0044C63.845 20.1386 63.9553 20.243 64.0626 20.3026C64.1133 20.3354 64.173 20.3503 64.2177 20.3652C64.2654 20.3742 64.3072 20.3831 64.343 20.3861C64.4145 20.3861 64.4503 20.3861 64.4503 20.3861C64.4503 20.3861 64.4145 20.3712 64.3519 20.3473C64.3221 20.3354 64.2863 20.3116 64.2475 20.2937C64.2117 20.2668 64.167 20.243 64.1312 20.2042C64.0925 20.1714 64.0537 20.1267 64.0179 20.079C63.9821 20.0312 63.9523 19.9776 63.9255 19.9179C63.8956 19.8583 63.8748 19.7957 63.8569 19.7301C63.839 19.6615 63.8241 19.5989 63.8211 19.5243L63.8151 19.4229L63.8211 19.3245C63.83 19.2947 63.836 19.2619 63.842 19.2321C63.8539 19.2052 63.8628 19.1754 63.8778 19.1486C63.9344 19.0412 64.0269 18.9607 64.1133 18.9011C64.2028 18.8414 64.2893 18.8027 64.3519 18.7788C64.4145 18.7549 64.4503 18.743 64.4503 18.743L64.4473 18.746Z" fill="#DADADA"/>
</g>
<g style="mix-blend-mode:multiply">
<path d="M64.2422 19.6732C64.2422 19.8372 64.3585 19.9714 64.5016 19.9714C64.6448 19.9714 64.7611 19.8372 64.7611 19.6732C64.7611 19.5092 64.6448 19.375 64.5016 19.375C64.3585 19.375 64.2422 19.5092 64.2422 19.6732Z" fill="#DADADA"/>
</g>
<path d="M78.5832 17.5591C78.5832 22.7984 76.1231 26.4782 71.5099 26.4782C66.8967 26.4782 64.4336 22.7984 64.4336 17.5591C64.4336 12.3197 66.9862 8.07031 71.6023 8.07031C76.2185 8.07031 78.5832 12.3197 78.5832 17.5591Z" fill="#F8BB94"/>
<path d="M69.8459 28.1875C69.8459 28.1875 65.4504 28.769 63.8729 30.1347C62.2627 31.5273 61.7885 32.7321 61.207 35.4845H81.8097C81.2312 32.7321 80.7541 31.5273 79.1438 30.1347C77.5633 28.769 73.1708 28.1875 73.1708 28.1875H69.8459Z" fill="#F8BB94"/>
<path d="M68.5189 28.4141C68.5189 28.4141 65.4534 28.769 63.8729 30.1347C62.2627 31.5273 61.7885 32.7321 61.207 35.4845H81.8097C81.2312 32.7321 80.763 31.5184 79.1438 30.1347C77.8079 28.9926 74.808 28.4768 74.808 28.4768L73.1679 28.1875H69.8429L68.5159 28.4141H68.5189Z" fill="white"/>
<path d="M70.6877 30.8554C70.6877 30.8554 70.7026 30.8316 70.7473 30.7958C70.7294 30.8137 70.7085 30.8346 70.6877 30.8554L70.1211 35.4775H72.9003L72.3337 30.8554L72.7154 29.269C72.8556 29.0304 72.9003 28.7561 72.7542 28.5175C72.62 28.2999 72.4411 28.1865 72.2353 28.1299C71.9103 28.0404 71.5256 28.0941 71.1797 28.0941C70.8338 28.0941 70.5923 28.1239 70.3626 28.3953C70.136 28.6666 70.1211 28.9589 70.303 29.269L70.6847 30.8554H70.6877Z" fill="#E74645"/>
<g style="mix-blend-mode:multiply">
<path d="M70.625 30.6089C70.625 30.6089 71.7761 30.0722 72.3307 30.8564C72.3307 30.8564 71.5554 30.4151 70.6846 30.8564L70.625 30.6089Z" fill="#C6C6C6"/>
</g>
<path d="M68.5189 28.4141C68.5189 28.4141 65.4534 28.7689 63.8729 30.1347C62.2627 31.5273 61.7885 32.732 61.207 35.4844H81.8097C81.2312 32.732 80.763 31.5183 79.1438 30.1347C77.8079 28.9926 74.808 28.4767 74.808 28.4767L71.5069 35.2965L68.5159 28.4141H68.5189Z" fill="#0D3953"/>
<path d="M68.5592 28.4623L71.5084 35.297L68.3743 33.2723L69.0811 32.0616L65.5742 29.166C65.5742 29.166 67.5632 28.3967 68.5622 28.4653L68.5592 28.4623Z" fill="#031D2D"/>
<path d="M74.8108 28.478L71.5098 35.2978L74.6439 33.2731L73.9371 32.0624L77.444 29.1668C77.444 29.1668 75.8068 28.4124 74.8079 28.481L74.8108 28.478Z" fill="#031D2D"/>
<g style="mix-blend-mode:multiply">
<path d="M67.9043 28.4766L70.5553 30.3254L70.3346 29.401L67.9043 28.4766Z" fill="#B2B2B2"/>
</g>
<g style="mix-blend-mode:multiply">
<path d="M75.3675 28.5156L72.457 30.3704L72.7135 29.2909L75.3675 28.5156Z" fill="#B2B2B2"/>
</g>
<path d="M69.775 27.5781L67.9023 28.4757L70.118 29.7997L71.6686 28.088L69.775 27.5781Z" fill="white"/>
<g style="mix-blend-mode:multiply">
<path d="M69.7482 28.2371C70.0226 27.9867 70.3476 27.8167 70.7293 27.8346L69.775 27.5781L67.9023 28.4727L69.5752 29.4717C69.3665 29.0691 69.3755 28.5741 69.7482 28.2342V28.2371Z" fill="#DADADA"/>
</g>
<path d="M73.5294 27.5781L75.4021 28.4757L73.1864 29.7997L71.6328 28.088L73.5294 27.5781Z" fill="white"/>
<g style="mix-blend-mode:multiply">
<path d="M73.5553 28.2371C73.281 27.9867 72.9559 27.8167 72.5742 27.8346L73.5285 27.5781L75.4012 28.4727L73.7283 29.4717C73.937 29.0691 73.928 28.5741 73.5553 28.2342V28.2371Z" fill="#DADADA"/>
</g>
<path d="M64.4595 18.844L65.1752 19.5627L65.3123 13.7925C65.3123 13.7925 65.36 10.7956 68.5418 10.7956C68.5418 10.7956 71.1541 12.1524 74.479 11.0312C74.479 11.0312 77.4551 10.563 77.804 13.6524L77.7801 19.679L78.5405 18.7397L78.5823 17.9554C78.5823 17.9554 79.0325 15.4117 78.5823 11.6783C78.5823 11.6783 77.9829 7.54223 74.2464 6.84146C74.2464 6.84146 68.1452 5.26994 65.5718 9.11375C65.5718 9.11375 63.6096 11.4069 64.1255 14.9943L64.4565 18.847L64.4595 18.844Z" fill="#956000"/>
<path d="M45.0004 6.8791C45.0004 7.78272 44.2691 8.51602 43.3635 8.51602C42.4579 8.51602 41.7266 7.78272 41.7266 6.8791C41.7266 5.97549 42.4599 5.24219 43.3635 5.24219C44.2671 5.24219 45.0004 5.97549 45.0004 6.8791Z" fill="#1DB2A8"/>
<path d="M47.6775 10.6747C47.6775 11.2938 47.1766 11.7947 46.5575 11.7947C45.9384 11.7947 45.4375 11.2938 45.4375 10.6747C45.4375 10.0556 45.9384 9.55469 46.5575 9.55469C47.1766 9.55469 47.6775 10.0556 47.6775 10.6747Z" fill="#E74645"/>
<path d="M51.8995 7.20168C51.8995 8.28361 51.0219 9.16117 49.938 9.16117C48.8541 9.16117 47.9785 8.28361 47.9785 7.20168C47.9785 6.11975 48.8561 5.24219 49.938 5.24219C51.0199 5.24219 51.8995 6.11975 51.8995 7.20168Z" fill="#F9B233"/>
<g clip-path="url(#clip0_6636_40536)">
<rect x="79.3359" y="28.7422" width="39.1307" height="39.1307" rx="19.5653" fill="#40A9FF"/>
<path d="M101.172 57.2656H97.4043V59.5059H101.172V57.2656Z" fill="#F8BB94"/>
<g style="mix-blend-mode:multiply">
<path d="M97.6222 58.9385C98.0663 58.4944 98.6402 58.2447 99.2691 58.1961C99.8073 58.1572 100.725 58.2707 101.013 57.7098C101.059 57.6222 101.114 57.5542 101.175 57.5055V57.2656H97.4082V59.2011C97.473 59.1103 97.5411 59.0196 97.6254 58.9385H97.6222Z" fill="#C6C6C6"/>
</g>
<path d="M108.714 50.0824C108.714 51.0096 107.936 51.7585 106.98 51.7585C106.024 51.7585 105.242 51.0063 105.242 50.0824C105.242 49.1584 106.02 48.4062 106.98 48.4062C107.94 48.4062 108.714 49.1584 108.714 50.0824Z" fill="#F8BB94"/>
<g style="mix-blend-mode:multiply">
<path d="M107.201 49.1526C107.201 49.1526 107.243 49.1461 107.318 49.1493C107.392 49.1526 107.499 49.1623 107.626 49.2109C107.749 49.2563 107.895 49.3439 107.995 49.4962C108.021 49.5319 108.038 49.5741 108.06 49.6162C108.077 49.6583 108.089 49.7037 108.102 49.7491L108.115 49.8885C108.115 49.9339 108.112 49.9793 108.109 50.0247C108.102 50.1122 108.08 50.203 108.054 50.2841C108.028 50.3683 107.989 50.4462 107.947 50.5207C107.859 50.6666 107.743 50.7801 107.623 50.8449C107.568 50.8806 107.506 50.8968 107.457 50.913C107.402 50.9227 107.36 50.9357 107.321 50.9357C107.243 50.9357 107.204 50.9357 107.204 50.9357C107.204 50.9357 107.243 50.9195 107.311 50.8935C107.344 50.8806 107.379 50.8546 107.425 50.8352C107.464 50.806 107.512 50.7801 107.551 50.7412C107.597 50.7055 107.636 50.6569 107.675 50.605C107.713 50.5531 107.746 50.4915 107.778 50.4299C107.807 50.3651 107.833 50.297 107.853 50.2257C107.872 50.1511 107.888 50.083 107.892 50.002L107.901 49.8918L107.892 49.7848C107.882 49.7524 107.876 49.7167 107.869 49.6843C107.856 49.6551 107.846 49.6227 107.83 49.5935C107.769 49.4768 107.671 49.3893 107.574 49.3244C107.477 49.2596 107.383 49.2174 107.315 49.1915C107.25 49.1656 107.208 49.1526 107.208 49.1526H107.201Z" fill="#DADADA"/>
</g>
<g style="mix-blend-mode:multiply">
<path d="M107.425 50.168C107.425 50.3463 107.299 50.4922 107.143 50.4922C106.988 50.4922 106.861 50.3463 106.861 50.168C106.861 49.9896 106.988 49.8438 107.143 49.8438C107.299 49.8438 107.425 49.9896 107.425 50.168Z" fill="#DADADA"/>
</g>
<path d="M90.0977 50.0824C90.0977 51.0096 90.8757 51.7585 91.8321 51.7585C92.7885 51.7585 93.5666 51.0063 93.5666 50.0824C93.5666 49.1584 92.7885 48.4062 91.8321 48.4062C90.8757 48.4062 90.0977 49.1584 90.0977 50.0824Z" fill="#F8BB94"/>
<g style="mix-blend-mode:multiply">
<path d="M91.6102 49.1526C91.6102 49.1526 91.5681 49.1461 91.4935 49.1493C91.4189 49.1526 91.312 49.1623 91.1855 49.2109C91.0623 49.2563 90.9164 49.3439 90.8159 49.4962C90.79 49.5319 90.7738 49.5741 90.7511 49.6162C90.7381 49.6583 90.7252 49.7037 90.7122 49.7491L90.6992 49.8885C90.6992 49.9339 90.6992 49.9793 90.7057 50.0247C90.7122 50.1122 90.7349 50.203 90.7608 50.2841C90.7868 50.3683 90.8257 50.4462 90.8678 50.5207C90.9553 50.6666 91.0753 50.7801 91.192 50.8449C91.2504 50.8806 91.312 50.8968 91.3606 50.913C91.4125 50.9227 91.4579 50.9357 91.4968 50.9357C91.5746 50.9357 91.6135 50.9357 91.6135 50.9357C91.6135 50.9357 91.5746 50.9195 91.5065 50.8935C91.4741 50.8806 91.4384 50.8546 91.393 50.8352C91.3541 50.806 91.3055 50.7801 91.2666 50.7412C91.2212 50.7055 91.1823 50.6569 91.1434 50.605C91.1045 50.5531 91.0721 50.4915 91.0396 50.4299C91.0072 50.3651 90.9878 50.297 90.9651 50.2257C90.9456 50.1511 90.9294 50.083 90.9262 50.002L90.9164 49.8918L90.9229 49.7848C90.9326 49.7524 90.9391 49.7167 90.9456 49.6843C90.9586 49.6551 90.9683 49.6227 90.9845 49.5935C91.0461 49.4768 91.1466 49.3893 91.2406 49.3244C91.3379 49.2596 91.4319 49.2174 91.5 49.1915C91.5681 49.1656 91.607 49.1526 91.607 49.1526H91.6102Z" fill="#DADADA"/>
</g>
<g style="mix-blend-mode:multiply">
<path d="M91.3867 50.168C91.3867 50.3463 91.5132 50.4922 91.6688 50.4922C91.8244 50.4922 91.9508 50.3463 91.9508 50.168C91.9508 49.9896 91.8244 49.8438 91.6688 49.8438C91.5132 49.8438 91.3867 49.9896 91.3867 50.168Z" fill="#DADADA"/>
</g>
<path d="M106.979 47.863C106.979 53.5592 104.304 57.5598 99.289 57.5598C94.2736 57.5598 91.5957 53.5592 91.5957 47.863C91.5957 42.1667 94.3709 37.5469 99.3895 37.5469C104.408 37.5469 106.979 42.1667 106.979 47.863Z" fill="#F8BB94"/>
<path d="M97.48 59.4219C97.48 59.4219 92.7013 60.0541 90.9863 61.5389C89.2356 63.0529 88.7201 64.3627 88.0879 67.3551H110.487C109.855 64.3627 109.339 63.0529 107.589 61.5389C105.87 60.0541 101.095 59.4219 101.095 59.4219H97.48Z" fill="#F8BB94"/>
<path d="M94.943 59.8982C94.943 59.8982 95.4584 59.681 93.5716 60.2743C94.0903 64.9687 93.2441 67.3451 93.2441 67.3451H105.58C104.384 63.3639 105.58 60.4688 105.58 60.4688L104.439 60.057C104.439 60.057 104.332 65.776 99.2095 65.3772C99.2095 65.3772 94.7711 65.8116 94.9397 59.8982H94.943Z" fill="#00B1C3"/>
<path d="M96.6658 37.3704C96.6658 37.3704 91.1544 37.5585 90.1008 46.2698C90.1008 46.2698 89.073 53.4476 92.5517 59.5653C92.5517 59.5653 94.8762 59.2054 97.4083 59.4291V57.3607C97.4083 57.3607 92.1983 56.4432 92.2664 49.6253C92.2664 49.6253 92.3021 41.7569 96.2995 40.2655L96.6691 37.3672L96.6658 37.3704Z" fill="#732400"/>
<path d="M101.911 37.3672C101.911 37.3672 108.162 37.27 109.215 45.9845C109.215 45.9845 109.757 51.8137 106.028 59.5653C106.028 59.5653 103.704 59.2055 101.172 59.4292V57.3608C101.172 57.3608 106.382 56.4433 106.317 49.6253C106.317 49.6253 106.285 41.7569 102.281 40.2656L101.914 37.3672H101.911Z" fill="#732400"/>
<path d="M94.4516 39.5718C94.4516 39.5718 98.0049 45.2356 105.406 44.6909L106.862 48.3998L108.305 48.9996C108.305 48.9996 110.487 48.3998 108.217 39.5718C108.217 39.5718 105.873 33.1169 97.4018 35.0362C97.4018 35.0362 93.1807 35.8078 94.4484 39.5718H94.4516Z" fill="#732400"/>
</g>
<g clip-path="url(#clip1_6636_40536)">
<rect x="19.8359" y="33.8438" width="59.5004" height="59.5004" rx="29.7502" fill="#FF7A45"/>
<path d="M53.1795 79.0078H47.4512V82.4142H53.1795V79.0078Z" fill="#F8BB94"/>
<g style="mix-blend-mode:multiply">
<path d="M47.7765 81.5359C48.4519 80.8605 49.3244 80.4809 50.2808 80.407C51.0991 80.3478 52.4942 80.5204 52.933 79.6675C53.002 79.5344 53.0858 79.4309 53.1795 79.357V78.9922H47.4512V81.9352C47.5498 81.7972 47.6533 81.6641 47.7765 81.5359Z" fill="#C6C6C6"/>
</g>
<path d="M64.6469 68.0721C64.6469 69.477 63.4637 70.6207 62.0095 70.6207C60.5552 70.6207 59.3672 69.477 59.3672 68.0721C59.3672 66.6671 60.5503 65.5234 62.0095 65.5234C63.4687 65.5234 64.6469 66.6671 64.6469 68.0721Z" fill="#F8BB94"/>
<g style="mix-blend-mode:multiply">
<path d="M62.3428 66.6547C62.3428 66.6547 62.4069 66.6449 62.5203 66.6498C62.6337 66.6498 62.8013 66.6695 62.9886 66.7435C63.1759 66.8125 63.3978 66.9456 63.5506 67.1773C63.59 67.2315 63.6147 67.3005 63.6492 67.3597C63.6738 67.4238 63.6935 67.4928 63.7083 67.5618L63.733 67.7738C63.733 67.8428 63.7231 67.9118 63.7231 67.9808C63.7133 68.1139 63.6788 68.252 63.6393 68.3801C63.5999 68.5083 63.5407 68.6266 63.4766 68.74C63.3435 68.9618 63.1661 69.1344 62.9787 69.233C62.8949 69.2872 62.8013 69.3118 62.7224 69.3365C62.6435 69.3513 62.5745 69.371 62.5154 69.371C62.402 69.371 62.3379 69.371 62.3379 69.371C62.3379 69.371 62.397 69.3463 62.5006 69.3069C62.5499 69.2872 62.609 69.2477 62.6731 69.2182C62.7323 69.1738 62.8062 69.1344 62.8654 69.0703C62.9295 69.0161 62.9935 68.9421 63.0527 68.8632C63.1118 68.7844 63.1611 68.6907 63.2055 68.597C63.2499 68.4984 63.2893 68.3949 63.3189 68.2865C63.3485 68.1731 63.3731 68.0696 63.3781 67.9463L63.3928 67.7787L63.383 67.616C63.3682 67.5667 63.3583 67.5125 63.3485 67.4632C63.3288 67.4188 63.314 67.3646 63.2893 67.3252C63.1956 67.1477 63.0478 67.0146 62.8999 66.916C62.7471 66.8174 62.6041 66.7533 62.5055 66.7139C62.402 66.6745 62.3428 66.6547 62.3428 66.6547Z" fill="#DADADA"/>
</g>
<g style="mix-blend-mode:multiply">
<path d="M62.6859 68.2039C62.6859 68.475 62.4936 68.6969 62.257 68.6969C62.0204 68.6969 61.8281 68.475 61.8281 68.2039C61.8281 67.9328 62.0204 67.7109 62.257 67.7109C62.4936 67.7109 62.6859 67.9328 62.6859 68.2039Z" fill="#DADADA"/>
</g>
<path d="M36.3398 68.0721C36.3398 69.477 37.523 70.6207 38.9772 70.6207C40.4315 70.6207 41.6195 69.477 41.6195 68.0721C41.6195 66.6671 40.4364 65.5234 38.9772 65.5234C37.518 65.5234 36.3398 66.6671 36.3398 68.0721Z" fill="#F8BB94"/>
<g style="mix-blend-mode:multiply">
<path d="M38.646 66.6547C38.646 66.6547 38.5819 66.6449 38.4686 66.6498C38.3552 66.6498 38.1925 66.6695 38.0002 66.7435C37.8129 66.8125 37.5911 66.9456 37.4383 67.1773C37.3988 67.2315 37.3742 67.3005 37.3397 67.3597C37.315 67.4238 37.2953 67.4928 37.2756 67.5618L37.2559 67.7738C37.2559 67.8428 37.2559 67.9118 37.2608 67.9808C37.2706 68.1139 37.3052 68.252 37.3446 68.3801C37.384 68.5083 37.4432 68.6266 37.5073 68.74C37.6404 68.9618 37.8228 69.1344 38.0052 69.233C38.089 69.2872 38.1826 69.3118 38.2615 69.3365C38.3404 69.3513 38.4094 69.371 38.4686 69.371C38.5819 69.371 38.646 69.371 38.646 69.371C38.646 69.371 38.5869 69.3463 38.4833 69.3069C38.434 69.2872 38.3798 69.2477 38.3108 69.2182C38.2517 69.1738 38.1826 69.1344 38.1186 69.0703C38.0545 69.0161 37.9904 68.9421 37.9312 68.8632C37.8721 68.7844 37.8228 68.6907 37.7784 68.597C37.734 68.4984 37.6946 68.3949 37.665 68.2865C37.6354 68.1731 37.6108 68.0696 37.6059 67.9463L37.5911 67.7787L37.6009 67.616C37.6157 67.5667 37.6256 67.5125 37.6354 67.4632C37.6552 67.4188 37.67 67.3646 37.6946 67.3252C37.7883 67.1477 37.9411 67.0146 38.084 66.916C38.2319 66.8174 38.3749 66.7533 38.4784 66.7139C38.5819 66.6745 38.6411 66.6547 38.6411 66.6547H38.646Z" fill="#DADADA"/>
</g>
<g style="mix-blend-mode:multiply">
<path d="M38.2969 68.2039C38.2969 68.475 38.4891 68.6969 38.7258 68.6969C38.9624 68.6969 39.1546 68.475 39.1546 68.2039C39.1546 67.9328 38.9624 67.7109 38.7258 67.7109C38.4891 67.7109 38.2969 67.9328 38.2969 68.2039Z" fill="#DADADA"/>
</g>
<path d="M62.0065 64.7096C62.0065 73.3711 57.9395 79.4543 50.3084 79.4543C42.6773 79.4543 38.6152 73.3711 38.6152 64.7096C38.6152 56.0482 42.835 49.0234 50.4662 49.0234C58.0973 49.0234 62.0065 56.0482 62.0065 64.7096Z" fill="#F8BB94"/>
<path d="M47.5645 82.2656C47.5645 82.2656 40.2981 83.2269 37.6903 85.4847C35.0283 87.7869 34.2445 89.7784 33.2832 94.3285H67.3423C66.3859 89.7784 65.5972 87.7869 62.9352 85.4847C60.3224 83.2269 53.0561 82.2656 53.0561 82.2656H47.5595H47.5645Z" fill="#F8BB94"/>
<path d="M44.7743 82.7656C44.7743 82.7656 40.303 83.229 37.6903 85.4868C35.0283 87.789 34.2445 89.7805 33.2832 94.3306H67.3423C66.3859 89.7805 65.5972 87.789 62.9352 85.4868C60.3224 83.229 55.8709 82.7706 55.8709 82.7706L50.3103 88.3016L44.7693 82.7656H44.7743Z" fill="#373C47"/>
<path d="M38.2979 59.9435L38.7218 67.0126L39.757 67.3035C38.85 55.8913 44.8592 53.2786 44.8592 53.2786L46.5403 46.1355C41.4036 46.0122 39.1556 50.2123 39.1556 50.2123C39.1556 50.2123 37.2528 52.1447 38.2979 59.9385V59.9435Z" fill="#432918"/>
<path d="M38.3564 60.862C38.3564 60.862 38.1444 59.9697 37.962 58.6289C37.8634 57.9584 37.7747 57.1746 37.6958 56.3316C37.6613 55.9126 37.612 55.4788 37.5923 55.0351C37.5775 54.8133 37.5676 54.5915 37.5528 54.3696L37.543 54.202V54.1823V54.1182V54.0738V53.99L37.5528 53.6548C37.5528 53.4379 37.5972 53.1865 37.6366 52.94C37.6711 52.6886 37.7303 52.4569 37.7944 52.2301C37.8289 52.1168 37.8535 51.9984 37.888 51.89L38.0162 51.5646C38.0951 51.3477 38.1937 51.1407 38.2972 50.9435C38.3958 50.7414 38.4993 50.5491 38.6176 50.3717C38.731 50.1893 38.8493 50.0217 38.9726 49.859C39.2092 49.5287 39.4655 49.2477 39.712 49.0061C39.9536 48.7547 40.1951 48.5477 40.417 48.3751C40.6339 48.1977 40.8409 48.0596 41.0085 47.9512C41.3487 47.7343 41.5557 47.6406 41.5557 47.6406C41.5557 47.6406 40.9099 48.2963 40.1606 49.3808C40.067 49.5139 39.9733 49.6569 39.8846 49.8097C39.7909 49.9576 39.6923 50.1104 39.6085 50.278C39.5148 50.4407 39.4261 50.6083 39.3472 50.7858C39.2634 50.9583 39.1747 51.1358 39.1057 51.3231C39.0268 51.5055 38.9529 51.6928 38.8986 51.89C38.8345 52.0823 38.7754 52.2794 38.731 52.4816C38.6768 52.6837 38.6324 52.8809 38.6127 53.078C38.5831 53.2752 38.5536 53.4626 38.5536 53.6992L38.5338 54.0344V54.1182L38.5289 54.1626C38.5289 54.1626 38.5289 54.0886 38.5289 54.1281V54.1379V54.1576V54.3253C38.5437 54.5471 38.5486 54.7739 38.5585 54.9957C38.5782 55.4394 38.5683 55.8732 38.5733 56.2971C38.5733 57.1401 38.5585 57.9288 38.524 58.6091C38.4648 59.9648 38.3366 60.8719 38.3366 60.8719L38.3564 60.862Z" fill="#2A1807"/>
<g style="mix-blend-mode:multiply">
<path d="M44.1631 53.6908C44.1631 53.6908 47.7766 59.9219 59.3662 59.6015C59.3662 59.6015 57.1972 57.0381 58.2768 55.8204C58.2768 55.8204 47.047 50.4816 44.1582 53.6908H44.1631Z" fill="#C6C6C6"/>
</g>
<path d="M62.2414 61.3292L61.8174 68.3983L60.7871 68.6892C61.6942 57.277 55.6849 54.6692 55.6849 54.6692L54.0039 47.5261C59.1406 47.4029 61.3885 51.6029 61.3885 51.6029C61.3885 51.6029 63.2914 53.5354 62.2414 61.3292Z" fill="#432918"/>
<path d="M42.2598 47.1839C42.2598 47.1839 43.926 43.7874 49.9106 42.8606C49.9106 42.8606 59.8685 41.6627 63.0433 48.5741C63.0433 48.5741 64.6503 51.9016 64.0686 57.7532C64.0686 57.7532 63.4672 55.1207 61.8355 54.2432C61.8355 54.2432 61.5644 57.3588 57.2657 55.4411C57.2657 55.4411 56.5805 56.7179 58.084 58.9905C58.084 58.9905 44.1676 58.9905 42.2647 47.1839H42.2598Z" fill="#432918"/>
<path d="M42.2598 47.1879C42.2598 47.1879 42.3929 46.8231 42.7823 46.271C42.9844 45.9999 43.2358 45.6696 43.5809 45.3442C43.7436 45.1717 43.9408 45.0139 44.138 44.8315C44.345 44.6689 44.5718 44.4914 44.8133 44.3287C45.3014 44.0033 45.8486 43.6681 46.4697 43.4069C47.081 43.1259 47.7514 42.8843 48.4613 42.697C48.8113 42.5836 49.181 42.5343 49.5508 42.4456L49.8268 42.3864L50.1374 42.347C50.3296 42.3273 50.5219 42.3174 50.7142 42.3075C51.4832 42.2681 52.2621 42.273 53.036 42.3223C53.8149 42.3815 54.5889 42.485 55.3431 42.6378C56.0974 42.7857 56.8269 43.0076 57.5171 43.2688C58.2073 43.5252 58.8481 43.8505 59.4249 44.2005C60.0115 44.5456 60.5094 44.9548 60.9383 45.3541C61.3721 45.7534 61.7172 46.1724 61.9932 46.5569C62.2693 46.9414 62.4763 47.3013 62.6242 47.602C62.7869 47.8978 62.8707 48.1492 62.9348 48.3168C62.9989 48.4844 63.0334 48.5731 63.0334 48.5731C63.0334 48.5731 62.9841 48.4943 62.8855 48.3415C62.7918 48.1886 62.6538 47.9717 62.4517 47.7055C62.2644 47.4344 62.0031 47.1337 61.6925 46.7985C61.5348 46.6358 61.3672 46.4633 61.1749 46.3006C60.9876 46.128 60.7805 45.9604 60.5636 45.7928C60.12 45.4675 59.6171 45.1372 59.0552 44.8562C58.4932 44.5703 57.872 44.3238 57.2213 44.1069C56.5657 43.89 55.8706 43.7371 55.1558 43.5991C54.441 43.466 53.7065 43.3822 52.967 43.3329C52.2276 43.2738 51.4832 43.259 50.7585 43.2836C50.5761 43.2935 50.3986 43.3033 50.2163 43.3132L49.9747 43.328L49.7085 43.3723C49.3585 43.4364 49.0036 43.4709 48.6733 43.5597C47.9979 43.7125 47.3472 43.8752 46.7556 44.097C46.6077 44.1512 46.4598 44.2055 46.3169 44.2597C46.1739 44.3188 46.0359 44.3829 45.9028 44.4421C45.6218 44.5505 45.3704 44.6935 45.1239 44.8167C44.6359 45.0829 44.2021 45.3541 43.8422 45.6252C43.4774 45.8963 43.1816 46.1625 42.945 46.3893C42.7133 46.6259 42.5358 46.8133 42.4274 46.9562C42.314 47.0942 42.2647 47.1781 42.2647 47.1781L42.2598 47.1879Z" fill="#2A1807"/>
</g>
<g clip-path="url(#clip2_6636_40536)">
<rect x="41.9297" y="94.8047" width="29.1782" height="29.1782" rx="14.5891" fill="#F5F5F5"/>
<path d="M63.2999 110.661C63.2999 110.661 61.453 116.905 58.1895 117.297V115.873C58.1895 115.873 61.5352 109.636 63.2999 110.661Z" fill="#432918"/>
<path d="M58.2466 115.695H55.4375V117.366H58.2466V115.695Z" fill="#F8BB94"/>
<g style="mix-blend-mode:multiply">
<path d="M55.5971 116.943C55.9307 116.612 56.3561 116.425 56.8251 116.389C57.2264 116.358 57.9105 116.445 58.1257 116.027C58.1571 115.961 58.2006 115.91 58.2466 115.874V115.695H55.4375V117.139C55.4858 117.071 55.5366 117.003 55.5971 116.943Z" fill="#C6C6C6"/>
</g>
<path d="M63.8703 110.344C63.8703 111.033 63.2901 111.593 62.5746 111.593C61.859 111.593 61.2812 111.033 61.2812 110.344C61.2812 109.655 61.8614 109.094 62.5746 109.094C63.2877 109.094 63.8703 109.655 63.8703 110.344Z" fill="#F8BB94"/>
<g style="mix-blend-mode:multiply">
<path d="M62.7412 109.652C62.7412 109.652 62.7726 109.647 62.8282 109.649C62.8838 109.652 62.9636 109.659 63.0578 109.695C63.1497 109.729 63.2585 109.794 63.3334 109.908C63.3504 109.934 63.3649 109.966 63.3794 109.997C63.3915 110.029 63.4011 110.062 63.4108 110.096L63.4205 110.2C63.4205 110.234 63.4205 110.268 63.4156 110.302C63.4108 110.367 63.3939 110.435 63.3745 110.495C63.3552 110.558 63.3262 110.616 63.2948 110.672C63.2295 110.78 63.14 110.865 63.0506 110.913C63.0095 110.94 62.9636 110.952 62.9249 110.964C62.8838 110.971 62.8524 110.981 62.8234 110.981C62.7653 110.981 62.7363 110.981 62.7363 110.981C62.7363 110.981 62.7653 110.969 62.8161 110.95C62.8403 110.94 62.8693 110.921 62.9007 110.906C62.9297 110.884 62.9636 110.865 62.995 110.836C63.0264 110.809 63.0578 110.773 63.0869 110.735C63.1159 110.696 63.14 110.65 63.1618 110.604C63.186 110.556 63.2029 110.505 63.2174 110.452C63.2319 110.396 63.244 110.345 63.2464 110.285L63.2537 110.203L63.2488 110.123C63.2416 110.099 63.2367 110.072 63.2319 110.048C63.2222 110.026 63.215 110.002 63.2029 109.98C63.157 109.893 63.082 109.828 63.0095 109.78C62.937 109.731 62.8669 109.702 62.8161 109.681C62.7653 109.661 62.7363 109.652 62.7363 109.652H62.7412Z" fill="#DADADA"/>
</g>
<g style="mix-blend-mode:multiply">
<path d="M62.9089 110.406C62.9089 110.539 62.8146 110.648 62.6986 110.648C62.5826 110.648 62.4883 110.539 62.4883 110.406C62.4883 110.273 62.5826 110.164 62.6986 110.164C62.8146 110.164 62.9089 110.273 62.9089 110.406Z" fill="#DADADA"/>
</g>
<path d="M49.9883 110.344C49.9883 111.033 50.5685 111.593 51.2816 111.593C51.9948 111.593 52.5774 111.033 52.5774 110.344C52.5774 109.655 51.9972 109.094 51.2816 109.094C50.5661 109.094 49.9883 109.655 49.9883 110.344Z" fill="#F8BB94"/>
<g style="mix-blend-mode:multiply">
<path d="M51.1173 109.652C51.1173 109.652 51.0858 109.647 51.0302 109.649C50.9746 109.652 50.8949 109.659 50.8006 109.695C50.7087 109.729 50.5999 109.794 50.525 109.908C50.5057 109.934 50.4936 109.966 50.4766 109.997C50.4646 110.029 50.4549 110.062 50.4476 110.096L50.4355 110.2C50.4355 110.234 50.4355 110.268 50.4404 110.302C50.4452 110.367 50.4621 110.435 50.4815 110.495C50.5008 110.558 50.5298 110.616 50.5613 110.672C50.6265 110.78 50.7136 110.865 50.8054 110.913C50.8465 110.94 50.8924 110.952 50.9287 110.964C50.9674 110.971 51.0012 110.981 51.0302 110.981C51.0858 110.981 51.1173 110.981 51.1173 110.981C51.1173 110.981 51.0883 110.969 51.0375 110.95C51.0133 110.94 50.9843 110.921 50.9529 110.906C50.9239 110.884 50.8876 110.865 50.8586 110.836C50.8248 110.809 50.7957 110.773 50.7667 110.735C50.7377 110.696 50.7136 110.65 50.6894 110.604C50.6676 110.556 50.6507 110.505 50.6338 110.452C50.6193 110.396 50.6072 110.345 50.6048 110.285L50.5975 110.203L50.6024 110.123C50.6096 110.099 50.6144 110.072 50.6193 110.048C50.6289 110.026 50.6362 110.002 50.6483 109.98C50.6942 109.893 50.7667 109.828 50.8393 109.78C50.9118 109.731 50.9819 109.702 51.0327 109.681C51.0834 109.661 51.1148 109.652 51.1148 109.652H51.1173Z" fill="#DADADA"/>
</g>
<g style="mix-blend-mode:multiply">
<path d="M50.9473 110.406C50.9473 110.539 51.0415 110.648 51.1576 110.648C51.2736 110.648 51.3679 110.539 51.3679 110.406C51.3679 110.273 51.2736 110.164 51.1576 110.164C51.0415 110.164 50.9473 110.273 50.9473 110.406Z" fill="#DADADA"/>
</g>
<path d="M62.5777 108.684C62.5777 112.932 60.5857 115.915 56.8435 115.915C53.1013 115.915 51.1094 112.932 51.1094 108.684C51.1094 104.437 53.1787 100.992 56.9209 100.992C60.6631 100.992 62.5801 104.437 62.5801 108.684H62.5777Z" fill="#F8BB94"/>
<path d="M55.4936 117.289C55.4936 117.289 51.9327 117.76 50.6514 118.868C49.346 119.997 48.9592 120.973 48.4902 123.205H65.1948C64.7258 120.973 64.339 119.997 63.0336 118.868C61.7523 117.76 58.1914 117.289 58.1914 117.289H55.496H55.4936Z" fill="#F8BB94"/>
<path d="M58.1871 117.297C58.1871 117.297 60.0219 117.539 61.5328 118.085C61.5328 118.085 60.6408 120.244 61.5328 123.212H52.332C52.332 123.212 52.9654 121.402 52.5738 117.94C53.9807 117.495 55.4892 117.297 55.4892 117.297L56.7801 119.809L58.1847 117.297H58.1871Z" fill="#E74645"/>
<path d="M62.7885 109.104C60.8545 108.631 59.9166 106.228 59.9166 106.228C59.8102 106.835 59.9794 107.391 59.9794 107.391C56.4959 105.771 54.3589 103.191 54.3589 103.191C52.5796 100.994 55.4371 99.5508 55.4371 99.5508C60.0229 97.9311 61.9956 100.994 61.9956 100.994C61.9956 100.994 65.2543 103.941 63.6491 109.636C63.6491 109.636 63.4219 109.259 62.7861 109.102L62.7885 109.104Z" fill="#432918"/>
<path d="M54.8839 100.849C54.8839 100.849 50.7743 100.989 49.9862 107.484C49.9862 107.484 48.85 119.369 54.1829 121.392C54.1829 121.392 53.8324 118.029 55.4351 117.294V115.752C55.4351 115.752 51.5479 115.068 51.5986 109.984C51.5986 109.984 51.6228 104.117 54.6083 103.005L54.8839 100.844V100.849Z" fill="#432918"/>
<path d="M63.01 111.542C63.01 111.781 62.8166 111.975 62.5773 111.975C62.3379 111.975 62.1445 111.781 62.1445 111.542C62.1445 111.303 62.3379 111.109 62.5773 111.109C62.8166 111.109 63.01 111.303 63.01 111.542Z" fill="white"/>
</g>
<rect x="92.9395" y="11.7891" width="13.6076" height="13.6076" rx="6.8038" fill="#F5F5F5"/>
<path d="M102.903 18.889C102.903 18.889 102.042 21.8011 100.52 21.9837V21.3197C100.52 21.3197 102.08 18.411 102.903 18.889Z" fill="#432918"/>
<path d="M100.548 21.2344H99.2383V22.0134H100.548V21.2344Z" fill="#F8BB94"/>
<g style="mix-blend-mode:multiply">
<path d="M99.3127 21.8161C99.4683 21.6617 99.6667 21.5749 99.8854 21.5579C100.073 21.5433 100.392 21.5839 100.492 21.3888C100.507 21.3584 100.527 21.3347 100.548 21.3178V21.2344H99.2383V21.9074C99.2608 21.8759 99.2845 21.8443 99.3127 21.8161Z" fill="#C6C6C6"/>
</g>
<path d="M103.168 18.7313C103.168 19.0526 102.898 19.3142 102.564 19.3142C102.23 19.3142 101.961 19.0526 101.961 18.7313C101.961 18.41 102.232 18.1484 102.564 18.1484C102.897 18.1484 103.168 18.41 103.168 18.7313Z" fill="#F8BB94"/>
<g style="mix-blend-mode:multiply">
<path d="M102.643 18.4077C102.643 18.4077 102.658 18.4054 102.683 18.4066C102.709 18.4077 102.747 18.4111 102.791 18.428C102.833 18.4438 102.884 18.4742 102.919 18.5272C102.927 18.5396 102.934 18.5543 102.941 18.5689C102.946 18.5836 102.951 18.5994 102.955 18.6151L102.96 18.6636C102.96 18.6794 102.96 18.6952 102.957 18.711C102.955 18.7414 102.947 18.773 102.938 18.8012C102.929 18.8305 102.916 18.8575 102.901 18.8835C102.871 18.9342 102.829 18.9736 102.787 18.9962C102.768 19.0086 102.747 19.0142 102.729 19.0199C102.709 19.0233 102.695 19.0278 102.681 19.0278C102.654 19.0278 102.641 19.0278 102.641 19.0278C102.641 19.0278 102.654 19.0221 102.678 19.0131C102.689 19.0086 102.703 18.9996 102.717 18.9928C102.731 18.9827 102.747 18.9736 102.761 18.9601C102.776 18.9477 102.791 18.9308 102.804 18.9128C102.818 18.8947 102.829 18.8733 102.839 18.8519C102.85 18.8293 102.858 18.8057 102.865 18.7809C102.872 18.7549 102.877 18.7313 102.879 18.7031L102.882 18.6647L102.88 18.6275C102.876 18.6163 102.874 18.6039 102.872 18.5926C102.867 18.5824 102.864 18.5712 102.858 18.561C102.837 18.5204 102.802 18.49 102.768 18.4674C102.734 18.4449 102.702 18.4314 102.678 18.4212C102.654 18.4122 102.641 18.4077 102.641 18.4077H102.643Z" fill="#DADADA"/>
</g>
<g style="mix-blend-mode:multiply">
<path d="M102.72 18.7612C102.72 18.8232 102.676 18.8739 102.622 18.8739C102.567 18.8739 102.523 18.8232 102.523 18.7612C102.523 18.6992 102.567 18.6484 102.622 18.6484C102.676 18.6484 102.72 18.6992 102.72 18.7612Z" fill="#DADADA"/>
</g>
<path d="M96.6973 18.7313C96.6973 19.0526 96.9678 19.3142 97.3004 19.3142C97.633 19.3142 97.9047 19.0526 97.9047 18.7313C97.9047 18.41 97.6341 18.1484 97.3004 18.1484C96.9667 18.1484 96.6973 18.41 96.6973 18.7313Z" fill="#F8BB94"/>
<g style="mix-blend-mode:multiply">
<path d="M97.2242 18.4077C97.2242 18.4077 97.2095 18.4054 97.1836 18.4066C97.1577 18.4077 97.1205 18.4111 97.0765 18.428C97.0336 18.4438 96.9829 18.4742 96.948 18.5272C96.9389 18.5396 96.9333 18.5543 96.9254 18.5689C96.9198 18.5836 96.9153 18.5994 96.9119 18.6151L96.9062 18.6636C96.9062 18.6794 96.9063 18.6952 96.9085 18.711C96.9108 18.7414 96.9187 18.773 96.9277 18.8012C96.9367 18.8305 96.9502 18.8575 96.9649 18.8835C96.9953 18.9342 97.0359 18.9736 97.0787 18.9962C97.0979 19.0086 97.1193 19.0142 97.1362 19.0199C97.1543 19.0233 97.1701 19.0278 97.1836 19.0278C97.2095 19.0278 97.2242 19.0278 97.2242 19.0278C97.2242 19.0278 97.2106 19.0221 97.187 19.0131C97.1757 19.0086 97.1622 18.9996 97.1475 18.9928C97.134 18.9827 97.1171 18.9736 97.1035 18.9601C97.0878 18.9477 97.0742 18.9308 97.0607 18.9128C97.0472 18.8947 97.0359 18.8733 97.0246 18.8519C97.0145 18.8293 97.0066 18.8057 96.9987 18.7809C96.9919 18.7549 96.9863 18.7313 96.9852 18.7031L96.9818 18.6647L96.984 18.6275C96.9874 18.6163 96.9897 18.6039 96.9919 18.5926C96.9964 18.5824 96.9998 18.5712 97.0055 18.561C97.0269 18.5204 97.0607 18.49 97.0945 18.4674C97.1283 18.4449 97.161 18.4314 97.1847 18.4212C97.2084 18.4122 97.223 18.4077 97.223 18.4077H97.2242Z" fill="#DADADA"/>
</g>
<g style="mix-blend-mode:multiply">
<path d="M97.1445 18.7612C97.1445 18.8232 97.1885 18.8739 97.2426 18.8739C97.2967 18.8739 97.3407 18.8232 97.3407 18.7612C97.3407 18.6992 97.2967 18.6484 97.2426 18.6484C97.1885 18.6484 97.1445 18.6992 97.1445 18.7612Z" fill="#DADADA"/>
</g>
<path d="M102.567 17.9702C102.567 19.9511 101.638 21.3423 99.8929 21.3423C98.1477 21.3423 97.2188 19.9511 97.2188 17.9702C97.2188 15.9894 98.1838 14.3828 99.929 14.3828C101.674 14.3828 102.568 15.9894 102.568 17.9702H102.567Z" fill="#F8BB94"/>
<path d="M99.2641 21.9766C99.2641 21.9766 97.6035 22.1964 97.0059 22.7128C96.3971 23.2393 96.2168 23.6947 95.998 24.7353H103.788C103.57 23.6947 103.389 23.2393 102.781 22.7128C102.183 22.1964 100.522 21.9766 100.522 21.9766H99.2653H99.2641Z" fill="#F8BB94"/>
<path d="M100.522 21.9766C100.522 21.9766 101.377 22.0893 102.082 22.3441C102.082 22.3441 101.666 23.3509 102.082 24.7353H97.791C97.791 24.7353 98.0864 23.8909 97.9038 22.2765C98.5599 22.069 99.2634 21.9766 99.2634 21.9766L99.8654 23.1479L100.52 21.9766H100.522Z" fill="#E74645"/>
<path d="M102.666 18.1603C101.764 17.9393 101.327 16.8187 101.327 16.8187C101.277 17.1017 101.356 17.361 101.356 17.361C99.7316 16.6056 98.735 15.4027 98.735 15.4027C97.9052 14.3779 99.2378 13.7048 99.2378 13.7048C101.377 12.9494 102.296 14.3779 102.296 14.3779C102.296 14.3779 103.816 15.7522 103.068 18.4083C103.068 18.4083 102.962 18.2324 102.665 18.1592L102.666 18.1603Z" fill="#432918"/>
<path d="M98.9799 14.3148C98.9799 14.3148 97.0633 14.3801 96.6957 17.4095C96.6957 17.4095 96.1659 22.9518 98.6529 23.8954C98.6529 23.8954 98.4894 22.3272 99.2369 21.9845V21.2652C99.2369 21.2652 97.424 20.9461 97.4477 18.5752C97.4477 18.5752 97.459 15.839 98.8513 15.3204L98.9799 14.3125V14.3148Z" fill="#432918"/>
<path d="M102.771 19.2956C102.771 19.4072 102.681 19.4974 102.569 19.4974C102.457 19.4974 102.367 19.4072 102.367 19.2956C102.367 19.1839 102.457 19.0938 102.569 19.0938C102.681 19.0938 102.771 19.1839 102.771 19.2956Z" fill="white"/>
<rect x="32.1289" y="13.625" width="17.4586" height="17.4586" rx="8.72928" fill="#BAE637"/>
<path d="M41.7262 26.0391H40.0469V27.0386H41.7262V26.0391Z" fill="#F8BB94"/>
<g style="mix-blend-mode:multiply">
<path d="M40.1423 26.7854C40.3405 26.5873 40.5965 26.4744 40.8771 26.4542C41.1173 26.4368 41.5266 26.4875 41.6539 26.2372C41.6741 26.1982 41.6987 26.1678 41.7262 26.1461V26.0391H40.0469V26.9026C40.0758 26.8621 40.1062 26.823 40.1423 26.7854Z" fill="#C6C6C6"/>
</g>
<path d="M45.0921 22.8416C45.0921 23.2553 44.745 23.5894 44.3183 23.5894C43.8916 23.5894 43.543 23.2538 43.543 22.8416C43.543 22.4293 43.8901 22.0938 44.3183 22.0938C44.7464 22.0938 45.0921 22.4293 45.0921 22.8416Z" fill="#F8BB94"/>
<g style="mix-blend-mode:multiply">
<path d="M44.418 22.4315C44.418 22.4315 44.4368 22.4286 44.47 22.4301C44.5033 22.4301 44.551 22.4359 44.6075 22.4576C44.6624 22.4778 44.7275 22.5169 44.7724 22.5849C44.7839 22.6008 44.7912 22.6196 44.8013 22.6384C44.8085 22.6572 44.8143 22.6774 44.8186 22.6977L44.8259 22.7599C44.8259 22.7801 44.8244 22.8004 44.823 22.8221C44.8201 22.8611 44.81 22.9016 44.7984 22.9378C44.7868 22.9754 44.7695 23.0101 44.7507 23.0434C44.7116 23.1085 44.6581 23.1591 44.606 23.188C44.5814 23.2039 44.5539 23.2112 44.5322 23.2184C44.5077 23.2227 44.4888 23.2285 44.4715 23.2285C44.4382 23.2285 44.4194 23.2285 44.4194 23.2285C44.4194 23.2285 44.4368 23.2213 44.4672 23.2083C44.4816 23.2025 44.499 23.1909 44.5178 23.1822C44.5351 23.1692 44.5568 23.1577 44.5742 23.1403C44.5944 23.1244 44.6118 23.1027 44.6292 23.0796C44.6465 23.0564 44.661 23.0304 44.6754 23.0014C44.6899 22.9725 44.6986 22.9421 44.7087 22.9103C44.7174 22.877 44.7246 22.8467 44.7261 22.8105L44.7304 22.7613L44.7275 22.7136C44.7232 22.6991 44.7203 22.6832 44.7174 22.6688C44.7116 22.6557 44.7073 22.6413 44.7 22.6283C44.6725 22.5762 44.6292 22.5371 44.5858 22.5082C44.5409 22.4793 44.499 22.4619 44.47 22.4489C44.4411 22.4373 44.4223 22.4315 44.4223 22.4315H44.418Z" fill="#DADADA"/>
</g>
<g style="mix-blend-mode:multiply">
<path d="M44.5173 22.879C44.5173 22.9586 44.4609 23.0237 44.3915 23.0237C44.322 23.0237 44.2656 22.9586 44.2656 22.879C44.2656 22.7995 44.322 22.7344 44.3915 22.7344C44.4609 22.7344 44.5173 22.7995 44.5173 22.879Z" fill="#DADADA"/>
</g>
<path d="M36.7852 22.8416C36.7852 23.2553 37.1323 23.5894 37.559 23.5894C37.9857 23.5894 38.3343 23.2538 38.3343 22.8416C38.3343 22.4293 37.9872 22.0938 37.559 22.0938C37.1309 22.0938 36.7852 22.4293 36.7852 22.8416Z" fill="#F8BB94"/>
<g style="mix-blend-mode:multiply">
<path d="M37.4587 22.4315C37.4587 22.4315 37.4399 22.4286 37.4066 22.4301C37.3733 22.4301 37.3256 22.4359 37.2692 22.4576C37.2142 22.4778 37.1491 22.5169 37.1043 22.5849C37.0927 22.6008 37.0855 22.6196 37.0754 22.6384C37.0681 22.6572 37.0624 22.6774 37.0566 22.6977L37.0508 22.7599C37.0508 22.7801 37.0508 22.8004 37.0537 22.8221C37.0566 22.8611 37.0667 22.9016 37.0783 22.9378C37.0898 22.9754 37.1072 23.0101 37.126 23.0434C37.1651 23.1085 37.2186 23.1591 37.2706 23.188C37.2952 23.2039 37.3227 23.2112 37.3459 23.2184C37.369 23.2227 37.3893 23.2285 37.4066 23.2285C37.4399 23.2285 37.4587 23.2285 37.4587 23.2285C37.4587 23.2285 37.4413 23.2213 37.411 23.2083C37.3965 23.2025 37.3791 23.1909 37.3603 23.1822C37.343 23.1692 37.3213 23.1577 37.3039 23.1403C37.2851 23.1244 37.2663 23.1027 37.2489 23.0796C37.2316 23.0564 37.2171 23.0304 37.2027 23.0014C37.1882 22.9725 37.1795 22.9421 37.1694 22.9103C37.1607 22.877 37.1535 22.8467 37.152 22.8105L37.1477 22.7613L37.1506 22.7136C37.1549 22.6991 37.1578 22.6832 37.1607 22.6688C37.1665 22.6557 37.1708 22.6413 37.1781 22.6283C37.2056 22.5762 37.2489 22.5371 37.2923 22.5082C37.3357 22.4793 37.3777 22.4619 37.4081 22.4489C37.4384 22.4373 37.4558 22.4315 37.4558 22.4315H37.4587Z" fill="#DADADA"/>
</g>
<g style="mix-blend-mode:multiply">
<path d="M37.3594 22.879C37.3594 22.9586 37.4158 23.0237 37.4852 23.0237C37.5546 23.0237 37.6111 22.9586 37.6111 22.879C37.6111 22.7995 37.5546 22.7344 37.4852 22.7344C37.4158 22.7344 37.3594 22.7995 37.3594 22.879Z" fill="#DADADA"/>
</g>
<path d="M44.3166 21.8526C44.3166 24.3941 43.1247 26.179 40.8841 26.179C38.6436 26.179 37.4531 24.3941 37.4531 21.8526C37.4531 19.3112 38.6913 17.25 40.9304 17.25C43.1695 17.25 44.3166 19.3112 44.3166 21.8526Z" fill="#F8BB94"/>
<path d="M40.0791 27C40.0791 27 37.947 27.2821 37.1818 27.9445C36.4007 28.62 36.1693 29.2044 35.8887 30.5395H45.8823C45.6002 29.2044 45.3702 28.62 44.5891 27.9445C43.8225 27.2821 41.6919 27 41.6919 27H40.0791Z" fill="#F8BB94"/>
<path d="M42.7261 27.1927C43.3813 27.3446 44.1798 27.5905 44.5891 27.9434C45.3702 28.6189 45.6002 29.2033 45.8823 30.5384H35.8887C36.1693 29.2033 36.4007 28.6189 37.1818 27.9434C37.6027 27.5789 38.4359 27.3301 39.0998 27.1797L40.8847 29.1035L42.7246 27.1927H42.7261Z" fill="#881719"/>
<path d="M39.717 17.1655C39.717 17.1655 37.258 17.2494 36.7864 21.136C36.7864 21.136 36.6953 24.4745 36.6953 28.4233C36.6953 28.4233 37.258 27.4368 40.0468 27.0058V26.0829C40.0468 26.0829 37.7209 25.6736 37.7512 22.6331C37.7512 22.6331 37.7671 19.1226 39.5521 18.4572L39.717 17.1641V17.1655Z" fill="#432918"/>
<path d="M42.0583 17.1647C42.0583 17.1647 44.8514 17.0244 45.323 20.911C45.323 20.911 45.3779 24.3608 45.0944 28.463C45.0944 28.463 44.3206 27.3565 41.7285 27.0064V26.0836C41.7285 26.0836 44.053 25.6742 44.024 22.6338C44.024 22.6338 44.0096 19.1232 42.2232 18.4578L42.0598 17.1647H42.0583Z" fill="#432918"/>
<path d="M40.5051 20.9108L40.8522 19.1693V20.9108H42.5764L42.8614 19.6856L43.1593 20.9108H45.3204C45.3204 19.6697 45.0918 18.6717 45.0918 18.6717C45.0918 18.6717 44.5161 15.9625 40.4603 16.2026C40.4603 16.2026 37.0423 16.2026 36.7949 20.9108H40.5051Z" fill="#432918"/>
<g clip-path="url(#clip3_6636_40536)">
<rect x="71.5117" y="70.3359" width="48.2142" height="48.2142" rx="24.1071" fill="#FFC53D"/>
<path d="M98.5538 107.25H93.9121V110.01H98.5538V107.25Z" fill="#F8BB94"/>
<g style="mix-blend-mode:multiply">
<path d="M94.1797 109.315C94.7269 108.768 95.434 108.46 96.2089 108.4C96.872 108.349 98.0025 108.492 98.358 107.801C98.4139 107.693 98.4818 107.61 98.5577 107.546V107.25H93.916V109.635C93.9959 109.523 94.0798 109.415 94.1837 109.311L94.1797 109.315Z" fill="#C6C6C6"/>
</g>
<path d="M107.851 98.3933C107.851 99.5358 106.892 100.459 105.709 100.459C104.527 100.459 103.568 99.5318 103.568 98.3933C103.568 97.2549 104.527 96.3281 105.709 96.3281C106.892 96.3281 107.851 97.2549 107.851 98.3933Z" fill="#F8BB94"/>
<g style="mix-blend-mode:multiply">
<path d="M105.984 97.2473C105.984 97.2473 106.036 97.2393 106.128 97.2433C106.22 97.2433 106.352 97.2593 106.508 97.3192C106.659 97.3751 106.839 97.483 106.963 97.6667C106.995 97.7107 107.015 97.7666 107.043 97.8145C107.063 97.8665 107.079 97.9224 107.091 97.9783L107.107 98.1501C107.107 98.206 107.103 98.2619 107.103 98.3218C107.095 98.4297 107.067 98.5415 107.035 98.6454C107.003 98.7493 106.955 98.8451 106.903 98.937C106.795 99.1168 106.651 99.2566 106.504 99.3365C106.436 99.3804 106.36 99.4004 106.296 99.4204C106.232 99.4323 106.176 99.4483 106.128 99.4483C106.032 99.4483 105.984 99.4483 105.984 99.4483C105.984 99.4483 106.032 99.4284 106.116 99.3964C106.156 99.3804 106.2 99.3485 106.256 99.3245C106.304 99.2885 106.36 99.2566 106.412 99.2086C106.464 99.1607 106.516 99.1048 106.564 99.0409C106.612 98.977 106.651 98.9011 106.691 98.8252C106.727 98.7453 106.755 98.6614 106.783 98.5735C106.807 98.4816 106.827 98.3977 106.831 98.2979L106.843 98.1621L106.831 98.0302C106.819 97.9903 106.811 97.9464 106.803 97.9064C106.787 97.8705 106.775 97.8265 106.755 97.7946C106.679 97.6508 106.56 97.5429 106.436 97.463C106.316 97.3831 106.2 97.3352 106.116 97.2992C106.032 97.2673 105.984 97.2513 105.984 97.2513V97.2473Z" fill="#DADADA"/>
</g>
<g style="mix-blend-mode:multiply">
<path d="M106.265 98.4932C106.265 98.7129 106.11 98.8927 105.918 98.8927C105.726 98.8927 105.57 98.7129 105.57 98.4932C105.57 98.2735 105.726 98.0938 105.918 98.0938C106.11 98.0938 106.265 98.2735 106.265 98.4932Z" fill="#DADADA"/>
</g>
<path d="M84.9062 98.3933C84.9062 99.5358 85.865 100.459 87.0434 100.459C88.2218 100.459 89.1805 99.5318 89.1805 98.3933C89.1805 97.2549 88.2218 96.3281 87.0434 96.3281C85.865 96.3281 84.9062 97.2549 84.9062 98.3933Z" fill="#F8BB94"/>
<g style="mix-blend-mode:multiply">
<path d="M86.7729 97.2473C86.7729 97.2473 86.7209 97.2393 86.6291 97.2433C86.5372 97.2433 86.4054 97.2593 86.2496 97.3192C86.0978 97.3751 85.918 97.483 85.7942 97.6667C85.7622 97.7107 85.7423 97.7666 85.7143 97.8145C85.6943 97.8665 85.6784 97.9224 85.6664 97.9783L85.6504 98.1501C85.6504 98.206 85.6544 98.2619 85.6584 98.3218C85.6664 98.4297 85.6943 98.5415 85.7223 98.6454C85.7542 98.7493 85.8022 98.8451 85.8541 98.937C85.962 99.1168 86.1098 99.2566 86.2576 99.3365C86.3255 99.3804 86.4054 99.4004 86.4653 99.4204C86.5292 99.4323 86.5851 99.4483 86.6331 99.4483C86.7249 99.4483 86.7769 99.4483 86.7769 99.4483C86.7769 99.4483 86.7289 99.4284 86.645 99.3964C86.6051 99.3804 86.5612 99.3485 86.5052 99.3245C86.4573 99.2885 86.4014 99.2566 86.3494 99.2086C86.2975 99.1607 86.2456 99.1048 86.1976 99.0409C86.1497 98.977 86.1098 98.9011 86.0698 98.8252C86.0299 98.7493 86.0059 98.6614 85.978 98.5735C85.954 98.4816 85.934 98.3977 85.93 98.2979L85.922 98.1621L85.93 98.0302C85.942 97.9903 85.95 97.9464 85.958 97.9064C85.974 97.8705 85.9859 97.8265 86.0059 97.7946C86.0818 97.6508 86.2016 97.5429 86.3255 97.463C86.4453 97.3831 86.5612 97.3352 86.645 97.2992C86.7289 97.2673 86.7769 97.2513 86.7769 97.2513L86.7729 97.2473Z" fill="#DADADA"/>
</g>
<g style="mix-blend-mode:multiply">
<path d="M86.4961 98.4932C86.4961 98.7129 86.6519 98.8927 86.8436 98.8927C87.0354 98.8927 87.1912 98.7129 87.1912 98.4932C87.1912 98.2735 87.0354 98.0938 86.8436 98.0938C86.6519 98.0938 86.4961 98.2735 86.4961 98.4932Z" fill="#DADADA"/>
</g>
<path d="M105.708 95.6717C105.708 102.69 102.413 107.62 96.233 107.62C90.0534 107.62 86.7578 102.69 86.7578 95.6717C86.7578 88.6532 90.1772 82.9609 96.3608 82.9609C102.544 82.9609 105.712 88.6532 105.712 95.6717H105.708Z" fill="#F8BB94"/>
<path d="M94.004 109.898C94.004 109.898 88.116 110.677 86.0028 112.507C83.8457 114.372 83.2106 115.986 82.4316 119.673H110.034C109.255 115.986 108.62 114.372 106.463 112.507C104.35 110.677 98.462 109.898 98.462 109.898H94.008H94.004Z" fill="#F8BB94"/>
<path d="M100.739 110.301C100.739 110.301 104.346 110.672 106.463 112.502C108.62 114.367 109.259 115.981 110.034 119.668H82.4316C83.2106 115.981 83.8457 114.367 86.0028 112.502C88.1199 110.672 91.743 110.297 91.743 110.297C91.743 110.297 90.9601 115.33 96.4327 115.29C96.4327 115.29 100.955 115.466 100.739 110.301Z" fill="#1A7290"/>
<path d="M92.4921 110.148C92.508 110.232 92.512 110.32 92.4961 110.412C92.4961 110.44 92.2444 112.238 93.271 113.424C93.9261 114.175 94.9927 114.554 96.4347 114.539C96.4467 114.539 96.4587 114.539 96.4707 114.539C96.4787 114.539 98.0046 114.57 99.0232 113.54C99.7263 112.829 100.054 111.567 99.9939 110.148L101.504 110.416C101.552 112.21 101.072 113.62 100.078 114.614C98.7316 115.965 96.8981 116.044 96.4907 116.044C96.4307 116.044 96.4068 116.044 96.3748 116.044C94.4974 116.044 93.0673 115.489 92.1246 114.399C90.8902 112.969 90.9262 111.075 90.9821 110.416L92.4881 110.152L92.4921 110.148Z" fill="#054153"/>
<path d="M86.4983 91.8082L86.8378 97.5365L87.6767 97.7721C86.9417 88.5246 91.8111 86.4075 91.8111 86.4075L93.1733 80.6193C89.0109 80.5195 87.1893 83.9229 87.1893 83.9229C87.1893 83.9229 85.6474 85.4888 86.4983 91.8042V91.8082Z" fill="#732400"/>
<path d="M86.5411 92.5493C86.5411 92.5493 86.3813 91.8263 86.2415 90.7397C86.1656 90.1965 86.0977 89.5613 86.0378 88.8782C86.0138 88.5387 85.9739 88.1872 85.9579 87.8277C85.9459 87.6479 85.9379 87.4681 85.926 87.2884L85.918 87.1526V87.1366V87.0887V87.0567V86.9888L85.926 86.7172C85.926 86.5414 85.9619 86.3377 85.9939 86.1419C86.0178 85.9382 86.0658 85.7545 86.1217 85.5707C86.1457 85.4788 86.1696 85.387 86.1976 85.2951L86.3015 85.0354C86.3654 84.8597 86.4453 84.6959 86.5291 84.5361C86.609 84.3723 86.6889 84.2165 86.7888 84.0767C86.8767 83.9289 86.9725 83.7931 87.0724 83.6613C87.2602 83.3937 87.4679 83.166 87.6636 82.9662C87.8553 82.7625 88.0511 82.5947 88.2308 82.4509C88.4066 82.3031 88.5704 82.1913 88.7022 82.1034C88.9738 81.9236 89.1416 81.8438 89.1416 81.8438C89.1416 81.8438 88.6103 82.367 87.9952 83.2419C87.9153 83.3497 87.8394 83.4656 87.7675 83.5894C87.6916 83.7092 87.6117 83.8331 87.5398 83.9689C87.4639 84.1007 87.388 84.2365 87.3241 84.3803C87.2562 84.5201 87.1843 84.6639 87.1243 84.8157C87.0604 84.9635 87.0005 85.1193 86.9566 85.2791C86.9046 85.4349 86.8567 85.5947 86.8207 85.7585C86.7768 85.9222 86.7409 86.086 86.7249 86.2458C86.7009 86.4056 86.673 86.5614 86.6769 86.7531L86.661 87.0247V87.0927L86.657 87.1286C86.657 87.0687 86.657 87.1166 86.657 87.1046V87.1126V87.1286V87.2644C86.669 87.4442 86.6729 87.6279 86.6809 87.8077C86.6969 88.1672 86.6929 88.5187 86.6969 88.8623C86.7009 89.5453 86.6929 90.1845 86.669 90.7357C86.629 91.8342 86.5411 92.5652 86.5411 92.5652V92.5493Z" fill="#511800"/>
<path d="M105.898 92.9332L105.558 98.6615L104.719 98.8971C105.57 86.5618 100.972 86.3581 100.972 86.3581L99.2227 81.7443C103.385 81.6445 105.207 85.0479 105.207 85.0479C105.207 85.0479 106.748 86.6098 105.898 92.9292V92.9332Z" fill="#732400"/>
<path d="M91.875 86.3686C91.875 86.3686 97.1998 84.2754 102.684 87.0796L103.104 82.8493C103.104 82.8493 102.029 74.5885 91.2479 77.2209C91.2479 77.2209 92.5941 77.8481 93.1773 78.4753C93.1773 78.4753 89.0269 78.1876 87.1934 81.9665C87.1934 81.9665 90.0016 81.0278 92.2545 81.635C92.2545 81.635 88.8671 83.868 91.879 86.3766L91.875 86.3686Z" fill="#732400"/>
<path d="M103.104 82.8549C103.104 82.8549 103.044 82.6272 102.896 82.2478C102.749 81.8683 102.513 81.341 102.157 80.7578C101.982 80.4662 101.762 80.1666 101.526 79.863C101.282 79.5634 100.999 79.2718 100.691 78.9882C100.376 78.7165 100.032 78.4569 99.6607 78.2292C99.2892 78.0015 98.8897 77.8018 98.4743 77.65C98.2666 77.5701 98.0588 77.4902 97.8431 77.4343C97.6314 77.3664 97.4157 77.3144 97.2 77.2705C96.7686 77.1786 96.3372 77.1027 95.9137 77.0708C95.702 77.0428 95.4943 77.0348 95.2866 77.0268C95.0829 77.0188 94.8791 76.9989 94.6834 77.0029C94.2879 77.0029 93.9164 77.0029 93.5689 77.0268C93.2214 77.0388 92.9058 77.0668 92.6222 77.0907C92.3386 77.1107 92.0909 77.1347 91.8912 77.1626C91.4837 77.2066 91.248 77.2266 91.248 77.2266C91.248 77.2266 91.4677 77.1467 91.8592 77.0148C92.055 76.9469 92.2946 76.871 92.5743 76.8071C92.8539 76.7352 93.1694 76.6513 93.521 76.5994C93.6967 76.5714 93.8765 76.5315 94.0682 76.5035C94.26 76.4836 94.4597 76.4636 94.6634 76.4436C94.8672 76.4157 95.0789 76.4196 95.2946 76.4077C95.5103 76.3917 95.73 76.3997 95.9577 76.4077C96.1814 76.4157 96.4131 76.4236 96.6448 76.4556C96.8764 76.4796 97.1121 76.5035 97.3438 76.5595C97.5795 76.6034 97.8152 76.6553 98.0469 76.7272C98.2825 76.7872 98.5142 76.867 98.7419 76.9549C99.1973 77.1307 99.6367 77.3584 100.044 77.622C100.456 77.8777 100.811 78.1972 101.143 78.5128C101.79 79.1679 102.245 79.8989 102.537 80.558C102.828 81.2172 102.972 81.8004 103.036 82.2118C103.104 82.6233 103.104 82.8589 103.104 82.8589V82.8549Z" fill="#511800"/>
</g>
<path d="M119.049 72.8594C117.881 72.8594 116.936 73.8068 116.936 74.9722C116.936 76.1376 117.884 77.0851 119.049 77.0851C120.215 77.0851 121.162 76.1376 121.162 74.9722C121.162 73.8068 120.218 72.8594 119.049 72.8594Z" fill="#1DB2A8"/>
<path d="M114.154 69.3906C113.355 69.3906 112.707 70.0387 112.707 70.8379C112.707 71.6372 113.355 72.2853 114.154 72.2853C114.953 72.2853 115.602 71.6372 115.602 70.8379C115.602 70.0387 114.953 69.3906 114.154 69.3906Z" fill="#E74645"/>
<path d="M118.631 63.9375C117.233 63.9375 116.099 65.0709 116.099 66.4689C116.099 67.8668 117.233 69.0002 118.631 69.0002C120.029 69.0002 121.162 67.8668 121.162 66.4689C121.162 65.0709 120.029 63.9375 118.631 63.9375Z" fill="#F9B233"/>
<path d="M74.1647 118.458C74.5815 119.205 74.3136 120.147 73.5672 120.561C72.8208 120.976 71.8788 120.71 71.4641 119.964C71.0473 119.217 71.3153 118.275 72.0616 117.861C72.808 117.444 73.7501 117.712 74.1647 118.458Z" fill="#1DB2A8"/>
<path d="M78.1212 120.347C78.4061 120.858 78.2232 121.502 77.7108 121.787C77.2004 122.072 76.5561 121.889 76.2712 121.379C75.9862 120.868 76.1691 120.224 76.6794 119.939C77.1898 119.654 77.8362 119.837 78.119 120.347H78.1212Z" fill="#E74645"/>
<path d="M80.0137 115.545C80.5113 116.438 80.1902 117.567 79.2971 118.064C78.4019 118.562 77.2748 118.241 76.7772 117.348C76.2796 116.455 76.6007 115.326 77.4939 114.828C78.387 114.33 79.5161 114.652 80.0137 115.545Z" fill="#F9B233"/>
</g>
<defs>
<clipPath id="clip0_6636_40536">
<rect x="79.3359" y="28.7422" width="39.1307" height="39.1307" rx="19.5653" fill="white"/>
</clipPath>
<clipPath id="clip1_6636_40536">
<rect x="19.8359" y="33.8438" width="59.5004" height="59.5004" rx="29.7502" fill="white"/>
</clipPath>
<clipPath id="clip2_6636_40536">
<rect x="41.9297" y="94.8047" width="29.1782" height="29.1782" rx="14.5891" fill="white"/>
</clipPath>
<clipPath id="clip3_6636_40536">
<rect x="71.5117" y="70.3359" width="48.2142" height="48.2142" rx="24.1071" fill="white"/>
</clipPath>
</defs>
</svg>
