<svg width="107px" height="107px" viewBox="0 0 107 107" version="1.1" xmlns="http://www.w3.org/2000/svg" xmlns:xlink="http://www.w3.org/1999/xlink">
    <g id="Page-1" stroke="none" stroke-width="1" fill="none" fill-rule="evenodd">
        <g id="Signup" transform="translate(-1071.000000, -2138.000000)">
            <g id="Group-14" transform="translate(947.000000, 2053.000000)">
                <g id="Group-2" transform="translate(124.600002, 85.400001)">
                    <ellipse id="Oval" stroke="#DA7D7D" stroke-width="0.800000012" fill="#FDF3F3" cx="52.8000008" cy="52.7028045" rx="52.8000008" ry="52.7028045"></ellipse>
                    <g id="lighthouse" transform="translate(30.400000, 19.020561)" fill-rule="nonzero">
                        <path d="M35.7865447,61.8168234 L9.83335284,61.8168234 C9.2895031,61.8168234 8.77407756,61.5744082 8.42872353,61.1560768 C8.0833695,60.7377455 7.94361714,60.1878308 8.04878675,59.6563096 C8.20369856,58.8701108 8.68880495,56.4105867 9.3416142,53.1026095 C9.78313681,50.8628627 16.0478311,42.2575941 16.0478311,42.2575941 C16.0478311,42.2575941 11.5170132,42.0713022 11.8552611,40.3550592 C13.2688915,33.1863602 14.6545714,26.1600918 15.1903675,23.4369295 C15.3575966,22.5870613 16.1061007,21.9739489 16.9758812,21.9739489 L28.6416477,21.9739489 C29.5114283,21.9739489 30.2594585,22.5865897 30.4266877,23.4359862 C30.4266877,23.4359862 30.5043805,23.8302647 30.6441328,24.5372305 C30.7663568,25.1583605 28.0608465,27.7471097 28.2673957,28.795532 C28.4729975,29.8364082 31.590185,29.3345993 31.8573725,30.6876912 C32.3566909,33.2207888 32.9455457,36.2061745 33.5533499,39.2877719 C33.8385394,40.7318874 30.8606305,44.7015546 31.1467674,46.1513295 C31.4352731,47.6147817 34.9878247,46.5583419 35.262592,47.9524652 C36.3498176,53.4643457 37.2726569,58.1419219 37.5715846,59.6567812 C37.6767542,60.1878308 37.5370019,60.7382171 37.1916479,61.1565484 C36.84582,61.5744082 36.3308682,61.8168234 35.7865447,61.8168234 Z" id="Path" fill="#FF4F19"></path>
                        <path d="M37.5715846,59.6563096 C37.2726569,58.1414503 36.3498176,53.4643457 35.262592,47.9519935 C34.9878247,46.5583419 31.4352731,47.6143101 31.1467674,46.1513295 C30.8606305,44.7010828 33.8385394,40.7318874 33.5533499,39.2873003 C32.9455457,36.2057029 32.3566909,33.2207888 31.8573725,30.6872196 C31.590185,29.3345993 28.4729975,29.8364082 28.2673957,28.795532 C28.0608465,27.7466381 30.7668305,25.1583605 30.6441328,24.5372305 C30.5043805,23.8302647 30.4266877,23.4359862 30.4266877,23.4359862 C30.2594585,22.5865897 29.5114283,21.9739489 28.6416477,21.9739489 L22.8104226,21.9739489 L22.8104226,61.8163518 L35.7870185,61.8163518 C36.3308682,61.8163518 36.8462937,61.5744082 37.1916479,61.1560768 C37.5370019,60.7377455 37.6767542,60.1878308 37.5715846,59.6563096 L37.5715846,59.6563096 Z" id="Path" fill="#E9001E"></path>
                        <path d="M21.2139298,61.8168234 L35.242695,47.8505942 C34.7007402,45.1038506 34.1189915,42.1538366 33.5533499,39.2873003 L10.923421,61.8168234 L21.2139298,61.8168234 Z" id="Path" fill="#F3EEE9"></path>
                        <path d="M22.8104226,60.2274474 L35.242695,47.8505942 C34.7007402,45.1038506 34.1189915,42.1538366 33.5533499,39.2873003 L22.8104226,49.9828105 L22.8104226,60.2274474 Z" id="Path" fill="#E9DFDA"></path>
                        <path d="M9.3416142,53.1026095 L31.8568988,30.6872196 C31.0155424,26.4204288 30.4266877,23.4359862 30.4266877,23.4359862 C30.3480473,23.0374632 30.1405507,22.6922337 29.8539399,22.436613 L11.8557348,40.3550592 C10.9589513,44.9010518 10.0512717,49.5041112 9.3416142,53.1026095 L9.3416142,53.1026095 Z" id="Path" fill="#F3EEE9"></path>
                        <path d="M22.8104226,39.6938409 L31.8573725,30.6872196 C31.0155424,26.4204288 30.4266877,23.4359862 30.4266877,23.4359862 C30.3480473,23.0374632 30.1405507,22.6922337 29.8539399,22.436613 L22.8099488,29.4492041 L22.8099488,39.6938409 L22.8104226,39.6938409 Z" id="Path" fill="#E9DFDA"></path>
                        <path d="M28.2673957,25.5960284 L17.3529757,25.5960284 C16.3481801,25.5960284 15.5338268,24.7853051 15.5338268,23.7849887 L15.5338268,12.9187502 C15.5338268,11.9184337 16.3481801,11.1077104 17.3529757,11.1077104 L28.2673957,11.1077104 C29.2721913,11.1077104 30.0865446,11.9184337 30.0865446,12.9187502 L30.0865446,23.7849887 C30.0865446,24.7853051 29.2721913,25.5960284 28.2673957,25.5960284 Z" id="Path" fill="#F3EEE9"></path>
                        <path d="M28.2673957,11.1077104 L22.8104226,11.1077104 L22.8104226,25.5960284 L28.2673957,25.5960284 C29.2721913,25.5960284 30.0865446,24.7853051 30.0865446,23.7849887 L30.0865446,12.9187502 C30.0865446,11.9184337 29.2721913,11.1077104 28.2673957,11.1077104 Z" id="Path" fill="#E9DFDA"></path>
                        <path d="M31.9061674,13.2809581 L13.714204,13.2809581 C13.0121262,13.2809581 12.3725816,12.8786621 12.0712851,12.2471563 C11.7699885,11.6156505 11.8604723,10.8676534 12.3043635,10.3257564 L21.4001083,0.666877717 C21.7459362,0.244773371 22.2632567,0 22.8104226,0 C23.3571147,0 23.8749089,0.244773371 24.2202631,0.666877717 L33.3160079,10.3257564 C33.7598991,10.8676534 33.8503829,11.6156505 33.5490862,12.2471563 C33.2477898,12.8786621 32.6082452,13.2809581 31.9061674,13.2809581 Z" id="Path" fill="#FF4F19"></path>
                        <path d="M42.7893208,61.8168234 L2.76804362,61.8168234 C1.76324797,61.8168234 0.948894659,61.0061001 0.948894659,60.0057836 C0.948894659,59.0054671 1.76324797,58.1947439 2.76804362,58.1947439 L42.7893208,58.1947439 C43.7941163,58.1947439 44.6084698,59.0054671 44.6084698,60.0057836 C44.6084698,61.0061001 43.7941163,61.8168234 42.7893208,61.8168234 Z" id="Path" fill="#00429B"></path>
                        <path d="M31.9061674,25.5960284 L13.714204,25.5960284 C12.7098821,25.5960284 11.895055,24.7853051 11.895055,23.7849887 C11.895055,22.7846722 12.7098821,21.9739489 13.714204,21.9739489 L31.9061674,21.9739489 C32.9104892,21.9739489 33.7253164,22.7846722 33.7253164,23.7849887 C33.7253164,24.7853051 32.9104892,25.5960284 31.9061674,25.5960284 Z" id="Path" fill="#00429B"></path>
                        <path d="M39.1822894,16.5507338 C38.7166064,16.5507338 38.2513968,16.3743461 37.8960943,16.0201558 C37.1854893,15.31319 37.1854893,14.1666698 37.8960943,13.4592323 L42.4539152,8.92172885 C43.1645203,8.21429145 44.3161741,8.21429145 45.0267793,8.92172885 C45.7373843,9.62869465 45.7373843,10.7756865 45.0267793,11.4826523 L40.4689584,16.0201558 C40.1136559,16.3738745 39.6479727,16.5507338 39.1822894,16.5507338 L39.1822894,16.5507338 Z" id="Path" fill="#EBB100"></path>
                        <path d="M43.7405841,28.3328679 C43.2749009,28.3328679 42.8092177,28.1560086 42.4539152,27.8022899 L37.8960943,23.2643147 C37.1854893,22.5573489 37.1854893,21.4108288 37.8960943,20.7033913 C38.6066994,19.995954 39.7583533,19.995954 40.4689584,20.7033913 L45.0267793,25.2408949 C45.7373843,25.9483323 45.7373843,27.0948524 45.0267793,27.8022899 C44.6714767,28.1560086 44.2057935,28.3328679 43.7405841,28.3328679 L43.7405841,28.3328679 Z" id="Path" fill="#EBB100"></path>
                        <path d="M6.43760811,16.5507338 C5.97192502,16.5507338 5.50671551,16.3743461 5.15141291,16.0201558 L0.593592066,11.4826523 C-0.117012998,10.7756865 -0.117012998,9.62869465 0.593592066,8.92172885 C1.30372342,8.21429145 2.4558511,8.21429145 3.16598246,8.92172885 L7.72427701,13.4592323 C8.43440837,14.1666698 8.43440837,15.31319 7.72427701,16.0201558 C7.36897454,16.3738745 6.90329133,16.5507338 6.43760811,16.5507338 Z" id="Path" fill="#FFDA2D"></path>
                        <path d="M1.87978726,28.3328679 C1.41410405,28.3328679 0.948894658,28.1560086 0.593592066,27.8022899 C-0.117012998,27.0948524 -0.117012998,25.9483323 0.593592066,25.2408949 L5.15141291,20.7033913 C5.8620181,19.995954 7.01367195,19.995954 7.72427701,20.7033913 C8.43440837,21.4108288 8.43440837,22.5573489 7.72427701,23.2643147 L3.16645616,27.8022899 C2.81067986,28.1560086 2.34547048,28.3328679 1.87978726,28.3328679 Z" id="Path" fill="#FFDA2D"></path>
                        <path d="M33.3160079,10.3257564 L24.2202631,0.666877717 C23.8749089,0.244773371 23.3571147,0 22.8104226,0 L22.8104226,13.2809581 L31.9061674,13.2809581 C32.6082452,13.2809581 33.2477898,12.8786621 33.5490862,12.2471563 C33.8503829,11.6156505 33.7598991,10.8676534 33.3160079,10.3257564 Z" id="Path" fill="#E9001E"></path>
                        <g id="Group" transform="translate(22.800000, 21.973949)" fill="#002659">
                            <path d="M9.10616708,0 L0.0104222681,0 L0.0104222681,3.62207949 L9.10616708,3.62207949 C10.1104889,3.62207949 10.925316,2.8113562 10.925316,1.81103975 C10.925316,0.810723292 10.1104889,0 9.10616708,0 Z" id="Path"></path>
                            <path d="M19.9893205,36.2207949 L0.0108959745,36.2207949 L0.0108959745,39.8428744 L19.9893205,39.8428744 C20.994116,39.8428744 21.8084694,39.0321511 21.8084694,38.0318347 C21.8084694,37.0315182 20.994116,36.2207949 19.9893205,36.2207949 Z" id="Path"></path>
                        </g>
                    </g>
                </g>
            </g>
        </g>
    </g>
</svg>