
<svg width="107px" height="108px" viewBox="0 0 107 108" version="1.1" xmlns="http://www.w3.org/2000/svg" xmlns:xlink="http://www.w3.org/1999/xlink">
    <g id="Page-1" stroke="none" stroke-width="1" fill="none" fill-rule="evenodd">
        <g id="Signup" transform="translate(-260.000000, -2131.000000)">
            <g id="Group-12" transform="translate(139.000000, 2052.000000)">
                <g id="Group-4" transform="translate(121.600002, 80.000001)">
                    <circle id="Oval" stroke="#DA7D7D" stroke-width="0.800000012" fill="#FDF3F3" cx="53" cy="53" r="53"></circle>
                    <g id="gift" transform="translate(28.106061, 27.097744)" fill-rule="nonzero">
                        <path d="M44.8863857,20.3775438 L4.09846277,20.3775438 C3.67118478,20.3775438 3.32503794,20.7276202 3.32503794,21.1593167 L3.32503794,45.4164231 C3.32503794,45.8482163 3.67118478,46.1981961 4.09846277,46.1981961 L44.8864814,46.1981961 C45.3137594,46.1981961 45.6599062,45.8481196 45.6599062,45.4164231 L45.6599062,21.1594134 C45.6598105,20.7275235 45.313568,20.3775438 44.8863857,20.3775438 Z" id="Path" fill="#F7434C"></path>
                        <path d="M44.8863857,20.3775438 L4.09846277,20.3775438 C3.67118478,20.3775438 3.32503794,20.7276202 3.32503794,21.1593167 L3.32503794,24.2865051 L45.6599062,24.2865051 L45.6599062,21.1593167 C45.6598105,20.7275235 45.313568,20.3775438 44.8863857,20.3775438 Z" id="Path" fill="#DB2E37"></path>
                        <path d="M28.4437411,20.3775438 L20.5412987,20.3775438 C20.1140207,20.3775438 19.7678739,20.7276202 19.7678739,21.1593167 L19.7678739,45.4164231 C19.7678739,45.8482163 20.1140207,46.1981961 20.5412987,46.1981961 L28.4437411,46.1981961 C28.8709234,46.1981961 29.217166,45.8481196 29.217166,45.4164231 L29.217166,21.1594134 C29.217166,20.7275235 28.8708278,20.3775438 28.4437411,20.3775438 Z" id="Path" fill="#FFDB57"></path>
                        <path d="M28.4437411,20.3775438 L20.5412987,20.3775438 C20.1140207,20.3775438 19.7678739,20.7276202 19.7678739,21.1593167 L19.7678739,24.2697749 L29.217166,24.2697749 L29.217166,21.1593167 C29.217166,20.7275235 28.8708278,20.3775438 28.4437411,20.3775438 Z" id="Path" fill="#F5BA3D"></path>
                        <path d="M43.3796233,5.93563318 C42.6212192,3.93758637 41.4246303,1.98615195 40.1786739,0.715335766 C39.7214501,0.249115173 39.1057909,0.0127652185 38.4049823,0.027948092 C36.0827943,0.0825870954 32.2987148,3.02854809 27.1578888,8.78392091 C27.029495,8.92752962 26.9584095,9.11426929 26.9584095,9.30787511 L26.9584095,13.443129 C26.9584095,13.8749221 27.3045564,14.2249019 27.7318344,14.2249019 L39.6291251,14.2249019 C42.2800473,14.2249019 43.3741699,12.9213023 43.8250792,11.8276519 C44.4266744,10.3698059 44.2683347,8.27718042 43.3796233,5.93563318 Z" id="Path" fill="#FFDB57"></path>
                        <path d="M43.8224004,7.29783673 C43.8007781,7.21757058 43.7666227,7.14126939 43.7211778,7.07193104 C42.553291,5.2870247 40.0297102,5.95487772 38.11844,6.82939189 C32.5656439,9.37005719 30.2725407,12.8697579 30.1776325,13.0174283 C30.0231198,13.2579366 30.0112563,13.5643985 30.1466343,13.8163182 C30.2819167,14.0682378 30.5427227,14.2249986 30.8262991,14.2249986 L39.6294121,14.2249986 C41.3162322,14.2249986 42.5671636,13.7016246 43.3474769,12.6694793 C44.2744578,11.4432447 44.4386336,9.58571202 43.8224004,7.29783673 Z" id="Path" fill="#EF9325"></path>
                        <path d="M21.826864,8.78401762 C16.6860381,3.02864479 12.9019585,0.0826838016 10.5797705,0.0280447982 C9.87714412,0.0127652185 9.26320706,0.249211879 8.80607892,0.715432472 C7.56021819,1.98615195 6.36353365,3.93768308 5.60522523,5.93572989 C4.71651379,8.27727713 4.55817409,10.3698059 5.15938657,11.8278453 C5.6103916,12.9214957 6.70441844,14.2250953 9.35543635,14.2250953 L21.2527271,14.2250953 C21.6800051,14.2250953 22.0261519,13.8750188 22.0261519,13.4433224 L22.0261519,9.30797181 C22.0262476,9.114366 21.9553535,8.92762633 21.826864,8.78401762 Z" id="Path" fill="#FFDB57"></path>
                        <path d="M18.8073116,13.0174283 C18.7124035,12.8697579 16.4193002,9.36996049 10.8665041,6.82939189 C8.95504261,5.95487772 6.43155753,5.28731481 5.26367072,7.07183433 C5.21832147,7.14126939 5.18416602,7.21747387 5.1625438,7.29783673 C4.54611923,9.58571202 4.71048636,11.4432447 5.63746721,12.6693826 C6.41768487,13.7015279 7.6686163,14.2249019 9.35553202,14.2249019 L18.1586451,14.2249019 C18.4422214,14.2249019 18.7030275,14.0681411 18.8383098,13.8162215 C18.9735922,13.5643985 18.9617287,13.2579366 18.8073116,13.0174283 Z" id="Path" fill="#EF9325"></path>
                        <path d="M27.7320257,7.75341964 L21.2528228,7.75341964 C20.8255448,7.75341964 20.4793979,8.10349608 20.4793979,8.53519256 L20.4793979,13.4433224 C20.4793979,13.8751156 20.8255448,14.2250953 21.2528228,14.2250953 L27.7320257,14.2250953 C28.1593037,14.2250953 28.5054506,13.8750188 28.5054506,13.4433224 L28.5054506,8.53519256 C28.5054506,8.10339938 28.1593037,7.75341964 27.7320257,7.75341964 Z" id="Path" fill="#F5BA3D"></path>
                        <path d="M48.2114237,12.663 L0.773424834,12.663 C0.346146839,12.663 0,13.0130765 0,13.444773 L0,21.1593167 C0,21.5911099 0.346146839,21.9410896 0.773424834,21.9410896 L48.2114237,21.9410896 C48.6387016,21.9410896 48.9848485,21.5910132 48.9848485,21.1593167 L48.9848485,13.444773 C48.9848485,13.0129798 48.6387016,12.663 48.2114237,12.663 Z" id="Path" fill="#F7434C"></path>
                        <rect id="Rectangle" fill="#FFDB57" x="18.5512892" y="12.6627099" width="11.8821743" height="9.27828301"></rect>
                    </g>
                </g>
            </g>
        </g>
    </g>
</svg>