<svg width="108px" height="108px" viewBox="0 0 108 108" version="1.1" xmlns="http://www.w3.org/2000/svg" xmlns:xlink="http://www.w3.org/1999/xlink">
    <g id="Page-1" stroke="none" stroke-width="1" fill="none" fill-rule="evenodd">
        <g id="Signup" transform="translate(-657.000000, -2132.000000)">
            <g id="Group-13" transform="translate(543.000000, 2054.000000)">
                <g id="Group-3" transform="translate(115.200002, 79.200001)">
                    <ellipse id="Oval" stroke="#DA7D7D" stroke-width="0.800000012" fill="#FDF3F3" cx="52.8000008" cy="52.7028045" rx="52.8000008" ry="52.7028045"></ellipse>
                    <g id="rocket" transform="translate(36.000001, 19.020561)" fill-rule="nonzero">
                        <g id="Group">
                            <path d="M23.6717483,36.5014531 C23.7140399,36.0990258 24.0077982,35.7663065 24.4057234,35.6729263 C24.8028077,35.5800218 25.2176736,35.7445376 25.4382627,36.0855838 L31.3273646,45.201044 C32.212484,46.577362 32.6799741,48.1674435 32.6799741,49.7993975 L32.6799741,59.9538172 C32.6799741,60.3562445 32.4246628,60.7148961 32.0417558,60.8501488 C31.9366276,60.887263 31.8268137,60.9054632 31.7188019,60.9054632 C31.4362173,60.9054632 31.1612019,60.7818682 30.9744942,60.556447 L22.5257908,50.3323192 C22.3643139,50.1362801 22.2882611,49.8843319 22.3136121,49.6325025 L23.6717483,36.5014531 Z" id="Path" fill="#FF4F19"></path>
                            <path d="M9.00822578,36.5014531 C8.9659342,36.0990258 8.67217595,35.7663065 8.27425067,35.6729263 C7.87716642,35.5800218 7.46230048,35.7445376 7.24171146,36.0855838 L1.35260954,45.201044 C0.467490117,46.577362 1.42108547e-14,48.1674435 1.42108547e-14,49.7993975 L1.42108547e-14,59.9538172 C1.42108547e-14,60.3562445 0.255311359,60.7148961 0.638218325,60.8501488 C0.743346531,60.887263 0.853160452,60.9054632 0.961172175,60.9054632 C1.2437568,60.9054632 1.51877218,60.7818682 1.70547988,60.556447 L10.1541833,50.3323192 C10.3156602,50.1362801 10.391713,49.8843319 10.3663621,49.6325025 L9.00822578,36.5014531 Z" id="Path" fill="#E9001E"></path>
                            <path d="M16.8346904,0.135966423 C16.5305995,-0.0452031852 16.1494947,-0.0452031852 15.8454039,0.135966423 C15.4342625,0.38042049 5.7671532,6.26956283 5.7671532,19.033158 C5.7671532,24.1867969 7.06065065,37.8988263 8.77646313,50.9281686 C9.02516643,52.8184944 10.663124,54.2440601 12.5845071,54.2440601 L20.0955871,54.2440601 C22.0169703,54.2440601 23.6549278,52.8184944 23.9036311,50.9281686 C25.6194436,37.8988263 26.9129411,24.1867969 26.9129411,19.033158 C26.9129411,6.26956283 17.2458318,0.380301534 16.8346904,0.135966423 Z" id="Path" fill="#FFD200"></path>
                            <path d="M12.5845071,54.2440601 C10.663124,54.2440601 9.02516643,52.8184944 8.77646313,50.9281686 C7.06065065,37.8988263 5.7671532,24.1867969 5.7671532,19.033158 C5.7671532,6.26956283 15.4342625,0.380301534 15.8454039,0.135966423 C15.9969087,0.0456790082 16.1676369,0.000594778752 16.3383651,0.000237911501 L16.3401673,0.000237911501 L16.3401673,54.2440601 L12.5845071,54.2440601 Z" id="Path" fill="#FF9600"></path>
                            <ellipse id="Oval" fill="#53DCFF" cx="16.3400471" cy="19.984804" rx="5.76703305" ry="5.70987602"></ellipse>
                            <path d="M16.3400471,60.9055821 C15.8087592,60.9055821 15.378875,60.4794826 15.378875,59.9539361 L15.378875,37.114432 C15.378875,36.5888855 15.8087592,36.162786 16.3400471,36.162786 C16.871335,36.162786 17.3012193,36.5888855 17.3012193,37.114432 L17.3012193,59.9539361 C17.3012193,60.4794826 16.871335,60.9055821 16.3400471,60.9055821 Z" id="Path" fill="#FF4F19"></path>
                            <path d="M15.8454039,0.135966423 C15.5705087,0.299411624 11.1620925,2.98959592 8.26764261,8.56505194 L24.4124516,8.56505194 C21.5180018,2.98959592 17.1095856,0.299292668 16.8346904,0.135966423 C16.5305995,-0.0453221409 16.1494947,-0.0453221409 15.8454039,0.135966423 Z" id="Path" fill="#FF4F19"></path>
                            <path d="M16.3400471,0 C16.1687182,0 15.9973892,0.0453221409 15.8454039,0.135966423 C15.5705087,0.299411624 11.1620925,2.98959592 8.26764261,8.56505194 L16.3400471,8.56505194 L16.3400471,0 Z" id="Path" fill="#E9001E"></path>
                            <path d="M22.1070802,19.984804 C22.1070802,16.831287 19.5251314,14.274928 16.3400471,14.274928 L16.3400471,25.69468 C19.5251314,25.69468 22.1070802,23.1383209 22.1070802,19.984804 Z" id="Path" fill="#B3F4FF"></path>
                        </g>
                        <path d="M16.3400471,26.646326 C12.6305233,26.646326 9.6118419,23.6580386 9.6118419,19.984804 C9.6118419,16.3115694 12.6305233,13.323282 16.3400471,13.323282 C20.049571,13.323282 23.0682524,16.3115694 23.0682524,19.984804 C23.0682524,23.6580386 20.049571,26.646326 16.3400471,26.646326 Z M16.3400471,15.226574 C13.6902156,15.226574 11.5341863,17.3612349 11.5341863,19.984804 C11.5341863,22.6083731 13.6902156,24.743034 16.3400471,24.743034 C18.9898787,24.743034 21.145908,22.6083731 21.145908,19.984804 C21.145908,17.3612349 18.9898787,15.226574 16.3400471,15.226574 Z" id="Shape" fill="#5C546A"></path>
                    </g>
                </g>
            </g>
        </g>
    </g>
</svg>