<svg width="218" height="188" viewBox="0 0 218 188" fill="none" xmlns="http://www.w3.org/2000/svg">
<path d="M100.707 118.57L106.553 139.968L127.907 111.133L122.874 186.742H92.3877L83.5036 187.17C83.5036 187.17 84.8217 175.256 85.3609 168.52C85.6901 163.143 86.5968 157.818 88.0655 152.635C92.6188 137.828 100.707 118.57 100.707 118.57Z" fill="#FAFAFA"/>
<path d="M107.588 152.036C107.665 152.13 104.216 154.903 99.885 158.233C95.5542 161.562 92.0022 164.173 91.9252 164.078C91.8482 163.984 95.2889 161.203 99.6282 157.882C103.968 154.561 107.511 151.933 107.588 152.036Z" fill="#263238"/>
<path d="M160.665 108.145L144.061 100.159L137.548 92.4221L128.338 101.991L103.911 186.527H145.798L151.165 172.02L160.665 116.01V108.145Z" fill="#407BFF"/>
<path d="M85.9391 187.726L84.8179 169.752L135.409 161.193C135.409 161.193 144.054 119.443 149.378 112.604C154.299 106.288 160.701 108.479 160.701 108.479C160.701 108.479 166.478 112.433 165.1 127.574C164.373 135.508 161.471 162.999 160.427 172.936C160.171 175.315 159.381 177.606 158.116 179.637C156.692 181.925 154.708 183.812 152.353 185.121C149.998 186.429 147.348 187.117 144.653 187.118L85.9391 187.726Z" fill="#407BFF"/>
<path d="M143.686 171.661C143.609 171.661 143.54 170.865 143.172 169.641C142.7 168.043 141.902 166.56 140.828 165.286C139.754 164.012 138.428 162.974 136.933 162.238C135.786 161.664 134.999 161.467 135.024 161.382C135.733 161.437 136.425 161.629 137.061 161.947C138.65 162.625 140.057 163.665 141.17 164.985C142.283 166.305 143.072 167.867 143.472 169.547C143.677 170.232 143.75 170.949 143.686 171.661Z" fill="#263238"/>
<g opacity="0.2">
<path opacity="0.2" d="M142.757 101.375C142.279 106.659 141.267 111.881 139.736 116.961L135.936 115.849C136.657 117.01 137.13 118.309 137.325 119.663C137.519 121.017 137.431 122.396 137.065 123.714C136.323 126.343 135.217 128.855 133.779 131.177C127.502 142.481 121.209 153.79 114.898 165.105L133.933 121.883L133.436 113.889L137.1 113.11L142.757 101.375Z" fill="black"/>
</g>
<g opacity="0.2">
<path opacity="0.2" d="M135.255 160.74C137.579 160.606 139.877 161.278 141.762 162.643C143.647 164.007 145.004 165.98 145.603 168.229C145.779 168.757 145.779 169.327 145.603 169.855C145.508 170.114 145.318 170.328 145.072 170.453C144.826 170.578 144.542 170.606 144.276 170.531C143.918 170.306 143.655 169.955 143.54 169.547C142.697 167.662 141.484 165.965 139.973 164.558C138.461 163.151 136.682 162.062 134.742 161.356" fill="black"/>
</g>
<path d="M115.038 164.694C115.108 164.458 115.194 164.226 115.295 164.001L116.15 162.041L119.223 154.894L129.545 131.366C131.017 128.028 132.438 124.81 133.773 121.797V121.891C133.611 119.05 133.448 116.38 133.302 113.906V113.735H133.456L137.128 112.973L137.008 113.067L141.57 103.832L142.846 101.307L143.196 100.657C143.233 100.579 143.276 100.505 143.325 100.434C143.311 100.519 143.282 100.6 143.239 100.674L142.94 101.35C142.649 101.975 142.255 102.839 141.75 103.918L137.325 113.221V113.298H137.24L133.576 114.094L133.73 113.897C133.884 116.371 134.056 119.033 134.244 121.883V121.934V121.986C132.909 125.007 131.496 128.225 130.024 131.563L119.591 155.04C118.247 158.001 117.16 160.415 116.382 162.135L115.526 164.052C115.379 164.278 115.216 164.493 115.038 164.694Z" fill="#263238"/>
<path d="M85.9008 187.161C85.8795 187.062 85.8652 186.962 85.858 186.861C85.858 186.639 85.858 186.348 85.7896 186.005C85.7297 185.201 85.6441 184.071 85.5414 182.582C85.3445 179.629 85.0621 175.392 84.6855 170.18V170.035H84.8224L121.429 163.307L134.926 160.859L134.755 161.022C137.725 149.75 140.293 139.967 142.141 132.966C143.066 129.543 143.853 126.744 144.324 124.809C144.589 123.877 144.786 123.149 144.931 122.627L145.094 122.062L145.163 121.882C145.174 121.947 145.174 122.014 145.163 122.079L145.034 122.644C144.906 123.175 144.726 123.911 144.495 124.844L142.432 133.035C140.626 140.044 138.101 149.844 135.2 161.125V161.262H135.063L121.531 163.761L84.9166 170.351L85.0535 170.18C85.336 175.401 85.567 179.638 85.7297 182.599C85.7981 184.045 85.8495 185.167 85.8837 185.98C85.8837 186.348 85.8837 186.639 85.8837 186.836C85.9004 186.943 85.9062 187.052 85.9008 187.161Z" fill="#263238"/>
<path d="M158.116 106.75C158.116 106.827 157.26 106.956 155.976 107.435C154.294 108.066 152.753 109.022 151.441 110.25C150.13 111.478 149.073 112.953 148.333 114.59C147.769 115.848 147.589 116.704 147.478 116.679C147.366 116.653 147.478 116.465 147.537 116.071C147.643 115.524 147.801 114.988 148.008 114.47C148.693 112.747 149.75 111.196 151.104 109.928C152.458 108.66 154.075 107.706 155.84 107.136C156.37 106.965 156.914 106.842 157.466 106.767C157.894 106.725 158.108 106.716 158.116 106.75Z" fill="#263238"/>
<path d="M62.4571 87.7246C63.9549 84.9601 63.3129 73.7993 65.5982 74.193C68.551 74.698 65.8207 86.4322 65.5982 87.5021C65.3756 88.5719 66.959 88.8287 67.0703 87.8616C67.2415 86.4665 68.9532 72.815 71.8547 73.5853C73.4638 74.0047 72.7106 76.9404 72.7106 76.9404C72.7106 76.9404 70.2114 90.1724 71.5979 90.4891C72.9845 90.8058 74.0372 83.1798 74.6535 80.4068C75.2697 77.6337 76.9815 76.5981 77.6405 78.0017C78.5991 80.0559 76.7846 86.7232 76.2026 89.3936C75.6206 92.064 74.2683 99.8097 78.0256 96.7799C81.783 93.7501 85.7286 92.8086 87.021 93.2964C88.3134 93.7843 87.9882 95.6929 86.5503 96.0695C85.0276 96.6392 83.5883 97.4107 82.2709 98.3633C81.225 99.1423 80.2717 100.038 79.4293 101.034C78.3077 102.267 77.3994 103.679 76.7418 105.21C76.2082 106.42 75.4243 107.504 74.4418 108.389C73.4593 109.274 72.3005 109.941 71.0416 110.346L68.8505 120.77L54.6599 117.732L57.8181 106.7C58.9736 99.4503 58.3402 89.7103 58.3488 85.3024C58.3488 78.2328 59.2817 78.1815 60.0606 78.3697C61.9521 78.7378 60.9935 90.4207 62.4571 87.7246Z" fill="#FFC4B7"/>
<path d="M62.0616 97.207C62.7094 97.4525 63.3411 97.7384 63.9532 98.0629C65.3947 98.9521 66.5159 100.277 67.1542 101.846C67.3389 102.329 67.4821 102.827 67.5821 103.335L67.6249 103.575L67.8303 103.464C68.9671 102.795 70.2084 102.324 71.5021 102.068C72.4692 101.88 73.0684 101.863 73.0684 101.812C72.5387 101.721 71.9975 101.721 71.4678 101.812C70.1272 102.005 68.835 102.449 67.6591 103.121L67.9074 103.25C67.8181 102.711 67.6718 102.183 67.4709 101.675C67.0987 100.779 66.5713 99.9563 65.9131 99.244C65.3732 98.674 64.7498 98.1892 64.0644 97.8061C63.6104 97.5568 63.1275 97.3642 62.6265 97.2327C62.441 97.1929 62.2501 97.1842 62.0616 97.207Z" fill="#CC8F75"/>
<path d="M60.1692 107.135C62.2167 108.53 64.633 109.284 67.1104 109.301C67.1104 109.198 65.4928 109.01 63.5756 108.402C61.6584 107.795 60.212 107.041 60.1692 107.135Z" fill="#CC8F75"/>
<path d="M111.542 96.8646L100.706 118.57L106.552 139.959L122.12 123.508L137.466 94.9988L111.542 96.8646Z" fill="#FFC4B7"/>
<path d="M101.346 98.9015C101.346 98.9015 85.9398 104.379 85.9398 105.398C83.2181 107.529 74.1542 129.448 71.2699 133.591L63.0191 145.787L69.9347 118.792L54.7256 114.325C54.7256 114.325 41.7332 145.667 40.1583 152.634C39.2062 156.771 39.2944 161.079 40.4151 165.173L40.5007 165.104C41.4758 168.231 43.4862 170.933 46.2009 172.765C52.6457 176.899 58.6712 177.677 64.8336 173.124C68.3256 170.556 72.314 167.432 75.9601 164.522L76.9187 187.186H85.315C85.315 185.911 85.0582 170.385 85.0582 170.385C86.1606 166.712 87.0183 162.969 87.6259 159.182C88.3876 153.841 100.901 118.767 100.901 118.767L110.598 100.057L110.829 93.1328L101.346 98.9015Z" fill="#407BFF"/>
<path d="M76.7364 186.99C76.6954 186.758 76.6725 186.523 76.668 186.288C76.6337 185.786 76.5909 185.11 76.5396 184.259C76.4454 182.445 76.317 179.894 76.1544 176.745C75.8634 170.334 75.4697 161.51 75.0247 151.616V151.565C75.2044 150.632 75.4012 149.63 75.5981 148.62C77.6266 138.23 79.4753 128.815 80.819 121.959L82.4538 113.897C82.6421 112.973 82.8047 112.245 82.9159 111.706L83.0443 111.141C83.0583 111.076 83.0784 111.013 83.1042 110.953C83.1174 111.018 83.1174 111.085 83.1042 111.149L83.0101 111.723L82.6249 113.931L81.1357 122.028C79.8262 128.875 78.0288 138.29 76.0004 148.714C75.8121 149.716 75.6152 150.717 75.4355 151.65V151.599C75.8292 161.493 76.1801 170.326 76.4283 176.728C76.531 179.886 76.6166 182.436 76.6765 184.251C76.6765 185.107 76.6765 185.783 76.7279 186.288C76.7494 186.521 76.7523 186.756 76.7364 186.99Z" fill="#263238"/>
<path d="M85.3573 166.876C85.3601 166.637 85.3859 166.399 85.4343 166.166C85.5114 165.669 85.6055 164.993 85.7339 164.146C86.0334 162.348 86.4443 159.866 86.9492 156.717C88.0191 150.417 89.5169 141.79 91.1089 132.247C92.1958 126.007 93.2143 120.153 94.0874 115.129V115.078C96.2271 110.233 98.0159 106.185 99.2826 103.301C99.9074 101.914 100.412 100.81 100.772 100.006L101.174 99.1496C101.216 99.0463 101.271 98.9485 101.337 98.8586C101.314 98.965 101.28 99.0683 101.234 99.1668C101.14 99.4064 101.029 99.6974 100.883 100.023C100.541 100.827 100.079 101.948 99.4966 103.352C98.2555 106.254 96.5181 110.328 94.4468 115.198C93.5909 120.187 92.5981 126.05 91.5282 132.315C89.8165 141.85 88.3443 150.469 87.2488 156.768C86.6839 159.858 86.2303 162.374 85.8965 164.163L85.5114 166.174C85.4762 166.411 85.4247 166.646 85.3573 166.876Z" fill="#263238"/>
<path d="M55.818 164.36C55.7581 164.317 56.4172 163.376 57.3415 161.793C58.546 159.681 59.582 157.477 60.4398 155.202C61.2935 152.968 62.0025 150.681 62.5624 148.355C62.9904 146.549 63.1872 145.419 63.2557 145.428C63.2989 145.697 63.2989 145.972 63.2557 146.241C63.2044 146.763 63.0931 147.508 62.9134 148.424C62.4446 150.813 61.7716 153.159 60.902 155.433C60.0357 157.712 58.9523 159.901 57.6668 161.972C57.1618 162.768 56.7338 163.385 56.4086 163.795C56.0834 164.206 55.818 164.386 55.818 164.36Z" fill="#263238"/>
<g opacity="0.2">
<path opacity="0.2" d="M56.9946 163.111C56.8556 163.141 56.7253 163.202 56.6133 163.29C56.5013 163.377 56.4106 163.489 56.348 163.617C56.2855 163.745 56.2526 163.885 56.2519 164.027C56.2512 164.169 56.2827 164.31 56.3441 164.438C56.4908 164.687 56.7109 164.885 56.9744 165.005C57.238 165.124 57.532 165.159 57.8162 165.105C58.3847 164.988 58.9059 164.705 59.314 164.292C60.5541 163.019 61.4393 161.443 61.8817 159.722C63.1912 155.596 63.2511 151.163 63.3025 146.884C62.1069 152.533 59.9873 157.947 57.0288 162.906" fill="black"/>
</g>
<g opacity="0.2">
<path opacity="0.2" d="M75.7031 165.122C73.2136 160.95 72.1249 156.091 72.5962 151.256C73.0584 144.666 76.2594 138.641 78.6473 132.487C77.2779 138.957 76.4905 145.385 75.2238 151.607C75.2238 151.607 75.8828 160.859 75.8999 164.959" fill="black"/>
</g>
<g opacity="0.2">
<path opacity="0.2" d="M86.3313 160.997C86.9989 151.137 87.675 141.26 89.4125 131.537C91.1739 121.585 94.5263 111.982 99.3408 103.096C98.0998 106.999 94.2739 115.198 94.2739 115.198C94.2739 115.198 88.7535 144.298 86.357 158.985" fill="black"/>
</g>
<path d="M85.0893 172.319L86.4672 187.605H79.2521L72.8672 187.503C70.4344 187.766 67.9839 187.829 65.5408 187.691C65.4229 187.695 65.3058 187.671 65.1984 187.622C64.8194 187.568 64.4466 187.477 64.0858 187.349C63.4353 187.109 62.7677 186.69 62.8704 185.971C63.1871 183.78 64.488 183.6 64.488 183.6H65.1385L65.1899 183.412C64.2056 183.412 63.3668 183.412 62.9303 183.334C62.7249 183.334 62.6051 183.292 62.588 183.257C62.5708 183.223 60.0203 182.958 60.2257 181.606C60.5082 179.346 61.8091 179.166 61.8091 179.166L63.9146 179.029C62.8961 179.029 62.0231 179.029 61.578 178.952C61.3726 178.952 61.2528 178.91 61.2357 178.875C61.2185 178.841 58.668 178.576 58.8734 177.223C59.1901 175.032 60.491 174.853 60.491 174.853L62.2028 174.733C61.3469 174.733 60.6879 174.733 60.3027 174.664C60.0973 174.664 59.9775 174.622 59.9604 174.587C59.9433 174.553 57.3927 174.288 57.5981 172.935C57.9491 170.736 59.2414 170.607 59.2414 170.607C59.2414 170.607 63.2641 170.316 66.0286 170.205C66.0286 170.205 69.1697 167.381 70.4022 167.509C72.2509 167.706 82.9838 171.669 82.9838 171.669L85.0893 172.319Z" fill="#FFC4B7"/>
<path d="M71.5473 183.13C70.3738 183.394 69.1718 183.509 67.9696 183.473C66.7884 183.582 65.5983 183.544 64.4263 183.361C65.5995 183.096 66.8014 182.978 68.0039 183.01C69.1852 182.896 70.3764 182.936 71.5473 183.13Z" fill="#CC8F75"/>
<path d="M71.5618 178.79C69.8835 179.085 68.1818 179.225 66.4779 179.21C64.768 179.346 63.0493 179.329 61.3425 179.159C63.0208 178.865 64.7228 178.727 66.4265 178.748C68.136 178.606 69.8549 178.621 71.5618 178.79Z" fill="#CC8F75"/>
<g opacity="0.78">
<path opacity="0.78" d="M71.2255 174.392C69.5295 174.682 67.8108 174.819 66.0902 174.802C64.3804 174.943 62.6614 174.926 60.9548 174.751C62.6339 174.463 64.3353 174.326 66.0388 174.34C67.7655 174.196 69.5019 174.214 71.2255 174.392Z" fill="#CC8F75"/>
</g>
<path d="M64.8896 170.249C65.4222 170.352 65.9649 170.395 66.5072 170.377L70.4186 170.505L74.33 170.651C74.8707 170.706 75.4156 170.706 75.9562 170.651C75.4326 170.499 74.8921 170.412 74.3472 170.394C73.3458 170.3 71.9592 170.197 70.4272 170.146C68.8951 170.095 67.5172 170.095 66.5072 170.146C65.9658 170.116 65.4228 170.15 64.8896 170.249Z" fill="#CC8F75"/>
<path d="M144.558 45.742C146.372 41.3341 152.107 39.3228 156.591 40.9661C161.076 42.6094 164.055 47.197 164.594 51.9386C164.965 54.2783 164.478 56.6732 163.225 58.683C162.474 59.6648 161.531 60.4837 160.454 61.0899C159.377 61.6961 158.188 62.0769 156.959 62.2093C154.764 62.5157 152.528 62.2328 150.478 61.3898C148.428 60.5467 146.64 59.1737 145.296 57.4116C143.952 55.6494 143.101 53.5616 142.83 51.362C142.558 49.1625 142.877 46.9304 143.753 44.8946" fill="#263238"/>
<path d="M162.799 46.3244C162.799 46.3244 162.713 46.5555 162.473 46.915C162.132 47.415 161.748 47.8846 161.327 48.3187C159.924 49.7721 158.196 50.8721 156.286 51.5283C154.375 52.1844 152.337 52.378 150.337 52.0931C149.736 52.0072 149.144 51.8726 148.565 51.6909C148.345 51.6411 148.136 51.5512 147.949 51.4255C147.949 51.3485 148.873 51.6395 150.371 51.7764C152.319 51.9656 154.285 51.735 156.137 51.1001C157.988 50.4653 159.682 49.4409 161.104 48.0961C162.174 47.0605 162.713 46.2816 162.799 46.3244Z" fill="#455A64"/>
<path d="M164.676 51.3569C164.676 51.3569 164.522 51.5452 164.189 51.8191C163.714 52.2084 163.217 52.5685 162.699 52.8975C160.993 54.0045 159.104 54.7986 157.119 55.2426C156.018 55.4636 154.894 55.5498 153.772 55.4994C152.86 55.4539 151.955 55.3046 151.076 55.0543C150.486 54.8972 149.913 54.6822 149.365 54.4124C148.979 54.2241 148.766 54.1043 148.783 54.0786C148.8 54.053 149.69 54.4039 151.171 54.7548C152.036 54.9533 152.919 55.068 153.807 55.0971C154.895 55.1176 155.983 55.02 157.05 54.8061C158.987 54.3669 160.843 53.6307 162.554 52.6236C163.863 51.8619 164.634 51.297 164.676 51.3569Z" fill="#455A64"/>
<path d="M98.2705 58.9154C87.6746 35.6096 112.88 23.9096 126.626 27.7868C139.55 31.4414 145.062 37.8692 147.167 46.5136C149.273 55.1581 149.196 64.4873 145.806 72.7637C144.095 76.8206 141.125 80.9545 136.76 81.4595" fill="#263238"/>
<path d="M110.929 116.507C110.741 105.381 110.613 90.0776 110.613 90.1461C110.613 90.2146 101.044 88.5541 99.0581 76.0667C98.0738 69.8615 98.3819 59.6765 98.904 51.3572C99.3833 43.8597 104.339 34.676 111.811 35.4634L135.117 41.369C136.211 41.4846 137.222 42.0071 137.95 42.833C138.678 43.6588 139.068 44.7278 139.045 45.8282L137.522 94.0318" fill="#FFC4B7"/>
<path d="M104.603 60.199C104.595 60.6135 104.749 61.0146 105.032 61.3179C105.314 61.6212 105.704 61.8031 106.117 61.8252C106.32 61.8439 106.524 61.822 106.717 61.7608C106.911 61.6996 107.09 61.6003 107.245 61.4687C107.4 61.3371 107.527 61.1759 107.618 60.9946C107.71 60.8133 107.764 60.6156 107.778 60.413C107.787 59.9979 107.634 59.5955 107.351 59.2917C107.068 58.988 106.678 58.8068 106.263 58.7868C106.061 58.768 105.857 58.7899 105.663 58.8511C105.47 58.9123 105.29 59.0117 105.135 59.1432C104.981 59.2748 104.854 59.436 104.762 59.6173C104.671 59.7986 104.617 59.9964 104.603 60.199Z" fill="#263238"/>
<path d="M121.891 60.1983C121.881 60.6133 122.035 61.0157 122.318 61.3195C122.601 61.6233 122.991 61.8045 123.406 61.8244C123.608 61.8432 123.812 61.8213 124.006 61.7601C124.199 61.6989 124.379 61.5995 124.533 61.468C124.688 61.3364 124.815 61.1752 124.906 60.9939C124.998 60.8126 125.052 60.6148 125.066 60.4122C125.073 59.9977 124.92 59.5966 124.637 59.2933C124.354 58.99 123.965 58.8081 123.551 58.786C123.349 58.7673 123.145 58.7892 122.951 58.8504C122.758 58.9116 122.578 59.0109 122.424 59.1425C122.269 59.2741 122.142 59.4353 122.051 59.6166C121.959 59.7979 121.905 59.9956 121.891 60.1983Z" fill="#263238"/>
<path d="M111.559 69.0651C110.65 68.7854 109.71 68.6158 108.76 68.5601C108.315 68.5173 107.904 68.4317 107.827 68.1322C107.788 67.6762 107.89 67.2193 108.118 66.8227L109.419 63.4761C111.225 58.7003 112.535 54.7803 112.346 54.7118C112.158 54.6434 110.532 58.4521 108.726 63.2194C108.29 64.3919 107.87 65.5132 107.476 66.5916C107.199 67.1168 107.117 67.7234 107.245 68.3033C107.309 68.4599 107.408 68.5999 107.534 68.7126C107.66 68.8253 107.81 68.9078 107.973 68.9538C108.216 69.0171 108.466 69.0516 108.718 69.0565C109.66 69.1839 110.616 69.1868 111.559 69.0651Z" fill="#263238"/>
<path d="M110.592 90.1982C116.473 90.2861 122.263 88.7394 127.316 85.7305C127.316 85.7305 123.08 94.4348 110.592 93.2537V90.1982Z" fill="#CC8F75"/>
<path d="M136.663 61.5597C136.851 61.4741 143.347 58.5983 143.424 66.0702C143.501 73.5421 135.978 72.0615 135.961 71.8732C135.944 71.6849 136.663 61.5597 136.663 61.5597Z" fill="#FFC4B7"/>
<path d="M138.219 69.0148C138.219 69.0148 138.347 69.1004 138.57 69.2031C138.883 69.3306 139.233 69.3306 139.546 69.2031C140.333 68.9036 140.984 67.6454 141.009 66.3017C141.02 65.6589 140.889 65.0217 140.624 64.4358C140.551 64.2034 140.423 63.9923 140.25 63.8207C140.077 63.6492 139.864 63.5225 139.631 63.4516C139.482 63.4131 139.325 63.4281 139.186 63.4937C139.046 63.5594 138.935 63.6716 138.87 63.811C138.767 64.025 138.818 64.1705 138.775 64.1876C138.733 64.2047 138.613 64.0592 138.673 63.7511C138.715 63.5663 138.817 63.4007 138.964 63.2804C139.169 63.1239 139.427 63.0533 139.683 63.0835C139.99 63.1419 140.277 63.2779 140.517 63.4787C140.756 63.6795 140.941 63.9383 141.052 64.2304C141.382 64.8729 141.544 65.5883 141.523 66.3102C141.523 67.8166 140.735 69.2288 139.657 69.554C139.458 69.616 139.246 69.6313 139.04 69.5987C138.834 69.566 138.638 69.4863 138.467 69.3657C138.236 69.1946 138.193 69.0319 138.219 69.0148Z" fill="#CC8F75"/>
<path d="M112.068 73.8932C112.285 74.5445 112.599 75.1592 113.001 75.7163C113.199 75.9945 113.454 76.2276 113.749 76.4002C114.044 76.5728 114.373 76.681 114.713 76.7177C115.087 76.7199 115.455 76.6268 115.783 76.4471C116.111 76.2674 116.388 76.007 116.587 75.6906C116.97 75.0643 117.149 74.3347 117.1 73.6022C117.1 72.9432 116.767 72.1558 116.116 72.0788C115.84 72.0697 115.566 72.1315 115.32 72.2585L111.897 73.645" fill="#CC8F75"/>
<path d="M113.435 76.7092C114.057 76.7566 114.683 76.681 115.275 76.4867C115.876 76.2504 116.369 75.803 116.662 75.2286C116.819 74.8742 116.901 74.4908 116.901 74.1031C116.901 73.7153 116.819 73.3319 116.662 72.9776C116.582 72.7954 116.482 72.623 116.362 72.464C116.225 72.3185 116.251 72.3271 116.106 72.3528C115.96 72.3785 115.738 72.4983 115.549 72.5667L114.984 72.7978C114.248 73.0974 113.581 73.3542 113.024 73.5681C112.435 73.8567 111.801 74.0448 111.15 74.1245C111.667 73.7168 112.244 73.3933 112.862 73.1659C113.401 72.9005 114.051 72.601 114.77 72.31L115.327 72.0618C115.533 71.9642 115.744 71.8785 115.96 71.805C116.124 71.7496 116.301 71.7496 116.465 71.805C116.616 71.8725 116.748 71.9752 116.85 72.1046C117.002 72.31 117.131 72.5309 117.235 72.7636C117.422 73.201 117.509 73.6746 117.49 74.1499C117.471 74.6251 117.346 75.0901 117.124 75.511C116.761 76.1882 116.146 76.6954 115.412 76.9232C114.93 77.0766 114.416 77.0973 113.923 76.9831C113.589 76.8633 113.427 76.7435 113.435 76.7092Z" fill="#263238"/>
<path d="M145.041 56.4406C144.271 56.3892 138.1 57.1852 138.588 68.6627C139.042 79.3869 146.556 77.0247 148.961 72.9935C151.229 69.1676 152.53 56.9712 145.041 56.4406Z" fill="#455A64"/>
<path d="M148.859 57.8022C148.85 57.7026 148.85 57.6023 148.859 57.5027C148.859 57.2716 148.859 56.9891 148.859 56.6468C148.859 55.8594 148.807 54.7553 148.764 53.3773C148.713 50.5614 148.636 46.65 148.542 42.1224L148.679 42.2593H145.426L145.572 42.1138C145.572 42.9697 145.623 43.8684 145.64 44.7842C145.752 49.0636 145.854 53.0949 145.931 56.4585V56.5526H145.829C144.526 56.8557 143.368 57.5995 142.551 58.6581C141.936 59.4871 141.491 60.4296 141.241 61.4312C141.077 62.0744 140.965 62.7299 140.907 63.3912C140.907 63.6223 140.907 63.7934 140.907 63.9133C140.907 64.0331 140.907 64.093 140.907 64.093C140.896 64.0336 140.896 63.9727 140.907 63.9133C140.907 63.7934 140.907 63.6223 140.907 63.3826C140.94 62.7139 141.031 62.0494 141.181 61.397C141.413 60.3685 141.852 59.3985 142.474 58.5469C143.318 57.4239 144.529 56.6332 145.897 56.313L145.803 56.4328C145.709 53.0777 145.589 49.0722 145.469 44.7671C145.469 43.8513 145.418 42.944 145.401 42.0881V41.9426H148.867V42.0796C148.919 46.5987 148.961 50.5186 148.996 53.3345C148.996 54.7125 148.996 55.8166 148.996 56.604V57.4599C148.96 57.5778 148.914 57.6924 148.859 57.8022Z" fill="#455A64"/>
<path d="M145.037 42.0964C142.722 37.2429 138.884 33.2787 134.108 30.8072C131.167 29.3387 128.076 28.1909 124.89 27.3837C124.89 27.3837 129.383 26.3224 136.65 29.5491C139.945 31.0212 143.274 32.9726 145.474 35.797C146.869 37.6201 148.615 41.172 148.607 42.0878L145.037 42.0964Z" fill="#455A64"/>
<path d="M144.222 76.1943C144.145 76.1885 144.07 76.1682 144 76.1344C143.801 76.051 143.609 75.9508 143.426 75.8348C142.76 75.3992 142.206 74.8128 141.809 74.1231C141.246 73.0839 140.907 71.9379 140.816 70.7594C140.688 69.3358 140.688 67.9036 140.816 66.48C140.937 65.0536 141.175 63.6395 141.526 62.2519C141.773 61.1016 142.188 59.9941 142.759 58.9653C143.159 58.2748 143.716 57.6883 144.385 57.2535C144.565 57.1362 144.757 57.0386 144.958 56.9625C145.028 56.9287 145.104 56.9084 145.181 56.9026C145.181 56.9026 144.899 57.031 144.445 57.3477C143.823 57.8026 143.306 58.3865 142.93 59.0594C142.401 60.0829 142.015 61.1744 141.783 62.3033C141.449 63.6819 141.22 65.0838 141.098 66.4971C140.983 67.907 140.983 69.3239 141.098 70.7337C141.174 71.8824 141.482 73.0036 142.006 74.0289C142.375 74.704 142.889 75.2887 143.512 75.7407C143.974 76.0659 144.231 76.1686 144.222 76.1943Z" fill="#263238"/>
<path d="M119.466 74.4634L113.553 75.6234C112.765 75.7782 112.251 76.5428 112.406 77.3313L112.493 77.7765C112.648 78.565 113.412 79.0789 114.201 78.9241L120.114 77.7641C120.902 77.6094 121.416 76.8448 121.261 76.0562L121.174 75.6111C121.019 74.8225 120.255 74.3087 119.466 74.4634Z" fill="#455A64"/>
<path d="M120.433 75.3301L146.666 67.0965C146.823 67.0445 146.988 67.0241 147.153 67.0365C147.318 67.0488 147.478 67.0937 147.626 67.1685C147.773 67.2433 147.904 67.3466 148.011 67.4723C148.118 67.5981 148.199 67.7438 148.25 67.901C148.301 68.0606 148.319 68.2288 148.303 68.3955C148.287 68.5622 148.238 68.724 148.158 68.8711C148.078 69.0183 147.969 69.1477 147.838 69.2516C147.706 69.3556 147.555 69.4318 147.394 69.4759L120.562 76.7252L120.433 75.3301Z" fill="#455A64"/>
<path d="M139.822 71.7106C140.101 71.5935 140.387 71.4934 140.678 71.4111L143.075 70.675C144.085 70.3669 145.317 70.0416 146.627 69.6137C146.946 69.498 147.237 69.3173 147.482 69.0831C147.721 68.8385 147.854 68.5092 147.85 68.1672C147.85 68.0011 147.798 67.8392 147.702 67.7041C147.605 67.5691 147.468 67.4676 147.311 67.4141C146.953 67.3166 146.574 67.3166 146.216 67.4141L138.35 69.9817L135.954 70.7264C135.674 70.8231 135.388 70.9003 135.098 70.9575C135.374 70.8223 135.66 70.7079 135.954 70.6151L138.324 69.7592C140.327 69.083 143.083 68.133 146.181 67.1915C146.592 67.067 147.029 67.067 147.44 67.1915C147.651 67.263 147.835 67.3987 147.965 67.5798C148.096 67.7609 148.166 67.9783 148.167 68.2015C148.17 68.4079 148.131 68.6127 148.053 68.8039C147.975 68.995 147.86 69.1685 147.713 69.3141C147.44 69.5779 147.113 69.7794 146.755 69.9047C145.403 70.3326 144.187 70.6237 143.169 70.9147L140.747 71.5566C140.444 71.6377 140.135 71.6893 139.822 71.7106Z" fill="#263238"/>
<path d="M126.062 56.5601C125.856 56.8768 124.059 55.9011 121.834 56.2948C119.608 56.6885 118.23 58.1949 117.939 57.9638C117.794 57.8696 117.939 57.3133 118.538 56.6372C119.348 55.7619 120.426 55.1808 121.603 54.9853C122.771 54.7749 123.976 54.9617 125.026 55.5159C125.839 55.9182 126.164 56.4232 126.062 56.5601Z" fill="#CC8F75"/>
<path d="M125.802 56.8435C125.388 56.7664 124.98 56.6635 124.578 56.5354C123.603 56.3193 122.592 56.3193 121.617 56.5354C120.648 56.7632 119.74 57.1983 118.955 57.8106C118.348 58.2899 118.031 58.6665 117.98 58.6152C117.928 58.5638 118.168 58.1359 118.75 57.571C119.525 56.8408 120.482 56.3324 121.521 56.099C122.56 55.8656 123.643 55.9158 124.656 56.2444C125.426 56.484 125.828 56.775 125.802 56.8435Z" fill="#263238"/>
<path d="M126.962 51.8193C126.773 52.4184 124.865 52.3756 122.597 52.4869C120.328 52.5981 118.411 52.7265 118.197 52.1445C118.095 51.8535 118.488 51.417 119.267 51.0233C121.334 50.0901 123.685 50.0041 125.815 50.7836C126.619 51.1174 127.039 51.5283 126.962 51.8193Z" fill="#263238"/>
<path d="M108.14 57.8796C107.969 57.9738 107.635 57.6571 107.088 57.2805C106.412 56.8055 105.636 56.4922 104.819 56.3647C102.885 56.048 101.327 56.9382 101.105 56.6215C101.002 56.4931 101.268 56.048 101.961 55.6201C102.887 55.077 103.973 54.8713 105.033 55.0381C106.113 55.1889 107.092 55.7536 107.764 56.6129C108.243 57.2805 108.286 57.8026 108.14 57.8796Z" fill="#CC8F75"/>
<path d="M108.355 58.8035C108.295 58.8035 108.004 58.4184 107.396 57.8792C106.619 57.1759 105.671 56.6888 104.647 56.4665C103.622 56.2443 102.558 56.2946 101.559 56.6125C100.789 56.8521 100.343 57.1174 100.309 57.0575C100.275 56.9976 100.66 56.6467 101.456 56.3129C102.5 55.8972 103.644 55.8019 104.743 56.039C105.842 56.276 106.845 56.8399 107.619 57.6566C107.965 57.9637 108.22 58.3606 108.355 58.8035Z" fill="#263238"/>
<path d="M109.118 52.5731C109.007 53.1808 107.184 53.3605 105.027 53.3862C102.87 53.4119 101.038 53.2493 100.919 52.633C100.799 52.0168 102.63 51.1695 105.01 51.1524C107.389 51.1352 109.238 51.974 109.118 52.5731Z" fill="#263238"/>
<path d="M129.276 34.8641C127.822 36.8309 126.668 39.0029 125.853 41.309C125.452 42.465 125.31 43.6947 125.436 44.9116C125.561 46.1285 125.952 47.3031 126.58 48.3529C127.898 50.2787 130.149 51.2972 132.203 52.4184C134.258 53.5396 136.354 55.0802 136.868 57.3569C137.022 58.0673 136.722 60.5665 137.253 61.0629C137.989 61.739 139.282 61.3196 139.821 60.4894C140.36 59.6592 140.745 56.9118 140.762 55.9104L140.891 46.5812C140.891 43.9451 140.891 41.2148 139.752 38.8783C138.152 35.5574 134.848 34.4961 130.021 34.7358" fill="#263238"/>
<path d="M98.6116 53.5904C98.9783 50.4152 100.203 47.4001 102.155 44.8689C104.128 42.3406 106.972 40.638 110.132 40.093C113.282 39.6137 116.465 40.4867 119.649 40.6665C122.833 40.8462 126.445 40.0673 128.105 37.3542C128.628 36.4983 128.867 35.3172 128.208 34.5811C127.941 34.3163 127.624 34.1069 127.275 33.9649C123.052 31.9146 118.32 31.1498 113.667 31.7652C108.996 32.4113 104.74 34.7915 101.744 38.4326C100.275 40.262 99.2398 42.4013 98.7179 44.689C98.196 46.9768 98.2006 49.3532 98.7314 51.6389" fill="#263238"/>
<path d="M96.728 48.9009C96.6619 48.7738 96.613 48.6386 96.5825 48.4986C96.4663 48.1006 96.3805 47.6943 96.3258 47.2833C96.1411 45.758 96.287 44.2109 96.7537 42.7471C97.4471 40.5589 98.7506 38.614 100.511 37.141C102.667 35.341 105.269 34.158 108.043 33.7174C110.796 33.2944 113.606 33.4195 116.311 34.0855C117.472 34.3626 118.616 34.7113 119.734 35.1297C120.804 35.5234 121.754 35.9856 122.67 36.1995C124.113 36.5923 125.614 36.7256 127.103 36.5932C127.64 36.4811 128.14 36.237 128.559 35.8828C128.479 36.006 128.381 36.1158 128.268 36.2081C127.943 36.48 127.559 36.6707 127.146 36.7644C125.623 36.9744 124.073 36.8843 122.584 36.4991C121.643 36.268 120.667 35.8486 119.614 35.4806C118.494 35.0811 117.351 34.7496 116.191 34.4877C113.536 33.8558 110.784 33.7425 108.086 34.154C105.395 34.5737 102.865 35.6988 100.751 37.4149C99.0341 38.8291 97.745 40.6932 97.0276 42.7984C96.5409 44.2167 96.3544 45.7206 96.4798 47.2148C96.5997 48.3189 96.7708 48.8923 96.728 48.9009Z" fill="#455A64"/>
<path d="M110.536 29.2666C110.789 29.1743 111.055 29.1223 111.324 29.1126C112.05 29.0383 112.781 29.0383 113.506 29.1126C115.929 29.343 118.234 30.2639 120.148 31.7658C121.252 32.6217 122.177 33.606 123.161 34.265C124.035 34.8411 125.016 35.2369 126.045 35.429C126.734 35.5941 127.446 35.6433 128.151 35.5745C128.647 35.5146 128.895 35.3776 128.921 35.4119C128.714 35.5929 128.458 35.709 128.185 35.7457C127.458 35.8845 126.712 35.8845 125.985 35.7457C124.898 35.5894 123.857 35.2044 122.93 34.6159C121.894 33.9398 120.944 32.9812 119.874 32.1253C118.016 30.6768 115.807 29.7465 113.472 29.4292C111.675 29.181 110.545 29.3864 110.536 29.2666Z" fill="#455A64"/>
<path d="M148.327 52.1885C148.327 52.1885 148.156 51.8975 147.796 51.4182C147.266 50.7567 146.585 50.2315 145.811 49.8862C144.663 49.3795 143.419 49.1311 142.165 49.1587C140.612 49.2451 139.07 49.4569 137.551 49.792C135.999 50.1348 134.405 50.2558 132.818 50.1515C131.525 50.0399 130.255 49.734 129.052 49.2443C128.243 48.9164 127.472 48.5033 126.75 48.0118C126.465 47.8384 126.21 47.6185 125.997 47.3613C127.008 47.9548 128.061 48.4754 129.147 48.919C130.334 49.3499 131.576 49.6149 132.835 49.7065C134.384 49.7869 135.935 49.6574 137.449 49.3213C138.991 48.9779 140.56 48.7745 142.139 48.7136C143.452 48.701 144.75 48.994 145.931 49.5695C146.731 49.9598 147.418 50.5492 147.925 51.2813C148.051 51.4825 148.16 51.6944 148.25 51.9146C148.318 52.1029 148.344 52.1885 148.327 52.1885Z" fill="#455A64"/>
<path d="M146.98 46.1959C146.98 46.1959 146.817 45.9049 146.449 45.4427C145.91 44.8179 145.225 44.3357 144.455 44.039C143.301 43.6138 142.06 43.4814 140.843 43.6539C139.465 43.7908 137.967 44.2102 136.35 44.5098C134.817 44.8613 133.223 44.8378 131.702 44.4413C130.468 44.0609 129.354 43.3681 128.467 42.43C127.868 41.8134 127.384 41.0945 127.038 40.3074C126.963 40.0949 126.903 39.8776 126.858 39.6569C126.843 39.5777 126.843 39.4964 126.858 39.4172C127.333 40.4526 127.981 41.3991 128.775 42.216C129.652 43.0738 130.724 43.7053 131.899 44.0561C133.364 44.4086 134.893 44.4086 136.358 44.0561C137.942 43.7566 139.456 43.3458 140.894 43.2003C142.172 43.042 143.469 43.216 144.66 43.7052C145.464 44.0414 146.16 44.5921 146.672 45.2972C146.85 45.5651 146.956 45.8747 146.98 46.1959Z" fill="#455A64"/>
<path d="M114.879 131.793L115.042 131.656L115.512 131.279C116.112 130.787 116.683 130.261 117.224 129.705C118.103 128.805 118.924 127.85 119.681 126.846C120.536 125.682 121.538 124.278 122.591 122.721C124.696 119.605 127.161 115.805 129.78 111.431C131.09 109.24 132.442 106.904 133.803 104.439C134.145 103.823 134.479 103.198 134.83 102.573C135.159 101.914 135.552 101.289 136.002 100.707C136.472 100.106 137.1 99.6496 137.817 99.389C138.183 99.2434 138.583 99.199 138.972 99.2607C139.178 99.3103 139.367 99.4137 139.52 99.5602C139.659 99.7249 139.761 99.9175 139.82 100.125V100.168C139.737 100.43 139.6 100.672 139.417 100.878C139.221 101.089 138.952 101.218 138.664 101.238C138.127 101.237 137.606 101.056 137.183 100.724C136.743 100.409 136.416 99.9586 136.252 99.4417C136.089 98.9248 136.097 98.3688 136.276 97.857C136.463 97.3175 136.853 96.8722 137.363 96.616C137.86 96.3572 138.431 96.2757 138.981 96.3849C139.27 96.4292 139.543 96.5468 139.774 96.7266C140.004 96.9064 140.185 97.1424 140.299 97.4119C140.358 97.5653 140.372 97.7324 140.338 97.8932C140.305 98.0541 140.226 98.202 140.111 98.3192C139.897 98.5265 139.63 98.6715 139.34 98.7386C138.854 98.8495 138.345 98.7973 137.892 98.59C137.439 98.3827 137.066 98.0318 136.833 97.5917C136.599 97.1374 136.544 96.6123 136.678 96.1195C136.81 95.64 137.077 95.2089 137.449 94.8785C137.813 94.5501 138.285 94.3672 138.775 94.365C139.024 94.3673 139.268 94.4281 139.488 94.5427C139.708 94.6572 139.898 94.8221 140.042 95.024C140.191 95.2479 140.247 95.5215 140.196 95.7857C140.173 95.9155 140.124 96.0393 140.052 96.1496C139.98 96.26 139.886 96.3545 139.777 96.4277C139.576 96.5654 139.346 96.6528 139.104 96.6826C138.863 96.7124 138.618 96.6837 138.39 96.5988C138.17 96.5032 137.973 96.3624 137.81 96.1854C137.648 96.0085 137.525 95.7994 137.449 95.5718C137.301 95.1338 137.231 94.6731 137.243 94.2109C137.218 93.3079 137.452 92.4165 137.92 91.6433C138.167 91.2547 138.547 90.9689 138.989 90.8387C139.209 90.7903 139.437 90.7858 139.659 90.8254C139.88 90.8651 140.092 90.9481 140.282 91.0698C140.486 91.1835 140.655 91.3517 140.77 91.5556C140.885 91.7596 140.941 91.9914 140.932 92.2252C140.904 92.4568 140.807 92.6746 140.655 92.8513C140.502 93.028 140.301 93.1556 140.076 93.2181C139.866 93.2889 139.642 93.308 139.423 93.2737C139.204 93.2394 138.997 93.1528 138.818 93.0212C138.479 92.7428 138.254 92.3501 138.185 91.9171C138.117 91.5007 138.156 91.0739 138.296 90.6761C138.394 90.2851 138.534 89.9062 138.716 89.5463C138.901 89.1907 139.183 88.8942 139.529 88.6904C139.863 88.4818 140.241 88.353 140.633 88.3138C140.836 88.2847 141.043 88.3113 141.232 88.3909C141.411 88.4899 141.566 88.6272 141.685 88.7931C141.806 88.9563 141.89 89.1429 141.934 89.3409C141.991 89.5503 141.966 89.7737 141.865 89.9657C141.752 90.1347 141.589 90.2648 141.399 90.3383C141.209 90.4118 141.002 90.4251 140.804 90.3765C140.434 90.3125 140.094 90.1362 139.828 89.8716C139.314 89.3582 139.009 88.6717 138.972 87.9458C138.923 87.2499 139.107 86.5575 139.494 85.9773C139.686 85.7006 139.934 85.4674 140.222 85.2926C140.508 85.1333 140.828 85.0452 141.155 85.0358C141.483 85.0149 141.808 85.112 142.071 85.3097C142.198 85.4119 142.299 85.5428 142.366 85.6915C142.433 85.8402 142.463 86.0026 142.456 86.1656C142.411 86.4731 142.266 86.7572 142.043 86.9738C141.82 87.1904 141.532 87.3275 141.223 87.3638C140.938 87.38 140.653 87.3136 140.404 87.1724C140.155 87.0312 139.952 86.8213 139.82 86.5678C139.549 86.1113 139.426 85.582 139.469 85.0529C139.651 84.1557 139.966 83.2905 140.402 82.4852L141.335 80.3626C141.891 79.0959 142.336 78.1117 142.635 77.4355L142.978 76.6738C143.016 76.586 143.059 76.5003 143.106 76.417C143.078 76.5077 143.044 76.5964 143.003 76.6823L142.687 77.4526L141.437 80.4054L140.556 82.451C140.149 83.2615 139.861 84.1262 139.7 85.0187C139.661 85.5127 139.777 86.0066 140.034 86.4309C140.153 86.6532 140.333 86.8371 140.553 86.9613C140.772 87.0855 141.023 87.145 141.275 87.1327C141.536 87.0979 141.779 86.9801 141.969 86.7968C142.158 86.6135 142.284 86.3742 142.327 86.1142C142.333 85.9806 142.307 85.8476 142.252 85.7257C142.197 85.6038 142.115 85.4965 142.011 85.4124C141.782 85.255 141.509 85.1768 141.232 85.1898C140.932 85.2022 140.639 85.2843 140.376 85.4295C140.117 85.5916 139.893 85.804 139.717 86.0543C139.361 86.5925 139.195 87.2342 139.246 87.8773C139.275 88.5445 139.553 89.1766 140.025 89.649C140.257 89.8811 140.557 90.0338 140.881 90.0855C141.036 90.1321 141.202 90.1291 141.355 90.0769C141.509 90.0247 141.642 89.926 141.737 89.7945C141.784 89.6497 141.793 89.4954 141.765 89.3458C141.737 89.1962 141.671 89.0562 141.574 88.9386C141.477 88.804 141.352 88.6928 141.206 88.6134C141.054 88.5525 140.889 88.5318 140.727 88.5535C140.367 88.5828 140.021 88.7035 139.722 88.9043C139.422 89.105 139.179 89.3791 139.015 89.7004C138.843 90.0415 138.708 90.4002 138.613 90.7702C138.489 91.1304 138.456 91.5157 138.519 91.8915C138.576 92.2588 138.768 92.5916 139.058 92.8244C139.202 92.9323 139.369 93.0036 139.547 93.0319C139.724 93.0603 139.906 93.0448 140.076 92.987C140.251 92.9408 140.407 92.8436 140.526 92.708C140.645 92.5723 140.721 92.4042 140.744 92.2252C140.746 92.0413 140.697 91.8604 140.604 91.702C140.51 91.5437 140.375 91.4138 140.213 91.3266C139.89 91.1223 139.5 91.0517 139.126 91.1297C138.752 91.2524 138.432 91.5002 138.219 91.8315C137.789 92.5619 137.573 93.398 137.594 94.2451C137.585 94.6701 137.652 95.0932 137.791 95.4947C137.855 95.6823 137.956 95.855 138.088 96.0021C138.22 96.1493 138.382 96.2679 138.561 96.3506C138.748 96.417 138.947 96.4383 139.144 96.4131C139.34 96.3878 139.528 96.3165 139.691 96.2051C139.769 96.1519 139.836 96.0837 139.888 96.0045C139.94 95.9253 139.976 95.8366 139.993 95.7435C140.011 95.6505 140.01 95.5549 139.99 95.4623C139.971 95.3697 139.933 95.2818 139.88 95.2037C139.76 95.0405 139.605 94.9074 139.425 94.8153C139.245 94.7231 139.046 94.6744 138.844 94.6731C138.423 94.6763 138.017 94.8348 137.706 95.1182C137.356 95.3849 137.109 95.765 137.008 96.1933C136.907 96.6216 136.958 97.0717 137.152 97.4668C137.346 97.8618 137.671 98.1772 138.072 98.3592C138.472 98.5412 138.924 98.5785 139.349 98.4647C139.587 98.4153 139.807 98.2996 139.982 98.1309C140.057 98.0525 140.107 97.9546 140.129 97.8486C140.15 97.7426 140.141 97.6328 140.102 97.5318C140.006 97.307 139.854 97.1105 139.661 96.9607C139.468 96.811 139.24 96.7129 138.998 96.6759C138.513 96.5712 138.007 96.643 137.571 96.8784C137.135 97.1138 136.797 97.4973 136.619 97.9597C136.456 98.422 136.452 98.9252 136.607 99.39C136.762 99.8549 137.067 100.255 137.474 100.527C137.844 100.822 138.302 100.985 138.775 100.99C138.996 100.956 139.201 100.856 139.363 100.703C139.525 100.55 139.636 100.352 139.683 100.134V100.211C139.649 100.054 139.571 99.9096 139.459 99.7945C139.347 99.6795 139.205 99.5983 139.049 99.5602C138.708 99.5114 138.36 99.5527 138.039 99.68C137.364 99.9175 136.771 100.342 136.328 100.904C135.894 101.475 135.51 102.082 135.181 102.718C134.838 103.352 134.496 103.977 134.154 104.593C132.784 107.058 131.423 109.386 130.105 111.577C127.478 115.95 124.97 119.733 122.864 122.849C121.795 124.398 120.827 125.793 119.912 126.957C119.14 127.954 118.305 128.9 117.412 129.79C116.64 130.545 115.791 131.216 114.879 131.793Z" fill="#263238"/>
</svg>
