<svg width="621" height="290" viewBox="0 0 621 290" fill="none" xmlns="http://www.w3.org/2000/svg">
<path opacity="0.4" d="M38.5395 365.184C50.0186 323.869 64.8246 275.019 110.302 251.076C121.861 244.99 134.439 240.936 147.204 239.197C160.285 237.416 173.031 238.591 185.393 240.948C197.261 243.209 208.817 246.315 220.798 248.26C232.61 250.178 244.621 250.686 256.97 249.082C282.088 245.821 306.047 235.076 329.01 224.212C352.427 213.134 375.808 201.3 400.932 194.853C444.563 183.658 488.619 187.569 530.92 192.515C573.935 197.54 617.262 204.146 661.937 199.395C667.349 198.819 672.755 198.063 678.149 197.136C677.302 195.838 676.454 194.54 675.609 193.246C674.161 194.82 672.712 196.394 671.263 197.968C668.776 200.67 673.27 203.392 675.752 200.692C677.201 199.118 678.649 197.544 680.098 195.97C681.836 194.082 679.871 191.686 677.558 192.08C632.273 199.861 587.729 194.068 544.19 188.817C501.328 183.645 457.129 178.345 412.586 187.039C387.945 191.848 364.847 201.657 342.074 212.437C318.203 223.738 294.128 236.185 268.301 241.92C255.641 244.73 242.956 245.608 230.515 244.293C218.074 242.978 206.205 239.873 194.187 237.315C182.188 234.761 169.866 232.667 157.101 233.21C144.325 233.753 131.469 236.563 119.295 241.405C95.9044 250.709 76.9799 267.434 63.9615 287.319C51.2933 306.671 43.7526 327.867 37.4641 348.945C35.8734 354.278 34.3671 359.621 32.8817 364.968C31.9629 368.275 37.6294 368.46 38.5395 365.184Z" fill="#BAE637"/>
<path opacity="0.8" d="M33.9926 350.545C49.1533 305.069 90.198 268.511 139.425 257.361C164.881 251.596 190.199 253.072 214.166 260.098C236.936 266.773 258.507 276.829 282.559 280.016C334.484 286.897 385.931 263.171 431.887 239.508C457.215 226.464 482.415 213.355 508.798 202.509C534.122 192.099 560.108 183.342 586.486 176.3C638.842 162.325 692.757 155.084 746.14 155.04C752.706 155.038 759.268 155.144 765.811 155.352C766.136 155.36 766.204 154.888 765.879 154.88C712.596 153.204 658.587 158.659 605.814 170.985C551.976 183.561 500.599 203.559 451.326 228.93C402.247 254.204 349.802 283.308 293.583 280.533C267.768 279.259 244.903 269.373 221.219 261.762C198.489 254.458 174.958 251.126 150.238 254.848C102.555 262.03 60.1388 292.822 39.8525 334.769C37.3863 339.869 35.2955 345.09 33.5264 350.396C33.428 350.691 33.8936 350.842 33.9926 350.545Z" fill="#BAE637"/>
</svg>
