<svg width="621" height="289" viewBox="0 0 621 289" fill="none" xmlns="http://www.w3.org/2000/svg">
<path opacity="0.4" d="M38.5395 364.43C50.0186 323.116 64.8246 274.265 110.302 250.322C121.861 244.237 134.439 240.182 147.204 238.444C160.285 236.663 173.031 237.838 185.393 240.194C197.261 242.455 208.817 245.561 220.798 247.506C232.61 249.424 244.621 249.933 256.97 248.329C282.088 245.068 306.047 234.323 329.01 223.459C352.427 212.381 375.808 200.546 400.932 194.1C444.563 182.905 488.619 186.815 530.92 191.762C573.935 196.787 617.262 203.392 661.937 198.641C667.349 198.065 672.755 197.309 678.149 196.383C677.302 195.085 676.454 193.786 675.609 192.493C674.161 194.067 672.712 195.64 671.263 197.214C668.776 199.917 673.27 202.638 675.752 199.938C677.201 198.364 678.649 196.79 680.098 195.216C681.836 193.329 679.871 190.932 677.558 191.326C632.273 199.108 587.729 193.314 544.19 188.063C501.328 182.891 457.129 177.591 412.586 186.285C387.945 191.095 364.847 200.903 342.074 211.684C318.203 222.984 294.128 235.432 268.301 241.166C255.641 243.977 242.956 244.854 230.515 243.54C218.074 242.225 206.205 239.119 194.187 236.562C182.188 234.008 169.866 231.914 157.101 232.456C144.325 233 131.469 235.809 119.295 240.651C95.9044 249.955 76.9799 266.681 63.9615 286.566C51.2933 305.917 43.7526 327.114 37.4641 348.192C35.8734 353.524 34.3671 358.868 32.8817 364.215C31.9629 367.521 37.6294 367.706 38.5395 364.43Z" fill="#FFF2D0"/>
<path opacity="0.8" d="M33.9926 349.792C49.1533 304.316 90.198 267.757 139.425 256.608C164.881 250.843 190.199 252.318 214.166 259.345C236.936 266.02 258.507 276.076 282.559 279.263C334.484 286.144 385.931 262.418 431.887 238.754C457.215 225.71 482.415 212.601 508.798 201.756C534.122 191.346 560.108 182.589 586.486 175.547C638.842 161.571 692.757 154.331 746.14 154.287C752.706 154.284 759.268 154.391 765.811 154.599C766.136 154.607 766.204 154.134 765.879 154.127C712.596 152.45 658.587 157.905 605.814 170.231C551.976 182.807 500.599 202.806 451.326 228.176C402.247 253.45 349.802 282.555 293.583 279.78C267.768 278.505 244.903 268.62 221.219 261.009C198.489 253.704 174.958 250.372 150.238 254.095C102.555 261.276 60.1388 292.068 39.8525 334.016C37.3863 339.116 35.2955 344.336 33.5264 349.643C33.428 349.937 33.8936 350.089 33.9926 349.792Z" fill="#FFC121"/>
</svg>
