<svg width="320" height="195" viewBox="0 0 320 195" fill="none" xmlns="http://www.w3.org/2000/svg">
<rect x="0.901444" y="1.35213" width="318.522" height="192.585" rx="7.36932" fill="white"/>
<rect x="0.901444" y="1.35213" width="318.522" height="192.585" rx="7.36932" stroke="#D9D9D9" stroke-width="0.982576"/>
<path d="M70.6415 38.4424H69.0392L72.6394 28.438H74.3834L77.9836 38.4424H76.3813L73.5529 30.2552H73.4748L70.6415 38.4424ZM70.9102 34.5246H76.1078V35.7947H70.9102V34.5246Z" fill="black" fill-opacity="0.45"/>
<path d="M158.228 38.4424V28.438H161.892C162.602 28.438 163.19 28.5552 163.655 28.7897C164.121 29.0209 164.469 29.3352 164.701 29.7325C164.932 30.1265 165.047 30.5711 165.047 31.0661C165.047 31.4829 164.971 31.8347 164.818 32.1212C164.665 32.4046 164.46 32.6325 164.202 32.8051C163.948 32.9745 163.668 33.0982 163.362 33.1764V33.2741C163.694 33.2904 164.018 33.3978 164.334 33.5965C164.653 33.7919 164.917 34.0703 165.126 34.4318C165.334 34.7933 165.438 35.233 165.438 35.7508C165.438 36.2621 165.318 36.7212 165.077 37.1283C164.839 37.5322 164.471 37.8529 163.973 38.0907C163.474 38.3251 162.838 38.4424 162.063 38.4424H158.228ZM159.737 37.1479H161.916C162.639 37.1479 163.157 37.0078 163.47 36.7278C163.782 36.4477 163.939 36.0976 163.939 35.6775C163.939 35.3616 163.859 35.0718 163.699 34.808C163.54 34.5442 163.312 34.3341 163.015 34.1778C162.722 34.0215 162.374 33.9433 161.97 33.9433H159.737V37.1479ZM159.737 32.7661H161.76C162.099 32.7661 162.403 32.7009 162.673 32.5707C162.947 32.4404 163.163 32.258 163.323 32.0235C163.486 31.7858 163.567 31.5057 163.567 31.1833C163.567 30.7697 163.422 30.4229 163.133 30.1428C162.843 29.8628 162.398 29.7227 161.799 29.7227H159.737V32.7661Z" fill="black" fill-opacity="0.45"/>
<path d="M254.969 31.6914H253.445C253.386 31.3657 253.277 31.0791 253.118 30.8316C252.958 30.5841 252.763 30.374 252.531 30.2014C252.3 30.0288 252.041 29.8986 251.755 29.8106C251.471 29.7227 251.17 29.6788 250.851 29.6788C250.275 29.6788 249.758 29.8237 249.302 30.1135C248.85 30.4034 248.492 30.8283 248.228 31.3885C247.967 31.9486 247.837 32.6325 247.837 33.4402C247.837 34.2543 247.967 34.9415 248.228 35.5016C248.492 36.0618 248.851 36.4851 249.307 36.7717C249.763 37.0583 250.276 37.2016 250.846 37.2016C251.162 37.2016 251.462 37.1593 251.745 37.0746C252.031 36.9867 252.29 36.858 252.522 36.6887C252.753 36.5193 252.948 36.3125 253.108 36.0683C253.271 35.8208 253.383 35.5375 253.445 35.2183L254.969 35.2232C254.888 35.7149 254.73 36.1676 254.495 36.5812C254.264 36.9915 253.966 37.3465 253.601 37.6461C253.24 37.9425 252.826 38.1721 252.36 38.3349C251.895 38.4977 251.387 38.5792 250.836 38.5792C249.97 38.5792 249.198 38.374 248.521 37.9637C247.843 37.5501 247.309 36.959 246.919 36.1904C246.531 35.4218 246.337 34.5051 246.337 33.4402C246.337 32.372 246.533 31.4553 246.923 30.6899C247.314 29.9214 247.848 29.3319 248.526 28.9216C249.203 28.508 249.973 28.3012 250.836 28.3012C251.367 28.3012 251.862 28.3777 252.321 28.5308C252.784 28.6806 253.199 28.902 253.567 29.1951C253.935 29.485 254.24 29.84 254.48 30.2601C254.721 30.6769 254.884 31.154 254.969 31.6914Z" fill="black" fill-opacity="0.45"/>
<path d="M28.7501 62.1889V72.1934H27.2358V63.7033H27.1772L24.7836 65.2665V63.8205L27.2798 62.1889H28.7501Z" fill="black" fill-opacity="0.45"/>
<g filter="url(#filter0_d_2914_13484)">
<rect x="46.7129" y="49.0068" width="244.672" height="35.3727" rx="2.94773" fill="white"/>
</g>
<rect x="62.6719" y="60.604" width="84.2377" height="12.1791" rx="6.08953" fill="#D9D9D9"/>
<path d="M25.9369 115.427V114.333L29.3222 110.825C29.6837 110.444 29.9817 110.11 30.2162 109.824C30.4539 109.534 30.6314 109.259 30.7486 108.998C30.8659 108.738 30.9245 108.461 30.9245 108.168C30.9245 107.836 30.8463 107.549 30.69 107.308C30.5337 107.064 30.3204 106.876 30.0501 106.746C29.7798 106.613 29.4753 106.546 29.1366 106.546C28.7784 106.546 28.4657 106.619 28.1987 106.766C27.9316 106.912 27.7265 107.119 27.5832 107.386C27.4399 107.653 27.3682 107.966 27.3682 108.324H25.9272C25.9272 107.715 26.0672 107.183 26.3473 106.727C26.6274 106.271 27.0116 105.917 27.5001 105.667C27.9886 105.413 28.5439 105.286 29.1659 105.286C29.7944 105.286 30.3481 105.411 30.8268 105.662C31.3088 105.909 31.6849 106.248 31.9552 106.678C32.2255 107.104 32.3607 107.586 32.3607 108.124C32.3607 108.495 32.2907 108.858 32.1506 109.213C32.0138 109.568 31.7745 109.964 31.4325 110.4C31.0906 110.833 30.6151 111.359 30.0061 111.978L28.0179 114.059V114.132H32.5219V115.427H25.9369Z" fill="black" fill-opacity="0.25"/>
<g filter="url(#filter1_d_2914_13484)">
<rect x="49.6953" y="92.2402" width="244.672" height="35.3727" rx="2.94773" fill="white"/>
</g>
<rect x="65.6562" y="103.838" width="67.2686" height="12.1791" rx="6.08953" fill="#E8E8E8"/>
<path opacity="0.6" d="M31.3848 158.797C30.7139 158.797 30.1147 158.681 29.5871 158.45C29.0628 158.219 28.6476 157.898 28.3414 157.488C28.0386 157.074 27.8757 156.595 27.8529 156.052H29.3868C29.4064 156.348 29.5057 156.605 29.6848 156.823C29.8672 157.038 30.1049 157.204 30.398 157.322C30.6911 157.439 31.0168 157.498 31.375 157.498C31.7691 157.498 32.1175 157.429 32.4204 157.292C32.7265 157.156 32.9659 156.965 33.1385 156.721C33.3111 156.473 33.3974 156.188 33.3974 155.866C33.3974 155.531 33.3111 155.236 33.1385 154.982C32.9691 154.725 32.72 154.523 32.3911 154.376C32.0654 154.229 31.6714 154.156 31.2089 154.156H30.3638V152.925H31.2089C31.5802 152.925 31.9058 152.858 32.1859 152.725C32.4692 152.591 32.6907 152.406 32.8503 152.168C33.0098 151.927 33.0896 151.645 33.0896 151.323C33.0896 151.014 33.0196 150.745 32.8796 150.517C32.7428 150.286 32.5474 150.105 32.2934 149.975C32.0426 149.844 31.7463 149.779 31.4043 149.779C31.0786 149.779 30.7742 149.84 30.4908 149.96C30.2108 150.077 29.9828 150.247 29.8069 150.468C29.6311 150.686 29.5366 150.948 29.5236 151.255H28.063C28.0793 150.714 28.2389 150.238 28.5417 149.828C28.8478 149.418 29.2517 149.097 29.7532 148.866C30.2547 148.635 30.8116 148.519 31.4239 148.519C32.0654 148.519 32.619 148.644 33.0847 148.895C33.5537 149.143 33.9152 149.473 34.1692 149.887C34.4265 150.3 34.5535 150.753 34.5502 151.245C34.5535 151.805 34.3972 152.28 34.0813 152.671C33.7686 153.062 33.3518 153.324 32.8307 153.458V153.536C33.4951 153.637 34.0096 153.901 34.3744 154.327C34.7424 154.754 34.9247 155.283 34.9215 155.915C34.9247 156.465 34.7717 156.959 34.4623 157.395C34.1562 157.831 33.7377 158.175 33.2069 158.426C32.676 158.673 32.0687 158.797 31.3848 158.797Z" fill="black" fill-opacity="0.25"/>
<g opacity="0.8" filter="url(#filter2_d_2914_13484)">
<rect x="51.6602" y="135.474" width="244.672" height="35.3727" rx="2.94773" fill="white"/>
</g>
<rect x="67.6211" y="147.07" width="91.5552" height="12.1791" rx="6.08953" fill="#F5F5F5"/>
<defs>
<filter id="filter0_d_2914_13484" x="35.9046" y="38.1985" width="266.289" height="56.9897" filterUnits="userSpaceOnUse" color-interpolation-filters="sRGB">
<feFlood flood-opacity="0" result="BackgroundImageFix"/>
<feColorMatrix in="SourceAlpha" type="matrix" values="0 0 0 0 0 0 0 0 0 0 0 0 0 0 0 0 0 0 127 0" result="hardAlpha"/>
<feOffset/>
<feGaussianBlur stdDeviation="5.40417"/>
<feColorMatrix type="matrix" values="0 0 0 0 0 0 0 0 0 0 0 0 0 0 0 0 0 0 0.15 0"/>
<feBlend mode="normal" in2="BackgroundImageFix" result="effect1_dropShadow_2914_13484"/>
<feBlend mode="normal" in="SourceGraphic" in2="effect1_dropShadow_2914_13484" result="shape"/>
</filter>
<filter id="filter1_d_2914_13484" x="45.765" y="88.3099" width="252.532" height="43.2337" filterUnits="userSpaceOnUse" color-interpolation-filters="sRGB">
<feFlood flood-opacity="0" result="BackgroundImageFix"/>
<feColorMatrix in="SourceAlpha" type="matrix" values="0 0 0 0 0 0 0 0 0 0 0 0 0 0 0 0 0 0 127 0" result="hardAlpha"/>
<feOffset/>
<feGaussianBlur stdDeviation="1.96515"/>
<feColorMatrix type="matrix" values="0 0 0 0 0 0 0 0 0 0 0 0 0 0 0 0 0 0 0.15 0"/>
<feBlend mode="normal" in2="BackgroundImageFix" result="effect1_dropShadow_2914_13484"/>
<feBlend mode="normal" in="SourceGraphic" in2="effect1_dropShadow_2914_13484" result="shape"/>
</filter>
<filter id="filter2_d_2914_13484" x="49.695" y="133.508" width="248.602" height="39.3034" filterUnits="userSpaceOnUse" color-interpolation-filters="sRGB">
<feFlood flood-opacity="0" result="BackgroundImageFix"/>
<feColorMatrix in="SourceAlpha" type="matrix" values="0 0 0 0 0 0 0 0 0 0 0 0 0 0 0 0 0 0 127 0" result="hardAlpha"/>
<feOffset/>
<feGaussianBlur stdDeviation="0.982576"/>
<feColorMatrix type="matrix" values="0 0 0 0 0 0 0 0 0 0 0 0 0 0 0 0 0 0 0.15 0"/>
<feBlend mode="normal" in2="BackgroundImageFix" result="effect1_dropShadow_2914_13484"/>
<feBlend mode="normal" in="SourceGraphic" in2="effect1_dropShadow_2914_13484" result="shape"/>
</filter>
</defs>
</svg>
