<svg width="123" height="84" viewBox="0 0 123 84" fill="none" xmlns="http://www.w3.org/2000/svg">
<path d="M18.1466 85.4134L19.8459 85.1698C20.2809 85.1073 20.6733 84.8747 20.9369 84.523C21.2005 84.1714 21.3138 83.7295 21.2517 83.2944C21.2212 83.0788 21.1483 82.8714 21.0375 82.684C20.9266 82.4967 20.7799 82.333 20.6057 82.2024C20.4315 82.0718 20.2332 81.9769 20.0223 81.923C19.8113 81.8692 19.5918 81.8575 19.3763 81.8886L17.677 82.1322C17.4615 82.1627 17.254 82.2355 17.0667 82.3464C16.8793 82.4573 16.7156 82.604 16.585 82.7782C16.4544 82.9524 16.3595 83.1507 16.3056 83.3616C16.2518 83.5726 16.2401 83.7921 16.2712 84.0076C16.3337 84.4426 16.5663 84.835 16.918 85.0986C17.2696 85.3622 17.7115 85.4754 18.1466 85.4134Z" fill="#EBEBEB"/>
<path d="M20.8115 121.797C31.3701 121.797 39.9295 113.238 39.9295 102.679C39.9295 92.1209 31.3701 83.5615 20.8115 83.5615C10.253 83.5615 1.69357 92.1209 1.69357 102.679C1.69357 113.238 10.253 121.797 20.8115 121.797Z" fill="#EBEBEB"/>
<path d="M34.4558 82.3546L36.0729 82.654L36.4339 84.3592L36.7949 82.654L38.4121 82.3546L36.8037 81.9614L36.4339 80.353L36.0671 81.9614L34.4558 82.3546Z" fill="#C5DCEA"/>
<path d="M84.6484 64.1374L86.2655 64.4367L86.6265 66.139L86.9875 64.4367L88.6047 64.1374L86.9963 63.7411L86.6265 62.1328L86.2597 63.7411L84.6484 64.1374Z" fill="#C5DCEA"/>
<path d="M116.531 81.524L117.434 81.6913L117.637 82.6451L117.839 81.6913L118.741 81.524L117.842 81.3038L117.637 80.4058L117.432 81.3038L116.531 81.524Z" fill="#C5DCEA"/>
<path d="M114.32 38.6475L115.224 38.8148L115.427 39.7657L115.626 38.8148L116.53 38.6446L115.632 38.4274L115.427 37.5264L115.218 38.4274L114.32 38.6475Z" fill="#C5DCEA"/>
<path d="M7.72754 59.1363L8.63149 59.3036L8.834 60.2545L9.03357 59.3036L9.93752 59.1363L9.03944 58.9161L8.834 58.0151L8.62855 58.9161L7.72754 59.1363Z" fill="#C5DCEA"/>
<path d="M110.834 62.7759L111.738 62.9432L111.937 63.8941L112.14 62.9432L113.044 62.7759L112.146 62.5558L111.937 61.6548L111.732 62.5558L110.834 62.7759Z" fill="#C5DCEA"/>
<path d="M39.8357 17.0704L40.7396 17.2376L40.9422 18.1885L41.1447 17.2376L42.0457 17.0704L41.1476 16.8502L40.9422 15.9492L40.7367 16.8502L39.8357 17.0704Z" fill="#C5DCEA"/>
<path d="M92.5464 70.7026C92.6113 70.7095 92.6713 70.7401 92.715 70.7886C92.7586 70.8371 92.7827 70.9001 92.7827 70.9653C92.7827 71.0305 92.7586 71.0935 92.715 71.142C92.6713 71.1905 92.6113 71.2211 92.5464 71.228C92.4815 71.2211 92.4215 71.1905 92.3778 71.142C92.3342 71.0935 92.3101 71.0305 92.3101 70.9653C92.3101 70.9001 92.3342 70.8371 92.3778 70.7886C92.4215 70.7401 92.4815 70.7095 92.5464 70.7026Z" fill="#C5DCEA"/>
<path d="M105.011 74.1367C105.08 74.1367 105.147 74.1642 105.196 74.2132C105.245 74.2622 105.272 74.3286 105.272 74.3979C105.272 74.4672 105.245 74.5336 105.196 74.5826C105.147 74.6316 105.08 74.6591 105.011 74.6591C104.942 74.6591 104.875 74.6316 104.826 74.5826C104.777 74.5336 104.75 74.4672 104.75 74.3979C104.75 74.3286 104.777 74.2622 104.826 74.2132C104.875 74.1642 104.942 74.1367 105.011 74.1367Z" fill="#C5DCEA"/>
<path d="M15.3788 18.9048C15.4242 18.9105 15.4659 18.9326 15.4962 18.9669C15.5265 19.0012 15.5432 19.0454 15.5432 19.0912C15.5432 19.1369 15.5265 19.1811 15.4962 19.2154C15.4659 19.2497 15.4242 19.2718 15.3788 19.2775C15.3334 19.2718 15.2916 19.2497 15.2613 19.2154C15.2311 19.1811 15.2144 19.1369 15.2144 19.0912C15.2144 19.0454 15.2311 19.0012 15.2613 18.9669C15.2916 18.9326 15.3334 18.9105 15.3788 18.9048Z" fill="#C5DCEA"/>
<path d="M86.8555 78.4629C86.9045 78.4629 86.9516 78.4824 86.9862 78.517C87.0209 78.5517 87.0404 78.5988 87.0404 78.6478C87.0404 78.6968 87.0209 78.7439 86.9862 78.7785C86.9516 78.8132 86.9045 78.8327 86.8555 78.8327C86.8065 78.8327 86.7594 78.8132 86.7248 78.7785C86.6901 78.7439 86.6706 78.6968 86.6706 78.6478C86.6706 78.5988 86.6901 78.5517 86.7248 78.517C86.7594 78.4824 86.8065 78.4629 86.8555 78.4629Z" fill="#C5DCEA"/>
<path d="M80.5631 75.0967C80.6962 75.0967 80.8239 75.1496 80.918 75.2437C81.0121 75.3378 81.065 75.4654 81.065 75.5985C81.065 75.7316 81.0121 75.8593 80.918 75.9534C80.8239 76.0475 80.6962 76.1004 80.5631 76.1004C80.43 76.1004 80.3024 76.0475 80.2083 75.9534C80.1142 75.8593 80.0613 75.7316 80.0613 75.5985C80.0613 75.4654 80.1142 75.3378 80.2083 75.2437C80.3024 75.1496 80.43 75.0967 80.5631 75.0967Z" fill="#C5DCEA"/>
<path d="M54.8621 24.3781L56.4792 24.6774L56.8402 26.3797L57.2012 24.6774L58.8183 24.3781L57.207 23.9848L56.8402 22.3735L56.4704 23.9848L54.8621 24.3781Z" fill="#C5DCEA"/>
<path d="M61.0225 9.62455L61.9264 9.79184L62.1289 10.7427L62.3314 9.79184L63.2324 9.62455L62.3344 9.40443L62.1289 8.50342L61.9235 9.40443L61.0225 9.62455Z" fill="#C5DCEA"/>
<path d="M6.24555 34.0723C6.31483 34.0723 6.38127 34.0998 6.43025 34.1488C6.47924 34.1978 6.50676 34.2642 6.50676 34.3335C6.50676 34.4027 6.47924 34.4692 6.43025 34.5182C6.38127 34.5672 6.31483 34.5947 6.24555 34.5947C6.17627 34.5947 6.10984 34.5672 6.06085 34.5182C6.01186 34.4692 5.98434 34.4027 5.98434 34.3335C5.98434 34.2642 6.01186 34.1978 6.06085 34.1488C6.10984 34.0998 6.17627 34.0723 6.24555 34.0723Z" fill="#C5DCEA"/>
<path d="M16.6819 56.0317C16.7468 56.0386 16.8068 56.0692 16.8505 56.1177C16.8941 56.1662 16.9182 56.2292 16.9182 56.2944C16.9182 56.3596 16.8941 56.4226 16.8505 56.4711C16.8068 56.5196 16.7468 56.5502 16.6819 56.5571C16.617 56.5502 16.557 56.5196 16.5133 56.4711C16.4697 56.4226 16.4456 56.3596 16.4456 56.2944C16.4456 56.2292 16.4697 56.1662 16.5133 56.1177C16.557 56.0692 16.617 56.0386 16.6819 56.0317Z" fill="#C5DCEA"/>
<path d="M3.26661 10.8188C3.33149 10.8257 3.39153 10.8563 3.43517 10.9048C3.4788 10.9533 3.50295 11.0163 3.50295 11.0815C3.50295 11.1468 3.4788 11.2097 3.43517 11.2582C3.39153 11.3067 3.33149 11.3373 3.26661 11.3442C3.20173 11.3373 3.14169 11.3067 3.09805 11.2582C3.05442 11.2097 3.03027 11.1468 3.03027 11.0815C3.03027 11.0163 3.05442 10.9533 3.09805 10.9048C3.14169 10.8563 3.20173 10.8257 3.26661 10.8188Z" fill="#C5DCEA"/>
<path d="M93.65 30.0308C93.6954 30.0365 93.7372 30.0586 93.7674 30.0929C93.7977 30.1272 93.8144 30.1714 93.8144 30.2171C93.8144 30.2629 93.7977 30.3071 93.7674 30.3414C93.7372 30.3757 93.6954 30.3978 93.65 30.4035C93.6046 30.3978 93.5628 30.3757 93.5326 30.3414C93.5023 30.3071 93.4856 30.2629 93.4856 30.2171C93.4856 30.1714 93.5023 30.1272 93.5326 30.0929C93.5628 30.0586 93.6046 30.0365 93.65 30.0308Z" fill="#C5DCEA"/>
<path d="M60.1774 18.6846C60.2264 18.6846 60.2734 18.7041 60.3081 18.7387C60.3428 18.7734 60.3623 18.8204 60.3623 18.8695C60.3623 18.9185 60.3428 18.9655 60.3081 19.0002C60.2734 19.0349 60.2264 19.0544 60.1774 19.0544C60.1283 19.0544 60.0813 19.0349 60.0466 19.0002C60.0119 18.9655 59.9925 18.9185 59.9925 18.8695C59.9925 18.8204 60.0119 18.7734 60.0466 18.7387C60.0813 18.7041 60.1283 18.6846 60.1774 18.6846Z" fill="#C5DCEA"/>
<path d="M115.204 46.5308C115.331 46.5405 115.449 46.5977 115.536 46.691C115.622 46.7843 115.67 46.9069 115.67 47.0341C115.67 47.1613 115.622 47.2839 115.536 47.3772C115.449 47.4705 115.331 47.5277 115.204 47.5374C115.077 47.5277 114.959 47.4705 114.872 47.3772C114.786 47.2839 114.738 47.1613 114.738 47.0341C114.738 46.9069 114.786 46.7843 114.872 46.691C114.959 46.5977 115.077 46.5405 115.204 46.5308Z" fill="#C5DCEA"/>
<path d="M54.6274 71.2281L55.5314 71.3954L55.7339 72.3463L55.9364 71.3954L56.8404 71.2281L55.9393 71.008L55.7339 70.1069L55.5285 71.008L54.6274 71.2281Z" fill="#C5DCEA"/>
<path d="M92.9307 25.7607C92.9956 25.7676 93.0556 25.7982 93.0992 25.8467C93.1429 25.8952 93.167 25.9582 93.167 26.0234C93.167 26.0887 93.1429 26.1516 93.0992 26.2001C93.0556 26.2486 92.9956 26.2792 92.9307 26.2861C92.8658 26.2792 92.8057 26.2486 92.7621 26.2001C92.7185 26.1516 92.6943 26.0887 92.6943 26.0234C92.6943 25.9582 92.7185 25.8952 92.7621 25.8467C92.8057 25.7982 92.8658 25.7676 92.9307 25.7607Z" fill="#C5DCEA"/>
<path d="M20.3859 67.419L21.2898 67.5863L21.4894 68.5372L21.6919 67.5863L22.5959 67.419L21.6978 67.1989L21.4894 66.2979L21.284 67.1989L20.3859 67.419Z" fill="#C5DCEA"/>
<path d="M9.93772 81.832C10.007 81.832 10.0734 81.8595 10.1224 81.9085C10.1714 81.9575 10.1989 82.024 10.1989 82.0932C10.1989 82.1625 10.1714 82.229 10.1224 82.2779C10.0734 82.3269 10.007 82.3544 9.93772 82.3544C9.86844 82.3544 9.802 82.3269 9.75302 82.2779C9.70403 82.229 9.67651 82.1625 9.67651 82.0932C9.67651 82.024 9.70403 81.9575 9.75302 81.9085C9.802 81.8595 9.86844 81.832 9.93772 81.832Z" fill="#C5DCEA"/>
<path d="M46.0606 62.541C46.1298 62.541 46.1963 62.5685 46.2453 62.6175C46.2942 62.6665 46.3218 62.7329 46.3218 62.8022C46.3218 62.8715 46.2942 62.9379 46.2453 62.9869C46.1963 63.0359 46.1298 63.0634 46.0606 63.0634C45.9913 63.0634 45.9248 63.0359 45.8759 62.9869C45.8269 62.9379 45.7993 62.8715 45.7993 62.8022C45.7993 62.7329 45.8269 62.6665 45.8759 62.6175C45.9248 62.5685 45.9913 62.541 46.0606 62.541Z" fill="#C5DCEA"/>
<path d="M15.3787 36.0771C15.4241 36.0829 15.4659 36.1049 15.4962 36.1393C15.5264 36.1736 15.5431 36.2178 15.5431 36.2635C15.5431 36.3093 15.5264 36.3535 15.4962 36.3878C15.4659 36.4221 15.4241 36.4442 15.3787 36.4499C15.3333 36.4442 15.2916 36.4221 15.2613 36.3878C15.231 36.3535 15.2143 36.3093 15.2143 36.2635C15.2143 36.2178 15.231 36.1736 15.2613 36.1393C15.2916 36.1049 15.3333 36.0829 15.3787 36.0771Z" fill="#C5DCEA"/>
<path d="M13.0046 34.3657C13.1377 34.3657 13.2653 34.4186 13.3594 34.5127C13.4535 34.6068 13.5064 34.7345 13.5064 34.8676C13.5064 35.0007 13.4535 35.1283 13.3594 35.2225C13.2653 35.3166 13.1377 35.3695 13.0046 35.3695C12.8715 35.3695 12.7438 35.3166 12.6497 35.2225C12.5556 35.1283 12.5027 35.0007 12.5027 34.8676C12.5027 34.7345 12.5556 34.6068 12.6497 34.5127C12.7438 34.4186 12.8715 34.3657 13.0046 34.3657Z" fill="#C5DCEA"/>
<path d="M115.688 12.2041C115.821 12.2041 115.949 12.257 116.043 12.3511C116.137 12.4452 116.19 12.5729 116.19 12.706C116.19 12.8391 116.137 12.9667 116.043 13.0608C115.949 13.155 115.821 13.2078 115.688 13.2078C115.555 13.2078 115.427 13.155 115.333 13.0608C115.239 12.9667 115.186 12.8391 115.186 12.706C115.186 12.5729 115.239 12.4452 115.333 12.3511C115.427 12.257 115.555 12.2041 115.688 12.2041Z" fill="#C5DCEA"/>
<path d="M56.9073 61.5297C59.8571 60.5226 61.432 57.3149 60.4249 54.3651C59.4178 51.4153 56.2101 49.8404 53.2603 50.8474C50.3105 51.8545 48.7356 55.0622 49.7427 58.012C50.7497 60.9619 53.9574 62.5368 56.9073 61.5297Z" fill="#EBEBEB"/>
<path d="M60.4883 57.8245C59.9625 57.3686 59.3683 56.9982 58.7274 56.7269C57.6092 56.2338 54.5657 55.6938 53.1511 54.9806C51.17 53.9827 50.9235 52.9056 50.9352 52.3392C51.4279 51.8064 52.0188 51.3739 52.6756 51.0654C52.8165 51.6348 53.3477 53.4134 56.6377 54.5873C58.337 55.1743 59.963 54.7869 60.5147 54.6519C60.8111 55.69 60.802 56.7915 60.4883 57.8245Z" fill="#DBDBDB"/>
<path d="M58.1847 60.9037C57.1025 61.6144 55.809 61.9317 54.5208 61.8024C53.2326 61.6731 52.0279 61.1051 51.1086 60.1934C51.4283 60.0183 51.7684 59.8833 52.1212 59.7914C53.6385 59.4216 55.3085 60.1465 55.919 60.4899C56.6005 60.8941 57.4043 61.0409 58.1847 60.9037Z" fill="#DBDBDB"/>
<path d="M60.148 58.6728L60.0775 58.8078C60.057 58.8518 60.0335 58.8899 60.01 58.931C59.9591 59.0249 59.9063 59.1159 59.8515 59.204C59.8016 59.2832 59.7488 59.3595 59.696 59.4358L59.6343 59.5209L59.561 59.606L59.4876 59.7C59.4602 59.7352 59.4309 59.7704 59.3996 59.8056C59.3682 59.8408 59.3389 59.8761 59.3115 59.9113L59.2293 59.9993C59.1706 60.0639 59.1119 60.1255 59.0503 60.1872C58.701 60.2958 58.2285 60.2488 57.5418 59.9758C56.5145 59.5738 55.411 58.6052 53.4329 57.895C52.2131 57.4676 50.8995 57.3834 49.6351 57.6514C49.3291 56.5269 49.3804 55.3351 49.7819 54.241C50.1399 54.2264 51.3022 54.3907 53.7733 56.4334C54.544 57.0848 55.3788 57.6562 56.2651 58.1386C58.3811 59.2451 59.6021 58.9163 60.1127 58.661H60.148V58.6728Z" fill="#DBDBDB"/>
<path d="M54.7887 60.7949C54.8885 60.566 55.2407 60.5014 55.5753 60.6452C55.9098 60.789 56.0977 61.0942 55.9979 61.3232C55.8981 61.5521 55.5459 61.6167 55.2113 61.4758C54.8768 61.3349 54.6889 61.0267 54.7887 60.7949Z" fill="#C5DCEA"/>
<path d="M56.3854 60.3924C56.4412 60.2633 56.6496 60.231 56.8521 60.3191C57.0546 60.4071 57.169 60.5803 57.1133 60.7094C57.0575 60.8385 56.8462 60.8738 56.6466 60.7857C56.4471 60.6977 56.3326 60.5245 56.3854 60.3924Z" fill="#C5DCEA"/>
<path d="M52.0096 53.4607C52.0947 53.267 52.3999 53.2083 52.6934 53.3375C52.9869 53.4666 53.1542 53.7278 53.0661 53.9244C52.9781 54.1211 52.6758 54.1768 52.3823 54.0477C52.0888 53.9186 51.9303 53.6574 52.0096 53.4607Z" fill="#C5DCEA"/>
<path d="M53.0484 53.2668C53.0824 53.2128 53.1361 53.1743 53.1981 53.1595C53.2601 53.1447 53.3254 53.1548 53.3801 53.1876C53.4401 53.206 53.4908 53.2466 53.5219 53.3012C53.553 53.3557 53.5621 53.42 53.5474 53.4811C53.5056 53.522 53.4526 53.5496 53.3951 53.5602C53.3377 53.5708 53.2783 53.564 53.2247 53.5407C53.1711 53.5173 53.1257 53.4785 53.0943 53.4292C53.0629 53.3799 53.0469 53.3223 53.0484 53.2639V53.2668Z" fill="#C5DCEA"/>
<path d="M53.2157 53.7893C53.2384 53.7568 53.2725 53.7342 53.3112 53.726C53.3499 53.7178 53.3903 53.7247 53.4241 53.7453C53.5122 53.7834 53.5591 53.8656 53.5327 53.9272C53.511 53.9608 53.4771 53.9845 53.4381 53.9932C53.3992 54.002 53.3583 53.9952 53.3243 53.9742C53.286 53.9632 53.2533 53.9378 53.2331 53.9034C53.2129 53.869 53.2067 53.8281 53.2157 53.7893Z" fill="#C5DCEA"/>
<path d="M56.7376 53.8039C56.7496 53.7038 56.7927 53.61 56.8609 53.5357C56.929 53.4615 57.0188 53.4105 57.1175 53.39C57.2162 53.3694 57.3189 53.3804 57.411 53.4214C57.5031 53.4623 57.5801 53.5312 57.631 53.6182C57.6819 53.7053 57.7041 53.8061 57.6947 53.9064C57.6852 54.0068 57.6444 54.1017 57.5782 54.1776C57.5119 54.2536 57.4234 54.3069 57.3252 54.3298C57.2271 54.3528 57.1242 54.3444 57.0311 54.3058C56.9264 54.2769 56.8372 54.2082 56.7823 54.1145C56.7275 54.0208 56.7115 53.9093 56.7376 53.8039Z" fill="#C5DCEA"/>
<path d="M56.6023 54.5727C56.628 54.5216 56.6723 54.4823 56.726 54.4629C56.7798 54.4435 56.839 54.4455 56.8913 54.4685C56.9436 54.4915 56.9852 54.5337 57.0073 54.5864C57.0294 54.6391 57.0305 54.6982 57.0103 54.7517C56.9846 54.8028 56.9403 54.8421 56.8866 54.8614C56.8328 54.8808 56.7736 54.8788 56.7213 54.8558C56.669 54.8329 56.6274 54.7907 56.6053 54.738C56.5832 54.6853 56.5821 54.6261 56.6023 54.5727Z" fill="#C5DCEA"/>
<path d="M17.5617 22.18C20.4554 21.0215 21.862 17.7365 20.7034 14.8428C19.5449 11.9491 16.2599 10.5425 13.3662 11.7011C10.4725 12.8596 9.06591 16.1446 10.2245 19.0383C11.383 21.932 14.668 23.3386 17.5617 22.18Z" fill="#90CAF9"/>
<path opacity="0.1" d="M17.5617 22.18C20.4554 21.0215 21.862 17.7365 20.7034 14.8428C19.5449 11.9491 16.2599 10.5425 13.3662 11.7011C10.4725 12.8596 9.06591 16.1446 10.2245 19.0383C11.383 21.932 14.668 23.3386 17.5617 22.18Z" fill="black"/>
<g opacity="0.1">
<path opacity="0.1" d="M20.8674 18.5818C20.3412 18.1263 19.7471 17.756 19.1064 17.4842C17.9853 16.9911 14.9506 16.4628 13.533 15.7408C11.552 14.74 11.3054 13.6629 11.3172 13.0994C11.8103 12.5659 12.4024 12.1334 13.0605 11.8257C13.2014 12.3951 13.7297 14.1736 17.0197 15.3476C18.719 15.9345 20.345 15.5442 20.8967 15.4092C21.1922 16.4476 21.182 17.5491 20.8674 18.5818Z" fill="black"/>
<path opacity="0.1" d="M18.5607 21.6608C17.4778 22.3701 16.1844 22.6862 14.8964 22.5564C13.6085 22.4266 12.4041 21.8587 11.4846 20.9476C11.8046 20.7729 12.1446 20.6379 12.4972 20.5455C14.0145 20.1757 15.6874 20.9035 16.3125 21.244C16.9885 21.6457 17.7856 21.7935 18.5607 21.6608Z" fill="black"/>
<path opacity="0.1" d="M20.5268 19.4296C20.5057 19.4767 20.4822 19.5228 20.4564 19.5675C20.4358 19.6086 20.4153 19.6497 20.3918 19.6908C20.339 19.7818 20.2861 19.8728 20.2304 19.9608C20.1746 20.0489 20.1306 20.1193 20.0748 20.1956L20.0132 20.2778C19.9914 20.3103 19.9679 20.3416 19.9428 20.3717L19.8723 20.4656L19.7843 20.5742L19.6933 20.6769L19.614 20.7679C19.5553 20.8325 19.4937 20.8941 19.4321 20.9528C19.0799 21.0585 18.6103 21.0115 17.9206 20.7415C16.8963 20.3394 15.7899 19.3709 13.8117 18.6577C12.5927 18.2319 11.2804 18.1477 10.0169 18.4141C9.70806 17.2872 9.75833 16.092 10.1607 14.995C10.5217 14.9803 11.681 15.1446 14.1551 17.1873C14.924 17.841 15.7591 18.4125 16.6469 18.8925C18.7659 20.0136 19.9838 19.6908 20.4945 19.4267H20.5268V19.4296Z" fill="black"/>
</g>
<g opacity="0.1">
<path opacity="0.1" d="M15.1645 21.5547C15.2642 21.3228 15.6164 21.2612 15.951 21.4021C16.2856 21.5429 16.4764 21.8511 16.3766 22.08C16.2768 22.309 15.9217 22.3735 15.59 22.2326C15.2584 22.0918 15.0647 21.7836 15.1645 21.5547Z" fill="black"/>
<path opacity="0.1" d="M16.7642 21.1586C16.82 21.0295 17.0284 20.9942 17.2279 21.0823C17.4275 21.1703 17.5449 21.3464 17.4891 21.4756C17.4334 21.6047 17.225 21.637 17.0225 21.5519C16.82 21.4668 16.7114 21.2819 16.7642 21.1586Z" fill="black"/>
<path opacity="0.1" d="M12.3852 14.221C12.4703 14.0244 12.7756 13.9686 13.069 14.0948C13.3625 14.221 13.5298 14.4852 13.4447 14.6818C13.3596 14.8784 13.0514 14.9342 12.7579 14.8051C12.4645 14.6759 12.3089 14.4088 12.3852 14.221Z" fill="black"/>
<path opacity="0.1" d="M13.4242 14.0241C13.4586 13.9707 13.5123 13.9326 13.5741 13.9179C13.6359 13.9031 13.701 13.9128 13.7559 13.9448C13.7886 13.9494 13.8198 13.9614 13.8471 13.98C13.8745 13.9986 13.8971 14.0233 13.9133 14.0521C13.9295 14.0809 13.9388 14.1131 13.9405 14.1461C13.9421 14.1791 13.9362 14.2121 13.923 14.2424C13.9099 14.2727 13.8899 14.2996 13.8646 14.3209C13.8393 14.3422 13.8095 14.3573 13.7774 14.3652C13.7453 14.373 13.7118 14.3734 13.6795 14.3661C13.6473 14.3589 13.6172 14.3443 13.5915 14.3234C13.5306 14.3044 13.4794 14.2627 13.4483 14.2071C13.4171 14.1514 13.4085 14.0859 13.4242 14.0241Z" fill="black"/>
<path opacity="0.1" d="M13.5915 14.5497C13.6137 14.5167 13.6477 14.4935 13.6864 14.4848C13.7251 14.476 13.7658 14.4825 13.7999 14.5027C13.888 14.5438 13.9379 14.623 13.9114 14.6876C13.8884 14.7195 13.8543 14.7417 13.8158 14.7498C13.7772 14.758 13.7371 14.7515 13.7031 14.7316C13.615 14.7023 13.5651 14.6113 13.5915 14.5497Z" fill="black"/>
<path opacity="0.1" d="M17.1159 14.5615C17.1289 14.4624 17.1725 14.3699 17.2406 14.2969C17.3088 14.2239 17.3981 14.1741 17.496 14.1544C17.5939 14.1347 17.6956 14.1462 17.7866 14.1872C17.8777 14.2281 17.9537 14.2966 18.0039 14.383C18.0541 14.4693 18.076 14.5692 18.0666 14.6686C18.0571 14.7681 18.0168 14.862 17.9512 14.9374C17.8857 15.0127 17.7982 15.0657 17.701 15.0888C17.6039 15.1119 17.5019 15.104 17.4094 15.0663C17.3041 15.0374 17.2144 14.9683 17.1595 14.8739C17.1046 14.7795 17.089 14.6673 17.1159 14.5615Z" fill="black"/>
<path opacity="0.1" d="M16.9783 15.3305C17.004 15.2794 17.0482 15.2401 17.102 15.2207C17.1558 15.2014 17.2149 15.2034 17.2673 15.2263C17.3196 15.2493 17.3611 15.2915 17.3833 15.3442C17.4054 15.3969 17.4065 15.456 17.3863 15.5095C17.3606 15.5606 17.3163 15.5999 17.2626 15.6192C17.2088 15.6386 17.1496 15.6366 17.0973 15.6137C17.0449 15.5907 17.0034 15.5485 16.9813 15.4958C16.9591 15.4431 16.9581 15.3839 16.9783 15.3305Z" fill="black"/>
</g>
<path d="M56.2269 27.8627C56.0185 27.6133 43.9443 22.0135 33.0089 30.3574C22.9568 38.0292 19.4672 52.4484 20.8026 52.7947C22.4373 53.2174 26.916 46.338 35.5123 42.5549C38.5617 41.2136 43.4131 42.5549 43.4131 42.5549L56.2269 27.8627Z" fill="#90CAF9"/>
<path opacity="0.1" d="M43.4187 42.5522C41.9791 42.1861 40.5016 41.9891 39.0164 41.9653C40.9123 37.9973 44.4518 30.5954 46.7498 25.7998C52.1589 25.8497 56.121 27.7251 56.2413 27.8542L43.4187 42.5522Z" fill="black"/>
<path d="M76.1168 51.3218C76.3281 51.5683 79.8793 64.3968 69.8566 73.8178C60.6439 82.4817 45.8491 83.5646 45.7258 82.1911C45.5762 80.5094 53.0983 77.2164 58.2344 69.3538C60.054 66.5657 59.5287 61.5587 59.5287 61.5587L76.1168 51.3218Z" fill="#90CAF9"/>
<path opacity="0.1" d="M76.5831 61.0891L59.3669 66.099C59.5971 64.5969 59.6473 63.0727 59.5166 61.5587L76.1047 51.3218C76.2368 51.4627 77.4636 55.7153 76.5831 61.0891Z" fill="black"/>
<path d="M48.0061 67.0027L36.2136 53.0942C36.2136 53.0942 42.3769 36.603 56.981 25.5266C64.2801 20.0002 72.8295 15.8649 80.5101 13.1296C91.0905 9.3377 99.9421 8.24592 101.313 9.85425C102.683 11.4626 100.139 20.0266 94.6857 29.8497C90.7265 36.9552 85.2441 44.7268 78.5995 51.0251C65.2809 63.6334 48.0061 67.0027 48.0061 67.0027Z" fill="#C5DCEA"/>
<path d="M76.6536 45.0703C75.0675 46.4164 73.1178 47.2619 71.0511 47.4997C68.9843 47.7375 66.8935 47.3569 65.0431 46.4062C63.1928 45.4554 61.666 43.9772 60.6559 42.1585C59.6459 40.3398 59.1979 38.2624 59.3688 36.189C59.5397 34.1157 60.3217 32.1397 61.616 30.5109C62.9102 28.8821 64.6584 27.6738 66.6395 27.0389C68.6206 26.4039 70.7455 26.3709 72.7454 26.9438C74.7453 27.5168 76.5303 28.6701 77.8745 30.2578C79.6746 32.385 80.557 35.1395 80.3281 37.9166C80.0992 40.6937 78.7776 43.2666 76.6536 45.0703Z" fill="#A6A6A6"/>
<path d="M77.2288 44.093C75.6424 45.438 73.6928 46.2823 71.6265 46.5192C69.5602 46.7561 67.4701 46.375 65.6204 45.424C63.7707 44.4731 62.2446 42.995 61.235 41.1766C60.2253 39.3583 59.7776 37.2814 59.9483 35.2086C60.1191 33.1358 60.9007 31.1602 62.1942 29.5316C63.4878 27.9029 65.2352 26.6945 67.2156 26.059C69.196 25.4236 71.3203 25.3896 73.32 25.9615C75.3196 26.5333 77.1048 27.6853 78.4498 29.2717C80.2525 31.3994 81.1366 34.1559 80.9077 36.9351C80.6787 39.7144 79.3555 42.289 77.2288 44.093Z" fill="#90CAF9"/>
<path d="M75.1483 41.6304C74.0489 42.5651 72.6971 43.1526 71.2638 43.3187C69.8304 43.4849 68.38 43.2221 67.0961 42.5636C65.8121 41.9052 64.7523 40.8807 64.0508 39.6198C63.3493 38.3588 63.0376 36.9182 63.1551 35.48C63.2726 34.0419 63.8141 32.6709 64.711 31.5406C65.6079 30.4103 66.82 29.5714 68.1938 29.1302C69.5676 28.6889 71.0414 28.6651 72.4288 29.0617C73.8161 29.4583 75.0546 30.2575 75.9876 31.3582C77.2371 32.8323 77.8505 34.742 77.6931 36.668C77.5357 38.5939 76.6205 40.3787 75.1483 41.6304Z" fill="white"/>
<path d="M75.1508 41.6304C74.4626 42.2164 73.6714 42.6692 72.8176 42.9658L66.9478 42.4874C66.1535 42.0569 65.4467 41.4815 64.864 40.791C64.4361 40.2898 64.0796 39.7317 63.8045 39.1328L76.4539 40.163C76.0887 40.7094 75.6503 41.2031 75.1508 41.6304Z" fill="#EBEBEB"/>
<path d="M76.6186 32.2183L64.9436 31.2674C65.1786 30.9972 65.4337 30.745 65.7066 30.5131C67.1804 29.2629 69.0903 28.6491 71.0165 28.8065C72.9427 28.9639 74.7276 29.8796 75.9788 31.3525C76.2138 31.6245 76.4276 31.9139 76.6186 32.2183Z" fill="#EBEBEB"/>
<path d="M77.2523 38.6516L63.2822 37.5099C63.2358 37.2958 63.2016 37.0793 63.1794 36.8613L77.4548 38.0353C77.3991 38.2349 77.3286 38.4432 77.2523 38.6516Z" fill="#EBEBEB"/>
<path d="M94.6858 29.8495L80.5103 13.1205C91.0906 9.33745 99.9423 8.24566 101.313 9.85399C102.683 11.4623 100.151 20.0264 94.6858 29.8495Z" fill="#90CAF9"/>
<path d="M84.6778 14.5411C84.5854 14.6199 84.4717 14.6695 84.3511 14.6836C84.2305 14.6977 84.1085 14.6757 84.0004 14.6203C83.8923 14.565 83.8031 14.4788 83.744 14.3728C83.6849 14.2667 83.6587 14.1454 83.6685 14.0244C83.6784 13.9034 83.724 13.788 83.7995 13.6929C83.875 13.5978 83.977 13.5273 84.0926 13.4902C84.2083 13.4532 84.3323 13.4512 84.449 13.4847C84.5657 13.5182 84.6699 13.5855 84.7483 13.6783C84.8531 13.8022 84.9045 13.9625 84.8913 14.1242C84.8781 14.286 84.8013 14.4359 84.6778 14.5411Z" fill="white"/>
<path d="M87.1986 17.5173C87.1374 17.5712 87.0661 17.6123 86.9888 17.6382C86.9115 17.6642 86.8298 17.6745 86.7485 17.6685C86.6672 17.6625 86.5879 17.6404 86.5152 17.6034C86.4426 17.5664 86.378 17.5153 86.3253 17.453C86.2727 17.3908 86.2329 17.3187 86.2084 17.2409C86.184 17.1632 86.1752 17.0813 86.1828 17.0001C86.1903 16.9189 86.2139 16.84 86.2523 16.7681C86.2907 16.6962 86.343 16.6326 86.4062 16.5811C86.5308 16.4797 86.6902 16.4311 86.8502 16.446C87.0102 16.4608 87.1579 16.5378 87.2617 16.6605C87.3655 16.7831 87.4171 16.9416 87.4053 17.1018C87.3935 17.262 87.3193 17.4112 87.1986 17.5173Z" fill="white"/>
<path d="M89.7198 20.4903C89.6265 20.5663 89.5129 20.6132 89.3931 20.6251C89.2734 20.6371 89.1528 20.6135 89.0463 20.5574C88.9399 20.5012 88.8523 20.415 88.7945 20.3095C88.7366 20.204 88.7111 20.0837 88.7211 19.9638C88.7311 19.8439 88.7762 19.7296 88.8507 19.635C88.9251 19.5405 89.0258 19.47 89.1401 19.4323C89.2544 19.3946 89.3772 19.3913 89.4933 19.4229C89.6095 19.4544 89.7137 19.5195 89.7932 19.6099C89.848 19.6716 89.8897 19.7439 89.9158 19.8223C89.9419 19.9006 89.9518 19.9835 89.945 20.0658C89.9381 20.1481 89.9146 20.2282 89.8759 20.3012C89.8372 20.3741 89.7841 20.4385 89.7198 20.4903Z" fill="white"/>
<path d="M92.244 23.4665C92.1509 23.5428 92.0375 23.5901 91.9177 23.6025C91.798 23.6148 91.6773 23.5917 91.5707 23.5359C91.464 23.4801 91.3761 23.3942 91.3179 23.2889C91.2597 23.1835 91.2338 23.0634 91.2434 22.9434C91.253 22.8234 91.2977 22.7089 91.3719 22.6141C91.4461 22.5194 91.5465 22.4485 91.6607 22.4104C91.7749 22.3723 91.8977 22.3687 92.014 22.3999C92.1302 22.4311 92.2347 22.4958 92.3144 22.586C92.369 22.6478 92.4106 22.7199 92.4367 22.7981C92.4628 22.8764 92.4729 22.959 92.4663 23.0412C92.4597 23.1234 92.4366 23.2034 92.3984 23.2765C92.3602 23.3496 92.3077 23.4142 92.244 23.4665Z" fill="white"/>
<path d="M94.7797 26.4423C94.6872 26.5206 94.5736 26.5698 94.4531 26.5836C94.3326 26.5974 94.2108 26.5752 94.1029 26.5198C93.9951 26.4644 93.9061 26.3783 93.8472 26.2724C93.7882 26.1664 93.762 26.0453 93.7719 25.9245C93.7817 25.8036 93.8271 25.6884 93.9024 25.5934C93.9777 25.4983 94.0794 25.4277 94.1948 25.3905C94.3102 25.3532 94.434 25.351 94.5507 25.3841C94.6673 25.4172 94.7715 25.4842 94.8502 25.5765C94.9025 25.6379 94.9422 25.709 94.967 25.7858C94.9918 25.8626 95.0011 25.9435 94.9946 26.024C94.9881 26.1044 94.9657 26.1827 94.9288 26.2545C94.892 26.3263 94.8413 26.3901 94.7797 26.4423Z" fill="white"/>
<path d="M39.6033 52.7682C39.4787 52.8697 39.3193 52.9182 39.1593 52.9034C38.9993 52.8885 38.8515 52.8115 38.7477 52.6889C38.6439 52.5662 38.5924 52.4078 38.6042 52.2475C38.616 52.0873 38.6902 51.9381 38.8108 51.832C38.8721 51.7782 38.9434 51.7371 39.0207 51.7111C39.098 51.6852 39.1797 51.6749 39.261 51.6809C39.3423 51.6868 39.4216 51.709 39.4943 51.746C39.5669 51.783 39.6315 51.8341 39.6841 51.8963C39.7368 51.9585 39.7765 52.0307 39.801 52.1084C39.8255 52.1862 39.8342 52.2681 39.8267 52.3492C39.8192 52.4304 39.7955 52.5093 39.7572 52.5812C39.7188 52.6532 39.6665 52.7168 39.6033 52.7682Z" fill="#A6A6A6"/>
<path d="M42.1392 55.7443C42.0462 55.8207 41.9327 55.868 41.813 55.8803C41.6933 55.8926 41.5726 55.8695 41.4659 55.8137C41.3593 55.758 41.2714 55.672 41.2132 55.5667C41.155 55.4613 41.1291 55.3412 41.1387 55.2212C41.1483 55.1012 41.193 54.9867 41.2672 54.892C41.3413 54.7972 41.4418 54.7264 41.556 54.6883C41.6701 54.6502 41.793 54.6465 41.9092 54.6777C42.0255 54.7089 42.1299 54.7737 42.2097 54.8638C42.2643 54.9256 42.3059 54.9978 42.332 55.076C42.3581 55.1542 42.3681 55.2369 42.3616 55.319C42.355 55.4012 42.3319 55.4813 42.2937 55.5543C42.2555 55.6274 42.203 55.692 42.1392 55.7443Z" fill="#A6A6A6"/>
<path d="M44.6603 58.7259C44.5678 58.8043 44.4541 58.8535 44.3337 58.8673C44.2132 58.8811 44.0913 58.8589 43.9835 58.8035C43.8756 58.7481 43.7866 58.662 43.7277 58.556C43.6688 58.4501 43.6426 58.329 43.6524 58.2082C43.6622 58.0873 43.7077 57.9721 43.7829 57.8771C43.8582 57.782 43.96 57.7114 44.0754 57.6742C44.1908 57.6369 44.3146 57.6347 44.4312 57.6678C44.5479 57.7009 44.6521 57.7679 44.7307 57.8602C44.783 57.9216 44.8227 57.9927 44.8475 58.0695C44.8723 58.1463 44.8817 58.2272 44.8752 58.3077C44.8686 58.3881 44.8463 58.4664 44.8094 58.5382C44.7725 58.61 44.7219 58.6738 44.6603 58.7259Z" fill="#A6A6A6"/>
<path d="M47.1814 61.6935C47.0884 61.7699 46.9749 61.8172 46.8552 61.8295C46.7355 61.8419 46.6148 61.8187 46.5081 61.7629C46.4014 61.7072 46.3135 61.6213 46.2553 61.5159C46.1972 61.4106 46.1712 61.2904 46.1808 61.1704C46.1904 61.0505 46.2351 60.936 46.3093 60.8412C46.3835 60.7464 46.484 60.6756 46.5981 60.6375C46.7123 60.5994 46.8352 60.5957 46.9514 60.627C47.0676 60.6582 47.1721 60.7229 47.2518 60.8131C47.3064 60.8748 47.348 60.947 47.3741 61.0252C47.4002 61.1034 47.4103 61.1861 47.4037 61.2683C47.3972 61.3505 47.3741 61.4305 47.3359 61.5035C47.2977 61.5766 47.2451 61.6412 47.1814 61.6935Z" fill="#A6A6A6"/>
<path d="M49.7025 64.6666C49.6092 64.7426 49.4956 64.7895 49.3758 64.8014C49.2561 64.8133 49.1354 64.7898 49.029 64.7336C48.9225 64.6775 48.8349 64.5913 48.7771 64.4858C48.7193 64.3802 48.6938 64.26 48.7038 64.1401C48.7138 64.0202 48.7588 63.9058 48.8333 63.8113C48.9078 63.7168 49.0085 63.6463 49.1227 63.6086C49.237 63.5708 49.3599 63.5676 49.476 63.5991C49.5921 63.6307 49.6964 63.6957 49.7758 63.7861C49.8307 63.8479 49.8724 63.9202 49.8985 63.9985C49.9246 64.0769 49.9345 64.1598 49.9276 64.2421C49.9208 64.3244 49.8973 64.4045 49.8586 64.4774C49.8199 64.5504 49.7668 64.6148 49.7025 64.6666Z" fill="#A6A6A6"/>
<path opacity="0.2" d="M100.649 9.44049C92.4845 10.0275 78.3441 14.9698 63.4671 26.639C52.473 35.2588 44.4519 50.3442 40.7128 58.4006L36.2136 53.0943C36.2136 53.0943 42.3769 36.603 56.981 25.5267C64.2801 20.0003 72.8295 15.865 80.5101 13.1297C89.9928 9.72811 98.0843 8.49545 100.649 9.44049Z" fill="white"/>
<path d="M42.7377 69.2686L33.1494 57.9574L36.8797 53.8809L47.369 66.2544L42.7377 69.2686Z" fill="#90CAF9"/>
<path opacity="0.1" d="M47.3693 66.2539L45.1124 67.7214L35.4536 55.4388L36.88 53.8833L47.3693 66.2539Z" fill="black"/>
<path d="M94.536 31.3611L90.1541 31.0677L88.0938 35.2411L88.2817 30.5922L84.2961 28.7491L88.7219 28.7931L90.7353 24.8691L90.6296 29.2774L94.536 31.3611Z" fill="#FCFCFC"/>
<path d="M93.4588 15.1754L91.0082 15.014L89.8577 17.3472L89.9634 14.7469L87.7358 13.7167L90.2099 13.7402L91.334 11.5479L91.2753 14.0132L93.4588 15.1754Z" fill="#FCFCFC"/>
<path d="M73.6423 64.9278L71.1946 64.7635L70.0441 67.0967L70.1468 64.4993L67.9192 63.4692L70.3933 63.4927L71.5203 61.3003L71.4587 63.7656L73.6423 64.9278Z" fill="#FCFCFC"/>
<path d="M30.0532 43.2828L27.6026 43.1185L26.4521 45.4517L26.5577 42.8543L24.3301 41.8242L26.8043 41.8476L27.9283 39.6553L27.8696 42.1177L30.0532 43.2828Z" fill="#FCFCFC"/>
<path opacity="0.6" d="M40.6307 66.7445C36.1843 69.741 32.2603 73.5652 29.3958 78.1348C26.4568 82.7275 24.7962 88.0212 24.5855 93.4697C24.5151 96.2316 24.8523 98.9887 25.5863 101.652C26.3416 104.365 27.4843 106.955 28.9791 109.342C30.5098 111.771 32.3453 113.994 34.441 115.957C36.5739 117.952 38.9067 119.723 41.4025 121.24C38.7106 120.01 36.1534 118.504 33.7718 116.746C31.3616 114.96 29.1915 112.871 27.315 110.53C23.4251 105.687 21.0541 99.801 20.5002 93.6135C19.9484 87.3592 21.2691 80.9406 24.0044 75.2146C26.7398 69.4886 30.8281 64.4024 35.6589 60.2466L40.6307 66.7445Z" fill="#90CAF9"/>
<path d="M33.0262 73.5624L31.277 73.8853L30.8866 75.7284L30.4963 73.8853L28.7471 73.5595L30.4904 73.134L30.8866 71.3936L31.2858 73.134L33.0262 73.5624Z" fill="white"/>
<path d="M31.7349 67.8127L30.7576 67.9947L30.5375 69.0248L30.3203 67.9947L29.343 67.8127L30.3173 67.575L30.5375 66.6035L30.7605 67.575L31.7349 67.8127Z" fill="white"/>
<path d="M36.9914 66.4336C36.9293 66.4505 36.8744 66.4874 36.8352 66.5386C36.7961 66.5897 36.7749 66.6524 36.7749 66.7168C36.7749 66.7812 36.7961 66.8439 36.8352 66.8951C36.8744 66.9462 36.9293 66.9831 36.9914 67C37.0536 66.9831 37.1085 66.9462 37.1476 66.8951C37.1867 66.8439 37.208 66.7812 37.208 66.7168C37.208 66.6524 37.1867 66.5897 37.1476 66.5386C37.1085 66.4874 37.0536 66.4505 36.9914 66.4336Z" fill="white"/>
<path d="M21.6332 81.8032C21.5802 81.8032 21.5295 81.8242 21.492 81.8617C21.4546 81.8991 21.4336 81.9499 21.4336 82.0028C21.4336 82.0557 21.4546 82.1065 21.492 82.1439C21.5295 82.1813 21.5802 82.2024 21.6332 82.2024C21.6861 82.2024 21.7369 82.1813 21.7743 82.1439C21.8117 82.1065 21.8327 82.0557 21.8327 82.0028C21.8327 81.9499 21.8117 81.8991 21.7743 81.8617C21.7369 81.8242 21.6861 81.8032 21.6332 81.8032Z" fill="white"/>
<path d="M24.198 79.9604C24.054 79.9604 23.9159 80.0176 23.8141 80.1195C23.7122 80.2213 23.655 80.3594 23.655 80.5034C23.655 80.6474 23.7122 80.7855 23.8141 80.8873C23.9159 80.9892 24.054 81.0464 24.198 81.0464C24.342 81.0464 24.4801 80.9892 24.5819 80.8873C24.6837 80.7855 24.7409 80.6474 24.7409 80.5034C24.7409 80.3594 24.6837 80.2213 24.5819 80.1195C24.4801 80.0176 24.342 79.9604 24.198 79.9604Z" fill="white"/>
</svg>
