<svg width="151" height="151" viewBox="0 0 151 151" fill="none" xmlns="http://www.w3.org/2000/svg">
<rect width="150" height="150" transform="translate(0.5 0.6875)" fill="white"/>
<path d="M34.1696 33.8164C34.5575 34.779 41.9851 53.4024 41.9851 53.4024L50.1606 50.5023L58.844 57.4745L50.5945 42.0398L43.3054 44.4379L34.1696 33.8164Z" fill="#DEE5FD"/>
<path d="M54.3596 12.6875C54.3596 13.3849 54.3148 26.8653 54.3148 26.8653L59.8933 27.1101L63.4012 33.6398L62.1879 21.9416L57.2591 21.606L54.3596 12.6875Z" fill="#DEE5FD"/>
<path d="M117.742 31.8516C117.426 32.6519 110.825 53.2511 110.825 53.2511L106.472 49.9811L95.0261 59.4428L105.872 40.8712L109.962 43.6155L117.742 31.8516Z" fill="#DEE5FD"/>
<path d="M71.7304 58.2248C71.6647 58.2766 69.7022 55.8959 67.3471 52.9079C64.9915 49.9194 63.136 47.4549 63.2018 47.4032C63.2675 47.3514 65.23 49.7315 67.585 52.7206C69.9401 55.7086 71.7961 58.173 71.7304 58.2248Z" fill="#263238"/>
<path d="M79.7306 59.9834C79.6474 59.9904 79.089 53.9732 78.4835 46.5455C77.878 39.1155 77.4546 33.0884 77.5378 33.082C77.6209 33.0751 78.1793 39.0911 78.7854 46.5211C79.3903 53.9488 79.8138 59.9764 79.7306 59.9834Z" fill="#263238"/>
<path d="M85.9425 58.5044C85.8669 58.469 87.4908 54.8749 89.569 50.4788C91.6484 46.0809 93.3945 42.5462 93.4701 42.5823C93.5457 42.6184 91.9223 46.2106 89.843 50.6085C87.7648 55.0041 86.0181 58.5399 85.9425 58.5044Z" fill="#263238"/>
<path d="M83.3738 111.216C83.4401 111.165 85.37 113.572 87.6844 116.591C89.9993 119.612 91.821 122.101 91.7547 122.152C91.6884 122.202 89.7585 119.796 87.4441 116.776C85.1298 113.756 83.3075 111.267 83.3738 111.216Z" fill="#263238"/>
<path d="M78.0331 111.758C78.1163 111.752 78.5932 117.776 79.0975 125.211C79.6024 132.649 79.9432 138.681 79.86 138.687C79.7769 138.692 79.2999 132.669 78.7951 125.232C78.2914 117.797 77.9499 111.763 78.0331 111.758Z" fill="#263238"/>
<path d="M73.2548 110.524C73.3299 110.56 71.6577 114.132 69.5195 118.499C67.3809 122.868 65.5871 126.379 65.5115 126.342C65.4364 126.306 67.1087 122.735 69.2473 118.366C71.3855 113.998 73.1798 110.487 73.2548 110.524Z" fill="#263238"/>
<path d="M101.034 68.0258L112.313 69.3385C121.549 70.4134 128.165 78.7724 127.09 88.009L126.821 90.3164C125.746 99.553 117.388 106.169 108.151 105.094L96.872 103.782C92.5905 103.283 89.5235 99.4088 90.022 95.1267L92.3788 74.8759C92.8773 70.5943 96.7522 67.5273 101.034 68.0258Z" fill="#597EF7"/>
<g opacity="0.3">
<path d="M98.5709 103.978C98.5709 103.978 103.421 98.818 104.898 84.6908C105.982 74.327 102.586 68.2057 102.586 68.2057L101.22 68.0469C101.22 68.0469 103.498 83.0785 102.04 86.5731C100.583 90.0676 97.9707 103.909 97.9707 103.909L98.5709 103.978Z" fill="black"/>
</g>
<path d="M89.1356 85.0731C90.6345 72.1948 91.9554 60.8456 98.8775 62.5731C102.669 63.5194 104.691 73.8309 103.192 86.7087C101.693 99.5871 97.3344 108.779 93.4502 109.209C86.8311 109.941 87.6367 97.9515 89.1356 85.0731Z" fill="#597EF7"/>
<path d="M100.016 86.3395C101.515 73.4612 100.075 62.7123 96.8 62.3311C93.525 61.95 89.6551 72.0809 88.1563 84.9592C86.6576 97.8374 88.0976 108.586 91.3726 108.967C94.6476 109.349 98.5175 99.2177 100.016 86.3395Z" fill="#597EF7"/>
<g opacity="0.3">
<path d="M100.016 86.3395C101.515 73.4612 100.075 62.7123 96.8 62.3311C93.525 61.95 89.6551 72.0809 88.1563 84.9592C86.6576 97.8374 88.0976 108.586 91.3726 108.967C94.6476 109.349 98.5175 99.2177 100.016 86.3395Z" fill="black"/>
</g>
<path d="M93.4514 109.21C93.4298 109.163 94.2139 109.169 95.2323 108.358C96.252 107.573 97.3995 106.058 98.4407 104.004C100.532 99.8854 102.242 93.6484 103.048 86.647C103.86 79.6439 103.655 73.1824 102.597 68.6862C102.072 66.4445 101.306 64.7013 100.476 63.7183C99.6447 62.7109 98.8455 62.6196 98.8787 62.5742C98.8787 62.5742 99.0619 62.5905 99.3771 62.7301C99.6941 62.8621 100.133 63.1477 100.566 63.6415C101.443 64.624 102.249 66.3817 102.805 68.6362C103.925 73.1585 104.163 79.6521 103.349 86.6819C102.54 93.7112 100.789 99.9733 98.6309 104.102C97.5566 106.161 96.3671 107.679 95.3033 108.451C94.7775 108.842 94.3011 109.048 93.9667 109.128C93.6346 109.217 93.4514 109.21 93.4514 109.21Z" fill="#263238"/>
<path d="M91.3716 108.966C91.3698 108.942 91.5519 108.961 91.8701 108.869C92.1882 108.784 92.6378 108.566 93.1043 108.142C94.0501 107.301 95.0394 105.713 95.916 103.623C97.6905 99.4377 99.1307 93.2652 99.9392 86.375C100.742 79.4812 100.685 73.1407 99.899 68.6643C99.5146 66.4301 98.9329 64.6567 98.2396 63.5981C97.9005 63.0659 97.5335 62.7297 97.2526 62.5575C96.974 62.3772 96.7913 62.3533 96.7995 62.3295C96.8006 62.3243 96.8437 62.3341 96.9269 62.358C97.0118 62.3789 97.1351 62.4179 97.2828 62.5046C97.5824 62.6639 97.9755 62.9984 98.3373 63.5324C99.0772 64.595 99.6955 66.3807 100.11 68.6259C100.955 73.1255 101.045 79.4929 100.24 86.4105C99.4285 93.3216 97.9511 99.5122 96.1126 103.708C95.2046 105.803 94.1751 107.396 93.1817 108.231C92.6919 108.652 92.2167 108.86 91.8852 108.928C91.72 108.973 91.5897 108.971 91.503 108.972C91.4158 108.973 91.3716 108.971 91.3716 108.966Z" fill="#263238"/>
<path d="M95.4603 78.7898C95.2143 80.9024 94.4716 82.5519 93.8009 82.474C93.1303 82.3961 92.786 80.6197 93.032 78.5071C93.278 76.3946 94.0208 74.745 94.6914 74.823C95.362 74.9009 95.7058 76.6767 95.4603 78.7898Z" fill="#263238"/>
<path d="M94.0934 92.95C93.8474 95.0626 93.1046 96.7121 92.434 96.6342C91.7633 96.5562 91.419 94.7799 91.665 92.6673C91.9111 90.5547 92.6538 88.9052 93.3245 88.9831C93.9951 89.0611 94.3394 90.8368 94.0934 92.95Z" fill="#263238"/>
<path d="M125.252 93.2567L133.156 94.1845L134.226 89.1735L127.006 86.9336L125.252 93.2567Z" fill="#597EF7"/>
<path d="M133.114 94.3312C133.028 94.3173 133.181 93.1354 133.523 91.7173C133.864 90.3004 134.147 89.1592 134.227 89.172C134.313 89.1859 134.158 90.3679 133.818 91.7859C133.477 93.2023 133.193 94.3434 133.114 94.3312Z" fill="#263238"/>
<path d="M127.235 83.625C127.256 83.6227 127.295 83.8106 127.346 84.1537C127.401 84.4963 127.45 84.9965 127.486 85.616C127.557 86.8538 127.531 88.5801 127.224 90.4548C126.92 92.3306 126.387 93.9773 125.884 95.1138C125.637 95.6838 125.41 96.1334 125.233 96.4318C125.058 96.7319 124.953 96.8925 124.935 96.8826C124.89 96.8582 125.245 96.1805 125.687 95.0329C126.133 93.8883 126.625 92.2573 126.926 90.4059C127.228 88.5557 127.288 86.8526 127.273 85.623C127.255 84.3928 127.187 83.6308 127.235 83.625Z" fill="#263238"/>
<path d="M55.1776 100.751L44.0089 102.799C34.8626 104.477 26.0885 98.4222 24.4111 89.2763L23.9917 86.991C22.3143 77.8446 28.3686 69.0703 37.5143 67.3929L48.683 65.3443C52.9226 64.5666 56.99 67.3731 57.7677 71.6127L61.446 91.6658C62.2236 95.9054 59.4172 99.9729 55.1776 100.751Z" fill="#597EF7"/>
<g opacity="0.3">
<path d="M46.9995 65.6523C46.9995 65.6523 43.8737 72.0074 46.5993 85.9473C48.599 96.1739 53.6389 101.032 53.6389 101.032L54.9918 100.784C54.9918 100.784 48.4111 87.0786 48.7805 83.3101C49.1504 79.5416 47.5939 65.543 47.5939 65.543L46.9995 65.6523Z" fill="black"/>
</g>
<path d="M61.5612 80.9662C63.9005 93.7183 65.9619 104.957 58.8368 105.333C54.9339 105.539 49.9807 96.2718 47.6419 83.5191C45.3031 70.7669 46.7782 60.7009 50.3663 59.1525C56.4805 56.5142 59.2224 68.2141 61.5612 80.9662Z" fill="#597EF7"/>
<path d="M62.5329 80.7926C64.8723 93.5448 64.1394 104.365 60.8962 104.96C57.6535 105.555 53.1284 95.6992 50.789 82.9465C48.4502 70.1944 49.1825 59.3745 52.4258 58.7794C55.669 58.185 60.1942 68.0405 62.5329 80.7926Z" fill="#597EF7"/>
<g opacity="0.3">
<path d="M62.5329 80.7926C64.8723 93.5448 64.1394 104.365 60.8962 104.96C57.6535 105.555 53.1284 95.6992 50.789 82.9465C48.4502 70.1944 49.1825 59.3745 52.4258 58.7794C55.669 58.185 60.1942 68.0405 62.5329 80.7926Z" fill="black"/>
</g>
<path d="M73.2854 73.7654L55.3552 77.0546C55.3185 77.061 55.2801 77.0459 55.258 77.0162C53.9127 75.2032 53.5823 73.4065 54.2675 71.6255C54.2797 71.5935 54.3088 71.5696 54.3425 71.5632L72.278 68.2728C73.795 67.9948 75.2497 68.9987 75.5277 70.5151C75.8063 72.032 74.8018 73.4867 73.2854 73.7654Z" fill="#DEE5FD"/>
<path d="M73.2855 73.7707C73.2808 73.7515 73.4617 73.7294 73.7741 73.5997C74.0823 73.4729 74.5337 73.2217 74.924 72.7174C75.3114 72.2247 75.6086 71.4366 75.4463 70.549C75.2956 69.6782 74.6041 68.7377 73.5088 68.4428C72.9638 68.2706 72.388 68.3573 71.7633 68.4917C71.1416 68.6086 70.4954 68.7301 69.8271 68.8558C68.487 69.1059 67.0573 69.3729 65.5537 69.6538C62.5402 70.2104 59.2319 70.8212 55.7583 71.4627C55.3238 71.5424 54.8917 71.6215 54.4624 71.7L54.3821 71.7146C54.3583 71.7198 54.4002 71.7082 54.3996 71.6995C54.4141 71.6733 54.4019 71.7012 54.3926 71.7291L54.3664 71.8042C54.3327 71.9042 54.2932 72.0025 54.2681 72.1049C54.2077 72.3067 54.1634 72.5115 54.1297 72.7174C53.9936 73.5421 54.1024 74.382 54.3856 75.1417C54.5264 75.5227 54.7021 75.8874 54.9074 76.2323C55.0138 76.4021 55.1162 76.5743 55.2342 76.7348L55.3203 76.857C55.3471 76.8983 55.3936 76.9524 55.3552 76.9192C55.3017 76.9163 55.3762 76.9105 55.4239 76.9L55.5722 76.8733C56.3609 76.7302 57.1327 76.5906 57.886 76.4539C60.8942 75.9147 63.6058 75.4284 65.8934 75.0178C68.1543 74.6234 69.9928 74.3029 71.2969 74.0755C71.9157 73.9743 72.406 73.894 72.7684 73.8347C73.1058 73.7824 73.2838 73.7603 73.2855 73.7707C73.2872 73.7812 73.1133 73.8231 72.7795 73.8946C72.4194 73.9679 71.9326 74.0668 71.3178 74.1918C70.0184 74.442 68.1857 74.795 65.9318 75.2289C63.6471 75.6576 60.9396 76.1654 57.936 76.7284C57.1833 76.868 56.4115 77.0117 55.624 77.1577L55.4762 77.185L55.4018 77.199C55.3965 77.2031 55.2947 77.2164 55.2482 77.1897C55.1964 77.1775 55.1307 77.0995 55.1296 77.0914L55.0848 77.0286L54.9958 76.9029C54.8736 76.7372 54.7666 76.5592 54.6555 76.3835C54.4409 76.0264 54.2559 75.6448 54.107 75.2446C53.8069 74.4466 53.6877 73.5491 53.8319 72.6714C53.868 72.4527 53.9145 72.2352 53.9785 72.0211C54.0052 71.9129 54.0465 71.8088 54.082 71.703L54.1094 71.6239C54.1204 71.6023 54.1169 71.5733 54.1681 71.5052C54.2024 71.454 54.2972 71.418 54.3275 71.4174L54.4077 71.4028C54.837 71.3243 55.2686 71.2446 55.7036 71.1649C59.1784 70.5321 62.4879 69.9289 65.5031 69.3793C67.0084 69.1082 68.4398 68.85 69.7817 68.6086C70.4512 68.4887 71.0985 68.373 71.7209 68.2619C72.3235 68.1363 72.9918 68.0415 73.567 68.2369C74.7454 68.5696 75.4701 69.5927 75.6126 70.5193C75.7685 71.4656 75.4341 72.2893 75.0159 72.7906C74.5942 73.3054 74.1173 73.5456 73.7956 73.6573C73.4693 73.7707 73.2855 73.7707 73.2855 73.7707Z" fill="#263238"/>
<path d="M76.0036 88.5779L58.0134 91.8776C56.7547 90.1867 56.2202 88.3865 57.006 86.385L74.9962 83.0853C76.5131 82.8073 77.9678 83.8112 78.2458 85.3276C78.5238 86.8451 77.5199 88.2998 76.0036 88.5779Z" fill="#DEE5FD"/>
<path d="M76.0036 88.5833C75.999 88.5641 76.1798 88.5425 76.4922 88.4122C76.8005 88.2854 77.2518 88.0342 77.6421 87.5287C78.0295 87.0361 78.3261 86.2473 78.1638 85.3592C78.0126 84.4884 77.3193 83.5479 76.2235 83.2542C75.6779 83.0826 75.1021 83.1704 74.4768 83.3048C73.855 83.4217 73.2082 83.5432 72.5393 83.6689C71.1987 83.919 69.7684 84.1865 68.2643 84.4675C65.249 85.0241 61.9395 85.6354 58.4648 86.277C57.9837 86.3654 57.5056 86.4527 57.0328 86.5393L57.1462 86.4457C56.7745 87.3705 56.6873 88.3779 56.9083 89.3039C57.1212 90.2334 57.5906 91.0657 58.1292 91.7963L57.9867 91.7405C63.1877 90.8087 67.6797 90.0036 70.902 89.4261C72.4812 89.1544 73.748 88.9369 74.6495 88.7816C75.0677 88.7147 75.4004 88.6618 75.6529 88.6216C75.882 88.5885 76.0019 88.5751 76.0036 88.5833C76.0054 88.5914 75.8884 88.6216 75.6627 88.6711C75.4126 88.7228 75.0829 88.7915 74.6676 88.8776C73.7701 89.0526 72.5079 89.2987 70.9352 89.6052C67.7175 90.209 63.2325 91.0506 58.039 92.0255L57.9506 92.0423L57.8965 91.9696C57.3405 91.2205 56.8466 90.3561 56.6181 89.3708C56.3802 88.3896 56.4738 87.3071 56.8647 86.3357L56.8961 86.2572L56.9781 86.2421C57.451 86.1554 57.9291 86.0676 58.4101 85.9792C61.8866 85.3458 65.1978 84.7426 68.2142 84.1929C69.7201 83.9219 71.1527 83.6636 72.4946 83.4223C73.1646 83.3024 73.812 83.1867 74.4349 83.075C75.0381 82.9494 75.7058 82.854 76.2816 83.0483C77.4612 83.3804 78.1865 84.4029 78.3307 85.3301C78.4872 86.2764 78.1528 87.1006 77.7346 87.6026C77.3129 88.1174 76.8359 88.3582 76.5137 88.4698C76.1874 88.5838 76.0036 88.5833 76.0036 88.5833Z" fill="#263238"/>
<path d="M50.3672 59.1602C50.4015 59.1985 49.65 59.4225 48.9136 60.4968C48.1686 61.5461 47.5154 63.3306 47.1216 65.5996C46.3282 70.1499 46.5196 76.6144 47.8004 83.5447C49.0753 90.4786 51.1646 96.5964 53.4929 100.585C54.651 102.575 55.8939 104.018 56.9752 104.715C58.0652 105.435 58.8562 105.287 58.8382 105.34C58.8382 105.34 58.6579 105.379 58.3159 105.337C57.9739 105.304 57.4708 105.159 56.9124 104.815C55.7857 104.132 54.5003 102.687 53.3085 100.695C50.9127 96.6988 48.7828 90.5606 47.5026 83.5994C46.2172 76.6417 46.0572 70.1412 46.911 65.5612C47.3351 63.2777 48.0278 61.478 48.8182 60.4276C49.2062 59.9 49.6023 59.5638 49.8978 59.3887C50.1898 59.2067 50.3672 59.1602 50.3672 59.1602Z" fill="#263238"/>
<path d="M52.4229 58.7784C52.4316 58.8005 52.2519 58.8354 51.975 59.0174C51.6958 59.1913 51.3294 59.531 51.0078 60.0737C50.3493 61.1544 49.8689 62.9622 49.6427 65.2173C49.1715 69.739 49.6031 76.0627 50.8478 82.8873C52.0995 89.7135 54.0108 95.7592 56.0739 99.8098C57.0958 101.833 58.1713 103.358 59.1444 104.168C59.6248 104.577 60.0738 104.791 60.3931 104.873C60.7124 104.964 60.8939 104.933 60.8928 104.959C60.8928 104.964 60.8491 104.967 60.7625 104.969C60.6752 104.974 60.5455 104.972 60.3792 104.932C60.0459 104.868 59.5724 104.663 59.0699 104.259C58.0514 103.459 56.937 101.933 55.8837 99.9081C53.7572 95.854 51.8058 89.792 50.55 82.9419C49.3018 76.0959 48.901 69.7443 49.4298 65.194C49.6845 62.9256 50.2022 61.0997 50.9077 60.0115C51.2526 59.4653 51.6458 59.1262 51.9436 58.9651C52.0885 58.8744 52.2135 58.8377 52.2961 58.8115C52.3787 58.7848 52.4212 58.7737 52.4229 58.7784Z" fill="#263238"/>
<path d="M16.7501 87.2313L18.0629 92.3493L25.2159 91.3052L25.2409 85.1758L16.7501 87.2313Z" fill="#597EF7"/>
<path d="M26.5824 94.929C26.565 94.9401 26.4486 94.7848 26.2526 94.4922C26.0543 94.202 25.7978 93.7599 25.5192 93.1957C24.9527 92.0714 24.3443 90.4241 23.9819 88.5332C23.6248 86.6405 23.5852 84.8851 23.6992 83.631C23.751 83.0034 23.8272 82.4985 23.9051 82.156C23.9802 81.8122 24.0308 81.6249 24.0511 81.629C24.1035 81.6383 23.9644 82.4014 23.9127 83.645C23.8545 84.8868 23.9272 86.612 24.2791 88.4773C24.6368 90.341 25.2028 91.9719 25.7129 93.1055C26.2183 94.2421 26.6272 94.9011 26.5824 94.929Z" fill="#263238"/>
</svg>