<svg width="100" height="27" viewBox="0 0 100 27" fill="none" xmlns="http://www.w3.org/2000/svg">
<path d="M11.0458 8.82346V2.77771C7.7068 2.77771 5.00003 5.48449 5.00003 8.82346H11.0458Z" fill="#FF3535"/>
<path d="M11.0458 2.77771L17.0915 2.77771C17.0915 6.11669 14.3848 8.82346 11.0458 8.82346V2.77771Z" fill="#FF3535"/>
<path d="M11.0458 10.0393V16.0851H5.00003L5.00003 10.0393H11.0458Z" fill="#FF3535"/>
<path d="M11.0458 10.0393H17.0915C17.0915 13.3783 14.3848 16.0851 11.0458 16.0851V10.0393Z" fill="#FF3535"/>
<path d="M5.00002 17.2875H11.0458C11.0458 20.6265 8.339 23.3333 5.00002 23.3333V17.2875Z" fill="#FF3535"/>
<path opacity="0.15" fill-rule="evenodd" clip-rule="evenodd" d="M9.49909 8.82327C11.3537 6.09402 13.9985 3.97642 17.0914 2.82275C17.067 6.14091 14.3696 8.82327 11.0458 8.82327H9.49909ZM6.77262 16.0849C7.04245 13.9062 7.72931 11.8617 8.74815 10.0391H11.0458H17.0915C17.0915 13.3781 14.3847 16.0849 11.0458 16.0849H6.77262ZM7.31257 22.875C6.87797 21.3854 6.64443 19.8062 6.64443 18.1707C6.64443 17.8743 6.6521 17.5798 6.66724 17.2873H11.0458C11.0458 19.8072 9.50413 21.967 7.31257 22.875Z" fill="white"/>
<path d="M29.1375 9.225C28.3016 9.225 27.8836 9.68003 27.8836 10.5901V11.098H30.2169V11.6933C30.2169 12.2412 29.7727 12.6853 29.2248 12.6853H27.9471V18.5187C27.9471 19.0666 27.5029 19.5107 26.955 19.5107H25.9629V12.6853H24.5661V12.0901C24.5661 11.5422 25.0103 11.098 25.5582 11.098H25.9629V10.5583C25.9629 9.64828 26.2275 8.93399 26.7566 8.41548C27.2857 7.88638 28.0317 7.62183 28.9947 7.62183C29.7566 7.62183 30.3545 7.77527 30.7883 8.08214L30.6402 8.47985C30.4333 9.03554 29.7305 9.225 29.1375 9.225Z" fill="#3E516C"/>
<path d="M34.49 10.9393C35.7387 10.9393 36.6911 11.2409 37.3472 11.844C38.0139 12.4366 38.3472 13.3361 38.3472 14.5425V18.5187C38.3472 19.0666 37.903 19.5107 37.3551 19.5107H36.4742V18.479C36.2308 18.8493 35.8816 19.1351 35.4266 19.3361C34.9821 19.5266 34.4424 19.6218 33.8075 19.6218C33.1726 19.6218 32.617 19.516 32.1408 19.3044C31.6647 19.0821 31.2943 18.7806 31.0297 18.3996C30.7758 18.0081 30.6488 17.5689 30.6488 17.0821C30.6488 16.3202 30.9292 15.7118 31.49 15.2567C32.0615 14.7911 32.9557 14.5583 34.1726 14.5583H36.3631V14.4313C36.3631 13.8388 36.1832 13.3837 35.8234 13.0663C35.4742 12.7488 34.9504 12.5901 34.252 12.5901C33.7758 12.5901 33.3049 12.6642 32.8393 12.8123C32.3842 12.9604 31.998 13.1668 31.6805 13.4313L31.3365 12.6817C31.1429 12.2598 31.2604 11.7449 31.6732 11.5327C31.9188 11.4064 32.1873 11.3009 32.5059 11.2091C33.1303 11.0292 33.7916 10.9393 34.49 10.9393ZM34.2202 18.1774C34.7176 18.1774 35.1567 18.0663 35.5377 17.844C35.9292 17.6112 36.2043 17.2832 36.3631 16.8599V15.8758H34.3154C33.1726 15.8758 32.6012 16.2515 32.6012 17.0028C32.6012 17.3626 32.744 17.6483 33.0297 17.8599C33.3154 18.0716 33.7123 18.1774 34.2202 18.1774Z" fill="#3E516C"/>
<path d="M44.0531 19.6218C43.1748 19.6218 42.3864 19.4366 41.688 19.0663C40.9896 18.6959 40.4446 18.1827 40.0531 17.5266C39.6616 16.8599 39.4658 16.1086 39.4658 15.2726C39.4658 14.4366 39.6616 13.6906 40.0531 13.0345C40.4446 12.3784 40.9843 11.8652 41.6721 11.4948C42.3705 11.1245 43.1642 10.9393 44.0531 10.9393C44.8891 10.9393 45.6192 11.1086 46.2436 11.4472C46.5935 11.6339 46.8953 11.8655 47.1488 12.1422C47.5022 12.5279 47.3206 13.1126 46.8687 13.3762L46.1483 13.7964C45.9049 13.4049 45.5981 13.1139 45.2277 12.9234C44.8679 12.7224 44.4711 12.6218 44.0372 12.6218C43.2965 12.6218 42.6827 12.8652 42.1959 13.352C41.7092 13.8282 41.4658 14.4684 41.4658 15.2726C41.4658 16.0769 41.7039 16.7224 42.1801 17.2091C42.6668 17.6853 43.2859 17.9234 44.0372 17.9234C44.4711 17.9234 44.8679 17.8282 45.2277 17.6377C45.5981 17.4366 45.9049 17.1403 46.1483 16.7488L46.858 17.1628C47.3142 17.4289 47.4931 18.0205 47.1352 18.409C46.879 18.6871 46.5765 18.922 46.2277 19.1139C45.6034 19.4525 44.8785 19.6218 44.0531 19.6218Z" fill="#3E516C"/>
<path d="M54.2911 18.3774C54.4488 18.7785 54.3322 19.2526 53.9287 19.4039C53.8549 19.4316 53.7782 19.4566 53.6986 19.479C53.3706 19.5742 53.0214 19.6218 52.651 19.6218C51.7198 19.6218 51.0002 19.3784 50.4923 18.8917C49.9843 18.4049 49.7304 17.6959 49.7304 16.7647V12.6853H48.3335V12.0901C48.3335 11.5422 48.7777 11.098 49.3256 11.098H49.7304V10.1536C49.7304 9.60567 50.1745 9.16151 50.7224 9.16151H51.7145V11.098H53.9843V11.6933C53.9843 12.2412 53.5402 12.6853 52.9923 12.6853H51.7145V16.7171C51.7145 17.1298 51.815 17.4472 52.0161 17.6694C52.2171 17.8811 52.5081 17.9869 52.8891 17.9869C53.3335 17.9869 53.7039 17.8705 54.0002 17.6377L54.2911 18.3774Z" fill="#3E516C"/>
<path d="M59.2423 19.6218C58.3851 19.6218 57.6126 19.4366 56.9248 19.0663C56.237 18.6959 55.6973 18.1827 55.3058 17.5266C54.9248 16.8599 54.7343 16.1086 54.7343 15.2726C54.7343 14.4366 54.9248 13.6906 55.3058 13.0345C55.6973 12.3784 56.237 11.8652 56.9248 11.4948C57.6126 11.1245 58.3851 10.9393 59.2423 10.9393C60.11 10.9393 60.8878 11.1245 61.5756 11.4948C62.2634 11.8652 62.7978 12.3784 63.1788 13.0345C63.5703 13.6906 63.7661 14.4366 63.7661 15.2726C63.7661 16.1086 63.5703 16.8599 63.1788 17.5266C62.7978 18.1827 62.2634 18.6959 61.5756 19.0663C60.8878 19.4366 60.11 19.6218 59.2423 19.6218ZM59.2423 17.9234C59.9724 17.9234 60.5756 17.68 61.0518 17.1933C61.528 16.7065 61.7661 16.0663 61.7661 15.2726C61.7661 14.479 61.528 13.8388 61.0518 13.352C60.5756 12.8652 59.9724 12.6218 59.2423 12.6218C58.5121 12.6218 57.9089 12.8652 57.4327 13.352C56.9671 13.8388 56.7343 14.479 56.7343 15.2726C56.7343 16.0663 56.9671 16.7065 57.4327 17.1933C57.9089 17.68 58.5121 17.9234 59.2423 17.9234Z" fill="#3E516C"/>
<path d="M66.6352 12.2726C67.2066 11.3837 68.2119 10.9393 69.651 10.9393V12.3647C69.651 12.6056 69.4315 12.7806 69.1907 12.7806C68.4182 12.7806 67.8151 13.0081 67.3812 13.4631C66.9473 13.9075 66.7304 14.553 66.7304 15.3996V18.5187C66.7304 19.0666 66.2863 19.5107 65.7383 19.5107H64.7463V12.0266C64.7463 11.4787 65.1904 11.0345 65.7383 11.0345H66.6352V12.2726Z" fill="#3E516C"/>
<path d="M73.5081 19.6218C72.8202 19.6218 72.1483 19.5319 71.4922 19.352C70.8361 19.1721 70.3123 18.9446 69.9208 18.6694L70.178 18.1603C70.4464 17.6292 71.1236 17.4538 71.6821 17.659C71.7998 17.7022 71.9217 17.7427 72.0477 17.7806C72.5874 17.9287 73.1165 18.0028 73.635 18.0028C74.8202 18.0028 75.4128 17.6906 75.4128 17.0663C75.4128 16.77 75.2594 16.5636 74.9525 16.4472C74.6562 16.3308 74.1747 16.2197 73.5081 16.1139C72.8097 16.0081 72.2382 15.8864 71.7938 15.7488C71.3599 15.6112 70.979 15.3731 70.6509 15.0345C70.3335 14.6853 70.1747 14.2038 70.1747 13.5901C70.1747 12.7858 70.5081 12.1456 71.1747 11.6694C71.852 11.1827 72.762 10.9393 73.9049 10.9393C74.4869 10.9393 75.0689 11.0081 75.6509 11.1456C76.2329 11.2726 76.7091 11.4472 77.0795 11.6694L76.7945 12.2335C76.5362 12.7447 75.8996 12.9201 75.3518 12.7525C74.894 12.6125 74.4064 12.5425 73.889 12.5425C73.307 12.5425 72.8626 12.6324 72.5557 12.8123C72.2594 12.9816 72.1112 13.2091 72.1112 13.4948C72.1112 13.8123 72.27 14.0398 72.5874 14.1774C72.9155 14.3044 73.4181 14.4261 74.0954 14.5425C74.7726 14.6483 75.3282 14.77 75.762 14.9075C76.1959 15.0451 76.5663 15.2779 76.8731 15.606C77.1906 15.934 77.3493 16.3996 77.3493 17.0028C77.3493 17.7964 77.0054 18.4313 76.3176 18.9075C75.6298 19.3837 74.6932 19.6218 73.5081 19.6218Z" fill="#3E516C"/>
<g opacity="0.85">
<path d="M79.8156 19.6402C79.4559 19.6402 79.149 19.5185 78.895 19.2751C78.641 19.0212 78.5141 18.7037 78.5141 18.3228C78.5141 17.9312 78.6358 17.6138 78.8791 17.3704C79.1331 17.127 79.4453 17.0053 79.8156 17.0053C80.186 17.0053 80.4929 17.127 80.7363 17.3704C80.9903 17.6138 81.1172 17.9312 81.1172 18.3228C81.1172 18.7037 80.9903 19.0212 80.7363 19.2751C80.4823 19.5185 80.1754 19.6402 79.8156 19.6402Z" fill="#3E516C"/>
<path d="M85.9729 10.9577C87.2216 10.9577 88.174 11.2593 88.83 11.8624C89.4967 12.455 89.83 13.3545 89.83 14.5609V18.5371C89.83 19.085 89.3859 19.5291 88.838 19.5291H87.957V18.4974C87.7136 18.8677 87.3644 19.1535 86.9094 19.3545C86.465 19.545 85.9253 19.6402 85.2904 19.6402C84.6554 19.6402 84.0999 19.5344 83.6237 19.3228C83.1475 19.1005 82.7771 18.799 82.5126 18.418C82.2586 18.0265 82.1316 17.5873 82.1316 17.1005C82.1316 16.3386 82.412 15.7302 82.9729 15.2751C83.5443 14.8095 84.4385 14.5767 85.6554 14.5767H87.8459V14.4497C87.8459 13.8572 87.666 13.4021 87.3062 13.0847C86.957 12.7672 86.4332 12.6085 85.7348 12.6085C85.2586 12.6085 84.7877 12.6826 84.3221 12.8307C83.8671 12.9788 83.4808 13.1852 83.1634 13.4497L82.7873 12.7513C82.5559 12.3216 82.6684 11.7775 83.1067 11.5632C83.3775 11.4308 83.6715 11.3189 83.9888 11.2275C84.6131 11.0476 85.2745 10.9577 85.9729 10.9577ZM85.7031 18.1958C86.2004 18.1958 86.6396 18.0847 87.0205 17.8624C87.412 17.6296 87.6872 17.3016 87.8459 16.8783V15.8942H85.7983C84.6554 15.8942 84.084 16.2699 84.084 17.0212C84.084 17.381 84.2269 17.6667 84.5126 17.8783C84.7983 18.09 85.1951 18.1958 85.7031 18.1958Z" fill="#3E516C"/>
<path d="M91.9002 12.045C91.9002 11.4971 92.3444 11.0529 92.8923 11.0529H93.8844V18.5371C93.8844 19.085 93.4402 19.5291 92.8923 19.5291H91.9002V12.045ZM92.9002 9.6561C92.5404 9.6561 92.2389 9.54499 91.9955 9.32277C91.7521 9.08996 91.6304 8.80425 91.6304 8.46562C91.6304 8.127 91.7521 7.84657 91.9955 7.62435C92.2389 7.39155 92.5404 7.27515 92.9002 7.27515C93.26 7.27515 93.5616 7.38626 93.805 7.60848C94.0484 7.82012 94.1701 8.08996 94.1701 8.418C94.1701 8.76721 94.0484 9.06351 93.805 9.30689C93.5722 9.5397 93.2706 9.6561 92.9002 9.6561Z" fill="#3E516C"/>
</g>
</svg>
