<svg width="82" height="55" viewBox="0 0 82 55" fill="none" xmlns="http://www.w3.org/2000/svg">
<path d="M31.8217 12.8998C31.5292 11.9331 31.1412 10.998 30.6634 10.1083L31.3829 7.75208L26.7316 3.09722L24.3754 3.81668C23.4857 3.33889 22.5505 2.95087 21.5839 2.65836L20.4256 0.5H13.8426L12.6879 2.65836C11.721 2.95019 10.7859 3.33824 9.89642 3.81668L7.54021 3.09722L2.88535 7.75208L3.60481 10.1083C3.12974 10.9989 2.74299 11.9338 2.45008 12.8998L0.273743 14.0581V20.6411L2.45008 21.7958C2.74227 22.762 3.12905 23.697 3.60481 24.5873L2.88535 26.9435L7.54021 31.5983L9.89642 30.8789C10.7867 31.3546 11.7217 31.7414 12.6879 32.0336L13.8426 34.192H20.4256L21.5839 32.0336C22.5499 31.7407 23.4848 31.3539 24.3754 30.8789L26.7316 31.5983L31.3865 26.9435L30.667 24.5873C31.1454 23.6978 31.5335 22.7627 31.8253 21.7958L34.0017 20.6411V14.0581L31.8217 12.8998ZM17.1341 26.6989C15.2843 26.6989 13.476 26.1503 11.9379 25.1226C10.3999 24.0949 9.20107 22.6342 8.49317 20.9252C7.78527 19.2162 7.60005 17.3356 7.96094 15.5213C8.32182 13.707 9.2126 12.0405 10.5206 10.7325C11.8286 9.42447 13.4952 8.53369 15.3094 8.17281C17.1237 7.81193 19.0043 7.99715 20.7133 8.70504C22.4223 9.41294 23.883 10.6117 24.9107 12.1498C25.9384 13.6879 26.487 15.4962 26.487 17.346C26.487 19.8265 25.5016 22.2055 23.7476 23.9595C21.9936 25.7135 19.6146 26.6989 17.1341 26.6989Z" fill="#90CAF9"/>
<path opacity="0.2" d="M31.8217 12.8998C31.5292 11.9331 31.1412 10.998 30.6634 10.1083L31.3829 7.75208L26.7316 3.09722L24.3754 3.81668C23.4857 3.33889 22.5505 2.95087 21.5839 2.65836L20.4256 0.5H13.8426L12.6879 2.65836C11.721 2.95019 10.7859 3.33824 9.89642 3.81668L7.54021 3.09722L2.88535 7.75208L3.60481 10.1083C3.12974 10.9989 2.74299 11.9338 2.45008 12.8998L0.273743 14.0581V20.6411L2.45008 21.7958C2.74227 22.762 3.12905 23.697 3.60481 24.5873L2.88535 26.9435L7.54021 31.5983L9.89642 30.8789C10.7867 31.3546 11.7217 31.7414 12.6879 32.0336L13.8426 34.192H20.4256L21.5839 32.0336C22.5499 31.7407 23.4848 31.3539 24.3754 30.8789L26.7316 31.5983L31.3865 26.9435L30.667 24.5873C31.1454 23.6978 31.5335 22.7627 31.8253 21.7958L34.0017 20.6411V14.0581L31.8217 12.8998ZM17.1341 26.6989C15.2843 26.6989 13.476 26.1503 11.9379 25.1226C10.3999 24.0949 9.20107 22.6342 8.49317 20.9252C7.78527 19.2162 7.60005 17.3356 7.96094 15.5213C8.32182 13.707 9.2126 12.0405 10.5206 10.7325C11.8286 9.42447 13.4952 8.53369 15.3094 8.17281C17.1237 7.81193 19.0043 7.99715 20.7133 8.70504C22.4223 9.41294 23.883 10.6117 24.9107 12.1498C25.9384 13.6879 26.487 15.4962 26.487 17.346C26.487 19.8265 25.5016 22.2055 23.7476 23.9595C21.9936 25.7135 19.6146 26.6989 17.1341 26.6989Z" fill="white"/>
<path d="M17.1341 14.249C16.5208 14.249 15.9213 14.4309 15.4114 14.7716C14.9014 15.1123 14.504 15.5966 14.2693 16.1632C14.0346 16.7298 13.9732 17.3533 14.0928 17.9548C14.2125 18.5563 14.5078 19.1088 14.9415 19.5425C15.3751 19.9762 15.9277 20.2715 16.5292 20.3911C17.1307 20.5108 17.7541 20.4494 18.3207 20.2147C18.8874 19.98 19.3716 19.5825 19.7124 19.0726C20.0531 18.5627 20.2349 17.9632 20.2349 17.3499C20.2349 16.5275 19.9082 15.7388 19.3267 15.1572C18.7452 14.5757 17.9565 14.249 17.1341 14.249Z" fill="#90CAF9"/>
<path d="M78.6688 23.3429C78.2508 21.961 77.6977 20.6235 77.0176 19.3499L78.0465 15.9829L71.4023 9.33876L68.0317 10.3712C66.7626 9.68333 65.4257 9.12879 64.0423 8.71643L62.3912 5.6084H52.9843L51.3296 8.71643C49.9467 9.13009 48.6099 9.68458 47.3402 10.3712L43.9732 9.33876L37.3219 15.9901L38.3507 19.3571C37.6676 20.6293 37.1144 21.967 36.6995 23.3501L33.5879 25.0012V34.4081L36.6959 36.0628C37.1102 37.445 37.6634 38.7816 38.3471 40.0522L37.3183 43.4156L43.9696 50.067L47.3366 49.0381C48.6077 49.7226 49.9457 50.2747 51.3296 50.6857L52.9843 53.7973H62.3912L64.0423 50.6893C65.4246 50.2738 66.7612 49.7194 68.0317 49.0345L71.4023 50.0634L78.0537 43.412L77.0248 40.045C77.703 38.7727 78.2537 37.4364 78.6688 36.0556L81.7768 34.4009V24.994L78.6688 23.3429ZM57.686 46.7503C54.3129 46.7503 51.0155 45.7501 48.2109 43.8761C45.4063 42.0021 43.2204 39.3385 41.9295 36.2222C40.6387 33.1059 40.301 29.6768 40.959 26.3685C41.6171 23.0602 43.2414 20.0214 45.6265 17.6362C48.0116 15.2511 51.0505 13.6268 54.3588 12.9687C57.667 12.3107 61.0961 12.6484 64.2125 13.9393C67.3288 15.2301 69.9924 17.416 71.8664 20.2206C73.7403 23.0252 74.7406 26.3226 74.7406 29.6957C74.7406 31.9353 74.2994 34.153 73.4424 36.2222C72.5853 38.2913 71.3291 40.1714 69.7454 41.7551C68.1617 43.3388 66.2816 44.595 64.2125 45.4521C62.1433 46.3092 59.9256 46.7503 57.686 46.7503Z" fill="#90CAF9"/>
<path d="M57.6862 15.0327C54.7857 15.0334 51.9505 15.8942 49.5392 17.5061C47.1278 19.1181 45.2486 21.4089 44.1391 24.0888C43.0296 26.7687 42.7397 29.7175 43.306 32.5622C43.8723 35.4069 45.2694 38.0198 47.3206 40.0705C49.3718 42.1212 51.9851 43.5176 54.8299 44.0833C57.6747 44.6489 60.6234 44.3582 63.3031 43.2481C65.9827 42.1379 68.273 40.2581 69.8844 37.8464C71.4958 35.4347 72.3558 32.5993 72.3558 29.6988C72.3511 25.8099 70.8039 22.0818 68.0537 19.3323C65.3035 16.5828 61.575 15.0365 57.6862 15.0327ZM57.6862 42.4115C55.1717 42.4122 52.7135 41.6672 50.6224 40.2707C48.5313 38.8743 46.9013 36.8891 45.9386 34.5662C44.9759 32.2433 44.7236 29.6871 45.2137 27.2208C45.7038 24.7546 46.9143 22.489 48.6921 20.7108C50.4698 18.9325 52.735 17.7214 55.2011 17.2306C57.6673 16.7398 60.2236 16.9913 62.5467 17.9534C64.8699 18.9155 66.8555 20.5449 68.2526 22.6356C69.6496 24.7262 70.3953 27.1843 70.3953 29.6988C70.3915 33.0686 69.0514 36.2994 66.6689 38.6825C64.2864 41.0657 61.056 42.4067 57.6862 42.4115Z" fill="#90CAF9"/>
<path opacity="0.1" d="M57.6862 15.0327C54.7857 15.0334 51.9505 15.8942 49.5392 17.5061C47.1278 19.1181 45.2486 21.4089 44.1391 24.0888C43.0296 26.7687 42.7397 29.7175 43.306 32.5622C43.8723 35.4069 45.2694 38.0198 47.3206 40.0705C49.3718 42.1212 51.9851 43.5176 54.8299 44.0833C57.6747 44.6489 60.6234 44.3582 63.3031 43.2481C65.9827 42.1379 68.273 40.2581 69.8844 37.8464C71.4958 35.4347 72.3558 32.5993 72.3558 29.6988C72.3511 25.8099 70.8039 22.0818 68.0537 19.3323C65.3035 16.5828 61.575 15.0365 57.6862 15.0327ZM57.6862 42.4115C55.1717 42.4122 52.7135 41.6672 50.6224 40.2707C48.5313 38.8743 46.9013 36.8891 45.9386 34.5662C44.9759 32.2433 44.7236 29.6871 45.2137 27.2208C45.7038 24.7546 46.9143 22.489 48.6921 20.7108C50.4698 18.9325 52.735 17.7214 55.2011 17.2306C57.6673 16.7398 60.2236 16.9913 62.5467 17.9534C64.8699 18.9155 66.8555 20.5449 68.2526 22.6356C69.6496 24.7262 70.3953 27.1843 70.3953 29.6988C70.3915 33.0686 69.0514 36.2994 66.6689 38.6825C64.2864 41.0657 61.056 42.4067 57.6862 42.4115Z" fill="black"/>
<path d="M23.9906 54.7211C23.8952 54.7211 23.8037 54.6832 23.7363 54.6158C23.6688 54.5483 23.6309 54.4568 23.6309 54.3614V53.642C23.6309 53.5465 23.6688 53.455 23.7363 53.3876C23.8037 53.3201 23.8952 53.2822 23.9906 53.2822C24.0861 53.2822 24.1775 53.3201 24.245 53.3876C24.3125 53.455 24.3504 53.5465 24.3504 53.642V54.3614C24.3504 54.4568 24.3125 54.5483 24.245 54.6158C24.1775 54.6832 24.0861 54.7211 23.9906 54.7211Z" fill="#90CAF9"/>
<path d="M18.3897 45.4265C18.0595 45.2142 17.8011 44.907 17.6487 44.5452C17.611 44.4574 17.54 44.3882 17.4513 44.3528C17.3626 44.3174 17.2634 44.3187 17.1757 44.3564C17.0879 44.394 17.0187 44.4651 16.9833 44.5538C16.9478 44.6425 16.9491 44.7416 16.9868 44.8294C17.1981 45.3207 17.5497 45.7386 17.9976 46.0309C18.0555 46.0683 18.123 46.0883 18.1919 46.0884C18.2698 46.089 18.3457 46.0643 18.4084 46.018C18.471 45.9717 18.5169 45.9064 18.5392 45.8318C18.5615 45.7571 18.559 45.6773 18.5321 45.6042C18.5051 45.5311 18.4552 45.4688 18.3897 45.4265Z" fill="#90CAF9"/>
<path d="M17.134 40.9331C17.2294 40.9331 17.3209 40.8952 17.3884 40.8278C17.4558 40.7603 17.4937 40.6688 17.4937 40.5734V39.1957C17.4937 39.1003 17.4558 39.0088 17.3884 38.9413C17.3209 38.8738 17.2294 38.8359 17.134 38.8359C17.0386 38.8359 16.9471 38.8738 16.8796 38.9413C16.8122 39.0088 16.7743 39.1003 16.7743 39.1957V40.5734C16.7743 40.6688 16.8122 40.7603 16.8796 40.8278C16.9471 40.8952 17.0386 40.9331 17.134 40.9331Z" fill="#90CAF9"/>
<path d="M20.8788 45.7422H19.4975C19.4021 45.7422 19.3106 45.7801 19.2431 45.8475C19.1757 45.915 19.1378 46.0065 19.1378 46.1019C19.1378 46.1973 19.1757 46.2888 19.2431 46.3563C19.3106 46.4237 19.4021 46.4616 19.4975 46.4616H20.8788C20.9742 46.4616 21.0657 46.4237 21.1332 46.3563C21.2007 46.2888 21.2386 46.1973 21.2386 46.1019C21.2386 46.0065 21.2007 45.915 21.1332 45.8475C21.0657 45.7801 20.9742 45.7422 20.8788 45.7422Z" fill="#90CAF9"/>
<path d="M17.4937 43.3327V41.9549C17.4937 41.8595 17.4558 41.768 17.3883 41.7006C17.3209 41.6331 17.2294 41.5952 17.134 41.5952C17.0386 41.5952 16.947 41.6331 16.8796 41.7006C16.8121 41.768 16.7742 41.8595 16.7742 41.9549V43.3327C16.7742 43.4281 16.8121 43.5196 16.8796 43.5871C16.947 43.6545 17.0386 43.6924 17.134 43.6924C17.2294 43.6924 17.3209 43.6545 17.3883 43.5871C17.4558 43.5196 17.4937 43.4281 17.4937 43.3327Z" fill="#90CAF9"/>
<path d="M24.3286 48.0814C24.3161 47.987 24.2667 47.9014 24.1911 47.8435C24.1156 47.7855 24.0202 47.7598 23.9257 47.772C23.8789 47.7799 23.834 47.7969 23.7938 47.8222C23.7536 47.8474 23.7187 47.8804 23.6913 47.9192C23.6639 47.958 23.6444 48.0018 23.634 48.0482C23.6236 48.0946 23.6225 48.1425 23.6308 48.1893C23.6423 48.2728 23.6483 48.3569 23.6488 48.4411V49.5203C23.6488 49.6157 23.6867 49.7072 23.7541 49.7747C23.8216 49.8421 23.9131 49.88 24.0085 49.88C24.1039 49.88 24.1954 49.8421 24.2628 49.7747C24.3303 49.7072 24.3682 49.6157 24.3682 49.5203V48.4411C24.3628 48.3205 24.3496 48.2003 24.3286 48.0814Z" fill="#90CAF9"/>
<path d="M23.9906 50.5234C23.8952 50.5234 23.8037 50.5613 23.7362 50.6288C23.6688 50.6963 23.6309 50.7878 23.6309 50.8832V52.2645C23.6309 52.3599 23.6688 52.4514 23.7362 52.5189C23.8037 52.5863 23.8952 52.6242 23.9906 52.6242C24.086 52.6242 24.1775 52.5863 24.2449 52.5189C24.3124 52.4514 24.3503 52.3599 24.3503 52.2645V50.8832C24.3503 50.7878 24.3124 50.6963 24.2449 50.6288C24.1775 50.5613 24.086 50.5234 23.9906 50.5234Z" fill="#90CAF9"/>
<path d="M23.6777 46.6526C23.3256 46.2503 22.8606 45.9633 22.3432 45.8288C22.2973 45.817 22.2496 45.8143 22.2028 45.8209C22.1559 45.8276 22.1108 45.8433 22.0701 45.8674C22.0293 45.8914 21.9937 45.9233 21.9653 45.9611C21.9368 45.9989 21.9161 46.042 21.9043 46.0878C21.8925 46.1336 21.8898 46.1813 21.8964 46.2282C21.9031 46.275 21.9188 46.3201 21.9429 46.3609C21.967 46.4016 21.9988 46.4372 22.0366 46.4657C22.0744 46.4941 22.1175 46.5148 22.1633 46.5267C22.5413 46.6242 22.8811 46.8336 23.1381 47.1274C23.1719 47.1658 23.2134 47.1965 23.2599 47.2176C23.3064 47.2387 23.3569 47.2496 23.4079 47.2497C23.4771 47.2496 23.5447 47.2296 23.6028 47.1921C23.6608 47.1546 23.7068 47.1011 23.7353 47.0381C23.7638 46.9751 23.7735 46.9052 23.7633 46.8368C23.7531 46.7685 23.7234 46.7045 23.6777 46.6526Z" fill="#90CAF9"/>
<path d="M17.134 38.1596C17.0386 38.1596 16.9471 38.1217 16.8796 38.0542C16.8122 37.9868 16.7743 37.8953 16.7743 37.7999V37.0804C16.7743 36.985 16.8122 36.8935 16.8796 36.8261C16.9471 36.7586 17.0386 36.7207 17.134 36.7207C17.2294 36.7207 17.3209 36.7586 17.3884 36.8261C17.4558 36.8935 17.4937 36.985 17.4937 37.0804V37.7999C17.4937 37.8953 17.4558 37.9868 17.3884 38.0542C17.3209 38.1217 17.2294 38.1596 17.134 38.1596Z" fill="#90CAF9"/>
</svg>
