<svg width="324" height="93" viewBox="0 0 324 93" fill="none" xmlns="http://www.w3.org/2000/svg">
<path d="M-66.227 37.209C-49.1958 59.3431 -28.406 85.141 1.99443 86.2001C9.72164 86.4689 17.4485 85.1699 24.6595 82.3786C32.0494 79.5176 38.4779 74.9255 44.3899 69.7174C50.0655 64.7183 55.3522 59.2902 61.1716 54.4525C66.909 49.6832 73.1258 45.7269 80.0812 42.9781C94.2288 37.3863 109.749 36.7856 124.774 36.56C140.096 36.3301 155.6 36.58 170.596 32.961C196.638 26.6765 218.897 10.8979 239.953 -4.9909C261.366 -21.1449 282.526 -38.3732 307.41 -48.9697C310.424 -50.2528 313.484 -51.423 316.582 -52.4835C316.478 -51.4218 316.375 -50.3601 316.271 -49.3018C315.088 -49.8386 313.904 -50.3752 312.72 -50.9119C310.688 -51.8333 312.342 -54.8826 314.371 -53.9611C315.555 -53.4243 316.739 -52.8877 317.922 -52.351C319.342 -51.7077 318.939 -49.6263 317.611 -49.1694C291.6 -40.2669 269.582 -23.1733 247.952 -6.72051C226.659 9.47821 204.692 26.1618 178.831 34.2734C164.525 38.7608 149.709 39.6814 134.806 39.9004C119.186 40.1301 103.152 39.7108 87.9737 43.984C80.5332 46.0792 73.5923 49.3802 67.3624 53.9664C61.1328 58.5522 55.6803 64.0754 50.0036 69.3038C44.336 74.5243 38.3759 79.5578 31.482 83.0904C24.5816 86.6263 17.0379 88.7815 9.31571 89.4698C-5.52152 90.7914 -19.9662 86.1586 -32.1259 77.7765C-43.9589 69.6193 -53.57 58.7638 -62.4875 47.6021C-64.7434 44.7785 -66.9576 41.9221 -69.1616 39.0575C-70.5248 37.286 -67.5774 35.4537 -66.227 37.209Z" fill="#FFF4D4"/>
<path d="M-67.1166 28.2642C-50.0855 50.3983 -29.2957 76.1962 1.10479 77.2552C8.83199 77.5241 16.5589 76.225 23.7699 73.4338C31.1597 70.5728 37.5883 65.9807 43.5002 60.7726C49.1759 55.7735 54.4625 50.3453 60.282 45.5077C66.0194 40.7384 72.2362 36.782 79.1915 34.0333C93.3392 28.4415 108.86 27.8407 123.885 27.6152C139.207 27.3853 154.71 27.6352 169.706 24.0162C195.748 17.7317 218.007 1.95304 239.064 -13.9357C260.477 -30.0898 281.636 -47.318 306.521 -57.9145C309.535 -59.1976 312.594 -60.3678 315.692 -61.4283C315.589 -60.3666 315.485 -59.305 315.382 -58.2466C314.198 -58.7834 313.014 -59.32 311.831 -59.8567C309.798 -60.7781 311.453 -63.8274 313.482 -62.9059C314.665 -62.3691 315.849 -61.8325 317.033 -61.2958C318.452 -60.6525 318.049 -58.5711 316.722 -58.1143C290.71 -49.2117 268.693 -32.1181 247.063 -15.6653C225.769 0.53339 203.803 17.217 177.942 25.3286C163.636 29.816 148.819 30.7365 133.917 30.9556C118.296 31.1853 102.262 30.766 87.0841 35.0392C79.6435 37.1344 72.7027 40.4354 66.4727 45.0216C60.2432 49.6074 54.7907 55.1306 49.1139 60.359C43.4464 65.5795 37.4863 70.613 30.5924 74.1456C23.6919 77.6815 16.1482 79.8367 8.42606 80.525C-6.41117 81.8466 -20.8558 77.2137 -33.0156 68.8317C-44.8485 60.6744 -54.4597 49.819 -63.3771 38.6573C-65.633 35.8336 -67.8473 32.9773 -70.0513 30.1127C-71.4144 28.3412 -68.4671 26.5089 -67.1166 28.2642Z" fill="#FFF4D4"/>
<path d="M-68.0063 19.3198C-50.9751 41.4539 -30.1853 67.2518 0.215137 68.3109C7.94234 68.5798 15.6692 67.2807 22.8803 64.4895C30.2701 61.6284 36.6986 57.0364 42.6106 51.8282C48.2862 46.8292 53.5729 41.401 59.3923 36.5634C65.1297 31.794 71.3465 27.8377 78.3019 25.0889C92.4495 19.4972 107.97 18.8964 122.995 18.6708C138.317 18.441 153.82 18.6909 168.816 15.0719C194.859 8.78732 217.118 -6.9913 238.174 -22.8801C259.587 -39.0341 280.746 -56.2624 305.631 -66.8589C308.645 -68.1419 311.705 -69.3122 314.803 -70.3727C314.699 -69.311 314.596 -68.2493 314.492 -67.191C313.308 -67.7277 312.125 -68.2643 310.941 -68.8011C308.908 -69.7225 310.563 -72.7717 312.592 -71.8502C313.776 -71.3135 314.959 -70.7769 316.143 -70.2401C317.563 -69.5968 317.16 -67.5155 315.832 -67.0586C289.82 -58.156 267.803 -41.0625 246.173 -24.6097C224.88 -8.41095 202.913 8.27264 177.052 16.3842C162.746 20.8717 147.929 21.7922 133.027 22.0112C117.406 22.241 101.373 21.8217 86.1944 26.0948C78.7539 28.19 71.813 31.4911 65.5831 36.0772C59.3535 40.663 53.901 46.1862 48.2243 51.4147C42.5567 56.6352 36.5966 61.6686 29.7027 65.2012C22.8023 68.7372 15.2586 70.8924 7.53641 71.5806C-7.30082 72.9023 -21.7455 68.2694 -33.9052 59.8874C-45.7382 51.7301 -55.3493 40.8746 -64.2668 29.713C-66.5227 26.8893 -68.7369 24.033 -70.9409 21.1684C-72.3041 19.3969 -69.3567 17.5646 -68.0063 19.3198Z" fill="#FFF4D4"/>
</svg>
