<svg width="324" height="92" viewBox="0 0 324 92" fill="none" xmlns="http://www.w3.org/2000/svg">
<path d="M-66.227 36.9624C-49.1958 59.0965 -28.406 84.8944 1.99443 85.9535C9.72164 86.2223 17.4485 84.9233 24.6595 82.132C32.0494 79.271 38.4779 74.6789 44.3899 69.4708C50.0655 64.4717 55.3522 59.0436 61.1716 54.2059C66.909 49.4366 73.1258 45.4803 80.0812 42.7315C94.2288 37.1397 109.749 36.539 124.774 36.3134C140.096 36.0836 155.6 36.3334 170.596 32.7145C196.638 26.4299 218.897 10.6513 239.953 -5.23748C261.366 -21.3915 282.526 -38.6198 307.41 -49.2163C310.424 -50.4994 313.484 -51.6696 316.582 -52.7301C316.478 -51.6684 316.375 -50.6067 316.271 -49.5484C315.088 -50.0851 313.904 -50.6218 312.72 -51.1585C310.688 -52.0799 312.342 -55.1292 314.371 -54.2076C315.555 -53.6709 316.739 -53.1343 317.922 -52.5975C319.342 -51.9543 318.939 -49.8729 317.611 -49.416C291.6 -40.5135 269.582 -23.4199 247.952 -6.9671C226.659 9.23163 204.692 25.9152 178.831 34.0268C164.525 38.5142 149.709 39.4348 134.806 39.6538C119.186 39.8835 103.152 39.4643 87.9737 43.7374C80.5332 45.8326 73.5923 49.1336 67.3624 53.7198C61.1328 58.3056 55.6803 63.8288 50.0036 69.0572C44.336 74.2777 38.3759 79.3112 31.482 82.8438C24.5816 86.3798 17.0379 88.535 9.31571 89.2232C-5.52152 90.5448 -19.9662 85.912 -32.1259 77.53C-43.9589 69.3727 -53.57 58.5172 -62.4875 47.3556C-64.7434 44.5319 -66.9576 41.6756 -69.1616 38.8109C-70.5248 37.0394 -67.5774 35.2071 -66.227 36.9624Z" fill="#EAFF8F"/>
<path d="M-67.1157 28.0176C-50.0845 50.1517 -29.2947 75.9496 1.10576 77.0086C8.83297 77.2775 16.5598 75.9785 23.7709 73.1872C31.1607 70.3262 37.5893 65.7341 43.5012 60.526C49.1768 55.5269 54.4635 50.0987 60.2829 45.2611C66.0203 40.4918 72.2372 36.5355 79.1925 33.7867C93.3402 28.1949 108.861 27.5941 123.886 27.3686C139.208 27.1387 154.711 27.3886 169.707 23.7696C195.749 17.4851 218.008 1.70646 239.065 -14.1823C260.478 -30.3363 281.637 -47.5646 306.522 -58.1611C309.536 -59.4442 312.595 -60.6144 315.693 -61.6749C315.59 -60.6132 315.486 -59.5515 315.383 -58.4932C314.199 -59.03 313.015 -59.5666 311.832 -60.1033C309.799 -61.0247 311.454 -64.074 313.483 -63.1525C314.666 -62.6157 315.85 -62.0791 317.033 -61.5424C318.453 -60.8991 318.05 -58.8177 316.723 -58.3608C290.711 -49.4583 268.694 -32.3647 247.064 -15.9119C225.77 0.286808 203.804 16.9704 177.943 25.082C163.637 29.5694 148.82 30.49 133.918 30.709C118.297 30.9387 102.263 30.5194 87.0851 34.7926C79.6445 36.8878 72.7036 40.1888 66.4737 44.775C60.2441 49.3608 54.7916 54.884 49.1149 60.1124C43.4473 65.3329 37.4873 70.3664 30.5933 73.899C23.6929 77.4349 16.1492 79.5901 8.42703 80.2784C-6.41019 81.6 -20.8548 76.9672 -33.0146 68.5851C-44.8476 60.4278 -54.4587 49.5724 -63.3762 38.4107C-65.6321 35.587 -67.8463 32.7307 -70.0503 29.8661C-71.4134 28.0946 -68.4661 26.2623 -67.1157 28.0176Z" fill="#EAFF8F"/>
<path d="M-68.0063 19.0732C-50.9751 41.2073 -30.1853 67.0053 0.215137 68.0643C7.94234 68.3332 15.6692 67.0341 22.8803 64.2429C30.2701 61.3819 36.6986 56.7898 42.6106 51.5816C48.2862 46.5826 53.5729 41.1544 59.3923 36.3168C65.1297 31.5475 71.3465 27.5911 78.3019 24.8424C92.4495 19.2506 107.97 18.6498 122.995 18.4242C138.317 18.1944 153.82 18.4443 168.816 14.8253C194.859 8.54074 217.118 -7.23788 238.174 -23.1266C259.587 -39.2807 280.746 -56.5089 305.631 -67.1054C308.645 -68.3885 311.705 -69.5587 314.803 -70.6193C314.699 -69.5576 314.596 -68.4959 314.492 -67.4376C313.308 -67.9743 312.125 -68.5109 310.941 -69.0476C308.908 -69.969 310.563 -73.0183 312.592 -72.0968C313.776 -71.56 314.959 -71.0235 316.143 -70.4867C317.563 -69.8434 317.16 -67.7621 315.832 -67.3052C289.82 -58.4026 267.803 -41.309 246.173 -24.8563C224.88 -8.65753 202.913 8.02606 177.052 16.1376C162.746 20.6251 147.929 21.5456 133.027 21.7647C117.406 21.9944 101.373 21.5751 86.1944 25.8483C78.7539 27.9435 71.813 31.2445 65.5831 35.8306C59.3535 40.4164 53.901 45.9396 48.2243 51.1681C42.5567 56.3886 36.5966 61.4221 29.7027 64.9547C22.8023 68.4906 15.2586 70.6458 7.53641 71.334C-7.30082 72.6557 -21.7455 68.0228 -33.9052 59.6408C-45.7382 51.4835 -55.3493 40.628 -64.2668 29.4664C-66.5227 26.6427 -68.7369 23.7864 -70.9409 20.9218C-72.3041 19.1503 -69.3567 17.318 -68.0063 19.0732Z" fill="#EAFF8F"/>
</svg>
