<svg width="100px" height="93px" viewBox="0 0 100 93" version="1.1" xmlns="http://www.w3.org/2000/svg" xmlns:xlink="http://www.w3.org/1999/xlink">
    <g id="Page-1" stroke="none" stroke-width="1" fill="none" fill-rule="evenodd">
        <g id="Settings" transform="translate(-867.000000, -636.000000)" fill-rule="nonzero">
            <g id="segment" transform="translate(867.000000, 636.000000)">
                <path d="M62.3361344,63.449749 L4.80192078,63.449749 C2.14885954,63.449749 0,61.3001669 0,58.6462138 C0,55.9922611 2.14885954,53.842679 4.80192078,53.842679 L62.3361344,53.842679 C64.9891957,53.842679 67.1380551,55.9922611 67.1380551,58.6462138 C67.1380551,61.3001669 64.9891957,63.449749 62.3361344,63.449749 Z M95.1980793,39.04539 L37.6662665,39.04539 C35.0132053,39.04539 32.8643457,36.8958082 32.8643457,34.2418551 C32.8643457,31.5879021 35.0132053,29.4383203 37.6662665,29.4383203 L95.1980793,29.4383203 C97.8511406,29.4383203 100,31.5879021 100,34.2418551 C100,36.8958082 97.8511406,39.04539 95.1980793,39.04539 Z M83.3037215,15.9367847 C83.3037215,18.5897037 81.1538285,20.7403195 78.5018008,20.7403195 C75.849773,20.7403195 73.6998801,18.5897037 73.6998801,15.9367847 C73.6998801,13.2838656 75.849773,11.1332498 78.5018008,11.1332498 C81.1538285,11.1332498 83.3037215,13.2838656 83.3037215,15.9367847 Z M26.2989196,76.9584898 C26.2989196,79.611409 24.1490264,81.7620246 21.4969988,81.7620246 C18.8449712,81.7620246 16.695078,79.611409 16.695078,76.9584898 C16.695078,74.3055706 18.8449712,72.154955 21.4969988,72.154955 C24.1490264,72.154955 26.2989196,74.3055706 26.2989196,76.9584898 Z" id="Shape" fill="#93C8A2"></path>
                <path d="M49.9737531,92.8131896 C45.2895387,92.8131896 40.6629172,92.1170424 36.2234721,90.740352 C33.6919619,89.9556173 32.2754882,87.2667977 33.0594676,84.7342843 C33.8441695,82.1897472 36.5390326,80.7734483 39.0647168,81.5656156 C42.5826773,82.6578459 46.2518184,83.2099627 49.9737531,83.2099627 C66.2593176,83.2099627 80.39955,72.7557561 85.1617547,57.1884705 C85.5339617,55.9710524 86.3748613,54.9516731 87.4990973,54.3550309 C88.6233332,53.758389 89.9386102,53.6334661 91.1550055,54.007799 C93.6890887,54.7759614 95.1145105,57.4645288 94.3394074,59.997063 C88.3353582,79.6224052 70.5055867,92.8131896 49.9737531,92.8131896 Z M10.1987252,39.0130342 C8.67649941,39.0132437 7.24442953,38.2910687 6.33929285,37.0667705 C5.43415617,35.8424723 5.16328668,34.2612322 5.60929883,32.805324 C11.6145482,13.1811821 29.4443195,-2.84217094e-14 49.9737531,-2.84217094e-14 C54.6615672,-2.84217094e-14 59.2881891,0.696146932 63.7240344,2.07403775 C64.9399977,2.45087164 65.9564922,3.29550796 66.5498688,4.42210971 C67.1432457,5.54871144 67.2648902,6.86497854 66.8880391,8.08130569 C66.5124605,9.29839536 65.6682191,10.3159846 64.5415914,10.9095488 C63.4149641,11.5031129 62.0985434,11.6238692 60.8827898,11.2451735 C57.3672289,10.1649454 53.6956879,9.61282891 49.9737531,9.61282891 C33.6917885,9.61282891 19.5491564,20.0670354 14.7869516,35.6343211 C14.1690685,37.6510409 12.3085265,39.0287819 10.199925,39.031038 L10.1987252,39.0130342 Z" id="Shape" fill="#43AF79"></path>
            </g>
        </g>
    </g>
</svg>