<svg width="65px" height="77px" viewBox="0 0 65 77" version="1.1" xmlns="http://www.w3.org/2000/svg" xmlns:xlink="http://www.w3.org/1999/xlink">
    <g id="Page-1" stroke="none" stroke-width="1" fill="none" fill-rule="evenodd">
        <g id="Pricing" transform="translate(-678.000000, -1511.000000)" fill-rule="nonzero">
            <g id="android" transform="translate(679.000000, 1512.000000)">
                <g id="Group" fill="#A4C639">
                    <g id="b-link" transform="translate(11.454545, 5.735294)" stroke="#FFFFFF" stroke-width="3.17202797">
                        <g id="b">
                            <ellipse id="Oval" cx="20.0454545" cy="18.5294118" rx="20.0454545" ry="18.5294118"></ellipse>
                            <rect id="Rectangle" x="0" y="13.8970588" width="40.0909091" height="40.1470588" rx="4.84615385"></rect>
                        </g>
                    </g>
                    <g id="a-link" transform="translate(39.980769, 37.500000) scale(-1, 1) translate(-39.980769, -37.500000) translate(16.961538, 0.000000)" stroke="#FFFFFF" stroke-width="1.58601399">
                        <g id="a">
                            <path d="M40.0360553,-0.365275345 L40.0382253,-0.365274057 C40.8283329,-0.364804989 41.4687245,0.275586852 41.4691932,1.06569447 L41.4787455,17.1676375 C41.4792142,17.9577309 40.8390969,18.598608 40.0490036,18.5990767 C40.0484376,18.5990771 40.0478716,18.5990771 40.0473056,18.5990767 L40.0451356,18.5990754 C39.255028,18.5986064 38.6146364,17.9582145 38.6141677,17.1681069 L38.6046155,1.06616386 C38.6041468,0.276070528 39.244264,-0.364806634 40.0343573,-0.365275345 C40.0349233,-0.365275681 40.0354893,-0.365275681 40.0360553,-0.365275345 Z" id="Rectangle" transform="translate(40.041680, 9.116901) rotate(29.000000) translate(-40.041680, -9.116901) "></path>
                            <rect id="c" x="0" y="24.2647059" width="10.5734266" height="29.3382353" rx="5.28671329"></rect>
                            <g id="c-link" transform="translate(18.723776, 45.661765)">
                                <rect id="c" x="0" y="0" width="10.5734266" height="29.3382353" rx="5.28671329"></rect>
                            </g>
                        </g>
                    </g>
                    <g id="a" stroke="#FFFFFF" stroke-width="1.58601399">
                        <path d="M40.0360553,-0.365275345 L40.0382253,-0.365274057 C40.8283329,-0.364804989 41.4687245,0.275586852 41.4691932,1.06569447 L41.4787455,17.1676375 C41.4792142,17.9577309 40.8390969,18.598608 40.0490036,18.5990767 C40.0484376,18.5990771 40.0478716,18.5990771 40.0473056,18.5990767 L40.0451356,18.5990754 C39.255028,18.5986064 38.6146364,17.9582145 38.6141677,17.1681069 L38.6046155,1.06616386 C38.6041468,0.276070528 39.244264,-0.364806634 40.0343573,-0.365275345 C40.0349233,-0.365275681 40.0354893,-0.365275681 40.0360553,-0.365275345 Z" id="Rectangle" transform="translate(40.041680, 9.116901) rotate(29.000000) translate(-40.041680, -9.116901) "></path>
                        <rect id="c" x="0" y="24.2647059" width="10.5734266" height="29.3382353" rx="5.28671329"></rect>
                        <g id="c-link" transform="translate(18.723776, 45.661765)">
                            <rect id="c" x="0" y="0" width="10.5734266" height="29.3382353" rx="5.28671329"></rect>
                        </g>
                    </g>
                    <g id="b" transform="translate(11.454545, 5.735294)">
                        <ellipse id="Oval" cx="20.0454545" cy="18.5294118" rx="20.0454545" ry="18.5294118"></ellipse>
                        <rect id="Rectangle" x="0" y="13.8970588" width="40.0909091" height="40.1470588" rx="4.84615385"></rect>
                    </g>
                </g>
                <g id="Group" transform="translate(10.573427, 14.338235)" fill="#FFFFFF" stroke="#FFFFFF" stroke-width="1.58601399">
                    <path d="M0,10.6985294 L41.8531469,10.6985294" id="Path"></path>
                    <ellipse id="Oval" cx="11.6748252" cy="0.882352941" rx="1" ry="1"></ellipse>
                    <ellipse id="Oval" cx="30.1783217" cy="0.882352941" rx="1" ry="1"></ellipse>
                </g>
            </g>
        </g>
    </g>
</svg>