<svg width="63px" height="63px" viewBox="0 0 63 63" version="1.1" xmlns="http://www.w3.org/2000/svg" xmlns:xlink="http://www.w3.org/1999/xlink">
    <g id="Page-1" stroke="none" stroke-width="1" fill="none" fill-rule="evenodd">
        <g id="Pricing" transform="translate(-205.000000, -1818.000000)">
            <g id="Group-10" transform="translate(205.000000, 1818.000000)">
                <rect id="Rectangle" fill="#63B2DA" x="0" y="31.5" width="63" height="12.8863636"></rect>
                <rect id="Rectangle" fill="#63B2DA" x="0" y="50.1136364" width="63" height="12.8863636"></rect>
                <rect id="Rectangle" fill="#1E8BC3" x="0" y="0" width="62.9666843" height="25.1236364" rx="5"></rect>
                <path d="M9,16.696 C9,16.3333315 9.13316534,16.021668 9.3995,15.761 C9.66583467,15.500332 9.98599813,15.37 10.36,15.37 C10.7226685,15.37 11.0399986,15.4946654 11.312,15.744 C11.5840014,15.9933346 11.72,16.2993315 11.72,16.662 C11.72,17.0246685 11.5868347,17.336332 11.3205,17.597 C11.0541653,17.857668 10.7340019,17.988 10.36,17.988 C10.1786658,17.988 10.0058342,17.9540003 9.8415,17.886 C9.67716584,17.8179997 9.53266729,17.7273339 9.408,17.614 C9.28333271,17.5006661 9.18416704,17.3646675 9.1105,17.206 C9.03683297,17.0473325 9,16.8773342 9,16.696 Z M9,10.933 C9,10.5703315 9.13316534,10.258668 9.3995,9.998 C9.66583467,9.73733203 9.98599813,9.607 10.36,9.607 C10.7226685,9.607 11.0399986,9.73166542 11.312,9.981 C11.5840014,10.2303346 11.72,10.5363315 11.72,10.899 C11.72,11.2616685 11.5868347,11.573332 11.3205,11.834 C11.0541653,12.094668 10.7340019,12.225 10.36,12.225 C10.1786658,12.225 10.0058342,12.1910003 9.8415,12.123 C9.67716584,12.0549997 9.53266729,11.9643339 9.408,11.851 C9.28333271,11.7376661 9.18416704,11.6016675 9.1105,11.443 C9.03683297,11.2843325 9,11.1143342 9,10.933 Z M14.3606667,18.702 L12.9496667,18.192 L18.2536667,5 L19.6646667,5.544 L14.3606667,18.702 Z M21.2003334,18.702 L19.7893334,18.192 L25.0933334,5 L26.5043334,5.544 L21.2003334,18.702 Z M26.8330002,9.726 L29.0430002,9.726 L30.8110002,15.438 L30.8450002,15.438 L32.4940002,9.726 L34.7040002,9.726 L36.4720002,15.438 L36.5060002,15.438 L38.2060002,9.726 L40.2630002,9.726 L37.4920002,17.886 L35.4690002,17.886 L33.5310002,12.31 L33.4970002,12.31 L31.7800002,17.886 L29.6720002,17.886 L26.8330002,9.726 Z M40.5916669,9.726 L42.8016669,9.726 L44.5696669,15.438 L44.6036669,15.438 L46.2526669,9.726 L48.4626669,9.726 L50.2306669,15.438 L50.2646669,15.438 L51.9646669,9.726 L54.0216669,9.726 L51.2506669,17.886 L49.2276669,17.886 L47.2896669,12.31 L47.2556669,12.31 L45.5386669,17.886 L43.4306669,17.886 L40.5916669,9.726 Z" id="://ww" fill="#FFFFFF" fill-rule="nonzero"></path>
            </g>
        </g>
    </g>
</svg>