<svg width="63px" height="60px" viewBox="0 0 63 60" version="1.1" xmlns="http://www.w3.org/2000/svg" xmlns:xlink="http://www.w3.org/1999/xlink">
    <g id="Page-1" stroke="none" stroke-width="1" fill="none" fill-rule="evenodd">
        <g id="Pricing" transform="translate(-686.000000, -1250.000000)">
            <g id="Group-9" transform="translate(686.000000, 1250.000000)">
                <path d="M0,38.9614359 C0,39.7392955 0.343546875,40.4761376 0.943277344,40.9749797 L16.6932773,54.0743131 C17.1854648,54.4810499 17.7802734,54.6807341 18.3748359,54.6807341 C19.1234531,54.6807341 19.8718242,54.3609446 20.3898516,53.7392955 C21.3178711,52.6264183 21.1692305,50.9736815 20.0566406,50.047471 L6.72648047,38.9614359 L20.0566406,27.8756464 C21.1692305,26.9494359 21.3178711,25.296699 20.3898516,24.1838218 C19.461832,23.0682429 17.8058672,22.9250499 16.6932773,23.8485587 L0.943277344,36.947892 C0.343300781,37.4467341 0,38.1835762 0,38.9614359 Z" id="Path" fill="#1E8BC3" fill-rule="nonzero"></path>
                <path d="M42.9433594,27.8756464 L56.2732734,38.9614359 L42.9431133,50.0472253 C41.8305234,50.9734359 41.6818828,52.6261727 42.6099023,53.7390499 C43.1276836,54.360699 43.8763008,54.6804885 44.624918,54.6804885 C45.2197266,54.6804885 45.8142891,54.4808043 46.3064766,54.0740674 L62.0564766,40.9747341 C62.6564531,40.475892 62.9997539,39.7390499 62.9997539,38.9611903 C62.9997539,38.1833306 62.656207,37.4464885 62.0564766,36.9476464 L46.3064766,23.8483131 C45.1990547,22.9324183 43.5430898,23.0731552 42.6099023,24.1835762 C41.6821289,25.296699 41.8307695,26.9494359 42.9433594,27.8756464 Z" id="Path" fill="#1E8BC3" fill-rule="nonzero"></path>
                <path d="M22.5891914,59.7082078 C22.9275703,59.8541025 23.2762852,59.9206639 23.6247539,59.9206639 C24.6398906,59.9206639 25.6090078,59.3270148 26.0396719,58.3317867 L41.7896719,21.653506 C42.3588867,20.3257166 41.7434062,18.785471 40.4105625,18.2149096 C39.0878086,17.641892 37.5393867,18.2532253 36.960082,19.5913306 L21.210082,56.2696113 C20.6411133,57.5974008 21.2563477,59.1376464 22.5891914,59.7082078 Z" id="Path" fill="#1E8BC3" fill-rule="nonzero"></path>
                <rect id="Rectangle" stroke="#FFFFFF" x="0.5" y="0.5" width="62" height="14"></rect>
            </g>
        </g>
    </g>
</svg>