<svg width="56px" height="70px" viewBox="0 0 56 70" version="1.1" xmlns="http://www.w3.org/2000/svg" xmlns:xlink="http://www.w3.org/1999/xlink">
    <g id="Page-1" stroke="none" stroke-width="1" fill="none" fill-rule="evenodd">
        <g id="Pricing" transform="translate(-1125.000000, -1514.000000)" fill="#3D556B" fill-rule="nonzero">
            <path d="M1168.15899,1532.29359 C1163.09039,1531.56812 1159.69142,1533.36906 1156.69547,1534.44453 C1154.95121,1535.06605 1153.33489,1535.45424 1151.60342,1534.94938 C1148.76313,1534.11998 1145.33858,1532.22783 1141.90123,1532.27874 C1139.15049,1532.33177 1135.64704,1532.95329 1132.74278,1535.41605 C1130.35881,1537.42275 1128.57617,1539.54823 1127.29889,1541.84342 C1122.89559,1549.8214 1125.47573,1563.23189 1129.52507,1570.85139 C1132.95175,1577.28936 1137.0416,1583.00611 1141.39159,1583.83339 C1144.29586,1584.39128 1146.34078,1583.45793 1148.88041,1582.36973 C1151.53732,1581.24123 1154.87231,1580.76183 1157.65929,1581.68245 C1162.68738,1583.34126 1166.50428,1586.20494 1172.27442,1580.5688 C1176.38986,1576.53844 1179.50309,1569.93077 1181,1565.78375 C1169.47251,1561.19762 1169.42987,1546.35954 1180.03191,1540.19097 L1179.20243,1538.92459 C1176.12971,1534.80726 1172.35119,1532.88966 1168.15899,1532.29359 Z M1166.69833,1514 C1167.33803,1523.54983 1159.29907,1530.0684 1152.8807,1529.76931 C1152.2154,1521.08919 1159.69356,1514.58334 1166.69833,1514 Z" id="Shape"></path>
        </g>
    </g>
</svg>