<svg width="63px" height="63px" viewBox="0 0 63 63" version="1.1" xmlns="http://www.w3.org/2000/svg" xmlns:xlink="http://www.w3.org/1999/xlink">
    <g id="Page-1" stroke="none" stroke-width="1" fill="none" fill-rule="evenodd">
        <g id="Pricing" transform="translate(-212.000000, -1519.000000)">
            <g id="Group-4" transform="translate(212.000000, 1519.000000)">
                <path d="M28.5419735,40.2391836 C28.5419735,41.4007246 28.4412291,42.5266913 28.2397373,43.6171176 C28.0382454,44.7075438 27.6530463,45.6735047 27.0841283,46.5150293 C26.5152102,47.3565539 25.7033289,48.032134 24.6484601,48.5417897 C23.5935912,49.0514455 22.2128004,49.3062695 20.5060463,49.3062695 C18.5148331,49.3062695 16.8318092,48.8321783 15.4569239,47.8839815 C14.0820387,46.9357848 13.1931175,45.4542496 12.7901339,43.4393316 L17.8748135,42.1948296 C17.9459283,42.8111574 18.2244569,43.3326578 18.7104077,43.7593464 C19.1963585,44.1860349 19.7474896,44.399376 20.3638175,44.399376 C21.0038503,44.399376 21.5016461,44.2393702 21.8572199,43.9193538 C22.2127937,43.5993374 22.4735439,43.2022859 22.6394783,42.7281876 C22.8054127,42.2540892 22.9061571,41.738515 22.9417145,41.1814494 C22.9772719,40.6243838 22.9950503,40.1088095 22.9950503,39.6347112 L22.9950503,23.4917425 L28.5419735,23.4917425 L28.5419735,40.2391836 Z M45.7516582,29.643138 C45.3012647,29.07422 44.6908722,28.653464 43.9204624,28.3808574 C43.1500525,28.1082509 42.4211372,27.9719496 41.7336946,27.9719496 C41.330711,27.9719496 40.9158811,28.0193588 40.4891926,28.1141784 C40.0625041,28.2089981 39.6595265,28.3571516 39.2802478,28.5586434 C38.9009691,28.7601352 38.5928098,29.0268116 38.3557606,29.3586804 C38.1187114,29.6905493 38.0001886,30.0935269 38.0001886,30.5676252 C38.0001886,31.3261826 38.2846434,31.9069444 38.8535614,32.309928 C39.4224794,32.7129116 40.1395425,33.0566278 41.004772,33.3410868 C41.8700015,33.6255458 42.8004056,33.9100006 43.7960122,34.1944596 C44.7916187,34.4789186 45.7220228,34.8818962 46.5872524,35.4034044 C47.4524819,35.9249126 48.1695449,36.6241972 48.7384629,37.5012792 C49.307381,38.3783612 49.5918357,39.551737 49.5918357,41.021442 C49.5918357,42.4200322 49.3310856,43.6408171 48.8095773,44.6838336 C48.2880691,45.72685 47.5828584,46.5920665 46.693924,47.2795091 C45.8049895,47.9669518 44.773841,48.4765999 43.6004476,48.8084687 C42.4270541,49.1403376 41.1884907,49.3062695 39.8847202,49.3062695 C38.2490808,49.3062695 36.7319888,49.0573716 35.3333986,48.5595683 C33.9348084,48.061765 32.6310575,47.2558099 31.4221066,46.1416787 L35.3689558,41.8037004 C35.9378739,42.5622578 36.6549369,43.1489457 37.5201664,43.5637818 C38.3853959,43.9786178 39.2802432,44.1860328 40.204735,44.1860328 C40.6551284,44.1860328 41.1114413,44.1326975 41.5736872,44.0260254 C42.0359331,43.9193532 42.4507629,43.7593474 42.8181892,43.5460032 C43.1856154,43.3326589 43.4819224,43.0600564 43.7071192,42.7281876 C43.9323159,42.3963187 44.0449126,42.0051934 44.0449126,41.5548 C44.0449126,40.7962426 43.7545317,40.1977024 43.1737612,39.7591614 C42.5929907,39.3206204 41.8640754,38.9472735 40.9869934,38.6391096 C40.1099114,38.3309456 39.1617289,38.0227863 38.1424174,37.7146224 C37.1231059,37.4064584 36.1749234,36.9916286 35.2978414,36.4701204 C34.4207594,35.9486122 33.6918441,35.2611799 33.1110736,34.4078028 C32.5303031,33.5544257 32.2399222,32.428459 32.2399222,31.0298688 C32.2399222,29.6786885 32.5065986,28.4934603 33.0399592,27.4741488 C33.5733199,26.4548373 34.2844568,25.6014731 35.1733912,24.9140305 C36.0623257,24.2265878 37.087548,23.7110136 38.249089,23.3672923 C39.41063,23.0235709 40.6077104,22.8517129 41.8403662,22.8517129 C43.2626613,22.8517129 44.6375259,23.0532016 45.9650014,23.4561853 C47.2924768,23.8591689 48.4895572,24.5347489 49.5562785,25.4829457 L45.7516582,29.643138 Z" id="JS" fill="#395286" fill-rule="nonzero"></path>
                <rect id="Rectangle" stroke="#5E737C" stroke-width="3.4875" x="1.74375" y="1.74375" width="59.2604997" height="59.2604997"></rect>
                <rect id="Rectangle" stroke="#5E737C" stroke-width="2.4875" fill="#B2CAD4" x="1.24375" y="1.24375" width="60.2604997" height="7.97049995"></rect>
            </g>
        </g>
    </g>
</svg>