<svg width="80px" height="74px" viewBox="0 0 80 74" version="1.1" xmlns="http://www.w3.org/2000/svg" xmlns:xlink="http://www.w3.org/1999/xlink">
    <g id="Page-1" stroke="none" stroke-width="1" fill="none" fill-rule="evenodd">
        <g id="Pricing" transform="translate(-675.000000, -1808.000000)" fill-rule="nonzero">
            <g id="segment-seeklogo.com" transform="translate(675.000000, 1808.000000)">
                <path d="M49.8689075,50.4868971 L3.84153663,50.4868971 C1.71908763,50.4868971 0,48.7764769 0,46.6647293 C0,44.5529819 1.71908763,42.8425618 3.84153663,42.8425618 L49.8689075,42.8425618 C51.9913566,42.8425618 53.7104441,44.5529819 53.7104441,46.6647293 C53.7104441,48.7764769 51.9913566,50.4868971 49.8689075,50.4868971 Z M76.1584634,31.0683748 L30.1330132,31.0683748 C28.0105642,31.0683748 26.2914766,29.3579549 26.2914766,27.2462073 C26.2914766,25.1344598 28.0105642,23.4240398 30.1330132,23.4240398 L76.1584634,23.4240398 C78.2809125,23.4240398 80,25.1344598 80,27.2462073 C80,29.3579549 78.2809125,31.0683748 76.1584634,31.0683748 Z M66.6429772,12.6808824 C66.6429772,14.7918073 64.9230628,16.50305 62.8014406,16.50305 C60.6798184,16.50305 58.9599041,14.7918073 58.9599041,12.6808824 C58.9599041,10.5699576 60.6798184,8.85871493 62.8014406,8.85871493 C64.9230628,8.85871493 66.6429772,10.5699576 66.6429772,12.6808824 Z M21.0391357,61.2357876 C21.0391357,63.3467125 19.3192211,65.057955 17.197599,65.057955 C15.0759769,65.057955 13.3560624,63.3467125 13.3560624,61.2357876 C13.3560624,59.1248626 15.0759769,57.4136201 17.197599,57.4136201 C19.3192211,57.4136201 21.0391357,59.1248626 21.0391357,61.2357876 Z" id="Shape" fill="#93C8A2"></path>
                <path d="M39.9790025,73.8513551 C36.2316309,73.8513551 32.5303338,73.2974316 28.9787777,72.2020005 C26.9535695,71.5775879 25.8203906,69.4380971 26.4475741,67.4229789 C27.0753356,65.3982935 29.2312261,64.2713459 31.2517734,64.9016726 C34.0661419,65.7707591 37.0014547,66.2100778 39.9790025,66.2100778 C53.0074541,66.2100778 64.31964,57.8916769 68.1294037,45.5048045 C68.4271694,44.5361062 69.0998891,43.7249872 69.9992778,43.2502396 C70.8986666,42.7754923 71.9508881,42.6760913 72.9240044,42.9739476 C74.9512709,43.5851736 76.0916084,45.7244638 75.4715259,47.7395985 C70.6682866,63.3554622 56.4044694,73.8513551 39.9790025,73.8513551 Z M8.15898013,31.0426294 C6.94119953,31.0427961 5.79554363,30.4681622 5.07143428,29.4939894 C4.34732494,28.5198167 4.13062934,27.2616256 4.48743906,26.103161 C9.29163853,10.4882524 23.5554556,-2.84217094e-14 39.9790025,-2.84217094e-14 C43.7292538,-2.84217094e-14 47.4305513,0.553923365 50.9792275,1.65030961 C51.9519981,1.95015592 52.7651938,2.62223214 53.239895,3.51866794 C53.7145966,4.41510373 53.8119122,5.46245604 53.5104313,6.43028625 C53.2099684,7.39872319 52.5345753,8.20841788 51.6332731,8.68071623 C50.7319713,9.15301454 49.6788347,9.24910018 48.7062319,8.94777243 C45.8937831,8.08823616 42.9565503,7.64891762 39.9790025,7.64891762 C26.9534308,7.64891762 15.6393251,15.9673185 11.8295613,28.354191 C11.3352548,29.9588927 9.84682119,31.0551598 8.15994,31.056955 L8.15898013,31.0426294 Z" id="Shape" fill="#43AF79"></path>
            </g>
        </g>
    </g>
</svg>