<svg width="52px" height="52px" viewBox="0 0 52 52" version="1.1" xmlns="http://www.w3.org/2000/svg" xmlns:xlink="http://www.w3.org/1999/xlink">
    <g id="Page-1" stroke="none" stroke-width="1" fill="none" fill-rule="evenodd">
        <g id="landing_page" transform="translate(-780.000000, -3029.000000)" fill="#FFFFFF" fill-rule="nonzero">
            <g id="twitter-circular-button" transform="translate(780.000000, 3029.000000)">
                <path d="M37.1493268,20.8307582 C37.1493268,20.5683791 37.1445686,20.3083791 37.1327582,20.0507582 C38.2555163,19.214 39.2293268,18.1669477 39.9998954,16.9685686 C38.9693268,17.4318954 37.8631373,17.7415163 36.7001895,17.8714314 C37.8867582,17.1410523 38.7967582,15.9734314 39.2269477,14.5718105 C38.116,15.2454314 36.8869477,15.7276209 35.5798105,15.9781895 C34.5327582,14.7868627 33.0389477,14.0281895 31.3866732,13.9998105 C28.2146732,13.9478105 25.6430523,16.6281895 25.6430523,19.9868627 C25.6430523,20.4642941 25.6926732,20.9276209 25.791915,21.3742941 C21.0150523,21.0670523 16.7818105,18.5804837 13.9501046,14.8318105 C13.4561046,15.73 13.1724837,16.7794314 13.1724837,17.9045686 C13.1724837,20.0318954 14.1864837,21.9227582 15.7275359,23.0383791 C14.7844837,22.9958954 13.9004837,22.7098954 13.1252418,22.2418105 C13.1252418,22.2678105 13.1252418,22.2938105 13.1252418,22.3198105 C13.1252418,25.2933268 15.106,27.7845686 17.7342941,28.366 C17.2521046,28.5030523 16.743915,28.574 16.2215359,28.5717059 C15.8504837,28.5693268 15.4911569,28.5291373 15.1413464,28.4534314 C15.8717255,30.8903791 17.9942941,32.6701895 20.5067778,32.7292418 C18.5402092,34.3601046 16.0631569,35.333915 13.3733464,35.3268627 C12.9100196,35.3268627 12.4515359,35.2961895 12.0023987,35.2394314 C14.5457255,36.9838105 17.5640196,38.0001046 20.8092614,38.0001046 C31.3724837,38.0025686 37.1493268,28.808 37.1493268,20.8307582 Z" id="Path"></path>
                <path d="M52,26 C52,11.6408627 40.3590523,0 26,0 C11.6408627,0 0,11.6408627 0,26 C0,40.3590523 11.6408627,52 26,52 C40.3590523,52 52,40.3590523 52,26 Z M2.36362092,26 C2.36362092,12.9456209 12.9456209,2.36362092 26,2.36362092 C39.0543791,2.36362092 49.6363791,12.9456209 49.6363791,26 C49.6363791,39.0543791 39.0543791,49.6363791 26,49.6363791 C12.9456209,49.6363791 2.36362092,39.0543791 2.36362092,26 Z" id="Shape"></path>
            </g>
        </g>
    </g>
</svg>