<svg width="681px" height="136px" viewBox="0 0 681 136" version="1.1" xmlns="http://www.w3.org/2000/svg" xmlns:xlink="http://www.w3.org/1999/xlink">
    <defs>
        <rect id="path-1" x="0" y="0" width="267" height="124" rx="6"></rect>
        <filter x="-3.2%" y="-6.9%" width="107.1%" height="115.3%" filterUnits="objectBoundingBox" id="filter-2">
            <feMorphology radius="0.5" operator="erode" in="SourceAlpha" result="shadowSpreadOuter1"></feMorphology>
            <feOffset dx="1" dy="1" in="shadowSpreadOuter1" result="shadowOffsetOuter1"></feOffset>
            <feGaussianBlur stdDeviation="3.5" in="shadowOffsetOuter1" result="shadowBlurOuter1"></feGaussianBlur>
            <feColorMatrix values="0 0 0 0 0   0 0 0 0 0   0 0 0 0 0  0 0 0 0.5 0" type="matrix" in="shadowBlurOuter1"></feColorMatrix>
        </filter>
        <rect id="path-3" x="402" y="0" width="267" height="124" rx="6"></rect>
        <filter x="-3.2%" y="-6.9%" width="107.1%" height="115.3%" filterUnits="objectBoundingBox" id="filter-4">
            <feMorphology radius="0.5" operator="erode" in="SourceAlpha" result="shadowSpreadOuter1"></feMorphology>
            <feOffset dx="1" dy="1" in="shadowSpreadOuter1" result="shadowOffsetOuter1"></feOffset>
            <feGaussianBlur stdDeviation="3.5" in="shadowOffsetOuter1" result="shadowBlurOuter1"></feGaussianBlur>
            <feColorMatrix values="0 0 0 0 0   0 0 0 0 0   0 0 0 0 0  0 0 0 0.5 0" type="matrix" in="shadowBlurOuter1"></feColorMatrix>
        </filter>
        <polygon id="path-5" points="36.1175833 15.2030769 0 15.2030769 0 0.228461538 36.1175833 0.228461538"></polygon>
        <polygon id="path-7" points="36.1175833 15.2030769 0 15.2030769 0 0.228461538 36.1175833 0.228461538"></polygon>
    </defs>
    <g id="Page-1" stroke="none" stroke-width="1" fill="none" fill-rule="evenodd">
        <g id="Desktop" transform="translate(-433.000000, -212.000000)">
            <g id="Group-3" transform="translate(438.000000, 217.000000)">
                <g id="Group-2">
                    <g id="Rectangle">
                        <use fill="black" fill-opacity="1" filter="url(#filter-2)" xlink:href="#path-1"></use>
                        <use fill="#FFFFFF" fill-rule="evenodd" xlink:href="#path-1"></use>
                    </g>
                    <g id="logo_with_name" transform="translate(50.000000, 45.000000)">
                        <path d="M48.238,3.426 C49.163,3.426 49.64,3.484 50.595,3.601 L50.595,6.383 C50.208,6.354 49.685,6.237 49.312,6.237 C47.94,6.237 47.73,7.232 47.73,8.579 L47.73,9.985 L50.595,9.985 L50.595,12.796 L47.73,12.796 L47.73,28.724 L43.908,28.724 L43.908,12.796 L41.998,12.796 L41.998,9.985 L43.908,9.985 L43.908,9.268 C43.908,5.637 44.521,3.426 48.238,3.426" id="Fill-73" fill="#2C3031"></path>
                        <path d="M57.04,23.586 C57.04,24.991 57.577,25.913 58.951,25.913 C59.875,25.913 60.458,25.064 60.861,24.537 L60.861,19.354 C59.354,20.35 57.04,21.316 57.04,23.586 Z M64.682,15.607 L64.682,24.039 C64.682,25.957 64.801,27.392 65.174,28.724 L61.368,28.724 L60.861,25.913 C60.099,27.392 59.249,28.987 57.04,28.987 C54.831,28.987 53.219,26.762 53.219,24.581 C53.219,19.706 57.174,18.374 60.861,16.954 L60.861,15.607 C60.861,13.952 60.547,12.62 58.951,12.62 C57.382,12.62 57.04,13.967 57.04,15.607 L53.219,15.607 C53.263,12.064 55.323,9.721 58.951,9.721 C62.577,9.721 64.682,12.122 64.682,15.607 L64.682,15.607 Z" id="Fill-74" fill="#2C3031"></path>
                        <path d="M75.109,25.913 C77.019,25.913 77.019,24.039 77.019,22.165 L80.84,22.165 C80.84,26.279 79.362,28.987 75.109,28.987 C69.929,28.987 69.377,24.42 69.377,19.354 C69.377,14.289 69.929,9.721 75.109,9.721 C79.482,9.721 80.84,12.283 80.84,16.544 L77.019,16.544 C77.019,14.787 76.87,12.634 75.109,12.634 C72.811,12.634 73.198,16.982 73.198,19.354 C73.198,21.712 72.766,25.913 75.109,25.913" id="Fill-75" fill="#2C3031"></path>
                        <path d="M90.118,28.987 C87.043,28.987 85.82,27.407 85.789,24.449 L85.789,12.796 L83.878,12.796 L83.878,9.985 L85.789,9.985 L85.789,3.426 L89.61,3.426 L89.61,9.985 L92.476,9.985 L92.476,12.796 L89.61,12.796 L89.61,23.732 C89.61,25.064 89.82,25.913 91.192,25.913 C91.551,25.913 92.133,25.825 92.476,25.767 L92.476,28.812 C91.52,28.929 91.043,28.987 90.118,28.987" id="Fill-76" fill="#2C3031"></path>
                        <path d="M100.128,16.544 L100.128,22.165 C100.128,24.039 100.128,25.913 102.038,25.913 C103.949,25.913 103.949,24.039 103.949,22.165 L103.949,16.544 C103.949,14.67 103.949,12.796 102.038,12.796 C100.128,12.796 100.128,14.67 100.128,16.544 Z M96.307,22.165 L96.307,16.544 C96.307,12.386 97.739,9.721 102.038,9.721 C106.337,9.721 107.77,12.386 107.77,16.544 L107.77,22.165 C107.77,26.323 106.337,28.987 102.038,28.987 C97.739,28.987 96.307,26.323 96.307,22.165 L96.307,22.165 Z" id="Fill-77" fill="#2C3031"></path>
                        <path d="M120.72,9.721 C120.914,9.721 121.048,9.751 121.331,9.78 L121.331,13.923 C120.765,13.703 119.959,13.513 119.212,13.513 C117.63,13.513 116.555,14.523 116.555,16.075 L116.555,28.724 L112.734,28.724 L112.734,9.985 L116.555,9.985 L116.555,12.488 C117.242,11.185 118.75,9.721 120.72,9.721" id="Fill-78" fill="#2C3031"></path>
                        <path d="M129.536,12.796 C128.327,12.796 127.625,13.469 127.625,14.67 C127.625,15.402 128.163,15.943 128.58,16.25 L132.401,19.061 C133.909,20.248 135.267,21.667 135.267,24.039 C135.267,27.319 132.924,28.987 129.536,28.987 C126.178,28.987 124.446,26.704 123.804,24.039 L126.67,23.102 C127.102,24.288 127.924,25.913 129.536,25.913 C130.745,25.913 131.446,25.24 131.446,24.039 C131.446,23.014 131.029,22.355 130.491,21.872 L126.67,19.061 C125.223,18.081 123.804,16.895 123.804,14.67 C123.804,11.39 126.147,9.721 129.536,9.721 C132.954,9.721 134.626,12.005 135.267,14.67 L132.401,15.607 C131.939,14.421 131.178,12.796 129.536,12.796" id="Fill-79" fill="#2C3031"></path>
                        <polygon id="Fill-80" fill="#035DD2" points="138.77 28.724 142.591 28.724 142.591 24.976 138.77 24.976"></polygon>
                        <path d="M150.021,23.586 C150.021,24.991 150.557,25.913 151.931,25.913 C152.855,25.913 153.439,25.064 153.842,24.537 L153.842,19.354 C152.334,20.35 150.021,21.316 150.021,23.586 Z M157.663,15.607 L157.663,24.039 C157.663,25.957 157.781,27.392 158.155,28.724 L154.349,28.724 L153.842,25.913 C153.079,27.392 152.23,28.987 150.021,28.987 C147.811,28.987 146.199,26.762 146.199,24.581 C146.199,19.706 150.154,18.374 153.842,16.954 L153.842,15.607 C153.842,13.952 153.528,12.62 151.931,12.62 C150.363,12.62 150.021,13.967 150.021,15.607 L146.199,15.607 C146.243,12.064 148.303,9.721 151.931,9.721 C155.558,9.721 157.663,12.122 157.663,15.607 L157.663,15.607 Z" id="Fill-81" fill="#035DD2"></path>
                        <path d="M162.88,28.724 L166.701,28.724 L166.701,9.985 L162.88,9.985 L162.88,28.724 Z M162.88,7.174 L166.701,7.174 L166.701,3.426 L162.88,3.426 L162.88,7.174 Z" id="Fill-82" fill="#035DD2"></path>
                        <path d="M9.916,27.75 C9.85,27.75 9.784,27.755 9.719,27.76 L4.055,17.951 C4.432,17.537 4.664,16.989 4.664,16.385 C4.664,15.781 4.432,15.232 4.055,14.818 L9.918,4.663 C11.205,4.662 12.248,3.619 12.248,2.332 C12.248,1.044 11.204,4.54747351e-13 9.916,4.54747351e-13 C8.628,4.54747351e-13 7.584,1.044 7.584,2.332 C7.584,2.914 7.8,3.445 8.152,3.854 L2.262,14.056 C1.007,14.094 0,15.12 0,16.385 C0,17.649 1.007,18.676 2.262,18.713 L8.034,28.71 C7.752,29.095 7.584,29.568 7.584,30.082 C7.584,31.37 8.628,32.414 9.916,32.414 C11.204,32.414 12.248,31.37 12.248,30.082 C12.248,28.794 11.204,27.75 9.916,27.75" id="Fill-83" stroke="#035DD2" fill="#035DD2"></path>
                        <path d="M36.564,16.385 C36.564,15.106 35.534,14.069 34.26,14.054 L28.386,3.881 C28.754,3.469 28.979,2.927 28.979,2.332 C28.979,1.044 27.935,4.54747351e-13 26.647,4.54747351e-13 C25.359,4.54747351e-13 24.315,1.044 24.315,2.332 C24.315,3.605 25.336,4.638 26.604,4.661 L32.483,14.845 C32.121,15.256 31.9,15.794 31.9,16.385 C31.9,16.975 32.121,17.513 32.483,17.924 L26.806,27.758 C26.753,27.754 26.701,27.75 26.647,27.75 C25.359,27.75 24.315,28.794 24.315,30.082 C24.315,31.37 25.359,32.414 26.647,32.414 C27.935,32.414 28.979,31.37 28.979,30.082 C28.979,29.555 28.802,29.07 28.507,28.679 L34.26,18.715 C35.534,18.7 36.564,17.663 36.564,16.385" id="Fill-84" stroke="#035DD2" fill="#035DD2"></path>
                        <path d="M23.5034545,7.70875252 C23.1019838,7.49212439 22.591493,7.62455366 22.3622048,8.00303978 L13.0357983,23.4220577 C12.8065101,23.8005438 12.9458135,24.2836654 13.3464189,24.5002935 C13.7478896,24.7169216 14.2592456,24.5853098 14.4885338,24.2060062 L23.8149404,8.78780583 C24.0442286,8.40850224 23.9049252,7.92538064 23.5034545,7.70875252" id="Fill-85" stroke="#035DD2" fill="#035DD2"></path>
                    </g>
                </g>
                <text id="+" font-family="Avenir-Black, Avenir" font-size="23.9424005" font-weight="700" letter-spacing="0.399040103" fill="#000000">
                    <tspan x="332.327661" y="67">+</tspan>
                </text>
                <g id="Rectangle">
                    <use fill="black" fill-opacity="1" filter="url(#filter-4)" xlink:href="#path-3"></use>
                    <use fill="#FFFFFF" fill-rule="evenodd" xlink:href="#path-3"></use>
                </g>
                <g id="segment" transform="translate(453.000000, 40.000000)">
                    <path d="M61.3855,17.3473846 L58.3857083,16.692 C56.8846667,16.3643077 56.0582917,15.432 56.0582917,14.0658462 C56.0582917,12.3295385 57.589125,11.0196923 59.6195417,11.0196923 C62.429125,11.0196923 63.2587083,13.1012308 63.446625,13.74 C63.5062083,13.9523077 63.652875,14.1323077 63.8499583,14.2315385 C64.0424583,14.3307692 64.257875,14.3455385 64.464125,14.2730769 L66.045375,13.7113846 C66.4394377,13.5704526 66.6563675,13.144886 66.540375,12.7403077 C66.1324583,11.2956923 64.6337083,7.93569231 59.5507917,7.93569231 C55.787875,7.93569231 52.611625,10.8341538 52.611625,14.2656923 C52.611625,17.2149231 54.5334167,19.3933846 57.754125,20.0995385 L60.614125,20.7272308 C62.335625,21.0918462 63.364125,22.1487692 63.364125,23.5518462 C63.364125,25.3426154 61.9020417,26.4549231 59.5462083,26.4549231 C56.777875,26.4549231 55.444125,24.6272308 55.1187083,22.9149231 C55.0770798,22.6915945 54.9423049,22.496982 54.7485792,22.3804634 C54.5548536,22.2639448 54.3207957,22.2367184 54.1057917,22.3056923 L52.3687083,22.8641538 C51.9906865,22.9801227 51.7597193,23.3637842 51.8324583,23.7549231 C52.3732917,26.5933846 54.68925,29.6210769 59.5782917,29.6210769 C63.7097083,29.6210769 66.8254583,26.9118462 66.8254583,23.3210769 C66.8254583,20.2887692 64.838125,18.1103077 61.3712917,17.3395385 L61.3855,17.3473846 Z M79.132625,20.1087692 C79.1417917,20.1687692 79.1142917,20.2149231 79.0959583,20.2333846 C79.0652221,20.2716846 79.0188161,20.2937755 78.9699167,20.2933846 L72.5990833,20.2933846 C72.5476937,20.2933968 72.4991661,20.2695592 72.4675417,20.2287692 C72.4381075,20.194556 72.4262392,20.1484584 72.4354583,20.1041538 C72.7265,18.7666154 73.8654583,17.418 75.7537917,17.418 C77.6086667,17.418 78.8704583,18.4195385 79.1294167,20.1009231 L79.132625,20.1087692 Z M75.7290417,14.4226154 C72.3740417,14.4226154 68.9044583,17.2472308 68.9044583,21.978 C68.9044583,24.258 69.6469583,26.2056923 71.0540417,27.6041538 C72.3575417,28.9010769 74.138625,29.6164615 76.0682083,29.6164615 C78.9419583,29.6164615 81.2702917,28.1044615 82.2969583,25.5733846 C82.3794583,25.3656923 82.374875,25.1349231 82.2859583,24.9318462 C82.1973265,24.7326634 82.0304806,24.5795294 81.8253333,24.5090769 L80.4228333,24.0198462 C80.0335801,23.8852136 79.6069804,24.0747769 79.443375,24.4550769 C78.838375,25.8904615 77.7017083,26.6150769 76.0654583,26.6150769 C74.0854583,26.6150769 72.5775417,25.272 72.3162917,23.2721538 C72.309619,23.2267976 72.3239786,23.1808658 72.35525,23.1475385 C72.3735833,23.1244615 72.4148333,23.0875385 72.479,23.0875385 L81.7758333,23.0875385 C82.1929167,23.0875385 82.54125,22.7598462 82.5641667,22.3416923 C82.5733333,22.2078462 82.5779167,22.0601538 82.5779167,21.9143077 C82.5779167,17.2896923 79.9516667,14.4175385 75.7258333,14.4175385 L75.7290417,14.4226154 Z M91.559875,25.6472308 C89.3277917,25.6472308 87.9390417,24.0872308 87.9390417,21.5764615 C87.9390417,19.1026154 89.359875,17.5038462 91.559875,17.5038462 C93.691125,17.5038462 95.1229583,19.1376923 95.1229583,21.5746154 C95.1229583,24.0087692 93.6902083,25.6453846 91.5594167,25.6453846 L91.559875,25.6472308 Z M97.5090417,14.8472308 L95.8269583,14.8472308 C95.3915417,14.8472308 95.0363333,15.204 95.0363333,15.6641538 C95.036028,15.730671 94.9963566,15.7905942 94.9355,15.8164615 C94.9034167,15.8303077 94.83925,15.8487692 94.7815,15.7933846 C93.91525,14.9958462 92.6960833,14.5910769 91.1606667,14.5910769 C87.355125,14.5910769 84.59275,17.5310769 84.59275,21.5787692 C84.59275,25.6089231 87.355125,28.5341538 91.1606667,28.5341538 C92.56775,28.5341538 93.8419167,28.0689231 94.7494167,27.2243077 C94.809,27.1689231 94.8731667,27.1827692 94.90525,27.1966154 C94.9281667,27.2058462 95.0060833,27.2473846 95.0060833,27.3489231 L95.0060833,27.9304615 C95.0060833,30.7458462 93.7823333,32.0589231 91.1606667,32.0589231 C89.4969167,32.0589231 88.1906667,31.0204615 87.83775,29.4152308 C87.7919167,29.2075385 87.6681667,29.0321538 87.4894167,28.92 C87.3106667,28.8078462 87.09525,28.7723077 86.889,28.8184615 L85.2371667,29.2015385 C84.8151424,29.3026611 84.5513363,29.7255675 84.6440833,30.1523077 C85.2353333,33.0692308 87.8551667,35.0307692 91.157,35.0307692 C93.61825,35.0307692 95.4928333,34.2761538 96.7303333,32.7876923 C97.7524167,31.5572308 98.29325,29.8490769 98.29325,27.8478462 L98.29325,15.6553846 C98.29325,15.2169231 97.9403333,14.8615385 97.5049167,14.8615385 L97.5090417,14.8472308 Z M117.506125,14.4484615 C115.645292,14.4484615 114.131417,15.1555385 113.127208,16.4976923 C113.092691,16.5482212 113.034469,16.5769229 112.973667,16.5733846 C112.928571,16.5739283 112.886623,16.5501677 112.863667,16.5110769 C112.021708,15.2003077 110.568333,14.448 108.876167,14.448 C107.530042,14.448 106.236167,14.9243077 105.325,15.7564615 C105.279929,15.8039089 105.209735,15.8169297 105.150833,15.7887692 C105.093251,15.7649507 105.056618,15.7074026 105.059167,15.6447692 C105.059167,15.2063077 104.704417,14.8509231 104.269,14.8509231 L102.67125,14.8509231 C102.235833,14.8509231 101.882917,15.2063077 101.882917,15.6447692 L101.882917,28.3970769 C101.882917,28.8355385 102.237667,29.1918462 102.673083,29.1918462 L104.355167,29.1918462 C104.790583,29.1918462 105.1435,28.8336923 105.1435,28.3952308 L105.1435,20.6215385 C105.1435,18.7324615 106.289333,17.4627692 107.998917,17.4627692 C110.235583,17.4627692 110.570167,19.2290769 110.570167,20.2813846 L110.570167,28.4090769 C110.570167,28.8475385 110.923083,29.2029231 111.3585,29.2029231 L113.069458,29.2029231 C113.504875,29.2029231 113.857792,28.8456923 113.857792,28.4072308 L113.857792,20.5938462 C113.857792,18.7495385 115.021958,17.4618462 116.685708,17.4618462 C118.92375,17.4618462 119.256958,19.2295385 119.256958,20.2818462 L119.256958,28.4095385 C119.256958,28.848 119.609875,29.2033846 120.045292,29.2033846 L121.727375,29.2033846 C122.162792,29.2033846 122.515708,28.8461538 122.515708,28.4076923 L122.515708,19.9938462 C122.515708,16.1723077 119.999458,14.4632308 117.506125,14.4632308 L117.506125,14.4484615 Z M128.877375,20.3044615 C128.826234,20.3042902 128.7779,20.2808873 128.745833,20.2407692 C128.717611,20.2066708 128.706463,20.1614286 128.715583,20.118 C129.007083,18.7795385 130.145583,17.4318462 132.03575,17.4318462 C133.890167,17.4318462 135.152417,18.4333846 135.410917,20.1133846 C135.420083,20.1733846 135.391208,20.2195385 135.37425,20.238 C135.341281,20.2726915 135.295887,20.2926387 135.248208,20.2933846 L128.877375,20.2933846 L128.877375,20.3044615 Z M132.007792,14.4336923 C128.652792,14.4336923 125.183208,17.2601538 125.183208,21.9890769 C125.183208,24.2718462 125.925708,26.2181538 127.330958,27.618 C128.632625,28.9149231 130.410958,29.6256923 132.345125,29.6256923 C135.214292,29.6256923 137.542625,28.1118462 138.573875,25.578 C138.656375,25.3703077 138.651792,25.1395385 138.560125,24.9364615 C138.468458,24.7333846 138.303458,24.5856923 138.097208,24.5118462 L136.694708,24.0235385 C136.305125,23.8883077 135.874292,24.0789231 135.714792,24.4583077 C135.109792,25.89 133.973125,26.6183077 132.336875,26.6183077 C130.356875,26.6183077 128.848958,25.2724615 128.587708,23.2721538 C128.580635,23.2263222 128.594059,23.1796875 128.624375,23.1447692 C128.642708,23.1216923 128.683958,23.0870769 128.748125,23.0870769 L138.047708,23.0870769 C138.464792,23.0870769 138.81175,22.7593846 138.836042,22.3407692 C138.843833,22.2069231 138.849792,22.0592308 138.849792,21.9115385 C138.849792,17.2869231 136.223542,14.4115385 131.997708,14.4115385 L132.007792,14.4336923 Z M148.860708,14.4627692 C147.437583,14.4627692 146.19,14.9510769 145.253625,15.8750769 C145.209674,15.9196485 145.143058,15.9324783 145.085875,15.9073846 C145.026921,15.8814783 144.989034,15.8226161 144.989625,15.7578462 L144.989625,15.6563077 C144.989625,15.2178462 144.634875,14.8624615 144.199458,14.8624615 L142.549458,14.8624615 C142.114042,14.8624615 141.759292,15.2178462 141.759292,15.6563077 L141.759292,28.4063077 C141.759292,28.8447692 142.112208,29.2015385 142.547625,29.2015385 L144.257208,29.2015385 C144.692625,29.2015385 145.047833,28.8438462 145.047833,28.4053846 L145.047833,20.9621538 C145.047833,19.2969231 145.797208,17.5172308 147.90325,17.5172308 C149.796167,17.5172308 150.756833,18.5709231 150.756833,20.6487692 L150.756833,28.4026154 C150.756833,28.8410769 151.10975,29.1964615 151.545167,29.1964615 L153.25475,29.1964615 C153.690167,29.1964615 154.044,28.8364615 154.044,28.398 L154.044,20.1923077 C154.044,16.6569231 152.05575,14.46 148.86025,14.46 L148.860708,14.4627692 Z M162.009833,17.916 L164.003583,17.916 C164.439,17.916 164.791917,17.5583077 164.791917,17.1203077 L164.791917,15.6553846 C164.791917,15.2169231 164.439,14.8615385 164.003583,14.8615385 L162.009833,14.8615385 C161.921238,14.8615385 161.849417,14.7892152 161.849417,14.7 L161.849417,11.3243077 C161.849417,10.8858462 161.49375,10.5295385 161.058792,10.5295385 L159.573792,10.5295385 C159.138375,10.5295385 158.785458,10.8858462 158.785458,11.3243077 L158.785458,13.0689231 C158.785458,13.8858462 158.474708,14.8610769 157.003458,14.8610769 L156.75,14.8610769 C156.314583,14.8610769 155.961667,15.2164615 155.961667,15.6549231 L155.961667,17.118 C155.961667,17.5564615 156.315958,17.9118462 156.75,17.9118462 L158.404583,17.9118462 C158.493958,17.9118462 158.565,17.9810769 158.565,18.0733846 L158.565,25.1210769 C158.565,27.7241538 160.139375,29.3395385 162.671667,29.3395385 C163.3775,29.3395385 163.926583,29.238 164.191042,29.178 C164.548542,29.0949231 164.799708,28.7764615 164.799708,28.4026154 L164.799708,27.0461538 C164.799414,26.8204817 164.704027,26.6055374 164.537268,26.4547749 C164.37051,26.3040125 164.148049,26.2315974 163.925208,26.2555385 C163.746458,26.274 163.573208,26.2846154 163.437542,26.2846154 C162.287125,26.2846154 161.856292,25.86 161.856292,24.72 L161.856292,18.0738462 C161.856292,17.9852308 161.929625,17.9132308 162.016708,17.9132308 L162.009833,17.916 Z" id="Shape" fill="#43AF79" fill-rule="nonzero"></path>
                    <g id="Group" transform="translate(0.000000, 20.769231)">
                        <g id="Clipped">
                            <mask id="mask-6" fill="white">
                                <use xlink:href="#path-5"></use>
                            </mask>
                            <g id="a"></g>
                            <path d="M23.7994167,3.92169231 L1.83333333,3.92169231 C0.820416667,3.92169231 0,3.09553846 0,2.07553846 C0,1.05553846 0.820416667,0.229384615 1.83333333,0.229384615 L23.7994167,0.229384615 C24.8123333,0.229384615 25.63275,1.05553846 25.63275,2.07553846 C25.63275,3.09553846 24.8123333,3.92169231 23.7994167,3.92169231" id="Path" fill="#93C8A2" fill-rule="nonzero" mask="url(#mask-6)"></path>
                        </g>
                        <g id="Clipped">
                            <mask id="mask-8" fill="white">
                                <use xlink:href="#path-7"></use>
                            </mask>
                            <g id="a"></g>
                            <path d="M19.0895833,15.2307692 C17.30025,15.2307692 15.5329167,14.9630769 13.8370833,14.4336923 C12.8700662,14.131935 12.3289843,13.0979919 12.6284583,12.1241538 C12.9282083,11.1456923 13.957625,10.6010769 14.9224167,10.9056923 C16.26625,11.3256923 17.6678333,11.538 19.0895833,11.538 C25.3105417,11.538 30.712,7.518 32.531125,1.53184615 C32.6733051,1.06370723 32.9945222,0.671721042 33.4239716,0.442291787 C33.853421,0.212862531 34.3558464,0.164825463 34.8205,0.308769231 C35.7885,0.604153846 36.333,1.638 36.0369167,2.61184615 C33.7434167,10.1584615 26.9325833,15.2307692 19.0895833,15.2307692" id="Path" fill="#43AF79" fill-rule="nonzero" mask="url(#mask-8)"></path>
                        </g>
                    </g>
                    <path d="M36.3458333,15.3115385 L14.3806667,15.3115385 C13.36775,15.3115385 12.5473333,14.4853846 12.5473333,13.4653846 C12.5473333,12.4453846 13.36775,11.6192308 14.3806667,11.6192308 L36.3458333,11.6192308 C37.35875,11.6192308 38.1791667,12.4453846 38.1791667,13.4653846 C38.1791667,14.4853846 37.35875,15.3115385 36.3458333,15.3115385" id="Path" fill="#93C8A2" fill-rule="nonzero"></path>
                    <path d="M3.89583333,15.312 C3.314355,15.3120805 2.76731548,15.0343795 2.42156034,14.563595 C2.0758052,14.0928105 1.97233517,13.4847696 2.14270833,12.9249231 C4.43666667,5.37876923 11.2475,0.310153846 19.0895833,0.310153846 C20.8802917,0.310153846 22.647625,0.577846154 24.3420833,1.10769231 C24.8065717,1.25259783 25.1948647,1.57738938 25.42153,2.01060629 C25.6481953,2.4438232 25.6946626,2.94997292 25.5507083,3.41769231 C25.4072403,3.88570493 25.0847467,4.27700281 24.6543837,4.50524852 C24.2240208,4.73349423 23.7211584,4.77992914 23.25675,4.63430769 C21.9138333,4.21892308 20.5113333,4.00661538 19.0895833,4.00661538 C12.87,4.00661538 7.467625,8.02661538 5.6485,14.0127692 C5.41247347,14.788267 4.70176096,15.3180555 3.89629167,15.3189231" id="Path" fill="#43AF79" fill-rule="nonzero"></path>
                    <path d="M31.8046667,6.43015385 C31.8046667,7.44975646 30.9838554,8.27630769 29.9713333,8.27630769 C28.9588113,8.27630769 28.138,7.44975646 28.138,6.43015385 C28.138,5.41055123 28.9588113,4.584 29.9713333,4.584 C30.9838554,4.584 31.8046667,5.41055123 31.8046667,6.43015385 M10.0407083,29.8827692 C10.0407083,30.9023718 9.21989704,31.7289231 8.207375,31.7289231 C7.19485296,31.7289231 6.37404167,30.9023718 6.37404167,29.8827692 C6.37404167,28.8631666 7.19485296,28.0366154 8.207375,28.0366154 C9.21989704,28.0366154 10.0407083,28.8631666 10.0407083,29.8827692" id="Shape" fill="#93C8A2" fill-rule="nonzero"></path>
                </g>
            </g>
        </g>
    </g>
</svg>