<svg width="79px" height="72px" viewBox="0 0 79 72" version="1.1" xmlns="http://www.w3.org/2000/svg" xmlns:xlink="http://www.w3.org/1999/xlink">
    <defs>
        <polygon id="path-1" points="0.00666666667 0.0989977468 78.9100235 0.0989977468 78.9100235 73.0989977 0.00666666667 73.0989977"></polygon>
    </defs>
    <g id="Page-1" stroke="none" stroke-width="1" fill="none" fill-rule="evenodd">
        <g id="Settings" transform="translate(-469.000000, -821.000000)">
            <g id="Group" transform="translate(469.000000, 821.000000)">
                <g id="Group-6">
                    <mask id="mask-2" fill="white">
                        <use xlink:href="#path-1"></use>
                    </mask>
                    <g id="Clip-2"></g>
                    <path d="M6.61822222,69.7276063 L6.61822222,69.7274961 C0.316777778,66.1180315 -1.86233333,58.049622 1.77577778,51.7977953 L27.9343333,6.84655118 C31.5725556,0.594724409 39.705,-1.56722835 46.0065556,2.04223622 C52.308,5.65181102 54.4871111,13.7202205 50.849,19.9721575 L24.6904444,64.9232913 C21.0522222,71.1752283 12.9197778,73.3370709 6.61822222,69.7276063" id="Fill-1" fill="#F2B536" mask="url(#mask-2)"></path>
                    <path d="M72.3054444,69.5327087 L72.3054444,69.5327087 C66.0038889,73.1422835 57.8713333,70.9803307 54.2332222,64.7285039 L28.0746667,19.7772598 C24.4364444,13.5253228 26.6155556,5.45691339 32.917,1.84733858 C39.2185556,-1.76212598 47.3511111,0.399716535 50.9892222,6.65165354 L77.1477778,51.6027874 C80.786,57.8547244 78.6067778,65.9232441 72.3054444,69.5327087" id="Fill-3" fill="#477FB4" mask="url(#mask-2)"></path>
                    <path d="M26.8258889,58.1673543 C26.8258889,65.5168031 20.8206667,71.4747402 13.4128889,71.4747402 C6.00511111,71.4747402 0,65.5168031 0,58.1673543 C0,50.8180157 6.00511111,44.8600787 13.4128889,44.8600787 C20.8206667,44.8600787 26.8258889,50.8180157 26.8258889,58.1673543" id="Fill-4" fill="#2DA95D" mask="url(#mask-2)"></path>
                </g>
            </g>
        </g>
    </g>
</svg>