<svg width="100px" height="100px" viewBox="0 0 100 100" version="1.1" xmlns="http://www.w3.org/2000/svg" xmlns:xlink="http://www.w3.org/1999/xlink">
    <g id="Page-1" stroke="none" stroke-width="1" fill="none" fill-rule="evenodd">
        <g id="Settings" transform="translate(-655.000000, -321.000000)">
            <g id="Group-3" transform="translate(578.000000, 264.000000)">
                <g id="Group" transform="translate(77.000000, 57.000000)">
                    <g id="Group-5" transform="translate(0.819672, 0.000000)">
                        <rect id="Rectangle" stroke="#89A6B3" stroke-width="2" x="1" y="1" width="96.3606557" height="26" rx="3.27868852"></rect>
                        <path d="M9.57311475,5.33901639 L11.3731148,5.33901639 L11.3731148,12.4390164 L11.4131148,12.4390164 C11.6397826,11.9323472 12.033112,11.5223513 12.5931148,11.2090164 C13.1531176,10.8956815 13.7997778,10.7390164 14.5331148,10.7390164 C14.9864504,10.7390164 15.4231127,10.8090157 15.8431148,10.9490164 C16.2631169,11.0890171 16.6297799,11.3056816 16.9431148,11.5990164 C17.2564497,11.8923512 17.5064472,12.2690141 17.6931148,12.7290164 C17.8797824,13.1890187 17.9731148,13.7323466 17.9731148,14.3590164 L17.9731148,20.4590164 L16.1731148,20.4590164 L16.1731148,14.8590164 C16.1731148,14.4190142 16.1131154,14.0423513 15.9931148,13.7290164 C15.8731142,13.4156815 15.7131158,13.1623507 15.5131148,12.9690164 C15.3131138,12.7756821 15.0831161,12.6356835 14.8231148,12.5490164 C14.5631135,12.4623493 14.2931162,12.4190164 14.0131148,12.4190164 C13.6397796,12.4190164 13.2931164,12.4790158 12.9731148,12.5990164 C12.6531132,12.719017 12.373116,12.9090151 12.1331148,13.1690164 C11.8931136,13.4290177 11.7064488,13.7590144 11.5731148,14.1590164 C11.4397808,14.5590184 11.3731148,15.032347 11.3731148,15.5790164 L11.3731148,20.4590164 L9.57311475,20.4590164 L9.57311475,5.33901639 Z M25.7731148,12.5390164 L23.1931148,12.5390164 L23.1931148,16.8390164 C23.1931148,17.1056844 23.1997814,17.3690151 23.2131148,17.6290164 C23.2264482,17.8890177 23.2764477,18.1223487 23.3631148,18.3290164 C23.4497819,18.5356841 23.5831139,18.7023491 23.7631148,18.8290164 C23.9431157,18.9556837 24.2064464,19.0190164 24.5531148,19.0190164 C24.7664492,19.0190164 24.986447,18.9990166 25.2131148,18.9590164 C25.4397826,18.9190162 25.6464472,18.8456836 25.8331148,18.7390164 L25.8331148,20.3790164 C25.6197804,20.499017 25.3431165,20.5823495 25.0031148,20.6290164 C24.6631131,20.6756833 24.3997824,20.6990164 24.2131148,20.6990164 C23.519778,20.6990164 22.9831167,20.6023507 22.6031148,20.4090164 C22.2231129,20.2156821 21.9431157,19.9656846 21.7631148,19.6590164 C21.5831139,19.3523482 21.4764483,19.0090183 21.4431148,18.6290164 C21.4097813,18.2490145 21.3931148,17.865685 21.3931148,17.4790164 L21.3931148,12.5390164 L19.3131148,12.5390164 L19.3131148,10.9790164 L21.3931148,10.9790164 L21.3931148,8.31901639 L23.1931148,8.31901639 L23.1931148,10.9790164 L25.7731148,10.9790164 L25.7731148,12.5390164 Z M33.1731148,12.5390164 L30.5931148,12.5390164 L30.5931148,16.8390164 C30.5931148,17.1056844 30.5997814,17.3690151 30.6131148,17.6290164 C30.6264482,17.8890177 30.6764477,18.1223487 30.7631148,18.3290164 C30.8497819,18.5356841 30.9831139,18.7023491 31.1631148,18.8290164 C31.3431157,18.9556837 31.6064464,19.0190164 31.9531148,19.0190164 C32.1664492,19.0190164 32.386447,18.9990166 32.6131148,18.9590164 C32.8397826,18.9190162 33.0464472,18.8456836 33.2331148,18.7390164 L33.2331148,20.3790164 C33.0197804,20.499017 32.7431165,20.5823495 32.4031148,20.6290164 C32.0631131,20.6756833 31.7997824,20.6990164 31.6131148,20.6990164 C30.919778,20.6990164 30.3831167,20.6023507 30.0031148,20.4090164 C29.6231129,20.2156821 29.3431157,19.9656846 29.1631148,19.6590164 C28.9831139,19.3523482 28.8764483,19.0090183 28.8431148,18.6290164 C28.8097813,18.2490145 28.7931148,17.865685 28.7931148,17.4790164 L28.7931148,12.5390164 L26.7131148,12.5390164 L26.7131148,10.9790164 L28.7931148,10.9790164 L28.7931148,8.31901639 L30.5931148,8.31901639 L30.5931148,10.9790164 L33.1731148,10.9790164 L33.1731148,12.5390164 Z M35.4931148,10.9790164 L37.2931148,10.9790164 L37.2931148,12.3390164 L37.3331148,12.3390164 C37.6797832,11.8323472 38.1564451,11.4390178 38.7631148,11.1590164 C39.3697845,10.879015 39.9931116,10.7390164 40.6331148,10.7390164 C41.3664518,10.7390164 42.0297785,10.8656818 42.6231148,11.1190164 C43.2164511,11.372351 43.7231127,11.7256808 44.1431148,12.1790164 C44.5631169,12.632352 44.886447,13.1623467 45.1131148,13.7690164 C45.3397826,14.3756861 45.4531148,15.0256796 45.4531148,15.7190164 C45.4531148,16.4256866 45.3397826,17.0823467 45.1131148,17.6890164 C44.886447,18.2956861 44.5631169,18.8223475 44.1431148,19.2690164 C43.7231127,19.7156853 43.2164511,20.0656818 42.6231148,20.3190164 C42.0297785,20.572351 41.3664518,20.6990164 40.6331148,20.6990164 C39.9531114,20.6990164 39.3131178,20.5556845 38.7131148,20.2690164 C38.1131118,19.9823483 37.6531164,19.5923522 37.3331148,19.0990164 L37.2931148,19.0990164 L37.2931148,26.0990164 L35.4931148,26.0990164 L35.4931148,10.9790164 Z M40.4131148,12.4190164 C39.9331124,12.4190164 39.4997834,12.5023489 39.1131148,12.6690164 C38.7264462,12.8356839 38.3997828,13.0623483 38.1331148,13.3490164 C37.8664468,13.6356845 37.6597822,13.9823477 37.5131148,14.3890164 C37.3664474,14.7956851 37.2931148,15.239014 37.2931148,15.7190164 C37.2931148,16.1990188 37.3664474,16.6423477 37.5131148,17.0490164 C37.6597822,17.4556851 37.8664468,17.8023483 38.1331148,18.0890164 C38.3997828,18.3756845 38.7264462,18.6023489 39.1131148,18.7690164 C39.4997834,18.9356839 39.9331124,19.0190164 40.4131148,19.0190164 C40.8931172,19.0190164 41.3264462,18.9356839 41.7131148,18.7690164 C42.0997834,18.6023489 42.4264468,18.3756845 42.6931148,18.0890164 C42.9597828,17.8023483 43.1664474,17.4556851 43.3131148,17.0490164 C43.4597822,16.6423477 43.5331148,16.1990188 43.5331148,15.7190164 C43.5331148,15.239014 43.4597822,14.7956851 43.3131148,14.3890164 C43.1664474,13.9823477 42.9597828,13.6356845 42.6931148,13.3490164 C42.4264468,13.0623483 42.0997834,12.8356839 41.7131148,12.6690164 C41.3264462,12.5023489 40.8931172,12.4190164 40.4131148,12.4190164 Z M52.7531148,13.3590164 C52.5397804,13.0923484 52.2764497,12.8690173 51.9631148,12.6890164 C51.6497799,12.5090155 51.2664504,12.4190164 50.8131148,12.4190164 C50.386446,12.4190164 50.0164497,12.5090155 49.7031148,12.6890164 C49.3897799,12.8690173 49.2331148,13.132348 49.2331148,13.4790164 C49.2331148,13.7590178 49.3231139,13.9856822 49.5031148,14.1590164 C49.6831157,14.3323506 49.8964469,14.4723492 50.1431148,14.5790164 C50.3897827,14.6856836 50.6531134,14.7656828 50.9331148,14.8190164 C51.2131162,14.87235 51.4531138,14.9190162 51.6531148,14.9590164 C52.0397834,15.0523502 52.4031131,15.1656824 52.7431148,15.2990164 C53.0831165,15.4323504 53.3764469,15.605682 53.6231148,15.8190164 C53.8697827,16.0323508 54.0631141,16.2923482 54.2031148,16.5990164 C54.3431155,16.9056846 54.4131148,17.2790142 54.4131148,17.7190164 C54.4131148,18.2523524 54.2997826,18.7090145 54.0731148,19.0890164 C53.846447,19.4690183 53.5531166,19.7790152 53.1931148,20.0190164 C52.833113,20.2590176 52.4231171,20.4323492 51.9631148,20.5390164 C51.5031125,20.6456836 51.0397838,20.6990164 50.5731148,20.6990164 C49.7864442,20.6990164 49.0964511,20.5790176 48.5031148,20.3390164 C47.9097785,20.0990152 47.3797838,19.6590196 46.9131148,19.0190164 L48.2731148,17.8990164 C48.5664496,18.1923512 48.893113,18.4523486 49.2531148,18.6790164 C49.6131166,18.9056842 50.0531122,19.0190164 50.5731148,19.0190164 C50.7997826,19.0190164 51.0297803,18.9956833 51.2631148,18.9490164 C51.4964493,18.9023495 51.7031139,18.8290169 51.8831148,18.7290164 C52.0631157,18.6290159 52.2097809,18.5023505 52.3231148,18.3490164 C52.4364487,18.1956823 52.4931148,18.0190174 52.4931148,17.8190164 C52.4931148,17.5523484 52.4097823,17.3323506 52.2431148,17.1590164 C52.0764473,16.9856822 51.8764493,16.8490169 51.6431148,16.7490164 C51.4097803,16.6490159 51.1631161,16.5690167 50.9031148,16.5090164 C50.6431135,16.4490161 50.4131158,16.3990166 50.2131148,16.3590164 C49.8264462,16.2656826 49.4597832,16.159017 49.1131148,16.0390164 C48.7664464,15.9190158 48.4597828,15.7590174 48.1931148,15.5590164 C47.9264468,15.3590154 47.7131156,15.1056846 47.5531148,14.7990164 C47.393114,14.4923482 47.3131148,14.112352 47.3131148,13.6590164 C47.3131148,13.1656806 47.4164471,12.7356849 47.6231148,12.3690164 C47.8297825,12.0023479 48.1031131,11.6990176 48.4431148,11.4590164 C48.7831165,11.2190152 49.1697793,11.039017 49.6031148,10.9190164 C50.0364503,10.7990158 50.4731126,10.7390164 50.9131148,10.7390164 C51.553118,10.7390164 52.1664452,10.8590152 52.7531148,11.0990164 C53.3397844,11.3390176 53.8064464,11.7390136 54.1531148,12.2990164 L52.7531148,13.3590164 Z M58.0131148,13.4990164 C57.653113,13.4990164 57.3431161,13.3690177 57.0831148,13.1090164 C56.8231135,12.8490151 56.6931148,12.5390182 56.6931148,12.1790164 C56.6931148,11.8190146 56.8231135,11.5090177 57.0831148,11.2490164 C57.3431161,10.9890151 57.653113,10.8590164 58.0131148,10.8590164 C58.3731166,10.8590164 58.6831135,10.9890151 58.9431148,11.2490164 C59.2031161,11.5090177 59.3331148,11.8190146 59.3331148,12.1790164 C59.3331148,12.5390182 59.2031161,12.8490151 58.9431148,13.1090164 C58.6831135,13.3690177 58.3731166,13.4990164 58.0131148,13.4990164 Z M56.6931148,19.2590164 C56.6931148,18.8990146 56.8231135,18.5890177 57.0831148,18.3290164 C57.3431161,18.0690151 57.653113,17.9390164 58.0131148,17.9390164 C58.3731166,17.9390164 58.6831135,18.0690151 58.9431148,18.3290164 C59.2031161,18.5890177 59.3331148,18.8990146 59.3331148,19.2590164 C59.3331148,19.6190182 59.2031161,19.9290151 58.9431148,20.1890164 C58.6831135,20.4490177 58.3731166,20.5790164 58.0131148,20.5790164 C57.653113,20.5790164 57.3431161,20.4490177 57.0831148,20.1890164 C56.8231135,19.9290151 56.6931148,19.6190182 56.6931148,19.2590164 Z M62.1931148,21.3390164 L60.7931148,20.8190164 L67.1931148,5.41901639 L68.5731148,5.93901639 L62.1931148,21.3390164 Z M69.9731148,21.3390164 L68.5731148,20.8190164 L74.9731148,5.41901639 L76.3531148,5.93901639 L69.9731148,21.3390164 Z M76.5731148,10.9790164 L78.5931148,10.9790164 L80.7331148,18.0590164 L80.7731148,18.0590164 L83.0331148,10.9790164 L84.9331148,10.9790164 L87.3331148,18.0590164 L87.3731148,18.0590164 L89.4131148,10.9790164 L91.3131148,10.9790164 L88.2531148,20.4590164 L86.4331148,20.4590164 L83.9331148,13.3790164 L83.8931148,13.3790164 L81.6331148,20.4590164 L79.6931148,20.4590164 L76.5731148,10.9790164 Z" id="https://w" fill="#536776" fill-rule="nonzero"></path>
                    </g>
                    <rect id="Rectangle" fill="#B2CAD4" x="1" y="59.3508686" width="45.0819672" height="15"></rect>
                    <rect id="Rectangle" fill="#85C2DB" x="54.4262295" y="58.6295571" width="45.0819672" height="16"></rect>
                    <rect id="Rectangle" fill="#B2CAD4" x="0.819672131" y="83.3606557" width="98.3606557" height="16"></rect>
                    <rect id="Rectangle" fill="#B2CAD4" x="1" y="36" width="98.3606557" height="14"></rect>
                </g>
            </g>
        </g>
    </g>
</svg>