
<svg width="19px" height="19px" viewBox="0 0 19 19" version="1.1" xmlns="http://www.w3.org/2000/svg" xmlns:xlink="http://www.w3.org/1999/xlink">
    <defs>
        <path d="M9.30412034,1.94630252 C9.30412034,1.27454342 9.24249284,0.628543417 9.12789398,0.00846218487 L0.000598853868,0.00846218487 L0.000598853868,3.67317367 L5.21623496,3.67317367 C4.99155587,4.85740056 4.30875358,5.86083473 3.28242693,6.53259384 L3.28242693,8.90972269 L6.41437822,8.90972269 C8.2469255,7.26034174 9.30412034,4.83158824 9.30412034,1.94630252 L9.30412034,1.94630252 Z" id="path-1"></path>
        <path d="M8.71120057,7.69239216 C11.3278109,7.69239216 13.5215759,6.84404482 15.1249799,5.39711765 L11.9930287,3.0199888 C11.1251805,3.58844538 10.0151232,3.92432493 8.71120057,3.92432493 C6.18708596,3.92432493 4.05059312,2.2577535 3.2885788,0.0184145658 L0.0508481375,0.0184145658 L0.0508481375,2.47308683 C1.64548711,5.56939496 4.92279656,7.69239216 8.71120057,7.69239216 L8.71120057,7.69239216 Z" id="path-3"></path>
        <path d="M4.26852149,6.08564146 C4.07465616,5.5172381 3.96452149,4.91003641 3.96452149,4.28559104 C3.96452149,3.66119888 4.07465616,3.0539972 4.26852149,2.48554062 L4.26852149,0.0309747899 L1.03079083,0.0309747899 C0.374446991,1.30993557 0,2.75686275 0,4.28559104 C0,5.81437255 0.374446991,7.26135294 1.03079083,8.54031373 L4.26852149,6.08564146 L4.26852149,6.08564146 Z" id="path-5"></path>
        <path d="M8.71120057,3.79536975 C10.1340229,3.79536975 11.4115415,4.27340336 12.4158739,5.21217367 L15.1954814,2.49485434 C13.5171117,0.96612605 11.3234011,0.027302521 8.71120057,0.027302521 C4.92279656,0.027302521 1.64548711,2.15035294 0.0508481375,5.24666106 L3.2885788,7.70122689 C4.05059312,5.46194118 6.18708596,3.79536975 8.71120057,3.79536975 L8.71120057,3.79536975 Z" id="path-7"></path>
    </defs>
    <g id="Page-1" stroke="none" stroke-width="1" fill="none" fill-rule="evenodd">
        <g id="Desktop-Copy" transform="translate(-479.000000, -441.000000)">
            <g id="Group" transform="translate(479.000000, 441.000000)">
                <g id="Group-17" transform="translate(9.690544, 7.770308)">
                    <mask id="mask-2" fill="white">
                        <use xlink:href="#path-1"></use>
                    </mask>
                    <g id="Clip-16"></g>
                    <polygon id="Fill-15" fill="#5070A8" mask="url(#mask-2)" points="0.000598853868 8.90972269 9.30412034 8.90972269 9.30412034 0.00846218487 0.000598853868 0.00846218487"></polygon>
                </g>
                <g id="Group-20" transform="translate(0.979943, 11.282913)">
                    <mask id="mask-4" fill="white">
                        <use xlink:href="#path-3"></use>
                    </mask>
                    <g id="Clip-19"></g>
                    <polygon id="Fill-18" fill="#2F9E4F" mask="url(#mask-4)" points="0.0508481375 7.69239216 15.1249799 7.69239216 15.1249799 0.0184145658 0.0508481375 0.0184145658"></polygon>
                </g>
                <g id="Group-23" transform="translate(0.000000, 5.215686)">
                    <mask id="mask-6" fill="white">
                        <use xlink:href="#path-5"></use>
                    </mask>
                    <g id="Clip-22"></g>
                    <polygon id="Fill-21" fill="#EFB529" mask="url(#mask-6)" points="0 8.54031373 4.26852149 8.54031373 4.26852149 0.0309747899 0 0.0309747899"></polygon>
                </g>
                <g id="Group-26" transform="translate(0.979943, 0.000000)">
                    <mask id="mask-8" fill="white">
                        <use xlink:href="#path-7"></use>
                    </mask>
                    <g id="Clip-25"></g>
                    <polygon id="Fill-24" fill="#D53E36" mask="url(#mask-8)" points="0.0508481375 7.70122689 15.1954814 7.70122689 15.1954814 0.027302521 0.0508481375 0.027302521"></polygon>
                </g>
            </g>
        </g>
    </g>
</svg>