<?xml version="1.0" encoding="UTF-8"?>
<svg width="50px" height="50px" viewBox="0 0 50 50" version="1.1" xmlns="http://www.w3.org/2000/svg" xmlns:xlink="http://www.w3.org/1999/xlink">
    <!-- Generator: Sketch 42 (36781) - http://www.bohemiancoding.com/sketch -->
    <title>Illustration / Sources / iOS</title>
    <desc>Created with Sketch.</desc>
    <defs></defs>
    <g id="Symbols" stroke="none" stroke-width="1" fill="none" fill-rule="evenodd">
        <g id="Illustration-/-Sources-/-iOS" fill="#3D556B">
            <g transform="translate(7.000000, 1.000000)" id="ios">
                <g>
                    <path d="M27.9211321,12.1247042 C24.6476622,11.6537212 22.4524955,12.8229159 20.517609,13.5211277 C19.3911056,13.9246307 18.3472309,14.176648 17.2289904,13.8488878 C15.3946353,13.3104247 13.1829429,12.0820128 10.9629877,12.1150642 C9.18647265,12.1494928 6.92382597,12.5529958 5.04815659,14.1518594 C3.50851021,15.4546371 2.35721829,16.8345348 1.53230936,18.324604 C-1.31149186,23.5040405 0.354851714,32.2103414 2.97004712,37.1570407 C5.18311665,41.3366711 7.82447778,45.0480727 10.6338504,45.5851586 C12.5095198,45.9473473 13.8302004,45.3414042 15.4703782,44.6349296 C17.1862989,43.9022893 19.3401513,43.5910549 21.1400778,44.1887351 C24.387382,45.2656613 26.8524688,47.124805 30.579019,43.4657348 C33.2369058,40.8491623 35.2475353,36.5593604 36.21429,33.867045 C28.7694525,30.8896609 28.7419096,21.2565424 35.5890669,17.2518093 L35.0533581,16.4296546 C33.0688943,13.7566192 30.6285962,12.5116815 27.9211321,12.1247042 Z M26.9777889,0.24821911 C27.3909319,6.44811892 22.1991011,10.6800807 18.0538993,10.4859035 C17.6242306,4.85063252 22.4538726,0.626933558 26.9777889,0.24821911 Z" id="Shape"></path>
                </g>
            </g>
        </g>
    </g>
</svg>