<svg width="100px" height="100px" viewBox="0 0 100 100" version="1.1" xmlns="http://www.w3.org/2000/svg" xmlns:xlink="http://www.w3.org/1999/xlink">
    <g id="Page-1" stroke="none" stroke-width="1" fill="none" fill-rule="evenodd">
        <g id="Settings" transform="translate(-294.000000, -323.000000)">
            <g id="Group-2" transform="translate(222.000000, 264.000000)">
                <g id="Group-4" transform="translate(72.000000, 59.000000)">
                    <path d="M45.3047198,63.87172 C45.3047198,65.7154358 45.144808,67.5026846 44.8249798,69.2335199 C44.5051515,70.9643552 43.8937243,72.4976266 42.9906798,73.8333799 C42.0876353,75.1691332 40.7989348,76.2414825 39.1245398,77.0504599 C37.4501448,77.8594373 35.2584134,78.2639199 32.5492798,78.2639199 C29.388624,78.2639199 26.7171574,77.5113941 24.5347999,76.0063199 C22.3524423,74.5012457 20.9414564,72.1496026 20.3017999,68.9513199 L28.3727199,66.9759199 C28.4856004,67.9542182 28.9277093,68.7819965 29.6990598,69.4592799 C30.4704104,70.1365633 31.3452216,70.4751999 32.3235198,70.4751999 C33.3394449,70.4751999 34.129597,70.2212225 34.6939998,69.7132599 C35.2584026,69.2052974 35.6722918,68.575057 35.9356798,67.8225199 C36.1990678,67.0699828 36.3589795,66.251611 36.4154198,65.36738 C36.4718601,64.4831489 36.5000798,63.6647771 36.5000798,62.91224 L36.5000798,37.2884801 L45.3047198,37.2884801 L45.3047198,63.87172 Z M72.6216796,47.0526 C71.9067694,46.1495555 70.9378924,45.4816889 69.7150196,45.0489801 C68.4921469,44.6162712 67.3351384,44.3999201 66.2439597,44.3999201 C65.6043031,44.3999201 64.945843,44.4751726 64.2685597,44.6256801 C63.5912763,44.7761875 62.9516293,45.0113518 62.3495997,45.3311801 C61.74757,45.6510083 61.2584282,46.0743041 60.8821597,46.60108 C60.5058911,47.127856 60.3177597,47.7675029 60.3177597,48.52004 C60.3177597,49.7240994 60.7692752,50.6459435 61.6723197,51.2856 C62.5753642,51.9252566 63.7135595,52.4708378 65.0869397,52.92236 C66.4603199,53.3738823 67.9371517,53.8253978 69.5174796,54.27692 C71.0978075,54.7284423 72.5746394,55.3680892 73.9480196,56.19588 C75.3213998,57.0236708 76.4595951,58.1336464 77.3626396,59.52584 C78.2656841,60.9180336 78.7171996,62.780535 78.7171996,65.1134 C78.7171996,67.3333844 78.3033104,69.2711383 77.4755196,70.9267199 C76.6477288,72.5823015 75.5283467,73.9556611 74.1173396,75.0468399 C72.7063326,76.1380187 71.0695889,76.9469839 69.2070596,77.4737599 C67.3445303,78.0005359 65.3785567,78.2639199 63.3090797,78.2639199 C60.7128267,78.2639199 58.3047441,77.8688438 56.0847597,77.0786799 C53.8647753,76.2885159 51.7953293,75.0092221 49.8763597,73.2407599 L56.1411997,66.3550799 C57.0442442,67.5591393 58.1824395,68.49039 59.5558197,69.1488599 C60.9291999,69.8073299 62.3495923,70.1365599 63.8170397,70.1365599 C64.5319499,70.1365599 65.256256,70.0519008 65.9899797,69.8825799 C66.7237033,69.7132591 67.3821634,69.4592816 67.9653796,69.1206399 C68.5485959,68.7819982 69.0189245,68.3492959 69.3763796,67.8225199 C69.7338348,67.295744 69.9125596,66.6749102 69.9125596,65.9599999 C69.9125596,64.7559406 69.4516376,63.8058768 68.5297796,63.10978 C67.6079217,62.4136832 66.4509133,61.8210691 65.0587197,61.33192 C63.666526,60.8427709 62.1614744,60.3536291 60.5435197,59.86448 C58.9255649,59.3753309 57.4205133,58.7168708 56.0283197,57.88908 C54.6361261,57.0612892 53.4791177,55.9701268 52.5572597,54.61556 C51.6354018,53.2609932 51.1744797,51.4737445 51.1744797,49.25376 C51.1744797,47.1090293 51.5977755,45.2277148 52.4443797,43.6097601 C53.290984,41.9918053 54.4197727,40.6372589 55.8307797,39.5460801 C57.2417868,38.4549013 58.8691238,37.6365295 60.7128397,37.0909401 C62.5565556,36.5453507 64.4566832,36.2725601 66.4132797,36.2725601 C68.6708909,36.2725601 70.8532158,36.5923836 72.9603196,37.2320401 C75.0674235,37.8716966 76.9675511,38.9440459 78.6607596,40.4491201 L72.6216796,47.0526 Z" id="JS" fill="#536776" fill-rule="nonzero"></path>
                    <rect id="Rectangle" stroke="#5E737C" stroke-width="1.99199999" x="0.995999995" y="0.995999995" width="97.6079995" height="97.6079995"></rect>
                    <rect id="Rectangle" stroke="#5E737C" stroke-width="1.99199999" fill="#B2CAD4" x="0.995999995" y="0.995999995" width="97.6079995" height="14.6079999"></rect>
                </g>
            </g>
        </g>
    </g>
</svg>