<svg width="42px" height="42px" viewBox="0 0 42 42" version="1.1" xmlns="http://www.w3.org/2000/svg" xmlns:xlink="http://www.w3.org/1999/xlink">
    <g id="Page-1" stroke="none" stroke-width="1" fill="none" fill-rule="evenodd">
        <g id="Settings" transform="translate(-25.000000, -23.000000)">
            <g id="Group-7" transform="translate(25.000000, 23.000000)">
                <g id="factors-icon" fill="#1E8BC3" fill-rule="nonzero">
                    <circle id="Oval" cx="21" cy="21" r="21"></circle>
                </g>
                <g id="Group-6" transform="translate(7.000000, 8.555556)" fill="#FAFAFA">
                    <path d="M7.71244444,21.5833333 C7.66111111,21.5833333 7.60977778,21.5872222 7.55922222,21.5911111 L3.15388889,13.9618889 C3.44711111,13.6398889 3.62755556,13.2136667 3.62755556,12.7438889 C3.62755556,12.2741111 3.44711111,11.8471111 3.15388889,11.5251111 L7.714,3.62677778 C8.715,3.626 9.52622222,2.81477778 9.52622222,1.81377778 C9.52622222,0.812 8.71422222,0 7.71244444,0 C6.71066667,0 5.89866667,0.812 5.89866667,1.81377778 C5.89866667,2.26644444 6.06666667,2.67944444 6.34044444,2.99755556 L1.75933333,10.9324444 C0.783222222,10.962 3.43369777e-12,11.76 3.43369777e-12,12.7438889 C3.43369777e-12,13.727 0.783222222,14.5257778 1.75933333,14.5545556 L6.24866667,22.33 C6.02933333,22.6294444 5.89866667,22.9973333 5.89866667,23.3971111 C5.89866667,24.3988889 6.71066667,25.2108889 7.71244444,25.2108889 C8.71422222,25.2108889 9.52622222,24.3988889 9.52622222,23.3971111 C9.52622222,22.3953333 8.71422222,21.5833333 7.71244444,21.5833333" id="Fill-83" stroke="#FFFFFF" stroke-width="1.05"></path>
                    <path d="M26.6466667,10.9308889 L22.078,3.01855556 C22.3642222,2.69811111 22.5392222,2.27655556 22.5392222,1.81377778 C22.5392222,0.812 21.7272222,0 20.7254444,0 C19.7236667,0 18.9116667,0.812 18.9116667,1.81377778 C18.9116667,2.80388889 19.7057778,3.60733333 20.692,3.62522222 L25.2645556,11.5461111 C24.983,11.8657778 24.8111111,12.2842222 24.8111111,12.7438889 C24.8111111,13.2027778 24.983,13.6212222 25.2645556,13.9408889 L20.8491111,21.5895556 C20.8078889,21.5864444 20.7674444,21.5833333 20.7254444,21.5833333 C19.7236667,21.5833333 18.9116667,22.3953333 18.9116667,23.3971111 C18.9116667,24.3988889 19.7236667,25.2108889 20.7254444,25.2108889 C21.7272222,25.2108889 22.5392222,24.3988889 22.5392222,23.3971111 C22.5392222,22.9872222 22.4015556,22.61 22.1721111,22.3058889 L26.6466667,14.5561111 C27.6375556,14.5444444 28.4386667,13.7378889 28.4386667,12.7438889 C28.4386667,11.7491111 27.6375556,10.9425556 26.6466667,10.9308889 Z" id="Fill-84" stroke="#FFFFFF" stroke-width="1.05"></path>
                    <path d="M16.2355728,6.80761686 L10.8940854,17.283479 C10.7627658,17.5406269 10.8425486,17.8688654 11.0719863,18.0160451 C11.3019195,18.1632248 11.5947871,18.0738062 11.7261067,17.8161029 L17.0675941,7.34079615 C17.1989137,7.08309283 17.1191308,6.75485433 16.8891976,6.60767463 C16.6592644,6.46049493 16.3668924,6.55046894 16.2355728,6.80761686 Z" id="Fill-85" stroke="#FFF7F7" stroke-width="1.575"></path>
                </g>
            </g>
        </g>
    </g>
</svg>