
<svg width="440px" height="486px" viewBox="0 0 440 486" version="1.1" xmlns="http://www.w3.org/2000/svg" xmlns:xlink="http://www.w3.org/1999/xlink">
    <defs>
        <polygon id="path-1" points="0.0509363296 0.357281523 150.660325 0.357281523 150.660325 36.4805957 0.0509363296 36.4805957"></polygon>
        <ellipse id="path-3" cx="36.0620299" cy="35.5099894" rx="36.0620299" ry="35.5099894"></ellipse>
    </defs>
    <g id="Page-1" stroke="none" stroke-width="1" fill="none" fill-rule="evenodd">
        <g id="Login" transform="translate(-280.000000, -269.000000)">
            <g id="Group-5" transform="translate(280.000000, 269.000000)">
                <rect id="Rectangle" fill="#1B2E53" x="0" y="0" width="440" height="486"></rect>
                <g id="Group-9" transform="translate(133.000000, 206.000000)">
                    <path d="M50.0924844,2.09117306 C50.8769039,2.09117306 51.2826966,2.14110638 52.0934332,2.24183394 L52.0934332,4.63691152 C51.7648939,4.61194486 51.3208989,4.5112173 51.0042447,4.5112173 C49.8386517,4.5112173 49.6612235,5.36783203 49.6612235,6.52749037 L49.6612235,7.73708203 L52.0934332,7.73708203 L52.0934332,10.1571263 L49.6612235,10.1571263 L49.6612235,23.8707103 L46.4165793,23.8707103 L46.4165793,10.1571263 L44.7951061,10.1571263 L44.7951061,7.73708203 L46.4165793,7.73708203 L46.4165793,7.11980287 C46.4165793,3.99380478 46.9369788,2.09117306 50.0924844,2.09117306" id="Fill-1" fill="#FFFFFF"></path>
                    <path d="M57.5648439,19.4464459 C57.5648439,20.6568984 58.0207241,21.4506661 59.187166,21.4506661 C59.9715855,21.4506661 60.4665169,20.7197455 60.8086392,20.2660411 L60.8086392,15.8038962 C59.5284395,16.6605109 57.5648439,17.4930199 57.5648439,19.4464459 Z M64.0524345,12.5771705 L64.0524345,19.8373032 C64.0524345,21.4885465 64.1526092,22.7239658 64.4701124,23.8707103 L61.2390512,23.8707103 L60.8086392,21.4506661 C60.1617478,22.7239658 59.4401498,24.0971321 57.5648439,24.0971321 C55.6895381,24.0971321 54.3210487,22.1815866 54.3210487,20.3039215 C54.3210487,16.1069398 57.6786017,14.9593343 60.8086392,13.7368289 L60.8086392,12.5771705 C60.8086392,11.1532099 60.5420724,10.0064654 59.187166,10.0064654 C57.855181,10.0064654 57.5648439,11.1652628 57.5648439,12.5771705 L54.3210487,12.5771705 C54.358402,9.52693332 56.106367,7.51066025 59.187166,7.51066025 C62.2654182,7.51066025 64.0524345,9.57772756 64.0524345,12.5771705 L64.0524345,12.5771705 Z" id="Fill-2" fill="#FFFFFF"></path>
                    <path d="M72.9043196,21.4506661 C74.5257928,21.4506661 74.5257928,19.8373032 74.5257928,18.2239404 L77.769588,18.2239404 C77.769588,21.7657625 76.5148564,24.0971321 72.9043196,24.0971321 C68.5068165,24.0971321 68.0382022,20.1644526 68.0382022,15.8038962 C68.0382022,11.4433398 68.5068165,7.51066025 72.9043196,7.51066025 C76.6167291,7.51066025 77.769588,9.71633557 77.769588,13.3838519 L74.5257928,13.3838519 C74.5257928,11.8712167 74.3993009,10.0185183 72.9043196,10.0185183 C70.9526092,10.0185183 71.2819975,13.7617955 71.2819975,15.8038962 C71.2819975,17.833083 70.914407,21.4506661 72.9043196,21.4506661" id="Fill-3" fill="#FFFFFF"></path>
                    <path d="M85.6460424,24.0971321 C83.0347066,24.0971321 81.9973034,22.7360186 81.9709863,20.1902802 L81.9709863,10.1571263 L80.3486642,10.1571263 L80.3486642,7.73708203 L81.9709863,7.73708203 L81.9709863,2.09117306 L85.2147815,2.09117306 L85.2147815,7.73708203 L87.6469913,7.73708203 L87.6469913,10.1571263 L85.2147815,10.1571263 L85.2147815,19.573001 C85.2147815,20.7197455 85.3930587,21.4506661 86.5578027,21.4506661 C86.8625718,21.4506661 87.3566542,21.3749052 87.6469913,21.3241109 L87.6469913,23.9464712 C86.8362547,24.0471988 86.4304619,24.0971321 85.6460424,24.0971321" id="Fill-4" fill="#FFFFFF"></path>
                    <path d="M94.1439201,13.3838519 L94.1439201,18.2239404 C94.1439201,19.8373032 94.1439201,21.4506661 95.7653933,21.4506661 C97.3877154,21.4506661 97.3877154,19.8373032 97.3877154,18.2239404 L97.3877154,13.3838519 C97.3877154,11.7704891 97.3877154,10.1571263 95.7653933,10.1571263 C94.1439201,10.1571263 94.1439201,11.7704891 94.1439201,13.3838519 Z M90.8992759,18.2239404 L90.8992759,13.3838519 C90.8992759,9.80414935 92.1158052,7.51066025 95.7653933,7.51066025 C99.4149813,7.51066025 100.631511,9.80414935 100.631511,13.3838519 L100.631511,18.2239404 C100.631511,21.803643 99.4149813,24.0971321 95.7653933,24.0971321 C92.1158052,24.0971321 90.8992759,21.803643 90.8992759,18.2239404 L90.8992759,18.2239404 Z" id="Fill-5" fill="#FFFFFF"></path>
                    <path d="M111.625268,7.51066025 C111.789963,7.51066025 111.90372,7.53648783 112.14397,7.56059357 L112.14397,11.1273824 C111.663471,10.938841 110.979226,10.7752664 110.345069,10.7752664 C109.002047,10.7752664 108.089438,11.6447949 108.089438,12.9809417 L108.089438,23.8707103 L104.845643,23.8707103 L104.845643,7.73708203 L108.089438,7.73708203 L108.089438,9.89282404 C108.672659,8.77104615 109.952859,7.51066025 111.625268,7.51066025" id="Fill-6" fill="#FFFFFF"></path>
                    <path d="M119.108664,10.1571263 C118.083146,10.1571263 117.487191,10.7373859 117.487191,11.7704891 C117.487191,12.400682 117.94392,12.8673003 118.297928,13.1316026 L121.541723,15.5516468 C122.821923,16.5726971 123.974782,17.7952026 123.974782,19.8373032 C123.974782,22.6602577 121.985718,24.0971321 119.108664,24.0971321 C116.258777,24.0971321 114.788414,22.1307923 114.243396,19.8373032 L116.676454,19.0306218 C117.043196,20.0516721 117.741024,21.4506661 119.108664,21.4506661 C120.135031,21.4506661 120.730986,20.8704064 120.730986,19.8373032 C120.730986,18.9548609 120.376979,18.3875151 119.92025,17.971691 L116.676454,15.5516468 C115.44804,14.7070849 114.243396,13.6868955 114.243396,11.7704891 C114.243396,8.94753461 116.232459,7.51066025 119.108664,7.51066025 C122.011186,7.51066025 123.430612,9.477 123.974782,11.7704891 L121.541723,12.5771705 C121.149513,11.5569811 120.503471,10.1571263 119.108664,10.1571263" id="Fill-7" fill="#FFFFFF"></path>
                    <polygon id="Fill-8" fill="#2E9DC3" points="126.948614 23.8707103 130.192409 23.8707103 130.192409 20.6439846 126.948614 20.6439846"></polygon>
                    <path d="M136.499176,19.4464459 C136.499176,20.6568984 136.955056,21.4506661 138.121498,21.4506661 C138.905918,21.4506661 139.401698,20.7197455 139.74382,20.2660411 L139.74382,15.8038962 C138.46362,16.6605109 136.499176,17.4930199 136.499176,19.4464459 Z M142.987615,12.5771705 L142.987615,19.8373032 C142.987615,21.4885465 143.08779,22.7239658 143.404444,23.8707103 L140.174232,23.8707103 L139.74382,21.4506661 C139.09608,22.7239658 138.375331,24.0971321 136.499176,24.0971321 C134.62387,24.0971321 133.255381,22.1815866 133.255381,20.3039215 C133.255381,16.1069398 136.612934,14.9593343 139.74382,13.7368289 L139.74382,12.5771705 C139.74382,11.1532099 139.476404,10.0064654 138.121498,10.0064654 C136.790362,10.0064654 136.499176,11.1652628 136.499176,12.5771705 L133.255381,12.5771705 C133.292734,9.52693332 135.041548,7.51066025 138.121498,7.51066025 C141.200599,7.51066025 142.987615,9.57772756 142.987615,12.5771705 L142.987615,12.5771705 Z" id="Fill-9" fill="#2E9DC3"></path>
                    <path d="M147.416529,23.8698494 L150.660325,23.8698494 L150.660325,7.73708203 L147.416529,7.73708203 L147.416529,23.8698494 Z M147.416529,5.31789871 L150.660325,5.31789871 L150.660325,2.09117306 L147.416529,2.09117306 L147.416529,5.31789871 Z" id="Fill-10" fill="#2E9DC3"></path>
                    <path d="M47.0643196,28.6677528 L46.2977278,31.1110419 L47.8478901,31.1110419 L47.0643196,28.6677528 Z M47.4836954,27.6587554 L49.3505119,33.1135402 L48.4752559,33.1135402 L48.0643695,31.835075 L46.073608,31.835075 L45.6627216,33.1135402 L44.7951061,33.1135402 L46.6619226,27.6587554 L47.4836954,27.6587554 L47.4836954,27.6587554 Z" id="Fill-11" fill="#FFFFFF"></path>
                    <path d="M52.7377778,29.2385423 C52.7632459,29.3151642 52.7819226,29.3874814 52.7921099,29.4546331 C52.8022971,29.5209239 52.8099376,29.6233733 52.8150312,29.7628422 C52.8303121,29.7421801 52.8464419,29.7215181 52.8617228,29.700856 C52.8770037,29.6810549 52.8931336,29.6595319 52.9084145,29.6388698 C52.943221,29.5923802 52.9924594,29.5433078 53.054432,29.4890699 C53.1164045,29.4348319 53.1911111,29.3823159 53.2794007,29.3306607 C53.3676904,29.2798665 53.469563,29.2376814 53.5858677,29.2041056 C53.7021723,29.1705297 53.8337578,29.1541722 53.98402,29.1541722 C54.0103371,29.1541722 54.0510861,29.1550332 54.107965,29.1576159 C54.1648439,29.1601987 54.2302122,29.1688079 54.302372,29.1851653 C54.3745318,29.199801 54.4526342,29.2230458 54.5349813,29.2540389 C54.6181773,29.285032 54.6979775,29.3263561 54.775231,29.3771503 C54.9034207,29.4692687 55.0018976,29.5751618 55.0689638,29.6931077 C55.13603,29.8110537 55.1827216,29.935887 55.2090387,30.0667467 C55.2345069,30.1976065 55.2489388,30.3327708 55.2514856,30.4713788 C55.2540325,30.6099868 55.2557303,30.7460121 55.2557303,30.8794546 L55.2557303,33.1135402 L54.4492385,33.1135402 L54.4492385,31.0180626 C54.4492385,30.7916408 54.4441448,30.618596 54.4339576,30.4980673 C54.4237703,30.3775386 54.3898127,30.2682019 54.3329338,30.170918 C54.2921848,30.0986007 54.2327591,30.0348927 54.1546567,29.978072 C54.0977778,29.9367479 54.0341074,29.9074767 53.9644944,29.8902583 C53.8948814,29.871318 53.8252684,29.8627088 53.7522597,29.8627088 C53.6444444,29.8627088 53.5493633,29.8764836 53.469563,29.9048939 C53.3889139,29.9333042 53.3193009,29.967741 53.2598752,30.0090651 C53.2004494,30.0503893 53.151211,30.0934352 53.1121598,30.1399249 C53.0739576,30.1864145 53.0442447,30.2251559 53.0230212,30.2552881 C52.9661423,30.3534329 52.9279401,30.4558823 52.9084145,30.5634972 C52.887191,30.6711121 52.873608,30.8329649 52.8693633,31.0490557 L52.8693633,33.1135402 L52.0620225,33.1135402 L52.0620225,30.5944903 C52.0620225,30.3276053 52.0620225,30.1123755 52.0620225,29.9513835 C52.0620225,29.7895307 52.0492884,29.6500618 52.0238202,29.5312549 C52.0085393,29.4288055 51.984769,29.3306607 51.9550562,29.2385423 L52.7377778,29.2385423" id="Fill-12" fill="#FFFFFF"></path>
                    <path d="M60.5395256,31.1497832 C60.1897628,31.205743 59.9045194,31.2651464 59.6829463,31.3262717 C59.4622222,31.3882579 59.2949813,31.4777935 59.1829213,31.5957395 C59.0742572,31.7145463 59.020774,31.8531543 59.020774,32.0124244 C59.020774,32.1097083 59.0470911,32.2026876 59.0971785,32.2896404 C59.1387765,32.3456002 59.2049938,32.4067255 59.2941323,32.4704335 C59.3841199,32.5350025 59.5140075,32.5668565 59.6829463,32.5668565 C59.7092634,32.5668565 59.7491635,32.5642737 59.8034956,32.5591082 C59.8578277,32.5539427 59.9155556,32.5418898 59.9809238,32.5203668 C60.0454432,32.4997048 60.1099625,32.4695726 60.1770287,32.4282485 C60.2440949,32.3877852 60.3052185,32.3309646 60.3620974,32.2586473 C60.3986017,32.2121577 60.4274657,32.1648071 60.451236,32.1157347 C60.4733084,32.0675233 60.4911361,32.0124244 60.5038702,31.9504382 C60.5174532,31.889313 60.5259426,31.8169957 60.5310362,31.7352084 C60.5369788,31.6534211 60.5395256,31.557859 60.5395256,31.4493832 L60.5395256,31.1497832 Z M58.3144569,30.3327708 C58.3356804,30.1838318 58.3611486,30.0667467 58.3925593,29.9823766 C58.4231211,29.8971456 58.4570787,29.8265502 58.493583,29.7705905 C58.5861174,29.6164859 58.7066667,29.4968181 58.854382,29.4115871 C59.0012484,29.327217 59.1489638,29.2652308 59.2949813,29.2264895 C59.4426966,29.188609 59.5742821,29.1662251 59.6905868,29.1610596 C59.8068914,29.156755 59.8807491,29.1541722 59.9121598,29.1541722 C59.9325343,29.1541722 59.9766792,29.1550332 60.0437453,29.1576159 C60.1108115,29.1601987 60.1889139,29.1679469 60.2789014,29.1808607 C60.3697378,29.1937745 60.46397,29.2144366 60.5624469,29.2428469 C60.6609238,29.2712573 60.7534582,29.3108596 60.8417478,29.3616538 C60.8833458,29.3874814 60.9436205,29.4348319 61.0242697,29.5045664 C61.1040699,29.57344 61.1685893,29.6724457 61.2203745,29.8015836 C61.2568789,29.8885364 61.2840449,30.0013169 61.3018727,30.1399249 C61.3205493,30.2785329 61.3264919,30.4532995 61.3213983,30.6642247 L61.3213983,32.1811646 C61.3213983,32.4230829 61.3290387,32.6099024 61.3443196,32.7442059 C61.3604494,32.8776483 61.3935581,33.0007598 61.4453433,33.1135402 L60.7016729,33.1135402 C60.6660175,32.9852633 60.644794,32.8914231 60.6397004,32.8328805 C60.6346067,32.7734771 60.6320599,32.7080472 60.6320599,32.6365909 C60.5955556,32.6977162 60.5497129,32.7622852 60.492834,32.8285759 C60.4359551,32.8957277 60.3629463,32.955992 60.2755056,33.009369 C60.187216,33.0644678 60.0827965,33.1083747 59.9588514,33.1445333 C59.8340574,33.180692 59.6897378,33.1987713 59.5241948,33.1987713 C59.4876904,33.1987713 59.4214732,33.1961885 59.326392,33.1901621 C59.2304619,33.1858575 59.1260424,33.1677782 59.0088889,33.1367851 C58.8925843,33.105792 58.7754307,33.0558586 58.6565793,32.9869851 C58.5368789,32.9172506 58.4367041,32.8165231 58.3535081,32.6822197 C58.3178527,32.6314254 58.2813483,32.5582473 58.2422971,32.4626852 C58.2040949,32.3679841 58.1845693,32.2457336 58.1845693,32.0967945 C58.1845693,32.0460003 58.1896629,31.9797095 58.1998502,31.9005049 C58.2100375,31.8204394 58.2338077,31.7360693 58.2694632,31.6465337 C58.3042697,31.5561372 58.3586017,31.4640188 58.4316105,31.3693177 C58.5037703,31.2737556 58.5997004,31.1885246 58.7185518,31.1110419 C58.8374032,31.0335591 58.9740824,30.9681293 59.1294382,30.9138914 C59.2830961,30.8605144 59.4426966,30.8140247 59.6056929,30.7752833 C59.7686891,30.7374029 59.9316854,30.703827 60.0938327,30.6754167 C60.25598,30.6470064 60.4045443,30.6203179 60.5395256,30.5944903 L60.5395256,30.4860144 C60.5395256,30.3938961 60.5369788,30.3250225 60.5310362,30.2785329 C60.5259426,30.2329042 60.5157553,30.1864145 60.5004744,30.1399249 C60.4537828,30.0064824 60.36804,29.9169468 60.2440949,29.8704571 C60.1218477,29.8239675 59.9945069,29.8015836 59.8654682,29.8015836 C59.7253933,29.8015836 59.6090886,29.8162192 59.5165543,29.8472123 C59.423171,29.8782054 59.3467665,29.9195295 59.2873408,29.9703238 C59.2279151,30.021118 59.1854682,30.0787996 59.1566042,30.1399249 C59.1285893,30.2019111 59.1090637,30.26648 59.0988764,30.3327708 L58.3144569,30.3327708 L58.3144569,30.3327708 Z" id="Fill-13" fill="#FFFFFF"></path>
                    <polygon id="Fill-14" fill="#FFFFFF" points="64.4828464 33.1144012 65.3207491 33.1144012 65.3207491 27.6363715 64.4828464 27.6363715"></polygon>
                    <path d="M68.8990262,29.2462906 L69.8523845,32.3283818 L70.8439451,29.2462906 L71.6809988,29.2462906 L70.3787266,32.9370518 C70.3634457,32.9930115 70.3464669,33.0455276 70.3286392,33.0946 C70.3099625,33.1436724 70.290437,33.1961885 70.2717603,33.2521483 C70.219975,33.4019482 70.1690387,33.5310861 70.1198002,33.6421447 C70.0705618,33.7514815 70.0230212,33.8496263 69.9763296,33.9339964 C69.929638,34.0183665 69.8820974,34.0932664 69.8328589,34.1561136 C69.7836205,34.2198216 69.7309863,34.2775032 69.6741074,34.3282974 C69.5603496,34.4298859 69.4041448,34.524587 69.2054931,34.6141226 C69.0068414,34.7027973 68.73603,34.7475651 68.3947566,34.7475651 C68.3540075,34.7475651 68.3107116,34.7475651 68.26402,34.7475651 C68.2181773,34.7475651 68.1740325,34.7449824 68.1324345,34.7398169 L68.1324345,34.0459159 C68.2665668,34.0510814 68.4134332,34.0459159 68.5730337,34.0304193 C68.7334831,34.0157837 68.8735581,33.9658504 68.9924095,33.884063 C69.0857928,33.8229378 69.1596504,33.746316 69.2139825,33.6567803 C69.2674657,33.5672447 69.3302871,33.4243321 69.4024469,33.2289034 L68.0390512,29.2462906 L68.8990262,29.2462906" id="Fill-15" fill="#FFFFFF"></path>
                    <path d="M76.2678152,29.2385423 L76.2525343,29.8704571 L75.4001998,29.8704571 L75.368789,31.5931567 C75.368789,31.6706394 75.3679401,31.7481222 75.3653933,31.8256049 C75.3628464,31.9030877 75.3636954,31.9797095 75.368789,32.0571922 C75.368789,32.0675233 75.3704869,32.1010991 75.3730337,32.1579198 C75.3755805,32.2138795 75.3874657,32.2663956 75.4078402,32.3120243 C75.4282147,32.358514 75.4579276,32.3946726 75.4969788,32.4205002 C75.53603,32.4454668 75.5733833,32.4644071 75.6098876,32.4747381 C75.6455431,32.4850691 75.6795006,32.4910956 75.7100624,32.4936783 C75.7414732,32.4962611 75.7643945,32.497122 75.7805243,32.497122 C75.9146567,32.497122 76.0335081,32.4781818 76.1370787,32.4403013 C76.2389513,32.4024209 76.31196,32.3748715 76.3527091,32.3593749 L76.3450687,33.0369184 C76.3145069,33.0472495 76.284794,33.0575805 76.2559301,33.0679115 C76.2279151,33.0782426 76.1982022,33.0885736 76.1684894,33.0989046 C76.1251935,33.1135402 76.0479401,33.1333414 75.9316355,33.1565862 C75.8153308,33.179831 75.6896879,33.1901621 75.5555556,33.1901621 C75.4001998,33.1901621 75.2677653,33.1746655 75.160799,33.1410897 C75.0521348,33.1075138 74.9587516,33.0644678 74.8814981,33.009369 C74.8042447,32.955992 74.7431211,32.8957277 74.6989763,32.8285759 C74.6548315,32.7622852 74.6225718,32.6977162 74.6021973,32.6365909 C74.5605993,32.5281151 74.5385268,32.4239439 74.53598,32.3240772 C74.5334332,32.2242106 74.5325843,32.1561979 74.5325843,32.1200393 C74.5325843,32.0322256 74.5334332,31.9444118 74.53598,31.8540153 C74.5385268,31.7644797 74.5427715,31.675805 74.5478652,31.5888521 L74.5945568,29.8704571 L73.9986017,29.8704571 L74.0138826,29.2385423 L74.6174782,29.2385423 L74.6488889,28.121069 L75.4307615,28.121069 L75.4078402,29.2385423 L76.2678152,29.2385423" id="Fill-16" fill="#FFFFFF"></path>
                    <path d="M79.157603,33.1135402 L79.9955056,33.1135402 L79.9955056,29.2385423 L79.157603,29.2385423 L79.157603,33.1135402 Z M79.5693383,27.5821335 C79.6313109,27.576968 79.6958302,27.5855772 79.7628964,27.609683 C79.8299625,27.6320669 79.8876904,27.6639209 79.9335331,27.7061059 C79.9844694,27.7517346 80.0218227,27.8102772 80.0447441,27.8825944 C80.0685144,27.9549116 80.0795506,28.0237852 80.0795506,28.0900759 C80.0795506,28.239015 80.03201,28.3604046 79.9377778,28.452523 C79.8418477,28.5446414 79.7196005,28.591131 79.5693383,28.591131 C79.5430212,28.591131 79.5082147,28.5885482 79.4640699,28.5833827 C79.420774,28.5782172 79.3698377,28.5609988 79.3129588,28.5300057 C79.2560799,28.4990126 79.2110861,28.462854 79.1771286,28.4215299 C79.14402,28.3810667 79.1194007,28.3397426 79.1032709,28.2984184 C79.08799,28.2579552 79.0778027,28.2192138 79.0727091,28.1830552 C79.0676155,28.1468966 79.0650687,28.1184863 79.0650687,28.0986851 C79.0650687,28.0418645 79.0710112,27.9927921 79.0845943,27.9523289 C79.0973283,27.9110047 79.1092135,27.8800116 79.1194007,27.8593496 C79.1448689,27.7982243 79.1796754,27.7491519 79.2238202,27.7129933 C79.267965,27.6776956 79.3121099,27.6492852 79.3562547,27.6286232 C79.3995506,27.6079611 79.4411486,27.5950473 79.4801998,27.5898818 C79.518402,27.5847163 79.5481149,27.5821335 79.5693383,27.5821335 L79.5693383,27.5821335 Z" id="Fill-17" fill="#FFFFFF"></path>
                    <path d="M85.388814,30.5170075 C85.3777778,30.4300547 85.3557054,30.3387972 85.3225968,30.2440961 C85.2886392,30.1485341 85.2419476,30.0658858 85.179975,29.9935686 C85.139226,29.9470789 85.0781024,29.9005893 84.9991511,29.8549606 C84.9193508,29.8084709 84.8081398,29.7852261 84.6629713,29.7852261 C84.4779026,29.7852261 84.3250936,29.8317158 84.2053933,29.924695 C84.083995,30.0168134 83.9889139,30.1321766 83.9193009,30.2707846 C83.8496879,30.4093926 83.8004494,30.5609144 83.7732834,30.7262109 C83.7444195,30.8897856 83.7308365,31.0438902 83.7308365,31.1885246 C83.7308365,31.280643 83.736779,31.3787878 83.7495131,31.4846809 C83.7630961,31.589713 83.7834707,31.696467 83.8106367,31.8040819 C83.8395006,31.9116969 83.8768539,32.0132853 83.9235456,32.1088474 C83.9693883,32.2035485 84.027965,32.2844749 84.1001248,32.3516266 C84.1468165,32.3929508 84.2138826,32.4385795 84.3047191,32.4893737 C84.3955556,32.5418898 84.5169538,32.5668565 84.6723096,32.5668565 C84.8412484,32.5668565 84.9745318,32.5332806 85.0730087,32.4669898 C85.1697878,32.3998381 85.2436454,32.3214945 85.2928839,32.2319588 C85.3404245,32.1424232 85.374382,32.0520267 85.3922097,31.9616302 C85.4100375,31.8720946 85.4219226,31.8040819 85.4270162,31.7575923 L86.2097378,31.7653406 C86.2097378,31.7765325 86.207191,31.8101084 86.2020974,31.8695118 C86.1970037,31.9289152 86.1885144,31.9865968 86.1783271,32.0434175 C86.1367291,32.2078531 86.0696629,32.3705669 85.9771286,32.5324197 C85.8845943,32.6942725 85.7708365,32.8259932 85.6367041,32.9293035 C85.5535081,32.9904288 85.4321099,33.0549977 85.2716604,33.1212885 C85.1120599,33.1875793 84.9083146,33.2211552 84.6604245,33.2211552 C84.5254432,33.2211552 84.3913109,33.2073805 84.2571785,33.179831 C84.1221973,33.1514207 83.9957054,33.105792 83.8777029,33.0446667 C83.6968789,32.9568529 83.5440699,32.8457943 83.4201248,32.7089082 C83.2961798,32.5737438 83.1951561,32.4230829 83.1179026,32.2586473 C83.0414981,32.0942118 82.9846192,31.9194451 82.9481149,31.7352084 C82.9116105,31.5501107 82.8937828,31.3650131 82.8937828,31.1799154 C82.8937828,31.1239557 82.8980275,31.0326982 82.9056679,30.907004 C82.9133084,30.7813098 82.9379276,30.6435627 82.9795256,30.4946236 C82.9948065,30.4326374 83.0236704,30.3431018 83.0669663,30.2251559 C83.1111111,30.1072099 83.1756305,29.9832376 83.2613733,29.8549606 C83.3462672,29.7266836 83.4574782,29.6018503 83.5950062,29.4813216 C83.7316854,29.3607929 83.90402,29.2695354 84.1094632,29.2075492 C84.2283146,29.1662251 84.3437703,29.1438412 84.4549813,29.1386757 C84.5661923,29.1326493 84.6425968,29.1300665 84.6833458,29.1300665 C84.8853933,29.1300665 85.0730087,29.1601987 85.2487391,29.2187412 C85.4244694,29.2790055 85.5874657,29.3771503 85.7377278,29.5157584 C85.7793258,29.5570825 85.8277154,29.6121813 85.8845943,29.6810549 C85.9406242,29.7507893 85.9949563,29.8446295 86.0467416,29.9625755 C86.0773034,30.0297272 86.1036205,30.1011835 86.123995,30.1786662 C86.1452185,30.2552881 86.165593,30.3680685 86.1859675,30.5170075 L85.388814,30.5170075" id="Fill-18" fill="#FFFFFF"></path>
                    <path d="M91.1607491,30.362903 C91.1403745,30.2303214 91.105568,30.1166801 91.0563296,30.0245617 C91.0070911,29.9315824 90.9179526,29.8601261 90.7897628,29.8084709 C90.6810986,29.7731732 90.5698876,29.7550939 90.4561298,29.7550939 C90.3372784,29.7550939 90.2362547,29.7714514 90.1539076,29.8041663 C90.0707116,29.8377422 90.0053433,29.8790663 89.9569538,29.9281387 C89.9077154,29.9772111 89.8720599,30.0297272 89.8482896,30.085687 C89.8253683,30.1425076 89.8134831,30.1967455 89.8134831,30.2475398 C89.8134831,30.3508501 89.8499875,30.437803 89.9221473,30.5101202 C89.9781773,30.5669409 90.0554307,30.6134305 90.1539076,30.6521719 C90.2515356,30.6909132 90.3814232,30.7330983 90.5418727,30.7795879 C90.6089388,30.80025 90.690437,30.8243557 90.786367,30.8519052 C90.8814482,30.8811764 90.9773783,30.9104477 91.0758552,30.9414408 C91.1743321,30.9724339 91.2694132,31.0068706 91.3627965,31.0447511 C91.4561798,31.0834925 91.5334332,31.1265384 91.5954057,31.1721672 C91.730387,31.270312 91.828015,31.3908407 91.8891386,31.5346142 C91.9511111,31.6783877 91.9825218,31.8299095 91.9825218,31.9891796 C91.9825218,32.0296428 91.9782772,32.0864635 91.9706367,32.1587807 C91.9629963,32.2310979 91.9443196,32.3111634 91.9163046,32.400699 C91.8874407,32.4910956 91.8441448,32.582353 91.785568,32.6744714 C91.7261423,32.7665898 91.6446442,32.8518208 91.5410737,32.9293035 C91.4425968,33.0007598 91.3381773,33.0575805 91.2269663,33.0989046 C91.1157553,33.1393678 91.009638,33.1686391 90.9103121,33.1875793 C90.8092884,33.2047977 90.7201498,33.2151287 90.6428964,33.2177115 C90.564794,33.2202942 90.5104619,33.2211552 90.4799001,33.2211552 C90.2982272,33.2211552 90.1021223,33.1996322 89.8915855,33.1565862 C89.6793508,33.1126793 89.4976779,33.0343357 89.3482647,32.9215552 C89.3219476,32.9008932 89.2862921,32.8699001 89.2396005,32.8285759 C89.1929089,32.7881127 89.1462172,32.7312921 89.0995256,32.6598358 C89.0426467,32.582353 88.9900125,32.4850691 88.941623,32.3662623 C88.8932335,32.2483163 88.871161,32.0821589 88.8762547,31.8660681 L89.6428464,31.8660681 C89.6428464,31.8918957 89.6470911,31.9332198 89.6547316,31.9926233 C89.662372,32.0520267 89.6793508,32.1148738 89.704819,32.1811646 C89.746417,32.2844749 89.8041448,32.3628186 89.8797004,32.4170565 C89.9535581,32.4704335 90.0291136,32.5108967 90.107216,32.5358634 C90.1844694,32.561691 90.2574782,32.5771875 90.3245443,32.582353 C90.3916105,32.5875185 90.4383021,32.5901013 90.4637703,32.5901013 C90.5987516,32.5901013 90.7108115,32.5737438 90.8016479,32.540168 C90.8907865,32.5065921 90.9629463,32.4644071 91.0172784,32.4127519 C91.0716105,32.3619577 91.1106617,32.3025542 91.133583,32.2362634 C91.1573533,32.1691117 91.1683895,32.1045428 91.1683895,32.0434175 C91.1683895,32.0124244 91.1649938,31.9719612 91.1573533,31.9237497 C91.1497129,31.8746773 91.1174532,31.824744 91.0605743,31.7739498 C90.9824719,31.7016325 90.8585268,31.6387854 90.6853433,31.5845475 C90.5121598,31.5303096 90.3058677,31.4683234 90.0681648,31.3960062 C89.9756305,31.3650131 89.8830961,31.3331591 89.7905618,31.2995832 C89.6971785,31.2660074 89.60804,31.2264051 89.5222971,31.1799154 C89.4374032,31.1334258 89.3593009,31.0783269 89.2896879,31.0146189 C89.2200749,30.95005 89.1614981,30.8717063 89.1156554,30.7795879 C89.094432,30.7382638 89.0723596,30.6805822 89.0494382,30.6056822 C89.0256679,30.5316432 89.0154806,30.4352202 89.0154806,30.3172743 C89.0154806,30.244957 89.0273658,30.1416467 89.052834,30.0047605 C89.0791511,29.8687353 89.1538577,29.7292664 89.2778027,29.5854928 C89.3244944,29.5338377 89.3830712,29.4813216 89.4526841,29.4270837 C89.5222971,29.3728457 89.6054931,29.3246343 89.7014232,29.2807274 C89.7965044,29.2376814 89.9094132,29.2015228 90.037603,29.1731125 C90.1666417,29.1447021 90.3118102,29.1300665 90.4714107,29.1300665 C90.6114856,29.1300665 90.7481648,29.1438412 90.8831461,29.1688079 C91.0164295,29.1946354 91.1429213,29.2359596 91.2617728,29.2927803 C91.3806242,29.34874 91.4892884,29.4219182 91.5877653,29.5123147 C91.6862422,29.6018503 91.7660424,29.7137698 91.828015,29.8472123 C91.868764,29.9341652 91.8959301,30.0202571 91.9086642,30.1054881 C91.9213983,30.1898582 91.9332834,30.2785329 91.9434707,30.3706513 L91.1607491,30.362903" id="Fill-19" fill="#FFFFFF"></path>
                    <path d="M101.853983,29.1774171 C101.843795,29.1102654 101.833608,29.0474182 101.823421,28.9880148 C101.812385,28.9294723 101.79201,28.8657643 101.761448,28.7994735 C101.709663,28.6815275 101.640899,28.5885482 101.555156,28.5222574 C101.470262,28.4551057 101.381973,28.4068943 101.291985,28.3759012 C101.201149,28.3449081 101.117953,28.3251069 101.043246,28.3182196 C100.969388,28.3104713 100.914207,28.3061667 100.877703,28.3061667 C100.852235,28.3061667 100.808939,28.3087495 100.749513,28.313915 C100.690087,28.3190805 100.623021,28.3319943 100.548315,28.3526563 C100.472759,28.3733184 100.398052,28.4051724 100.323346,28.4482184 C100.24779,28.4921253 100.179875,28.5558333 100.117054,28.6376206 C100.060175,28.7099379 100.025368,28.7779505 100.010087,28.8416585 C99.9948065,28.9062275 99.987166,28.9587436 99.987166,29.0000677 C99.987166,29.0353654 99.9922597,29.0809941 100.002447,29.1343711 C100.012634,29.188609 100.041498,29.2462906 100.086492,29.3082768 C100.158652,29.4055607 100.257129,29.4847653 100.381074,29.5467515 C100.505019,29.6087376 100.679051,29.6853595 100.901473,29.7774778 C101.033908,29.8342985 101.166342,29.8911192 101.295381,29.9470789 C101.424419,30.0038996 101.556854,30.0607203 101.690986,30.1166801 C101.732584,30.1373421 101.794557,30.1674743 101.877753,30.2053547 C101.959251,30.2440961 102.049238,30.2940294 102.147715,30.3560156 C102.189313,30.3818432 102.238552,30.4145581 102.295431,30.4558823 C102.35231,30.4972064 102.410037,30.5480006 102.469463,30.6099868 C102.528889,30.6711121 102.585768,30.7477339 102.6401,30.8372695 C102.694432,30.9268051 102.737728,31.0309764 102.76829,31.1497832 C102.778477,31.1850809 102.79206,31.2427625 102.807341,31.322828 C102.822622,31.4020326 102.830262,31.4932901 102.830262,31.5957395 C102.830262,31.6534211 102.822622,31.7472613 102.807341,31.8807038 C102.79206,32.0150072 102.747915,32.1561979 102.674906,32.3042761 C102.629064,32.4075864 102.561149,32.5117576 102.473708,32.6167898 C102.385418,32.7226829 102.27166,32.8199668 102.132434,32.9103633 C101.99236,32.9998989 101.826816,33.0722161 101.633258,33.1290368 C101.438851,33.1858575 101.213034,33.2142678 100.955805,33.2142678 C100.877703,33.2142678 100.753758,33.2065195 100.583121,33.1901621 C100.412484,33.1755264 100.229963,33.1290368 100.037253,33.052415 C99.8436954,32.9757932 99.6569288,32.8578472 99.4786517,32.7011599 C99.3003745,32.5453335 99.1645443,32.3257991 99.0728589,32.0434175 C99.0210737,31.889313 98.9896629,31.749844 98.9794757,31.6267326 C98.9692884,31.5036211 98.9616479,31.4140855 98.9565543,31.3572648 L99.7927591,31.3572648 C99.7978527,31.4037545 99.807191,31.472628 99.8199251,31.5647464 C99.8326592,31.6577257 99.8598252,31.7567314 99.90397,31.8617635 C99.9481149,31.9667957 100.015181,32.0683842 100.106017,32.166529 C100.195156,32.2638129 100.318252,32.3404347 100.47191,32.3972554 C100.518602,32.4127519 100.583121,32.4308312 100.664619,32.4514933 C100.746966,32.4721553 100.850537,32.4824864 100.973633,32.4824864 C100.999101,32.4824864 101.044944,32.4799036 101.109463,32.4747381 C101.172285,32.4695726 101.245293,32.4557979 101.325094,32.4359967 C101.405743,32.4153347 101.487241,32.3834807 101.572135,32.3395738 C101.657878,32.2965278 101.732584,32.2362634 101.79965,32.1587807 C101.872659,32.0709669 101.917653,31.9909014 101.935481,31.9160015 C101.952459,31.8411015 101.962647,31.7808371 101.962647,31.7352084 C101.962647,31.6783877 101.950762,31.6060705 101.92784,31.5191176 C101.904919,31.4321648 101.843795,31.3426292 101.745318,31.2496499 C101.683346,31.1928292 101.608639,31.1385913 101.52035,31.0877971 C101.432909,31.0370028 101.342072,30.9887913 101.248689,30.9448844 C101.156155,30.9018385 101.06362,30.8605144 100.974482,30.821773 C100.884494,30.7838925 100.800449,30.7485948 100.722347,30.7176017 C100.613683,30.6711121 100.506717,30.6254834 100.400599,30.5789937 C100.294482,30.533365 100.190062,30.4817098 100.086492,30.4248892 C100.029613,30.3938961 99.9489638,30.3482674 99.8436954,30.2862812 C99.737578,30.2251559 99.6323096,30.1416467 99.5287391,30.0357536 C99.4260175,29.9307215 99.335181,29.8015836 99.2570787,29.647479 C99.1798252,29.4933745 99.140774,29.3082768 99.140774,29.092186 C99.140774,29.0258953 99.1518102,28.9225849 99.1721848,28.7839769 C99.1925593,28.6453689 99.2468914,28.4990126 99.335181,28.3449081 C99.5007241,28.0728576 99.7282397,27.876568 100.017728,27.7551783 C100.306367,27.6346496 100.603496,27.5743853 100.909114,27.5743853 C100.955805,27.5743853 101.026267,27.576968 101.124744,27.5821335 C101.223221,27.5872991 101.331885,27.6053784 101.450737,27.6363715 C101.569588,27.6673646 101.695231,27.7129933 101.826816,27.7741186 C101.959251,27.8361047 102.083196,27.9213358 102.202047,28.0289507 C102.233458,28.0651093 102.283546,28.1236518 102.353159,28.2063001 C102.422772,28.2889483 102.483895,28.3905368 102.53568,28.5145092 C102.572185,28.5962965 102.601898,28.6841103 102.624819,28.7762287 C102.64774,28.8692079 102.664719,29.0026504 102.674906,29.1774171 L101.853983,29.1774171" id="Fill-20" fill="#FFFFFF"></path>
                    <path d="M105.781174,33.1135402 L106.619076,33.1135402 L106.619076,29.2385423 L105.781174,29.2385423 L105.781174,33.1135402 Z M106.192909,27.5821335 C106.254881,27.576968 106.319401,27.5855772 106.386467,27.609683 C106.453533,27.6320669 106.510412,27.6639209 106.557104,27.7061059 C106.60804,27.7517346 106.645393,27.8102772 106.668315,27.8825944 C106.692085,27.9549116 106.703121,28.0237852 106.703121,28.0900759 C106.703121,28.239015 106.655581,28.3604046 106.561348,28.452523 C106.465418,28.5446414 106.342322,28.591131 106.192909,28.591131 C106.166592,28.591131 106.131785,28.5885482 106.08764,28.5833827 C106.044345,28.5782172 105.993408,28.5609988 105.936529,28.5300057 C105.87965,28.4990126 105.834657,28.462854 105.800699,28.4215299 C105.767591,28.3810667 105.742971,28.3397426 105.726841,28.2984184 C105.711561,28.2579552 105.701373,28.2192138 105.69628,28.1830552 C105.691186,28.1468966 105.688639,28.1184863 105.688639,28.0986851 C105.688639,28.0418645 105.694582,27.9927921 105.708165,27.9523289 C105.720899,27.9110047 105.731935,27.8800116 105.742971,27.8593496 C105.768439,27.7982243 105.803246,27.7491519 105.847391,27.7129933 C105.891536,27.6776956 105.93568,27.6492852 105.978976,27.6286232 C106.023121,27.6079611 106.064719,27.5950473 106.10377,27.5898818 C106.141973,27.5847163 106.171685,27.5821335 106.192909,27.5821335 L106.192909,27.5821335 Z" id="Fill-21" fill="#FFFFFF"></path>
                    <path d="M110.463071,29.2385423 C110.488539,29.3005285 110.508065,29.3685412 110.520799,29.4425802 C110.533533,29.5174802 110.540325,29.6207905 110.540325,29.7550939 C110.560699,29.7292664 110.587016,29.6931077 110.621823,29.647479 C110.654082,29.6009894 110.699076,29.5493342 110.755955,29.4933745 C110.839151,29.4107262 110.92829,29.3478791 111.02422,29.3039722 C111.119301,29.2600653 111.212684,29.2264895 111.303521,29.2041056 C111.393508,29.1808607 111.474157,29.1662251 111.54377,29.1610596 C111.612534,29.156755 111.665169,29.1541722 111.701673,29.1541722 C111.732235,29.1541722 111.783171,29.156755 111.852784,29.1610596 C111.922397,29.1662251 112.001348,29.1808607 112.089638,29.2041056 C112.177079,29.2264895 112.267066,29.2617872 112.357054,29.3082768 C112.44789,29.3539055 112.531935,29.4184745 112.60834,29.5002618 C112.638901,29.5312549 112.668614,29.5682744 112.697478,29.6121813 C112.725493,29.6560882 112.7603,29.7163526 112.801898,29.7938353 C112.838402,29.7370146 112.890187,29.6715848 112.957253,29.5966848 C113.02432,29.5226457 113.107516,29.4520503 113.205144,29.3848986 C113.30362,29.3177469 113.419925,29.2626481 113.553208,29.2187412 C113.68819,29.1756952 113.845243,29.1541722 114.026916,29.1541722 C114.228115,29.1541722 114.422522,29.1894699 114.610986,29.2617872 C114.8003,29.3341044 114.948864,29.4597986 115.057528,29.6388698 C115.098277,29.711187 115.131386,29.7826434 115.154307,29.8549606 C115.177228,29.9272778 115.194207,30.0073433 115.204395,30.0977398 C115.215431,30.1872754 115.220524,30.2905858 115.220524,30.4059489 C115.220524,30.5213121 115.220524,30.6538937 115.220524,30.8028328 L115.220524,33.1135402 L114.414881,33.1135402 L114.414881,30.810581 C114.414881,30.7287937 114.414881,30.6435627 114.414881,30.5557489 C114.414881,30.4687961 114.402996,30.3852869 114.383471,30.3052214 C114.363096,30.2260168 114.329139,30.1528387 114.282447,30.085687 C114.235755,30.0193962 114.166142,29.9651582 114.073608,29.924695 C113.995506,29.8937019 113.926742,29.8756226 113.867316,29.8704571 C113.80789,29.8652916 113.762896,29.8627088 113.731486,29.8627088 C113.700924,29.8627088 113.661024,29.8652916 113.611785,29.8704571 C113.562547,29.8756226 113.506517,29.8868146 113.446242,29.9048939 C113.38427,29.9229732 113.320599,29.9531054 113.25608,29.9935686 C113.191561,30.0348927 113.132984,30.0882697 113.081199,30.1554214 C112.998851,30.2578708 112.949613,30.3723731 112.934332,30.4980673 C112.918202,30.6246225 112.908015,30.7485948 112.902921,30.8717063 L112.902921,33.1135402 L112.097278,33.1135402 L112.097278,30.8949511 C112.097278,30.7916408 112.095581,30.6728339 112.093034,30.5368087 C112.090487,30.4007834 112.065868,30.2811156 112.020025,30.1786662 C112.008989,30.1476731 111.986067,30.1123755 111.949563,30.0710513 C111.913908,30.0297272 111.859576,29.9884031 111.786567,29.9470789 C111.714407,29.9057548 111.642247,29.8816491 111.570936,29.8739008 C111.498777,29.8661525 111.449538,29.8627088 111.423221,29.8627088 C111.309463,29.8627088 111.197403,29.8816491 111.086192,29.9203904 C110.974981,29.9582709 110.880749,30.021118 110.802647,30.1097927 C110.740674,30.1752226 110.693983,30.2527053 110.663421,30.3405191 C110.63201,30.4274719 110.611635,30.5109811 110.602297,30.5910466 C110.590412,30.6702512 110.587016,30.7399856 110.587016,30.7985282 C110.587016,30.8579316 110.587016,30.8949511 110.587016,30.9104477 L110.587016,33.1135402 L109.779675,33.1135402 L109.779675,30.2862812 C109.779675,30.1425076 109.779675,30.021118 109.779675,29.924695 C109.779675,29.8265502 109.77628,29.7395974 109.768639,29.6621146 C109.76015,29.5854928 109.749963,29.5148974 109.737228,29.4503285 C109.724494,29.3857595 109.704969,29.3151642 109.678652,29.2385423 L110.463071,29.2385423" id="Fill-22" fill="#FFFFFF"></path>
                    <path d="M120.11211,32.5203668 C120.267466,32.5203668 120.395655,32.4885128 120.499226,32.4239439 C120.601099,32.3602358 120.685993,32.2775876 120.753908,32.1777209 C120.819276,32.0778543 120.868514,31.9693785 120.899925,31.8540153 C120.930487,31.7386521 120.954257,31.6310372 120.969538,31.5303096 C120.984819,31.430443 120.992459,31.3116361 120.992459,31.1721672 C120.987366,31.0387247 120.978876,30.9216396 120.965293,30.821773 C120.952559,30.7219063 120.92794,30.6134305 120.892285,30.4980673 C120.85578,30.3827041 120.805693,30.2742283 120.742022,30.1743616 C120.677503,30.074495 120.593458,29.9918467 120.490737,29.9281387 C120.388015,29.8644307 120.259825,29.8317158 120.104469,29.8317158 C120.064569,29.8317158 119.995805,29.8403249 119.899875,29.8592652 C119.805643,29.8764836 119.708864,29.9221123 119.612085,29.9935686 C119.498327,30.0813824 119.411735,30.1889973 119.353159,30.3172743 C119.293733,30.4455512 119.249588,30.5703845 119.221573,30.6909132 C119.192709,30.811442 119.178277,30.9190569 119.17573,31.0146189 C119.172335,31.10932 119.172335,31.1670016 119.172335,31.1885246 C119.172335,31.3830924 119.196954,31.5811038 119.248739,31.7808371 C119.300524,31.9814313 119.400699,32.1536152 119.550112,32.2973887 C119.713958,32.4463278 119.901573,32.5203668 120.11211,32.5203668 Z M118.380275,30.4326374 C118.380275,30.2733674 118.379426,30.1373421 118.376879,30.0245617 C118.374332,29.9117812 118.371785,29.8110537 118.369238,29.7241008 C118.366692,29.6362871 118.3599,29.5562216 118.349713,29.4813216 C118.339526,29.4064216 118.326792,29.3263561 118.310662,29.2385423 L119.071311,29.2385423 C119.091685,29.295363 119.110362,29.3633756 119.125643,29.4425802 C119.140924,29.5226457 119.148564,29.6233733 119.148564,29.7464847 C119.179975,29.6956905 119.214782,29.6448963 119.25638,29.5923802 C119.338727,29.4847653 119.427865,29.402117 119.523795,29.3427136 C119.619725,29.2833101 119.711411,29.2402642 119.7997,29.2118538 C119.887141,29.1834435 119.968639,29.1662251 120.043346,29.1610596 C120.118901,29.156755 120.180874,29.1541722 120.232659,29.1541722 C120.289538,29.1541722 120.358302,29.1576159 120.438102,29.1653642 C120.517903,29.1731125 120.606192,29.1920527 120.702122,29.2230458 C120.797203,29.2540389 120.897378,29.3013894 121.000949,29.3659584 C121.10367,29.4305273 121.206392,29.5157584 121.309963,29.6233733 C121.366841,29.6853595 121.426267,29.7628422 121.48824,29.8549606 C121.550212,29.9470789 121.606242,30.0564157 121.654632,30.1821099 C121.70387,30.3078041 121.745468,30.4515777 121.779426,30.6134305 C121.812534,30.7752833 121.829513,30.9569373 121.829513,31.1575315 C121.829513,31.4244165 121.795556,31.6809705 121.728489,31.9280543 C121.681798,32.1071255 121.614732,32.2741439 121.527291,32.4282485 C121.439001,32.582353 121.334582,32.7157955 121.212335,32.8285759 C121.092634,32.9422173 120.95171,33.0317529 120.791261,33.0989046 C120.630811,33.1651954 120.452534,33.1987713 120.255581,33.1987713 C119.988165,33.1987713 119.753009,33.1316195 119.550961,32.9981771 C119.452484,32.9370518 119.373533,32.8681782 119.314107,32.7941392 C119.254682,32.7201001 119.212235,32.667584 119.187615,32.6365909 L119.187615,34.716572 L118.380275,34.716572 L118.380275,30.4326374 L118.380275,30.4326374 Z" id="Fill-23" fill="#FFFFFF"></path>
                    <polygon id="Fill-24" fill="#FFFFFF" points="124.733733 33.1144012 125.571635 33.1144012 125.571635 27.6363715 124.733733 27.6363715"></polygon>
                    <path d="M128.724594,33.1135402 L129.562497,33.1135402 L129.562497,29.2385423 L128.724594,29.2385423 L128.724594,33.1135402 Z M129.135481,27.5821335 C129.198302,27.576968 129.262821,27.5855772 129.329888,27.609683 C129.396954,27.6320669 129.453833,27.6639209 129.500524,27.7061059 C129.550612,27.7517346 129.588814,27.8102772 129.611735,27.8825944 C129.634657,27.9549116 129.646542,28.0237852 129.646542,28.0900759 C129.646542,28.239015 129.599001,28.3604046 129.504769,28.452523 C129.408839,28.5446414 129.285743,28.591131 129.135481,28.591131 C129.110012,28.591131 129.075206,28.5885482 129.031061,28.5833827 C128.986916,28.5782172 128.936829,28.5609988 128.87995,28.5300057 C128.823071,28.4990126 128.778077,28.462854 128.74412,28.4215299 C128.710162,28.3810667 128.685543,28.3397426 128.670262,28.2984184 C128.654981,28.2579552 128.644794,28.2192138 128.6397,28.1830552 C128.633758,28.1468966 128.631211,28.1184863 128.631211,28.0986851 C128.631211,28.0418645 128.638002,27.9927921 128.650737,27.9523289 C128.663471,27.9110047 128.675356,27.8800116 128.685543,27.8593496 C128.71186,27.7982243 128.746667,27.7491519 128.790811,27.7129933 C128.834956,27.6776956 128.878252,27.6492852 128.922397,27.6286232 C128.966542,27.6079611 129.00814,27.5950473 129.046342,27.5898818 C129.085393,27.5847163 129.115106,27.5821335 129.135481,27.5821335 L129.135481,27.5821335 Z" id="Fill-25" fill="#FFFFFF"></path>
                    <path d="M134.566991,29.2385423 L134.566991,29.8704571 L133.637403,29.8704571 L133.637403,33.1135402 L132.816479,33.1135402 L132.816479,29.8704571 L132.282497,29.8704571 L132.282497,29.2385423 L132.816479,29.2385423 L132.816479,28.9923194 C132.816479,28.879539 132.819026,28.7641758 132.82412,28.6488126 C132.829213,28.5334494 132.844494,28.4215299 132.870811,28.313915 C132.89628,28.2063001 132.937878,28.1038507 132.994757,28.0057059 C133.051635,27.908422 133.131436,27.8206082 133.235006,27.7439864 C133.375081,27.641537 133.513458,27.5795508 133.649288,27.5588887 C133.785968,27.5382267 133.882747,27.5278956 133.939625,27.5278956 C134.017728,27.5278956 134.121298,27.5373657 134.250337,27.5545841 C134.379376,27.5735243 134.531336,27.6157094 134.707066,27.6820002 L134.707066,28.3604046 C134.618777,28.3294115 134.521998,28.2984184 134.413333,28.2674253 C134.304669,28.2364322 134.201099,28.2217966 134.102622,28.2217966 C134.077154,28.2217966 134.045743,28.2243794 134.010087,28.2295449 C133.973583,28.2338495 133.933683,28.2476242 133.889538,28.2674253 C133.845393,28.2889483 133.803795,28.3164977 133.765593,28.3526563 C133.726542,28.387954 133.696829,28.4396092 133.676454,28.5067609 C133.655231,28.5687471 133.644195,28.6427862 133.641648,28.729739 C133.638252,28.8175528 133.634856,28.9277505 133.629763,29.0620539 L133.629763,29.2385423 L134.566991,29.2385423" id="Fill-26" fill="#FFFFFF"></path>
                    <path d="M137.270861,33.1135402 L138.108764,33.1135402 L138.108764,29.2385423 L137.270861,29.2385423 L137.270861,33.1135402 Z M137.682597,27.5821335 C137.744569,27.576968 137.809089,27.5855772 137.876155,27.609683 C137.943221,27.6320669 138.0001,27.6639209 138.046792,27.7061059 C138.097728,27.7517346 138.135081,27.8102772 138.158002,27.8825944 C138.181773,27.9549116 138.192809,28.0237852 138.192809,28.0900759 C138.192809,28.239015 138.145268,28.3604046 138.051036,28.452523 C137.955106,28.5446414 137.83201,28.591131 137.682597,28.591131 C137.65628,28.591131 137.621473,28.5885482 137.577328,28.5833827 C137.534032,28.5782172 137.483096,28.5609988 137.426217,28.5300057 C137.369338,28.4990126 137.324345,28.462854 137.290387,28.4215299 C137.257278,28.3810667 137.232659,28.3397426 137.216529,28.2984184 C137.201248,28.2579552 137.191061,28.2192138 137.185968,28.1830552 C137.180874,28.1468966 137.178327,28.1184863 137.178327,28.0986851 C137.178327,28.0418645 137.18427,27.9927921 137.197004,27.9523289 C137.210587,27.9110047 137.221623,27.8800116 137.232659,27.8593496 C137.258127,27.7982243 137.292934,27.7491519 137.337079,27.7129933 C137.381223,27.6776956 137.425368,27.6492852 137.468664,27.6286232 C137.512809,27.6079611 137.554407,27.5950473 137.593458,27.5898818 C137.63166,27.5847163 137.661373,27.5821335 137.682597,27.5821335 L137.682597,27.5821335 Z" id="Fill-27" fill="#FFFFFF"></path>
                    <path d="M143.663371,30.7563431 C143.658277,30.7305155 143.651486,30.6874696 143.643845,30.6280661 C143.636205,30.5695236 143.621773,30.5032328 143.601398,30.4300547 C143.585268,30.383565 143.562347,30.3224398 143.530936,30.2475398 C143.500375,30.1726398 143.453683,30.1003226 143.39171,30.0297272 C143.329738,29.9608537 143.249089,29.8997284 143.151461,29.8480732 C143.052984,29.7955571 142.929888,29.7705905 142.779625,29.7705905 C142.583521,29.7705905 142.425618,29.8153583 142.306767,29.9057548 C142.187915,29.9970123 142.09623,30.0977398 142.032559,30.2087984 C141.96804,30.319857 141.921348,30.4300547 141.892484,30.5385305 C141.864469,30.6478673 141.847491,30.7201845 141.842397,30.7563431 L143.663371,30.7563431 Z M141.819476,31.3572648 C141.824569,31.4752108 141.835605,31.5862693 141.854282,31.6887187 C141.87211,31.7911682 141.906916,31.899644 141.958702,32.0124244 C142.015581,32.1407014 142.085194,32.240568 142.166692,32.3128853 C142.249888,32.3852025 142.333933,32.4385795 142.418826,32.4747381 C142.504569,32.5108967 142.586067,32.5332806 142.663321,32.5444726 C142.741423,32.5539427 142.805943,32.5591082 142.857728,32.5591082 C143.038552,32.5591082 143.182022,32.5272542 143.290687,32.4626852 C143.399351,32.3989772 143.479151,32.3378519 143.530936,32.2818922 C143.572534,32.240568 143.604794,32.1958002 143.628564,32.1467278 C143.651486,32.0985164 143.668464,32.0658014 143.678652,32.0511658 L144.399401,32.1045428 C144.29583,32.4747381 144.10397,32.752815 143.826367,32.9404955 C143.547066,33.127315 143.21598,33.2211552 142.833958,33.2211552 C142.782172,33.2211552 142.710012,33.2177115 142.616629,33.2099632 C142.524095,33.2022149 142.421373,33.1832747 142.310162,33.1522816 C142.198951,33.1212885 142.082647,33.0765207 141.958702,33.0171173 C141.834757,32.9585748 141.715905,32.8776483 141.602147,32.7751989 C141.534232,32.7132128 141.466317,32.6374519 141.396704,32.5470553 C141.326242,32.4575197 141.261723,32.3499048 141.202297,32.2242106 C141.142871,32.0985164 141.09618,31.953021 141.059675,31.7885854 C141.02402,31.6241498 141.005343,31.4373303 141.005343,31.2264051 C141.005343,31.0516384 141.017228,30.9001166 141.040999,30.7718397 C141.06392,30.6435627 141.083446,30.5454179 141.098727,30.4791271 C141.211635,30.0624421 141.412834,29.7344319 141.703171,29.4933745 C141.992659,29.2514561 142.358552,29.1300665 142.803396,29.1300665 C142.98422,29.1300665 143.154007,29.1550332 143.314457,29.2041056 C143.474057,29.252317 143.626866,29.3306607 143.772035,29.4391365 C143.96814,29.5880756 144.114157,29.7611204 144.212634,29.9582709 C144.311111,30.1562823 144.380724,30.3491283 144.422322,30.5368087 C144.46392,30.7244891 144.484295,30.8932293 144.484295,31.0447511 C144.484295,31.1962729 144.484295,31.2978614 144.484295,31.3495165 L141.819476,31.3572648 L141.819476,31.3572648 Z" id="Fill-28" fill="#FFFFFF"></path>
                    <g id="Group-32">
                        <mask id="mask-2" fill="white">
                            <use xlink:href="#path-1"></use>
                        </mask>
                        <g id="Clip-30"></g>
                        <path d="M148.870762,29.8317158 C148.715406,29.8317158 148.584669,29.8652916 148.478552,29.9315824 C148.373283,29.9987341 148.285843,30.0822433 148.220474,30.1821099 C148.153408,30.2828375 148.102472,30.3904524 148.069363,30.5058156 C148.035406,30.6211788 148.010787,30.7305155 147.995506,30.8329649 C147.979376,30.9362753 147.970886,31.0206453 147.96834,31.0877971 C147.965793,31.1549488 147.964095,31.1902465 147.964095,31.195412 C147.964095,31.205743 147.966642,31.2625637 147.971735,31.3650131 C147.976829,31.4683234 147.995506,31.5862693 148.026067,31.7188509 C148.057478,31.8531543 148.109263,31.9865968 148.181423,32.1200393 C148.252734,32.2534818 148.356305,32.3567922 148.490437,32.4282485 C148.526941,32.4489105 148.574482,32.4695726 148.633908,32.4893737 C148.693333,32.5108967 148.772285,32.5203668 148.870762,32.5203668 C149.031211,32.5203668 149.164494,32.4885128 149.268914,32.4239439 C149.375031,32.3602358 149.461623,32.2793094 149.528689,32.1811646 C149.596604,32.0847416 149.647541,31.9771267 149.684045,31.8617635 C149.720549,31.7464003 149.746017,31.6396463 149.761298,31.5423625 C149.777428,31.4442177 149.785918,31.3615694 149.788464,31.2918349 C149.79186,31.2221005 149.792709,31.1824982 149.792709,31.1721672 C149.792709,31.1213729 149.790162,31.0447511 149.785069,30.9448844 C149.779975,30.8450178 149.758752,30.7287937 149.723096,30.5944903 C149.712909,30.5480006 149.693383,30.4825708 149.664519,30.3982007 C149.636504,30.3138306 149.590662,30.2285996 149.528689,30.1433686 C149.466717,30.0589985 149.382672,29.9858203 149.276554,29.924695 C149.172135,29.8627088 149.036305,29.8317158 148.870762,29.8317158 Z M150.590712,31.9280543 C150.590712,32.0864635 150.590712,32.2224887 150.590712,32.3352692 C150.590712,32.4489105 150.591561,32.5487772 150.594107,32.6365909 C150.597503,32.7235438 150.603446,32.8044702 150.613633,32.8793702 C150.624669,32.9534092 150.63995,33.0317529 150.660325,33.1135402 L149.893733,33.1135402 C149.883546,33.0722161 149.872509,33.0197 149.862322,32.955992 C149.852135,32.8914231 149.847041,32.8113576 149.847041,32.7132128 C149.847041,32.6873852 149.848739,32.6632794 149.851286,32.6400346 C149.853833,32.6167898 149.854682,32.592684 149.854682,32.5668565 C149.819026,32.6288427 149.773184,32.6968553 149.718851,32.7708943 C149.664519,32.8457943 149.594906,32.913807 149.509164,32.9757932 C149.42427,33.0369184 149.320699,33.0894345 149.20015,33.1333414 C149.078752,33.1763874 148.930187,33.1987713 148.754457,33.1987713 C148.697578,33.1987713 148.603346,33.1901621 148.470911,33.1755264 C148.339326,33.1600299 148.200949,33.116123 148.057478,33.0446667 C147.886841,32.9568529 147.743371,32.8457943 147.627066,32.7089082 C147.509913,32.5737438 147.41568,32.4230829 147.343521,32.2586473 C147.271361,32.0942118 147.220424,31.9220279 147.189863,31.7429567 C147.158452,31.5621636 147.143171,31.3856751 147.143171,31.2109085 C147.143171,31.1549488 147.146567,31.0542212 147.155056,30.9104477 C147.162697,30.7666741 147.189863,30.6125696 147.236554,30.448134 C147.282397,30.2733674 147.350312,30.1080709 147.4403,29.9513835 C147.531136,29.7946962 147.638102,29.6569491 147.762896,29.5390032 C147.886841,29.4210572 148.030312,29.327217 148.193308,29.2574826 C148.354607,29.188609 148.534582,29.1541722 148.730687,29.1541722 C148.762097,29.1541722 148.806242,29.156755 148.863121,29.1610596 C148.92,29.1662251 148.982821,29.1774171 149.053283,29.1920527 C149.122896,29.2075492 149.194207,29.2307941 149.268914,29.2617872 C149.34362,29.2927803 149.417478,29.3366871 149.490487,29.3926469 C149.56774,29.4546331 149.631411,29.5183411 149.680649,29.5854928 C149.729039,29.6517836 149.761298,29.6982733 149.777428,29.7241008 L149.777428,27.6363715 L150.590712,27.6363715 L150.590712,31.9280543 L150.590712,31.9280543 Z" id="Fill-29" fill="#FFFFFF" mask="url(#mask-2)"></path>
                        <path d="M10.6804994,31.2944177 L4.45692884,20.3633249 C4.87036205,19.9018722 5.1250437,19.2906195 5.1250437,18.6173805 C5.1250437,17.9441416 4.87036205,17.3328889 4.45692884,16.8714361 L10.8995256,5.55465153 C12.3138577,5.55379061 13.4599251,4.39068859 13.4599251,2.95639698 C13.4599251,1.52038354 12.3130087,0.357281523 10.8978277,0.357281523 C9.48264669,0.357281523 8.3348814,1.52038354 8.3348814,2.95639698 C8.3348814,3.60553016 8.57173533,4.19698174 8.95970037,4.65240807 L2.48654182,16.0225697 C1.10616729,16.0638938 0,17.2080556 0,18.6173805 C0,20.0267055 1.10616729,21.1708673 2.48654182,21.2121914 L8.8289638,32.3533485 C8.51995006,32.7820863 8.3348814,33.3098299 8.3348814,33.8823412 C8.3348814,35.3174937 9.48264669,36.4805957 10.8978277,36.4805957 C12.3130087,36.4805957 13.4599251,35.3174937 13.4599251,33.8823412 C13.4599251,32.4471887 12.3130087,31.2832257 10.8978277,31.2832257 C10.82397,31.2832257 10.7518102,31.2883913 10.6804994,31.2944177 Z" id="Fill-31" fill="#2E9DC3" mask="url(#mask-2)"></path>
                    </g>
                    <path d="M37.649588,16.0199869 L31.1951061,4.68254024 C31.599201,4.22367024 31.8462422,3.62016579 31.8462422,2.95639698 C31.8462422,1.52038354 30.6993258,0.357281523 29.2841448,0.357281523 C27.8681149,0.357281523 26.7211985,1.52038354 26.7211985,2.95639698 C26.7211985,4.37519204 27.8426467,5.52624119 29.2357553,5.55206877 L35.6978777,16.9024292 C35.2997253,17.3595774 35.0560799,17.9596382 35.0560799,18.6173805 C35.0560799,19.2759838 35.2997253,19.8751837 35.6978777,20.3331928 L29.4581773,31.2926959 C29.4004494,31.2883913 29.3427216,31.2832257 29.2841448,31.2832257 C27.8681149,31.2832257 26.7211985,32.4471887 26.7211985,33.8823412 C26.7211985,35.3174937 27.8681149,36.4805957 29.2841448,36.4805957 C30.6993258,36.4805957 31.8462422,35.3174937 31.8462422,33.8823412 C31.8462422,33.2943333 31.6518352,32.7545369 31.3275406,32.3189117 L37.649588,21.2147742 C39.0503371,21.1975558 40.1811236,20.042202 40.1811236,18.6173805 C40.1811236,17.192559 39.0503371,16.0372053 37.649588,16.0199869 Z" id="Fill-33" fill="#2E9DC3"></path>
                    <path d="M24.9844853,7.41463383 L13.2438957,29.9819372 C12.9553031,30.5365072 13.1311511,31.2426597 13.6359779,31.5606132 C14.1408048,31.8776424 14.784459,31.6844672 15.0730517,31.1298971 L26.8127998,8.5625938 C27.1013925,8.00709948 26.9263858,7.30094697 26.421559,6.98391777 C25.9158908,6.66688856 25.2730779,6.85913951 24.9844853,7.41463383 Z" id="Fill-34" fill="#2E9DC3"></path>
                </g>
                <g id="donut_2" transform="translate(64.000000, 315.000000)">
                    <ellipse id="Oval" stroke="#273B62" stroke-width="18.5637963" transform="translate(36.062030, 35.509989) scale(1, -1) rotate(180.000000) translate(-36.062030, -35.509989) " cx="36.0620299" cy="35.5099894" rx="36.0620299" ry="35.5099894"></ellipse>
                    <mask id="mask-4" fill="white">
                        <use xlink:href="#path-3"></use>
                    </mask>
                    <use id="Oval" stroke="#1F335A" stroke-width="18.5637963" stroke-dasharray="96.63345949782752,31.53302203548037" transform="translate(36.062030, 35.509989) scale(1, -1) rotate(180.000000) translate(-36.062030, -35.509989) " xlink:href="#path-3"></use>
                </g>
                <g id="Group-2" transform="translate(315.347222, 378.156250) scale(-1, 1) translate(-315.347222, -378.156250) translate(249.000000, 325.000000)" fill-rule="nonzero">
                    <polygon id="Fill-71" fill="#1F335A" points="0 106.3125 7.55555556 106.3125 7.55555556 63.5976562 0 63.5976562"></polygon>
                    <polygon id="Fill-72" fill="#1F335A" points="41.0833333 106.3125 48.6388889 106.3125 48.6388889 46.5117187 41.0833333 46.5117187"></polygon>
                    <polygon id="Fill-73" fill="#273B62" points="12.75 106.3125 22.1944444 106.3125 22.1944444 37.96875 12.75 37.96875"></polygon>
                    <polygon id="Fill-74" fill="#273B62" points="55.25 106.3125 62.8055556 106.3125 62.8055556 0 55.25 0"></polygon>
                    <polygon id="Fill-75" fill="#1F335A" points="28.3333333 106.3125 35.8888889 106.3125 35.8888889 18.984375 28.3333333 18.984375"></polygon>
                    <polygon id="Fill-76" fill="#1F335A" points="69.4166667 105.837891 76.9722222 105.837891 76.9722222 90.6503906 69.4166667 90.6503906"></polygon>
                    <polygon id="Fill-77" fill="#1F335A" points="112.388889 106.3125 119.944444 106.3125 119.944444 80.6835937 112.388889 80.6835937"></polygon>
                    <polygon id="Fill-78" fill="#273B62" points="84.5277778 106.3125 93.9722222 106.3125 93.9722222 59.8007812 84.5277778 59.8007812"></polygon>
                    <polygon id="Fill-79" fill="#1F335A" points="125.138889 106.3125 132.694444 106.3125 132.694444 75.9375 125.138889 75.9375"></polygon>
                    <polygon id="Fill-80" fill="#1F335A" points="99.1666667 106.3125 106.722222 106.3125 106.722222 31.3242187 99.1666667 31.3242187"></polygon>
                </g>
                <g id="Group" transform="translate(292.000000, 60.000000)" fill-rule="nonzero">
                    <path d="M3.85648148,59.5501288 C9.70568448,74.1113279 24.7720013,84.4804688 42.4367738,84.4804688 C58.2877538,84.4804688 72.0376613,76.1351899 78.9266975,63.9075191 L42.4367738,46.1021574 L3.85648148,59.5501288 Z" id="Fill-26" fill="#1F335A"></path>
                    <path d="M42.6881866,38.3783114 L67.4753086,7.67116639 C60.5692751,2.85542116 51.9847701,0 42.6881866,0 C42.038273,0 41.3940115,0.0178815263 40.7554012,0.0454700878 C41.5692059,14.1115742 42.6881866,38.3783114 42.6881866,38.3783114" id="Fill-33" fill="#1F335A"></path>
                    <path d="M83.0384294,60.1260212 C86.0933859,54.9328321 87.8333333,49.0257773 87.8333333,42.7535966 C87.8333333,30.5011315 81.2295735,19.6241625 71.0310723,12.7927705 L45.8449074,42.7535966 L83.0384294,60.1260212 Z" id="Fill-34" fill="#273B62"></path>
                    <path d="M36.4488084,5.82540847 C16.4015477,6.72860603 0.43287037,22.9168802 0.43287037,42.7599186 C0.43287037,47.3199032 1.28124018,51.6841786 2.82297921,55.7172133 L38.2106481,42.7599186 L36.4488084,5.82540847 Z" id="Fill-35" fill="#1F335A"></path>
                </g>
                <polygon id="Fill-100" stroke="#273B62" stroke-width="2.10262501" fill="#1F335A" fill-rule="nonzero" transform="translate(127.611111, 79.561523) scale(-1, 1) translate(-127.611111, -79.561523) " points="53 111.123047 66.7756651 87.306994 81.2414829 97.7263696 96.3947145 72.4228463 110.859163 93.2615975 135.862132 48 164.586996 93.2615975 202.148277 48 202.222222 111.123047 53 111.123047 106.329811 111.123047"></polygon>
            </g>
        </g>
    </g>
</svg>