<svg width="51px" height="51px" viewBox="0 0 51 51" version="1.1" xmlns="http://www.w3.org/2000/svg" xmlns:xlink="http://www.w3.org/1999/xlink">
    <g id="Page-1" stroke="none" stroke-width="1" fill="none" fill-rule="evenodd">
        <g id="landing_page" transform="translate(-698.000000, -3029.000000)" fill="#FFFFFF" fill-rule="nonzero">
            <g id="facebook-logo-in-circular-button-outlined-social-symbol" transform="translate(698.000000, 3029.000000)">
                <path d="M51,25.5 C51,11.417 39.5829167,0 25.5,0 C11.417,0 0,11.417 0,25.5 C0,39.5829167 11.417,51 25.5,51 C39.5829167,51 51,39.5829167 51,25.5 Z M2.31816667,25.5 C2.31816667,12.6966667 12.6966667,2.31816667 25.5,2.31816667 C38.3033333,2.31816667 48.6818333,12.6966667 48.6818333,25.5 C48.6818333,38.3033333 38.3033333,48.6818333 25.5,48.6818333 C12.6966667,48.6818333 2.31816667,38.3033333 2.31816667,25.5 Z" id="Shape"></path>
                <path d="M26.47825,40.2180833 L26.47825,25.5 L31.3348333,25.5 L32.1021667,20.6225833 L26.47825,20.6225833 L26.47825,18.1769167 C26.47825,16.90425 26.8955,15.6895 28.72225,15.6895 L32.3733333,15.6895 L32.3733333,10.8213333 L27.1899167,10.8213333 C22.83175,10.8213333 21.6425,13.6911667 21.6425,17.66925 L21.6425,20.6203333 L18.6520833,20.6203333 L18.6520833,25.5 L21.6425,25.5 L21.6425,40.2180833 L26.47825,40.2180833 L26.47825,40.2180833 Z" id="Path"></path>
            </g>
        </g>
    </g>
</svg>