<svg width="52px" height="52px" viewBox="0 0 52 52" version="1.1" xmlns="http://www.w3.org/2000/svg" xmlns:xlink="http://www.w3.org/1999/xlink">
    <g id="Page-1" stroke="none" stroke-width="1" fill="none" fill-rule="evenodd">
        <g id="landing_page" transform="translate(-609.000000, -3028.000000)" fill="#FFFFFF" fill-rule="nonzero">
            <g id="social-linkedin-circular-button" transform="translate(609.000000, 3028.000000)">
                <path d="M26,0 C11.6399766,0 0,11.6399766 0,26 C0,40.3600234 11.6399766,52 26,52 C40.3600234,52 52,40.3600234 52,26 C52,11.6399766 40.3600234,0 26,0 Z M26.0165816,49.8941327 C12.8289881,49.8941327 2.13903061,39.2041752 2.13903061,26.0165816 C2.13903061,12.8289881 12.8289881,2.13903061 26.0165816,2.13903061 C39.2041752,2.13903061 49.8941327,12.8289881 49.8941327,26.0165816 C49.8941327,39.2041752 39.2041752,49.8941327 26.0165816,49.8941327 Z" id="Shape"></path>
                <path d="M13.5405488,37.3966411 L18.6145284,37.3966411 L18.6145284,17.1007227 L13.5405488,17.1007227 L13.5405488,37.3966411 Z M33.8364672,17.1007227 C29.4925064,17.1734498 27.3553039,20.3397188 27.071161,20.4833758 L27.071161,17.1007227 L21.9971814,17.1007227 L21.9971814,37.3966411 L27.071161,37.3966411 L27.071161,25.5573554 C27.071161,25.1231073 28.1414536,21.6461628 32.1451406,22.1747023 C34.2956623,22.3150824 35.4550666,25.1592594 35.5277937,25.5573554 L35.5277937,37.3966411 L40.5819002,37.4197911 L40.5819002,23.3688846 C40.403571,21.3405612 39.3894093,17.1733441 33.8364672,17.1007227 Z M16.0775386,10.3354166 C14.6769088,10.3354166 13.5405488,11.4700853 13.5405488,12.8724064 C13.5405488,14.2747275 14.6769088,15.4093962 16.0775386,15.4093962 C17.4781684,15.4093962 18.6145284,14.2747275 18.6145284,12.8724064 C18.6145284,11.4700853 17.4781684,10.3354166 16.0775386,10.3354166 Z" id="Shape"></path>
            </g>
        </g>
    </g>
</svg>