<svg width="168px" height="34px" viewBox="0 0 168 34" version="1.1" xmlns="http://www.w3.org/2000/svg" xmlns:xlink="http://www.w3.org/1999/xlink">
    <g id="Page-1" stroke="none" stroke-width="1" fill="none" fill-rule="evenodd">
        <g id="Logo" transform="translate(-182.000000, -740.000000)">
            <g id="logo_with_name" transform="translate(183.000000, 741.000000)">
                <path d="M48.238,3.426 C49.163,3.426 49.64,3.484 50.595,3.601 L50.595,6.383 C50.208,6.354 49.685,6.237 49.312,6.237 C47.94,6.237 47.73,7.232 47.73,8.579 L47.73,9.985 L50.595,9.985 L50.595,12.796 L47.73,12.796 L47.73,28.724 L43.908,28.724 L43.908,12.796 L41.998,12.796 L41.998,9.985 L43.908,9.985 L43.908,9.268 C43.908,5.637 44.521,3.426 48.238,3.426" id="Fill-73" fill="#2C3031"></path>
                <path d="M57.04,23.586 C57.04,24.991 57.577,25.913 58.951,25.913 C59.875,25.913 60.458,25.064 60.861,24.537 L60.861,19.354 C59.354,20.35 57.04,21.316 57.04,23.586 Z M64.682,15.607 L64.682,24.039 C64.682,25.957 64.801,27.392 65.174,28.724 L61.368,28.724 L60.861,25.913 C60.099,27.392 59.249,28.987 57.04,28.987 C54.831,28.987 53.219,26.762 53.219,24.581 C53.219,19.706 57.174,18.374 60.861,16.954 L60.861,15.607 C60.861,13.952 60.547,12.62 58.951,12.62 C57.382,12.62 57.04,13.967 57.04,15.607 L53.219,15.607 C53.263,12.064 55.323,9.721 58.951,9.721 C62.577,9.721 64.682,12.122 64.682,15.607 L64.682,15.607 Z" id="Fill-74" fill="#2C3031"></path>
                <path d="M75.109,25.913 C77.019,25.913 77.019,24.039 77.019,22.165 L80.84,22.165 C80.84,26.279 79.362,28.987 75.109,28.987 C69.929,28.987 69.377,24.42 69.377,19.354 C69.377,14.289 69.929,9.721 75.109,9.721 C79.482,9.721 80.84,12.283 80.84,16.544 L77.019,16.544 C77.019,14.787 76.87,12.634 75.109,12.634 C72.811,12.634 73.198,16.982 73.198,19.354 C73.198,21.712 72.766,25.913 75.109,25.913" id="Fill-75" fill="#2C3031"></path>
                <path d="M90.118,28.987 C87.043,28.987 85.82,27.407 85.789,24.449 L85.789,12.796 L83.878,12.796 L83.878,9.985 L85.789,9.985 L85.789,3.426 L89.61,3.426 L89.61,9.985 L92.476,9.985 L92.476,12.796 L89.61,12.796 L89.61,23.732 C89.61,25.064 89.82,25.913 91.192,25.913 C91.551,25.913 92.133,25.825 92.476,25.767 L92.476,28.812 C91.52,28.929 91.043,28.987 90.118,28.987" id="Fill-76" fill="#2C3031"></path>
                <path d="M100.128,16.544 L100.128,22.165 C100.128,24.039 100.128,25.913 102.038,25.913 C103.949,25.913 103.949,24.039 103.949,22.165 L103.949,16.544 C103.949,14.67 103.949,12.796 102.038,12.796 C100.128,12.796 100.128,14.67 100.128,16.544 Z M96.307,22.165 L96.307,16.544 C96.307,12.386 97.739,9.721 102.038,9.721 C106.337,9.721 107.77,12.386 107.77,16.544 L107.77,22.165 C107.77,26.323 106.337,28.987 102.038,28.987 C97.739,28.987 96.307,26.323 96.307,22.165 L96.307,22.165 Z" id="Fill-77" fill="#2C3031"></path>
                <path d="M120.72,9.721 C120.914,9.721 121.048,9.751 121.331,9.78 L121.331,13.923 C120.765,13.703 119.959,13.513 119.212,13.513 C117.63,13.513 116.555,14.523 116.555,16.075 L116.555,28.724 L112.734,28.724 L112.734,9.985 L116.555,9.985 L116.555,12.488 C117.242,11.185 118.75,9.721 120.72,9.721" id="Fill-78" fill="#2C3031"></path>
                <path d="M129.536,12.796 C128.327,12.796 127.625,13.469 127.625,14.67 C127.625,15.402 128.163,15.943 128.58,16.25 L132.401,19.061 C133.909,20.248 135.267,21.667 135.267,24.039 C135.267,27.319 132.924,28.987 129.536,28.987 C126.178,28.987 124.446,26.704 123.804,24.039 L126.67,23.102 C127.102,24.288 127.924,25.913 129.536,25.913 C130.745,25.913 131.446,25.24 131.446,24.039 C131.446,23.014 131.029,22.355 130.491,21.872 L126.67,19.061 C125.223,18.081 123.804,16.895 123.804,14.67 C123.804,11.39 126.147,9.721 129.536,9.721 C132.954,9.721 134.626,12.005 135.267,14.67 L132.401,15.607 C131.939,14.421 131.178,12.796 129.536,12.796" id="Fill-79" fill="#2C3031"></path>
                <polygon id="Fill-80" fill="#035DD2" points="138.77 28.724 142.591 28.724 142.591 24.976 138.77 24.976"></polygon>
                <path d="M150.021,23.586 C150.021,24.991 150.557,25.913 151.931,25.913 C152.855,25.913 153.439,25.064 153.842,24.537 L153.842,19.354 C152.334,20.35 150.021,21.316 150.021,23.586 Z M157.663,15.607 L157.663,24.039 C157.663,25.957 157.781,27.392 158.155,28.724 L154.349,28.724 L153.842,25.913 C153.079,27.392 152.23,28.987 150.021,28.987 C147.811,28.987 146.199,26.762 146.199,24.581 C146.199,19.706 150.154,18.374 153.842,16.954 L153.842,15.607 C153.842,13.952 153.528,12.62 151.931,12.62 C150.363,12.62 150.021,13.967 150.021,15.607 L146.199,15.607 C146.243,12.064 148.303,9.721 151.931,9.721 C155.558,9.721 157.663,12.122 157.663,15.607 L157.663,15.607 Z" id="Fill-81" fill="#035DD2"></path>
                <path d="M162.88,28.724 L166.701,28.724 L166.701,9.985 L162.88,9.985 L162.88,28.724 Z M162.88,7.174 L166.701,7.174 L166.701,3.426 L162.88,3.426 L162.88,7.174 Z" id="Fill-82" fill="#035DD2"></path>
                <path d="M9.916,27.75 C9.85,27.75 9.784,27.755 9.719,27.76 L4.055,17.951 C4.432,17.537 4.664,16.989 4.664,16.385 C4.664,15.781 4.432,15.232 4.055,14.818 L9.918,4.663 C11.205,4.662 12.248,3.619 12.248,2.332 C12.248,1.044 11.204,4.54747351e-13 9.916,4.54747351e-13 C8.628,4.54747351e-13 7.584,1.044 7.584,2.332 C7.584,2.914 7.8,3.445 8.152,3.854 L2.262,14.056 C1.007,14.094 0,15.12 0,16.385 C0,17.649 1.007,18.676 2.262,18.713 L8.034,28.71 C7.752,29.095 7.584,29.568 7.584,30.082 C7.584,31.37 8.628,32.414 9.916,32.414 C11.204,32.414 12.248,31.37 12.248,30.082 C12.248,28.794 11.204,27.75 9.916,27.75" id="Fill-83" stroke="#035DD2" fill="#035DD2"></path>
                <path d="M36.564,16.385 C36.564,15.106 35.534,14.069 34.26,14.054 L28.386,3.881 C28.754,3.469 28.979,2.927 28.979,2.332 C28.979,1.044 27.935,4.54747351e-13 26.647,4.54747351e-13 C25.359,4.54747351e-13 24.315,1.044 24.315,2.332 C24.315,3.605 25.336,4.638 26.604,4.661 L32.483,14.845 C32.121,15.256 31.9,15.794 31.9,16.385 C31.9,16.975 32.121,17.513 32.483,17.924 L26.806,27.758 C26.753,27.754 26.701,27.75 26.647,27.75 C25.359,27.75 24.315,28.794 24.315,30.082 C24.315,31.37 25.359,32.414 26.647,32.414 C27.935,32.414 28.979,31.37 28.979,30.082 C28.979,29.555 28.802,29.07 28.507,28.679 L34.26,18.715 C35.534,18.7 36.564,17.663 36.564,16.385" id="Fill-84" stroke="#035DD2" fill="#035DD2"></path>
                <path d="M23.5034545,7.70875252 C23.1019838,7.49212439 22.591493,7.62455366 22.3622048,8.00303978 L13.0357983,23.4220577 C12.8065101,23.8005438 12.9458135,24.2836654 13.3464189,24.5002935 C13.7478896,24.7169216 14.2592456,24.5853098 14.4885338,24.2060062 L23.8149404,8.78780583 C24.0442286,8.40850224 23.9049252,7.92538064 23.5034545,7.70875252" id="Fill-85" stroke="#035DD2" fill="#035DD2"></path>
            </g>
        </g>
    </g>
</svg>