
<svg width="358px" height="211px" viewBox="0 0 358 211" version="1.1" xmlns="http://www.w3.org/2000/svg" xmlns:xlink="http://www.w3.org/1999/xlink">
    <defs>
        <ellipse id="path-1" cx="23.1721041" cy="25.0985945" rx="23.1721041" ry="25.0985945"></ellipse>
    </defs>
    <g id="Page-1" stroke="none" stroke-width="1" fill="none" fill-rule="evenodd">
        <g id="Tabs" transform="translate(-786.000000, -1233.000000)">
            <g id="Group-11" transform="translate(786.000000, 1233.000000)">
                <g id="Group-4" transform="translate(31.000000, 0.000000)">
                    <g id="Group-10">
                        <g id="Group">
                            <text id="Users-from" font-family="Avenir-Light, Avenir" font-size="11.8912073" font-weight="300" fill="#606F7B">
                                <tspan x="0" y="12">Users from  </tspan>
                            </text>
                            <text id="are-more-likely-to" font-family="Avenir-Light, Avenir" font-size="11.8912073" font-weight="300" fill="#606F7B">
                                <tspan x="113.51078" y="12">are more likely to</tspan>
                            </text>
                            <rect id="Rectangle" fill="#E5F8E1" x="59.5850059" y="0.467144543" width="48.45" height="18.05" rx="3.55314961"></rect>
                            <text id="iphone" font-family="Avenir-Light, Avenir" font-size="11.8912073" font-weight="300" fill="#647261">
                                <tspan x="66.8902811" y="12.6756594">iphone</tspan>
                            </text>
                            <rect id="Rectangle" fill="#E5F8E1" x="275.669037" y="0.0634891082" width="45.6" height="18.05" rx="3.55314961"></rect>
                            <text id="5-visits" font-family="Avenir-Light, Avenir" font-size="11.8912073" font-weight="300" fill="#647261">
                                <tspan x="278.309581" y="13.0682287"> 5 visits</tspan>
                            </text>
                            <rect id="Rectangle" fill="#E5F8E1" x="208.234748" y="0.0634891082" width="32.3" height="18.05" rx="3.55314961"></rect>
                            <text id="buy" font-family="Avenir-Light, Avenir" font-size="11.8912073" font-weight="300" fill="#647261">
                                <tspan x="214.859691" y="12.3378297">buy</tspan>
                            </text>
                            <text id="after" font-family="Avenir-Light, Avenir" font-size="11.8912073" font-weight="300" fill="#606F7B">
                                <tspan x="245.940024" y="12.3378297">after</tspan>
                            </text>
                            <text id="." font-family="Avenir-Light, Avenir" font-size="11.8912073" font-weight="300" fill="#606F7B">
                                <tspan x="324.654344" y="12.6756594">.</tspan>
                            </text>
                        </g>
                        <g id="Group-6" transform="translate(20.000000, 59.000000)">
                            <path d="M0.275237046,0 L0.275237046,97.8020311" id="Line-6" stroke="#005B96" stroke-width="3.19390851" stroke-linecap="square"></path>
                            <path d="M1.05001906,98.5993678 L120.692893,98.5993678" id="Line-2" stroke="#005B96" stroke-width="3.19390851" stroke-linecap="square"></path>
                            <rect id="Rectangle" fill="#005B96" x="14.2350669" y="23.6811435" width="11.1678639" height="63.29989"></rect>
                            <rect id="Rectangle" fill="#953084" x="63.571066" y="42.2523364" width="11.1678639" height="44.8708081"></rect>
                            <rect id="Rectangle" fill="#597BA7" x="88.4467005" y="21.1231446" width="11.1678639" height="66"></rect>
                            <rect id="Rectangle" fill="#26812B" x="39.0025381" y="7.71028037" width="11.1678639" height="79.2616822"></rect>
                        </g>
                        <g id="Group-5" transform="translate(168.000000, 98.000000)">
                            <g id="donut_2">
                                <ellipse id="Oval" stroke="#69B6DE" stroke-width="13.2525858" transform="translate(23.172104, 25.098595) scale(1, -1) rotate(180.000000) translate(-23.172104, -25.098595) " cx="23.1721041" cy="25.0985945" rx="23.1721041" ry="25.0985945"></ellipse>
                                <mask id="mask-2" fill="white">
                                    <use xlink:href="#path-1"></use>
                                </mask>
                                <use id="Oval" stroke="#005B96" stroke-width="13.2525858" stroke-dasharray="68.98606711060461,22.51124068768355" transform="translate(23.172104, 25.098595) scale(1, -1) rotate(180.000000) translate(-23.172104, -25.098595) " xlink:href="#path-1"></use>
                            </g>
                            <g id="donut_1" transform="translate(93.319607, 0.000000)" stroke-width="13.2494828">
                                <ellipse id="Oval" stroke="#69B6DE" transform="translate(23.172104, 25.098595) scale(1, -1) rotate(180.000000) translate(-23.172104, -25.098595) " cx="23.1721041" cy="25.0985945" rx="23.1721041" ry="25.0985945"></ellipse>
                                <path d="M23.1721041,50.1971891 C35.9697038,50.1971891 46.3442082,38.9601655 46.3442082,25.0985945 C46.3442082,11.2370235 35.9697038,0 23.1721041,0 C10.3745044,0 0,11.2370235 0,25.0985945 C0,38.9601655 10.3745044,50.1971891 23.1721041,50.1971891 Z" id="Oval" stroke="#005B96" stroke-dasharray="119.9713463330791,82.40088581168739" transform="translate(23.172104, 25.098595) rotate(180.000000) translate(-23.172104, -25.098595) "></path>
                            </g>
                            <path id="Line" d="M78.3834665,26.176811 L60.7697717,34.7732851 C60.1804445,35.0609099 59.4638284,34.8277439 59.1691648,34.2524943 C59.086336,34.0907938 59.0432141,33.91249 59.0432141,33.7317034 L59.0432141,16.5387552 C59.0432141,15.8956066 59.5773482,15.3742316 60.2362361,15.3742316 C60.4214469,15.3742316 60.6041141,15.4163234 60.7697717,15.4971736 L78.3834665,24.0936477 C78.9727937,24.3812725 79.2116657,25.0807705 78.9170021,25.6560202 C78.8015609,25.8813874 78.6143489,26.0641273 78.3834665,26.176811 Z" fill="#0A7B61" fill-rule="nonzero"></path>
                        </g>
                    </g>
                </g>
                <g id="person_1" transform="translate(39.500000, 120.500000) scale(-1, 1) translate(-39.500000, -120.500000) translate(0.000000, 30.000000)" fill-rule="nonzero">
                    <path d="M10.0501454,30.7429168 L9.37448661,36.2008374 L8.54223752,36.8311111 L5.43836182,38.266631 C5.77043609,37.1944206 5.4347729,36.0815493 5.4347729,36.0815493 L4.06015808,30.4312246 C4.06015808,30.4312246 1.92281684,20.8960502 7.68216102,21.312882 C7.63941534,13.5485388 9.56629605,14.8340119 9.56629605,14.8340119 L9.81763208,26.5335912 C10.3531612,27.8578228 10.4351681,29.3557084 10.0501454,30.7429168 Z" id="Fill-267" fill="#F0AB85" transform="translate(6.980705, 26.510550) rotate(-19.000000) translate(-6.980705, -26.510550) "></path>
                    <path d="M33.4720325,53.7053729 C29.8557364,54.0160437 13.7282974,34.9219969 13.7282974,34.9219969 L9.90237842,38.0284318 C9.90237842,38.0284318 11.4510519,41.1564433 13.9388791,45.2451224 C18.5289986,52.788864 26.3161298,63.6028535 33.4720325,64.0745489 C37.8966107,64.36624 41.3243493,61.9693085 42.8793865,61.4229739 C45.2019453,60.6069842 44.3371715,61.4229739 44.3371715,61.4229739 L42.8793865,38.0284318 C42.8793865,38.0284318 40.9537166,46.4642713 38.1927999,50.7712109 C37.1027234,52.4716947 34.4960637,53.6174333 33.4720325,53.7053729 Z" id="Fill-268" fill="#B3CDE0"></path>
                    <path d="M42.9078802,84.6186849 L71.7505218,84.6186849 C71.7505218,84.6186849 71.7505218,62.3878695 71.7505218,38.3246767 C63.5091787,25.0366758 53.2401055,28.6564555 53.2401055,28.6564555 C53.2401055,28.6564555 43.9032115,28.8334548 42.4465957,37.8850802 C42.4465957,44.4355032 42.9078802,84.6186849 42.9078802,84.6186849" id="Fill-269" fill="#005B96"></path>
                    <path d="M57.1460623,22.5649826 L57.5712027,29.2269508 L57.3702521,29.4337067 C55.3457092,31.5145564 52.1810793,31.5632917 50.1045899,29.5429919 L50.0088992,24.5321167 L57.1460623,22.5649826" id="Fill-270" fill="#EC967C"></path>
                    <path d="M59.4617786,8.46186849 L58.9334717,19.1331313 C57.9059773,19.0916256 57.3014057,20.230886 57.4983074,21.2284544 C57.3915368,21.4717638 57.3319116,21.7408353 57.3263651,22.0156318 C55.5403828,23.3352273 52.2956636,25.0555677 48.1121944,24.2297471 C41.570064,22.9359137 45.5178057,9.88021901 45.5178057,9.88021901 L59.4617786,8.46186849" id="Fill-271" fill="#F0AB85"></path>
                    <path d="M62.6992096,16.6888361 C62.7479968,15.8761301 63.7864691,14.1526585 64.3649469,13.6192738 C68.0895076,10.1857024 64.758033,7.68072562 63.5759868,6.87099113 C62.2684875,5.97805457 62.5263632,3.44930578 60.8341413,2.03784199 C58.2498091,-0.116497464 55.7588698,2.11658681 54.1042838,1.78972152 C52.4496979,1.46434197 51.4223771,-0.88314516 49.0178609,0.360428719 C46.6105568,1.60251685 46.8754021,3.61719568 46.104563,4.4655597 C45.3337239,5.31540947 43.9161048,2.96792234 41.5701333,5.64970353 C38.0002979,9.72957673 45.0019703,11.4753346 45.0019703,11.4753346 C45.0019703,11.4753346 48.8324692,13.1661196 53.903559,11.0444667 C54.5991263,10.7532594 55.4271162,10.9137206 55.8689896,11.5585366 C57.0789143,13.3221235 57.0928535,22.5649826 57.0928535,22.5649826 L58.7836814,21.0643738 C58.7836814,21.0643738 62.474788,20.4106432 62.6992096,16.6888361" id="Fill-272" fill="#1B2441"></path>
                    <path d="M58.4107926,17.6360336 C58.1148584,18.5966535 57.2864901,19.0564373 56.5621323,18.663979 C55.8365362,18.2698785 55.4898349,17.1729655 55.7870074,16.2123456 C56.0829417,15.2500837 56.9113099,14.7902998 57.6356678,15.1844003 C58.3600257,15.5768586 58.7067269,16.6754137 58.4107926,17.6360336" id="Fill-273" fill="#F0AB85"></path>
                    <path d="M49.6344176,172.057993 C49.6344176,172.057993 47.9993783,174.527984 40.2988261,176.670954 C38.6030765,177.142649 36.774868,177.463642 36.774868,180.519861 C40.3719545,180.519861 44.3760761,180.519861 44.3760761,180.519861 L52.1497566,179.052032 L52.1497566,180.519861 L56.3470473,180.519861 C56.3470473,180.519861 57.5171008,173.020973 55.0638519,172.057993 C52.7941138,172.057993 49.6344176,172.057993 49.6344176,172.057993" id="Fill-274" fill="#1B2441"></path>
                    <path d="M49.0636112,167.356955 L49.4529133,172.171787 C50.9430003,173.209118 52.8989073,173.27513 54.4547729,172.340185 L54.7353389,172.171787 L54.7353389,167.356955 L49.0636112,167.356955" id="Fill-275" fill="#F0AB85"></path>
                    <path d="M71.3745564,172.057993 C71.3745564,172.057993 69.7422899,174.527984 62.0404202,176.670954 C60.3446843,177.142649 58.5164906,177.463642 58.5164906,180.519861 C62.1121682,180.519861 66.1190169,180.519861 66.1190169,180.519861 L73.8912548,179.052032 L73.8912548,180.519861 L78.0885116,180.519861 C78.0885116,180.519861 79.2585555,173.020973 76.8067063,172.057993 C74.5356068,172.057993 71.3745564,172.057993 71.3745564,172.057993" id="Fill-276" fill="#1B2441"></path>
                    <path d="M70.8052338,167.356955 L71.1931016,172.171787 C72.6841781,173.209118 74.6409644,173.27513 76.1964619,172.340185 L76.4769615,172.171787 L76.4769615,167.356955 L70.8052338,167.356955" id="Fill-277" fill="#F0AB85"></path>
                    <path d="M72.2556346,38.548512 C72.2556346,38.548512 81.044563,59.8679076 69.831247,70.7608688 C58.6165352,81.6523629 43.3918836,79.7979921 43.3918836,79.7979921 L43.3918836,73.6583231 C43.3918836,73.6583231 57.1538074,72.4347905 61.5629268,62.7653619 C65.9720462,53.0959333 59.7987208,44.7277918 59.7987208,44.7277918" id="Fill-278" fill="#005B96"></path>
                    <path d="M44.3371715,78.8267704 L37.2944135,78.9774393 C34.4347373,78.8153992 32.5315541,74.4815382 32.0554082,71.2592152 C31.9853867,70.7745165 32.4545305,70.3921588 32.9096699,70.5527774 C35.3002024,71.3942486 41.4480863,73.6031105 43.0361729,74.603779 L44.3371715,78.8267704" id="Fill-279" fill="#F0AB85"></path>
                    <path d="M43.4315025,84.6186849 C34.8276531,110.359545 48.2736561,167.356955 48.2736561,167.356955 L55.9370816,167.356955 C55.9370816,167.356955 52.3236571,86.5333905 62.2976424,84.6186849 C47.0504186,84.6186849 49.9664192,84.6186849 43.4315025,84.6186849" id="Fill-280" fill="#1B2441"></path>
                    <path d="M61.8824085,62.8077742 C57.5658575,72.3963861 43.3918836,73.6664299 43.3918836,73.6664299 L43.3918836,79.8173404 C43.3918836,79.8173404 58.9978757,81.5369185 69.9771373,70.736455 C73.9575467,66.8215779 75.3554041,61.5464593 75.5316735,56.4124566 L63.4141761,56.4124566 C63.3267246,58.4157215 62.8867343,60.5761051 61.8824085,62.8077742 Z" id="Fill-281" fill="#B3CDE0"></path>
                    <path d="M63.3231917,57.3526642 C63.5983683,57.2060312 63.8747901,57.0638416 64.1449861,56.9083217 C64.6168954,49.6951615 61.0707278,44.2564091 61.0259026,44.1897577 L60.4070665,44.7703652 C60.4531368,44.8370166 63.9856078,50.2624388 63.3231917,57.3526642" id="Fill-282" fill="#2F80AF"></path>
                    <path d="M9.25050957,25.9890119 C9.25050957,25.9890119 10.8824827,25.4700093 11.1322578,22.2907753 C11.3820329,19.1115413 12.7910655,20.0970545 12.7910655,20.0970545 C12.7910655,20.0970545 12.0804707,32.629547 10.2089156,33.0985463 C8.33735803,33.5660422 9.25050957,25.9890119 9.25050957,25.9890119" id="Fill-283" fill="#F0AB85" transform="translate(10.909420, 26.536018) rotate(-19.000000) translate(-10.909420, -26.536018) "></path>
                    <path d="M51.1577865,83.6784773 C48.771888,115.242021 68.1429783,166.416747 68.1429783,166.416747 L77.4222494,166.416747 C77.4222494,166.416747 71.1162609,133.693614 70.9875958,102.982667 C70.9610237,96.3364854 71.221151,89.784875 71.8994398,83.6784773 C65.4941555,83.6784773 56.9742882,83.6784773 51.1577865,83.6784773" id="Fill-284" fill="#13374D"></path>
                </g>
            </g>
        </g>
    </g>
</svg>