
<svg width="485px" height="359px" viewBox="0 0 485 359" version="1.1" xmlns="http://www.w3.org/2000/svg" xmlns:xlink="http://www.w3.org/1999/xlink">
    <g id="Page-1" stroke="none" stroke-width="1" fill="none" fill-rule="evenodd">
        <g id="Tabs" transform="translate(-690.000000, -117.000000)">
            <g id="Group-7" transform="translate(690.000000, 117.000000)">
                <rect id="Rectangle" fill="#005B96" x="0.297208244" y="48.6301685" width="35" height="285"></rect>
                <g id="measure">
                    <g id="dashboard" transform="translate(0.308779, 0.354959)">
                        <g id="Group-4" transform="translate(281.000000, 109.000000)">
                            <path d="M105.33328,9.25761643 C105.630993,18.1499683 102.712975,26.6394111 95.8624229,32.5101865 C101.846614,36.1665757 107.359265,42.408928 111.531975,48.8167253 C118.543198,59.583681 120.395464,72.3799108 118.845466,84.3667679 C120.16706,83.7302976 122.222869,83.0833574 123.700408,82.8032442 C124.642379,82.7568349 125.582774,82.7104256 126.52317,82.6640163 C127.644713,80.9883094 128.726877,79.2827679 129.742882,77.5291597 C130.420219,76.3589825 131.116458,74.1694584 132.056854,73.1550839 C132.086782,73.116962 132.118286,73.0838125 132.148215,73.050663 C132.416,72.4672319 132.685359,71.8854583 132.949993,71.3003697 C135.101719,66.5434173 138.818441,70.440768 142.765896,68.4832903 C140.705532,51.3019075 136.727327,42.7868323 131.352738,34.5292933 C124.417125,23.8783608 115.510659,14.8201016 105.33328,9.25761643 Z" id="Fill-32" fill="#EE9E35" fill-rule="nonzero"></path>
                            <path d="M63.8200525,143.849729 C63.8263918,143.844683 63.8343159,143.839636 63.84224,143.836272 C63.5506329,142.260162 63.2146508,140.697509 62.8041822,139.131491 C62.628267,138.465387 62.4380885,137.804329 62.2590037,137.138225 C62.2415706,137.06926 62.2257224,137.013751 62.211459,136.956561 C61.6551868,135.084404 61.1036691,133.212248 60.5569058,131.33841 C60.0719505,129.679878 59.9229773,128.028074 60.0402541,126.418323 C51.0971083,123.920432 42.7894758,118.712709 36.3234055,111.013824 C32.198116,115.742154 27.4832731,119.545339 22.2660418,123.109669 C20.4228948,124.369548 17.5329375,123.225096 15.6184735,123.894565 C24.4205702,135.162826 40.8369761,146.292111 53.2049204,150.72944 C56.8294064,146.953168 58.0180223,143.829544 63.2241598,143.829544 C63.4254321,143.829544 63.6219499,143.841318 63.8200525,143.849729 Z" id="Fill-33" fill="#3396C0" fill-rule="nonzero"></path>
                            <path d="M32.88081,105.687892 C17.9151326,82.5105635 23.4920913,50.8497794 45.3377991,34.9701909 C62.865608,22.2308319 85.5349704,23.533285 101.542791,36.512789 L112.148129,13.3004396 C86.885198,-4.13675607 59.7391788,-3.73984975 31.7883674,13.9875211 C-0.980194347,37.8052361 -9.34720419,85.2972462 13.1036697,120.063239 C14.9710392,122.956652 17.0003102,125.658284 19.1584737,128.188145 L39.2075458,113.616012 C36.8937681,111.252919 34.7686136,108.609656 32.88081,105.687892 Z" id="Fill-34" fill="#21837F" fill-rule="nonzero"></path>
                            <path d="M142.765896,68.4832903 L118.615292,68.0780227 C122.305185,89.0885657 113.256125,111.149803 94.7645014,122.020315 C83.4918251,128.646358 70.8090883,129.8705 59.3021827,126.528293 L53.107598,151.097853 C69.8440635,155.293957 81.1307936,154.845328 94.1851742,149.845359 C102.764213,146.558188 110.724887,141.671627 117.681498,135.379138 C137.000732,117.894257 145.545417,95.4344235 142.765896,68.4832903" id="Fill-35" fill="#3B5F93" fill-rule="nonzero"></path>
                            <ellipse id="Oval" fill="#FBE8E8" cx="72.3189414" cy="75.4384458" rx="36.5465452" ry="38.335537"></ellipse>
                            <text id="72k-users" font-family="Avenir-Medium, Avenir" font-size="13.4941093" font-weight="400" fill="#AF9494">
                                <tspan x="61.5700655" y="71.5708095">72k </tspan>
                                <tspan x="56.5839921" y="89.5708095">users</tspan>
                            </text>
                        </g>
                        <g id="Group-8" transform="translate(284.691221, 274.645041)" fill="#21837F" fill-rule="nonzero">
                            <polygon id="Fill-36" points="0 10 50 10 50 0 0 0"></polygon>
                            <polygon id="Fill-37" points="0 20 50 20 50 14 0 14"></polygon>
                            <polygon id="Fill-38" points="0 31 50 31 50 25 0 25"></polygon>
                            <polygon id="Fill-39" points="0 42 50 42 50 36 0 36"></polygon>
                        </g>
                        <g id="Group-8" transform="translate(382.691221, 274.645041)" fill="#21837F" fill-rule="nonzero">
                            <polygon id="Fill-36" points="0 10 50 10 50 0 0 0"></polygon>
                            <polygon id="Fill-37" points="0 20 50 20 50 14 0 14"></polygon>
                            <polygon id="Fill-38" points="0 31 50 31 50 25 0 25"></polygon>
                            <polygon id="Fill-39" points="0 42 50 42 50 36 0 36"></polygon>
                        </g>
                        <g id="bar_graph" transform="translate(72.000000, 115.000000)" fill-rule="nonzero">
                            <polygon id="Fill-71" fill="#13374D" points="0.691220948 93.6450413 8.69122095 93.6450413 8.69122095 55.6450413 0.691220948 55.6450413"></polygon>
                            <polygon id="Fill-72" fill="#3396C0" points="45.6912209 94.6450413 53.6912209 94.6450413 53.6912209 41.6450413 45.6912209 41.6450413"></polygon>
                            <polygon id="Fill-73" fill="#FACB57" points="14.6912209 94.6450413 24.6912209 94.6450413 24.6912209 34.6450413 14.6912209 34.6450413"></polygon>
                            <polygon id="Fill-74" fill="#EE9E35" points="59.6912209 93.6450413 67.6912209 93.6450413 67.6912209 0.645041326 59.6912209 0.645041326"></polygon>
                            <polygon id="Fill-75" fill="#21837F" points="31.6912209 93.6450413 39.6912209 93.6450413 39.6912209 16.6450413 31.6912209 16.6450413"></polygon>
                            <polygon id="Fill-76" fill="#13374D" points="77.6912209 94.6450413 85.6912209 94.6450413 85.6912209 80.6450413 77.6912209 80.6450413"></polygon>
                            <polygon id="Fill-77" fill="#3396C0" points="123.691221 94.6450413 131.691221 94.6450413 131.691221 71.6450413 123.691221 71.6450413"></polygon>
                            <polygon id="Fill-78" fill="#FACB57" points="91.6912209 93.6450413 102.691221 93.6450413 102.691221 52.6450413 91.6912209 52.6450413"></polygon>
                            <polygon id="Fill-79" fill="#EE9E35" points="138.691221 93.6450413 146.691221 93.6450413 146.691221 67.6450413 138.691221 67.6450413"></polygon>
                            <polygon id="Fill-80" fill="#21837F" points="108.691221 94.6450413 116.691221 94.6450413 116.691221 28.6450413 108.691221 28.6450413"></polygon>
                        </g>
                        <g id="Group" transform="translate(63.000000, 239.000000)" fill-rule="nonzero">
                            <polyline id="Fill-98" fill="#1B2441" points="63.0429186 49.2146237 78.5386326 20.5055511 95.7560926 42.0997006 129.71351 0 167.819549 64.253329 100.336005 75.1891892 46.8733723 66.7497452 63.0429186 49.2146237"></polyline>
                            <polygon id="Fill-99" fill="#EE9E35" points="25.3278702 33.9097292 46.8733723 66.7497452 51.5125765 69.1358349 72.119314 60.9765299 92.9991466 17.7788135 122.297138 54.1742326 162.306537 10.9019285 186 77.2972973 0 77.2972973"></polygon>
                            <polyline id="Fill-100" fill="#3B5F93" points="0 77.5012008 17.1708588 55.9490067 35.2019675 65.3779581 54.0899122 42.4796866 72.119314 61.3375894 103.284593 20.3783784 139.089077 61.3375894 185.90783 20.3783784 186 77.5012008 0 77.5012008 89.5037594 78"></polyline>
                        </g>
                        <polygon id="Fill-111" fill="#3396C0" fill-rule="nonzero" points="0.82639785 32.1998226 483.826398 32.1998226 483.826398 0.25354191 0.82639785 0.25354191"></polygon>
                        <path d="M459.422116,21.9770833 C462.474555,21.9770833 464.949947,19.3650818 464.949947,16.1430059 C464.949947,12.9199706 462.474555,10.3079692 459.422116,10.3079692 C456.368769,10.3079692 453.894285,12.9199706 453.894285,16.1430059 C453.894285,19.3650818 456.368769,21.9770833 459.422116,21.9770833 Z" id="Fill-112" fill="#011F4B" fill-rule="nonzero"></path>
                        <path d="M437.617512,21.4699995 C440.669951,21.4699995 443.145343,18.857998 443.145343,15.635922 C443.145343,12.4128868 440.669951,9.80088537 437.617512,9.80088537 C434.564164,9.80088537 432.089681,12.4128868 432.089681,15.635922 C432.089681,18.857998 434.564164,21.4699995 437.617512,21.4699995 Z" id="Fill-113" fill="#FFFFFE" fill-rule="nonzero"></path>
                    </g>
                    <g id="person_2" transform="translate(429.000000, 151.000000)" fill-rule="nonzero">
                        <polyline id="Fill-191" fill="#F0AB85" points="14.3547418 41.0305946 5.3247232 58.5681812 15.2749073 58.0716953 15.9741696 40.4652889 14.3547418 41.0305946"></polyline>
                        <polyline id="Fill-192" fill="#FFFFFE" points="28.8083036 31.9579257 20.4866546 31.9462807 17.0391142 88.3847099 31.9483392 88.3847099 28.8083036 31.9579257"></polyline>
                        <path d="M44.0984252,197.002064 C44.0984252,197.002064 46.1189304,198.631976 45.7468959,200.709316 C45.3779747,202.786655 44.8533905,207.650824 44.8533905,207.650824 L42.7768466,207.650824 L42.8406684,203.114235 C42.8344419,202.815418 38.3887077,207.650824 37.6337424,207.650824 L26.6486071,207.650824 C26.6486071,207.650824 25.9169912,204.589146 32.3707776,203.606405 C38.8214508,202.622066 44.0984252,197.002064 44.0984252,197.002064" id="Fill-193" fill="#13374D"></path>
                        <path d="M38.5358584,194.872312 L37.0340474,199.071299 C36.6652641,200.224755 35.9449598,201.202833 34.9876927,201.862192 C33.9331295,202.589004 32.2775281,203.600808 29.8184499,204.384956 C32.8267797,207.145495 37.6162542,204.261854 40.3562353,202.223068 C41.6932707,201.228128 42.6364143,199.745835 43.0350141,198.052749 L43.6627302,194.872312 L38.5358584,194.872312" id="Fill-194" fill="#F0AB85"></path>
                        <path d="M22.7998223,197.002064 C22.7998223,197.002064 24.8188183,198.631976 24.4483317,200.709316 C24.0794019,202.786655 23.5548054,207.650824 23.5548054,207.650824 L21.4782127,207.650824 L21.5420361,203.114235 C21.5358094,202.815418 17.0899709,207.650824 16.3365445,207.650824 L5.34959486,207.650824 C5.34959486,207.650824 4.61951843,204.589146 11.0703429,203.606405 C17.5227241,202.622066 22.7998223,197.002064 22.7998223,197.002064" id="Fill-195" fill="#13374D"></path>
                        <path d="M18.3034795,194.872312 L16.8016685,199.071299 C16.431316,200.224755 15.712581,201.202833 14.7553138,201.862192 C13.6991813,202.589004 12.0467185,203.600808 9.58450176,204.384956 C12.5944008,207.145495 17.3854446,204.261854 20.1254257,202.223068 C21.4608919,201.228128 22.4056047,199.745835 22.8026352,198.052749 L23.4287821,194.872312 L18.3034795,194.872312" id="Fill-196" fill="#F0AB85"></path>
                        <path d="M35.0499903,88.3847099 C35.0499903,88.3847099 36.4489842,96.7289675 28.4055622,137.739406 C34.9167528,159.112619 24.489331,194.872312 24.489331,194.872312 L16.8884479,194.872312 L11.714391,88.3847099 L35.0499903,88.3847099" id="Fill-197" fill="#1B2441"></path>
                        <path d="M21.2988928,33.0111567 L18.5824429,101.163222 L9.58450176,97.1647955 C9.58450176,97.1647955 13.6392379,84.3714858 13.2548195,66.5995968 C14.6313881,53.7450276 7.60498661,60.5166901 16.2137241,35.769492 C19.4166786,32.9995675 21.2988928,33.0111567 21.2988928,33.0111567" id="Fill-198" fill="#005B96"></path>
                        <path d="M20.2339482,25.5120417 L21.2351782,31.1537646 C21.6766296,33.6364478 24.3086509,34.8672213 26.3065598,33.5242637 L29.8184499,31.1651456 L23.5471093,15.9731403 L20.2339482,25.5120417" id="Fill-199" fill="#EC967C"></path>
                        <path d="M41.930325,88.3847099 C41.930325,88.3847099 51.6409764,96.7289675 43.7975794,137.739406 C50.146554,159.112619 44.5432436,194.872312 44.5432436,194.872312 L37.8895059,194.872312 L19.1690035,88.3847099 L41.930325,88.3847099" id="Fill-200" fill="#13374D"></path>
                        <path d="M28.2282009,26.6219006 C28.2282009,26.6219006 36.3673475,31.5239504 38.897103,35.899429 C41.3085882,40.0692156 42.1426242,49.5623092 42.3745568,58.0137789 C42.6925042,69.6148033 47.9225088,100.098346 47.9225088,100.098346 L26.1024075,100.098346 L25.5586714,33.7404866 L28.2282009,26.6219006" id="Fill-201" fill="#005B96"></path>
                        <path d="M12.2126028,8.46113526 C17.3093979,7.11390911 22.212664,12.5606701 22.212664,12.5606701 L26.046761,34.0815747 L31.9446397,24.6096656 C31.9446397,24.6096656 32.2793499,11.7407631 26.5813455,3.21935106 C22.4981987,-1.93978123 14.6634427,-0.460312017 10.7024413,4.55831202 C8.7766681,6.99984948 8.37374685,10.3703944 8.56093074,13.4714941 C8.81156679,17.6338444 9.94260162,41.5301649 9.94260162,41.5301649 L21.6209725,32.5178005 C21.6209725,32.5178005 21.3401967,30.0894874 20.2234386,25.6709162 C18.2992517,18.0652873 8.79094483,9.36369413 12.2126028,8.46113526" id="Fill-202" fill="#1B2441"></path>
                        <path d="M23.712884,12.8584849 C22.9546081,12.5833952 21.9744368,13.0409278 21.5242604,13.8790248 C21.0724876,14.7171218 21.3215214,15.6179336 22.0782008,15.8930232 C22.8380731,16.1681129 23.816648,15.7120057 24.2684208,14.8739087 C24.7201936,14.0358116 24.4711598,13.1335745 23.712884,12.8584849" id="Fill-203" fill="#F0AB85"></path>
                        <path d="M18.753534,26.1971839 C17.8535823,26.552541 16.9717201,26.7528332 16.3838119,26.5250816 C12.1719777,23.254181 10.6494464,10.1867313 10.6494464,10.1867313 L13.9869557,6.38925614 L20.6303176,7.95444263 L23.9030063,15.7351478 C24.7773312,17.8139869 24.6763316,20.2126473 23.631664,22.1978013 C22.3910271,23.9988157 20.7132277,25.4234746 18.753534,26.1971839" id="Fill-204" fill="#F0AB85"></path>
                        <path d="M10.6537331,8.16346856 C11.0164074,12.4282012 21.8031968,12.7785123 21.8031968,12.7785123 L22.3638374,7.00447911 L16.0764268,3.19462807 L11.0987614,6.49208377 C11.0987614,6.49208377 10.5983025,7.45064648 10.6537331,8.16346856" id="Fill-205" fill="#1B2441"></path>
                        <path d="M11.6542807,9.11006264 C12.0341027,10.4469826 10.4897163,12.7785123 10.4897163,12.7785123 L9.58450176,11.3416906 L9.60792691,10.0958575 L10.5047753,9.12475407 C10.5047753,9.12475407 11.2778051,7.77167353 11.6542807,9.11006264" id="Fill-206" fill="#1B2441"></path>
                        <path d="M37.1587071,36.2570055 C47.7538264,37.5853207 42.7491199,66.9174308 40.4725719,78.9615935 C39.9130682,81.9242491 37.0878058,83.7339337 34.4012634,82.8241288 C25.1840953,79.7059793 11.714391,66.7487033 11.714391,66.7487033 L13.8491365,63.8637947 L31.7393822,68.3449974 C31.7393822,68.3449974 24.8758288,34.7186081 37.1587071,36.2570055" id="Fill-207" fill="#F0AB85"></path>
                        <path d="M15.6903929,56.3057396 L19.1553177,79.6423129 C19.2572273,80.3175182 18.7770171,80.9305777 18.1470308,80.9305777 L4.42475486,80.9305777 C3.92292751,80.9305777 3.4952162,80.5325089 3.41646791,79.9933524 L0.0133064276,56.6567792 C-0.0870590427,55.9832535 0.39315113,55.3735532 1.02159338,55.3735532 L14.6821059,55.3735532 C15.1839333,55.3735532 15.6101005,55.7682627 15.6903929,56.3057396" id="Fill-208" fill="#5BBDB7"></path>
                        <path d="M0.0604931441,66.8420402 C-0.0319385039,66.0477346 0.0470485408,65.5496659 0.320982334,63.9040859 C0.677264322,61.7653203 0.583152099,58.4139365 2.83848431,60.0839315 C4.97113452,62.6735632 5.21649853,65.4292179 5.21649853,65.4292179 C5.65176756,66.9462114 4.692159,69.0589342 3.7964123,70.2031901 L2.24356061,73.4764456 C2.24356061,73.4764456 -0.431915453,70.4587352 0.0604931441,66.8420402" id="Fill-209" fill="#F0AB85"></path>
                    </g>
                    <g id="person_1" transform="translate(260.500000, 256.500000) scale(-1, 1) translate(-260.500000, -256.500000) translate(216.000000, 154.000000)" fill-rule="nonzero">
                        <path d="M11.3163485,34.8117998 L10.5446277,40.991194 L9.60533314,41.706179 L6.10392533,43.3368755 C6.48023113,42.1225623 6.10392533,40.8634589 6.10392533,40.8634589 L4.56489344,34.4700669 C4.56489344,34.4700669 2.17329374,23.6805957 8.66456866,24.1417693 C8.63075993,15.3529289 10.800398,16.8044644 10.800398,16.8044644 L11.0620481,30.0474454 C11.6632554,31.5454301 11.7529221,33.2408236 11.3163485,34.8117998 Z" id="Fill-267" fill="#F0AB85" transform="translate(7.861740, 30.025925) rotate(-19.000000) translate(-7.861740, -30.025925) "></path>
                        <path d="M37.7089986,60.8265274 C33.6349436,61.1783921 15.4660565,39.552538 15.4660565,39.552538 L11.155844,43.0708757 C11.155844,43.0708757 12.9005522,46.6136513 15.7032941,51.2444756 C20.8744414,59.7884924 29.6472855,72.0363811 37.7089986,72.5706217 C42.69365,72.9009901 46.5552796,70.1862334 48.307157,69.5674566 C50.9237105,68.6432694 49.9494717,69.5674566 49.9494717,69.5674566 L48.307157,43.0708757 C48.307157,43.0708757 46.1377314,52.6252796 43.0273316,57.5033052 C41.7992706,59.4292675 38.862654,60.7269272 37.7089986,60.8265274 Z" id="Fill-268" fill="#B3CDE0"></path>
                        <path d="M48.3392575,95.838842 L80.8328663,95.838842 C80.8328663,95.838842 80.8328663,70.6602942 80.8328663,43.4064018 C71.5483152,28.356456 59.9793593,32.4562065 59.9793593,32.4562065 C59.9793593,32.4562065 49.4605801,32.6566753 47.8195825,42.9085163 C47.8195825,50.3275036 48.3392575,95.838842 48.3392575,95.838842" id="Fill-269" fill="#005B96"></path>
                        <path d="M64.3797411,25.5570245 L64.8586967,33.1023476 L64.6323093,33.3365186 C62.3514951,35.6932821 58.7862792,35.7484796 56.4469431,33.4602947 L56.3391396,27.784994 L64.3797411,25.5570245" id="Fill-270" fill="#EC967C"></path>
                        <path d="M66.988586,9.5838842 L66.3934048,21.6701211 C65.2358478,21.6231119 64.5547482,22.9134344 64.7765742,24.0432771 C64.6562883,24.3188485 64.5891156,24.623598 64.582867,24.9348316 C62.5708111,26.4294011 58.9153679,28.3778529 54.2023456,27.4425312 C46.8320974,25.9771398 51.2795532,11.1903033 51.2795532,11.1903033 L66.988586,9.5838842" id="Fill-271" fill="#F0AB85"></path>
                        <path d="M70.6358184,18.9017204 C70.6907812,17.9812523 71.8607056,16.0292541 72.5124085,15.4251443 C76.7084326,11.5362928 72.9552524,8.69916438 71.62358,7.78206178 C70.1505745,6.77072479 70.4410927,3.90667229 68.5346656,2.30805309 C65.6232027,-0.131944641 62.8169545,2.39723921 60.9529273,2.02703266 C59.0889002,1.65850886 57.9315387,-1.00024728 55.2226534,0.408220373 C52.5106273,1.81500527 52.8089973,4.09682383 51.9405836,5.05767811 C51.0721699,6.02021515 49.4751054,3.361459 46.8321755,6.39883548 C42.8104622,11.0196864 50.6984223,12.9969259 50.6984223,12.9969259 C50.6984223,12.9969259 55.0137944,14.9119034 60.7267943,12.5089263 C61.5104081,12.179106 62.4432069,12.3608437 62.9410136,13.0911603 C64.3040933,15.0885929 64.319797,25.5570245 64.319797,25.5570245 L66.2246538,23.8574399 C66.2246538,23.8574399 70.3829891,23.1170268 70.6358184,18.9017204" id="Fill-272" fill="#1B2441"></path>
                        <path d="M65.8045639,19.9745132 C65.4711696,21.0625081 64.5379446,21.5832578 63.7218958,21.1387607 C62.9044521,20.6924038 62.5138647,19.4500438 62.8486539,18.3620489 C63.1820482,17.2721942 64.1152732,16.7514445 64.9313219,17.1978014 C65.7473707,17.6422985 66.1379581,18.8865183 65.8045639,19.9745132" id="Fill-273" fill="#F0AB85"></path>
                        <path d="M55.9172553,194.872312 C55.9172553,194.872312 54.075249,197.669816 45.3999434,200.096937 C43.4895419,200.631177 41.4299146,200.994733 41.4299146,204.456196 C45.4823285,204.456196 49.9933009,204.456196 49.9933009,204.456196 L58.7509916,202.793738 L58.7509916,204.456196 L63.479585,204.456196 C63.479585,204.456196 64.7977464,195.96298 62.0339598,194.872312 C59.4769131,194.872312 55.9172553,194.872312 55.9172553,194.872312" id="Fill-274" fill="#1B2441"></path>
                        <path d="M55.2741949,189.547932 L55.7127757,195.001195 C57.3914813,196.176072 59.5949715,196.250837 61.3477822,195.191922 L61.6638628,195.001195 L61.6638628,189.547932 L55.2741949,189.547932" id="Fill-275" fill="#F0AB85"></path>
                        <path d="M80.4093104,194.872312 C80.4093104,194.872312 78.5704278,197.669816 69.893638,200.096937 C67.983252,200.631177 65.9236413,200.994733 65.9236413,204.456196 C69.974468,204.456196 74.4885127,204.456196 74.4885127,204.456196 L83.2445782,202.793738 L83.2445782,204.456196 L87.9731333,204.456196 C87.9731333,204.456196 89.2912841,195.96298 86.5290742,194.872312 C83.9704938,194.872312 80.4093104,194.872312 80.4093104,194.872312" id="Fill-276" fill="#1B2441"></path>
                        <path d="M79.7679217,189.547932 L80.2048866,195.001195 C81.884707,196.176072 84.0891878,196.250837 85.8415837,195.191922 L86.1575895,195.001195 L86.1575895,189.547932 L79.7679217,189.547932" id="Fill-277" fill="#F0AB85"></path>
                        <path d="M81.4019174,43.6599169 C81.4019174,43.6599169 91.3033684,67.8061937 78.6706453,80.1435254 C66.0363498,92.4791955 48.8845271,90.3789413 48.8845271,90.3789413 L48.8845271,83.4251725 C48.8845271,83.4251725 64.3884666,82.0394036 69.3557024,71.0878408 C74.3229381,60.1362781 67.3681791,50.6585487 67.3681791,50.6585487" id="Fill-278" fill="#005B96"></path>
                        <path d="M49.9494717,89.2789389 L42.0152253,89.4495859 C38.7935648,89.2660599 36.6494723,84.3575433 36.1130548,80.707951 C36.0341699,80.1589827 36.5626989,79.7259257 37.0754509,79.9078418 C39.7685825,80.8608893 46.6946795,83.362639 48.4837897,84.4959928 L49.9494717,89.2789389" id="Fill-279" fill="#F0AB85"></path>
                        <path d="M48.9291611,95.838842 C39.2362168,124.992854 54.3842455,189.547932 54.3842455,189.547932 L63.0177249,189.547932 C63.0177249,189.547932 58.9469048,98.0074312 70.1834199,95.838842 C53.0061678,95.838842 56.2912824,95.838842 48.9291611,95.838842" id="Fill-280" fill="#1B2441"></path>
                        <path d="M69.7156248,71.1358768 C64.8526749,81.9959069 48.8845271,83.4343543 48.8845271,83.4343543 L48.8845271,90.4008551 C48.8845271,90.4008551 66.4659613,92.3484436 78.8350028,80.1158744 C83.3192614,75.6818976 84.8940629,69.7073158 85.0926449,63.8925614 L71.441287,63.8925614 C71.3427657,66.1614525 70.8470804,68.6082959 69.7156248,71.1358768 Z" id="Fill-281" fill="#B3CDE0"></path>
                        <path d="M71.3387855,64.9574374 C71.6487947,64.7913613 71.9602065,64.6303178 72.2646046,64.4541765 C72.7962492,56.2845752 68.8011997,50.1246622 68.7507004,50.0491731 L68.0535306,50.7067673 C68.1054326,50.7822564 72.0850518,56.9270715 71.3387855,64.9574374" id="Fill-282" fill="#2F80AF"></path>
                        <path d="M10.4210842,29.4375201 C10.4210842,29.4375201 12.2616375,28.8470089 12.5490751,25.2477833 C12.8365126,21.6485577 14.4229774,22.7615097 14.4229774,22.7615097 C14.4229774,22.7615097 13.598778,36.9490954 11.4882558,37.4834486 C9.37773352,38.0160999 10.4210842,29.4375201 10.4210842,29.4375201" id="Fill-283" fill="#F0AB85" transform="translate(12.293088, 30.053133) rotate(-19.000000) translate(-12.293088, -30.053133) "></path>
                        <path d="M57.6334557,94.773966 C54.9455447,130.522731 76.7686718,188.483056 76.7686718,188.483056 L87.2225341,188.483056 C87.2225341,188.483056 80.1183193,151.420944 79.9733675,116.637827 C79.9434318,109.110384 80.2364865,101.690052 81.0006347,94.773966 C73.7845549,94.773966 64.1862234,94.773966 57.6334557,94.773966" id="Fill-284" fill="#13374D"></path>
                    </g>
                </g>
                <g id="query" transform="translate(104.000000, 49.000000)">
                    <text id="Users-who" font-family="Avenir-Light, Avenir" font-size="13.3870131" font-weight="300" fill="#606F7B">
                        <tspan x="18.5173164" y="21.9910603">Users who  </tspan>
                    </text>
                    <rect id="Rectangle" fill="#C3E3F0" x="87.5173164" y="8.99106025" width="69" height="19" rx="2.4938548"></rect>
                    <text id="Signed-Up" font-family="Avenir-Light, Avenir" font-size="12.1700117" font-weight="300" fill="#3677AE">
                        <tspan x="94.5173164" y="21.9910603">Signed Up</tspan>
                    </text>
                    <rect id="Rectangle" fill="#C3E3F0" x="185.517316" y="9.99106025" width="82" height="18" rx="2.4938548"></rect>
                    <text id="Last-30-days" font-family="Avenir-Light, Avenir" font-size="12.1700117" font-weight="300" fill="#3677AE">
                        <tspan x="194" y="23">Last 30 days</tspan>
                    </text>
                    <text id="in" font-family="Avenir-Light, Avenir" font-size="13.3870131" font-weight="300" fill="#606F7B">
                        <tspan x="164.517316" y="22.9910603">in</tspan>
                    </text>
                    <rect id="Rectangle" stroke="#DACFCF" x="1.01731641" y="1.49106025" width="290" height="35" rx="3"></rect>
                </g>
            </g>
        </g>
    </g>
</svg>