
<svg width="400px" height="266px" viewBox="0 0 400 266" version="1.1" xmlns="http://www.w3.org/2000/svg" xmlns:xlink="http://www.w3.org/1999/xlink">
    <g id="Page-1" stroke="none" stroke-width="1" fill="none" fill-rule="evenodd">
        <g id="Tabs" transform="translate(-767.000000, -172.000000)">
            <g id="Group-7" transform="translate(767.000000, 172.000000)">
                <g id="measure" transform="translate(0.000000, 58.894348)">
                    <g id="dashboard" transform="translate(0.286575, 0.329433)">
                        <g id="Group-4" transform="translate(197.323491, 0.000000)">
                            <path d="M97.7587013,8.59189574 C98.0350058,16.8447933 95.3268243,24.7237552 88.9688991,30.1723597 C94.5227638,33.5658158 99.6389966,39.3592768 103.511644,45.3062856 C110.018686,55.2989831 111.737755,67.1750284 110.299218,78.2999035 C111.525775,77.7092022 113.43375,77.1087839 114.805038,76.8488137 C115.679271,76.8057418 116.552042,76.7626698 117.424814,76.7195978 C118.465706,75.164392 119.470051,73.581497 120.412994,71.9539918 C121.041624,70.8679627 121.687796,68.8358886 122.560567,67.8944584 C122.588343,67.8590778 122.617582,67.8283121 122.645359,67.7975464 C122.893886,67.2560702 123.143876,66.7161323 123.38948,66.1731178 C125.386474,61.7582406 128.835924,65.3753305 132.499516,63.5586163 C130.587314,47.6127569 126.895184,39.7100058 121.907085,32.0462713 C115.470216,22.1612537 107.204219,13.7543793 97.7587013,8.59189574 Z" id="Fill-32" fill="#EE9E35" fill-rule="nonzero"></path>
                            <path d="M59.2307146,133.505409 C59.2365981,133.500726 59.2439523,133.496043 59.2513066,133.49292 C58.9806692,132.030149 58.6688478,130.579867 58.2878961,129.126463 C58.1246311,128.508259 57.9481285,127.894738 57.7819218,127.276534 C57.7657423,127.212528 57.7510338,127.161011 57.7377961,127.107933 C57.2215257,125.370405 56.7096679,123.632876 56.2022227,121.893787 C55.7521409,120.354521 55.6138804,118.821499 55.7227237,117.327506 C47.4226849,115.00924 39.7124592,110.176008 33.7113678,103.030754 C29.8827304,107.419067 25.5069346,110.948763 20.6648775,114.25678 C18.9542723,115.42606 16.2721335,114.363906 14.4953398,114.985233 C22.6644725,125.443187 37.9003649,135.772158 49.378923,139.890397 C52.74277,136.385679 53.8459118,133.486676 58.6776729,133.486676 C58.8644716,133.486676 59.0468577,133.497604 59.2307146,133.505409 Z" id="Fill-33" fill="#3396C0" fill-rule="nonzero"></path>
                            <path d="M30.5163314,98.0878128 C16.6268448,76.5771799 21.802761,47.1931415 42.0775311,32.4554637 C58.3449048,20.6321996 79.3840999,21.8409925 94.2407885,33.8871327 L104.083491,12.3439971 C80.6372318,-3.83927949 55.443299,-3.47091493 29.502447,12.9816702 C-0.909707989,35.0866391 -8.67504119,79.1634706 12.161377,111.42942 C13.8944628,114.114767 15.7778078,116.622122 17.7807765,118.970059 L36.3881079,105.445817 C34.2407154,103.252655 32.268382,100.799471 30.5163314,98.0878128 Z" id="Fill-34" fill="#21837F" fill-rule="nonzero"></path>
                            <path d="M132.499516,63.5586163 L110.085596,63.1824916 C113.510146,82.682154 105.11181,103.156954 87.9499298,113.245762 C77.4878784,119.395322 65.7171647,120.531435 55.0377275,117.429568 L49.2885991,140.232317 C64.8215354,144.126677 75.29663,143.710308 87.4122624,139.06989 C95.3743778,136.019102 102.762595,131.483936 109.218951,125.643944 C127.148928,109.416411 135.07916,88.5716774 132.499516,63.5586163" id="Fill-35" fill="#3B5F93" fill-rule="nonzero"></path>
                            <ellipse id="Oval" fill="#FBE8E8" cx="67.1184434" cy="70.0136223" rx="33.9184615" ry="35.5788057"></ellipse>
                            <text id="72k-users" font-family="Avenir-Medium, Avenir" font-size="12.5237399" font-weight="400" fill="#AF9494">
                                <tspan x="57.1425255" y="67.3589478">72k </tspan>
                                <tspan x="52.5150036" y="85.3589478">users</tspan>
                            </text>
                        </g>
                        <g id="Group-8" transform="translate(200.749274, 153.733408)" fill="#21837F" fill-rule="nonzero">
                            <polygon id="Fill-36" points="0 9.28089406 46.4044703 9.28089406 46.4044703 0 0 0"></polygon>
                            <polygon id="Fill-37" points="0 18.5617881 46.4044703 18.5617881 46.4044703 12.9932517 0 12.9932517"></polygon>
                            <polygon id="Fill-38" points="0 28.7707716 46.4044703 28.7707716 46.4044703 23.2022352 0 23.2022352"></polygon>
                            <polygon id="Fill-39" points="0 38.9797551 46.4044703 38.9797551 46.4044703 33.4112186 0 33.4112186"></polygon>
                        </g>
                        <g id="Group-8" transform="translate(291.702035, 153.733408)" fill="#21837F" fill-rule="nonzero">
                            <polygon id="Fill-36" points="0 9.28089406 46.4044703 9.28089406 46.4044703 0 0 0"></polygon>
                            <polygon id="Fill-37" points="0 18.5617881 46.4044703 18.5617881 46.4044703 12.9932517 0 12.9932517"></polygon>
                            <polygon id="Fill-38" points="0 28.7707716 46.4044703 28.7707716 46.4044703 23.2022352 0 23.2022352"></polygon>
                            <polygon id="Fill-39" points="0 38.9797551 46.4044703 38.9797551 46.4044703 33.4112186 0 33.4112186"></polygon>
                        </g>
                        <g id="bar_graph" transform="translate(8.352805, 5.568536)" fill-rule="nonzero">
                            <polygon id="Fill-71" fill="#13374D" points="0.64151484 86.9109708 8.06623009 86.9109708 8.06623009 51.6435734 0.64151484 51.6435734"></polygon>
                            <polygon id="Fill-72" fill="#3396C0" points="42.4055381 87.8390602 49.8302534 87.8390602 49.8302534 38.6503217 42.4055381 38.6503217"></polygon>
                            <polygon id="Fill-73" fill="#FACB57" points="13.6347665 87.8390602 22.9156606 87.8390602 22.9156606 32.1536958 13.6347665 32.1536958"></polygon>
                            <polygon id="Fill-74" fill="#EE9E35" points="55.3987898 86.9109708 62.8235051 86.9109708 62.8235051 0.598656021 55.3987898 0.598656021"></polygon>
                            <polygon id="Fill-75" fill="#21837F" points="29.4122864 86.9109708 36.8370017 86.9109708 36.8370017 15.4480865 29.4122864 15.4480865"></polygon>
                            <polygon id="Fill-76" fill="#13374D" points="72.1043991 87.8390602 79.5291144 87.8390602 79.5291144 74.8458085 72.1043991 74.8458085"></polygon>
                            <polygon id="Fill-77" fill="#3396C0" points="114.796512 87.8390602 122.221227 87.8390602 122.221227 66.4930039 114.796512 66.4930039"></polygon>
                            <polygon id="Fill-78" fill="#FACB57" points="85.0976508 86.9109708 95.3066343 86.9109708 95.3066343 48.8593051 85.0976508 48.8593051"></polygon>
                            <polygon id="Fill-79" fill="#EE9E35" points="128.717853 86.9109708 136.142568 86.9109708 136.142568 62.7806462 128.717853 62.7806462"></polygon>
                            <polygon id="Fill-80" fill="#21837F" points="100.875171 87.8390602 108.299886 87.8390602 108.299886 26.5851594 100.875171 26.5851594"></polygon>
                        </g>
                        <g id="Group" transform="translate(0.000000, 120.651623)" fill-rule="nonzero">
                            <polyline id="Fill-98" fill="#1B2441" points="58.5094649 45.6755709 72.8908729 19.0309847 88.8702151 39.0722861 120.385735 0 155.751545 59.6328339 93.1207837 69.7822899 43.5026803 61.9497314 58.5094649 45.6755709"></polyline>
                            <polygon id="Fill-99" fill="#EE9E35" points="23.506528 31.4712604 43.5026803 61.9497314 47.8082765 64.164236 66.9331713 56.5916714 86.3115227 16.5003284 113.502678 50.2785313 150.634978 10.1179643 172.62463 71.7388027 0 71.7388027"></polygon>
                            <polyline id="Fill-100" fill="#3B5F93" points="0 71.9280434 15.9360922 51.9256804 32.6705731 60.6765903 50.2002745 39.4249471 66.9331713 56.9267669 95.857337 18.9129571 129.087099 56.9267669 172.539088 18.9129571 172.62463 71.9280434 0 71.9280434 83.0674909 72.3909737"></polyline>
                        </g>
                    </g>
                    <g id="person_2" transform="translate(354.680723, 13.979755)" fill-rule="nonzero">
                        <polyline id="Fill-191" fill="#F0AB85" points="13.3224838 38.0800602 4.94181919 54.3565085 14.1764797 53.8957252 14.8254576 37.5554059 13.3224838 38.0800602"></polyline>
                        <polyline id="Fill-192" fill="#FFFFFE" points="26.7366814 29.6598123 19.0134471 29.6490047 15.8138214 82.0289129 29.6509152 82.0289129 26.7366814 29.6598123"></polyline>
                        <path d="M40.9272812,182.835529 C40.9272812,182.835529 42.8024907,184.348233 42.4572095,186.27619 C42.1148176,188.204146 41.6279566,192.71853 41.6279566,192.71853 L39.7007382,192.71853 L39.7599705,188.50817 C39.7541918,188.230841 35.628153,192.71853 34.9274776,192.71853 L24.73229,192.71853 C24.73229,192.71853 24.053285,189.877019 30.0429758,188.964947 C36.0297772,188.051393 40.9272812,182.835529 40.9272812,182.835529" id="Fill-193" fill="#13374D"></path>
                        <path d="M35.7647219,180.858928 L34.3709071,184.755964 C34.0286432,185.826474 33.3601364,186.734217 32.4717069,187.346162 C31.492978,188.020709 29.9564318,188.959753 27.6741875,189.687513 C30.4661865,192.249539 34.911247,189.573262 37.4541944,187.681087 C38.6950829,186.757694 39.5704044,185.381993 39.9403406,183.810659 L40.5229174,180.858928 L35.7647219,180.858928" id="Fill-194" fill="#F0AB85"></path>
                        <path d="M21.1602735,182.835529 C21.1602735,182.835529 23.0340823,184.348233 22.6902377,186.27619 C22.3478378,188.204146 21.8609653,192.71853 21.8609653,192.71853 L19.9337017,192.71853 L19.9929355,188.50817 C19.9871566,188.230841 15.8610209,192.71853 15.1617739,192.71853 L4.96490231,192.71853 C4.96490231,192.71853 4.28732612,189.877019 10.274268,188.964947 C16.2626546,188.051393 21.1602735,182.835529 21.1602735,182.835529" id="Fill-195" fill="#13374D"></path>
                        <path d="M16.9872654,180.858928 L15.5934506,184.755964 C15.2497303,185.826474 14.5826799,186.734217 13.6942504,187.346162 C12.714065,188.020709 11.1804318,188.959753 8.89527455,189.687513 C11.68873,192.249539 16.1352469,189.573262 18.6781944,187.681087 C19.9176264,186.757694 20.7944044,185.381993 21.1628842,183.810659 L21.7440045,180.858928 L16.9872654,180.858928" id="Fill-196" fill="#F0AB85"></path>
                        <path d="M32.5295247,82.0289129 C32.5295247,82.0289129 33.8279161,89.77313 26.3629014,127.834483 C32.4058683,147.670736 22.7282886,180.858928 22.7282886,180.858928 L15.6739896,180.858928 L10.8720022,82.0289129 L32.5295247,82.0289129" id="Fill-197" fill="#1B2441"></path>
                        <path d="M19.7672768,30.6373048 L17.2461684,93.8885148 L8.89527455,90.1776173 C8.89527455,90.1776173 12.6584322,78.3042821 12.3016576,61.8103802 C13.5792363,49.8801907 7.05810751,56.164899 15.0477856,33.1972866 C18.0204137,30.626549 19.7672768,30.6373048 19.7672768,30.6373048" id="Fill-198" fill="#005B96"></path>
                        <path d="M18.7789129,23.6774557 L19.7081439,28.9134789 C20.1178503,31.2176309 22.5606014,32.3598987 24.4148395,31.113514 L27.6741875,28.9240415 L21.8538227,14.8245023 L18.7789129,23.6774557" id="Fill-199" fill="#EC967C"></path>
                        <path d="M38.9150904,82.0289129 C38.9150904,82.0289129 47.9274431,89.77313 40.6480695,127.834483 C46.5404855,147.670736 41.3401125,180.858928 41.3401125,180.858928 L35.164849,180.858928 L17.7905491,82.0289129 L38.9150904,82.0289129" id="Fill-200" fill="#13374D"></path>
                        <path d="M26.1982942,24.7075039 C26.1982942,24.7075039 33.7521499,29.2570444 36.0999892,33.3178797 C38.3380631,37.1878146 39.112123,45.9982541 39.3273773,53.8419736 C39.6224609,64.6087615 44.4763727,92.9002146 44.4763727,92.9002146 L24.2253679,92.9002146 L23.7207321,31.3141882 L26.1982942,24.7075039" id="Fill-201" fill="#005B96"></path>
                        <path d="M11.3343873,7.85269 C16.0646689,6.60234368 20.6153381,11.6574248 20.6153381,11.6574248 L24.173723,31.6307484 L29.6474817,22.83997 C29.6474817,22.83997 29.9581227,10.8964778 24.6698652,2.98784562 C20.8803399,-1.80029041 13.6089858,-0.427210707 9.93282239,4.2305211 C8.14553268,6.49648614 7.77158574,9.62465319 7.94530912,12.502751 C8.17792179,16.3657841 9.22762323,38.5437061 9.22762323,38.5437061 L20.0661956,30.1794262 C20.0661956,30.1794262 19.8056105,27.9257344 18.7691591,23.8249054 C16.9833417,16.7662018 8.15878277,8.69034533 11.3343873,7.85269" id="Fill-202" fill="#1B2441"></path>
                        <path d="M22.0076764,11.9338236 C21.3039286,11.6785158 20.394242,12.1031469 19.976438,12.8809759 C19.5571525,13.6588048 19.7882781,14.4948387 20.4905443,14.7501465 C21.1957737,15.0054543 22.1039787,14.582146 22.5232642,13.8043171 C22.9425498,13.0264881 22.7114242,12.1891314 22.0076764,11.9338236" id="Fill-203" fill="#F0AB85"></path>
                        <path d="M17.4049562,24.3133289 C16.5697206,24.643132 15.7512736,24.8290211 15.2056423,24.6176472 C11.2966836,21.5819591 9.88363839,9.45419742 9.88363839,9.45419742 L12.9811454,5.92980093 L19.1467792,7.38243394 L22.1841269,14.603624 C22.9955786,16.5329725 22.9018419,18.7591438 21.932297,20.6015442 C20.7808751,22.2730466 19.2237272,23.5952574 17.4049562,24.3133289" id="Fill-204" fill="#F0AB85"></path>
                        <path d="M9.88761679,7.57642869 C10.224211,11.5344818 20.235316,11.8596019 20.235316,11.8596019 L20.7556406,6.50078286 L14.9203614,2.96490047 L10.3006429,6.02523417 C10.3006429,6.02523417 9.83617227,6.91486606 9.88761679,7.57642869" id="Fill-205" fill="#1B2441"></path>
                        <path d="M10.8162145,8.45495263 C11.1687232,9.69573389 9.73539459,11.8596019 9.73539459,11.8596019 L8.89527455,10.5261029 L8.91701518,9.36985837 L9.74937071,8.46858759 C9.74937071,8.46858759 10.4668115,7.21280787 10.8162145,8.45495263" id="Fill-206" fill="#1B2441"></path>
                        <path d="M34.4866024,33.6497427 C44.3198204,34.882538 39.6750053,62.1053586 37.5621652,73.2834184 C37.0428958,76.0330277 34.4207997,77.7125768 31.9274481,76.8681965 C23.3730921,73.974275 10.8720022,61.9487644 10.8720022,61.9487644 L12.8532369,59.2713113 L29.4569844,63.430268 C29.4569844,63.430268 23.0869932,32.2219724 34.4866024,33.6497427" id="Fill-207" fill="#F0AB85"></path>
                        <path d="M14.5620874,52.2567604 L17.7778475,73.9151869 C17.8724286,74.5418377 17.4267507,75.1108118 16.842067,75.1108118 L4.10656811,75.1108118 C3.64082747,75.1108118 3.24387313,74.7413684 3.17078767,74.240983 L0.0123495545,52.5825565 C-0.0807985752,51.9574645 0.364879399,51.3916081 0.948129995,51.3916081 L13.626307,51.3916081 C14.0920476,51.3916081 14.4875689,51.7579338 14.5620874,52.2567604" id="Fill-208" fill="#5BBDB7"></path>
                        <path d="M0.0561430462,62.0353894 C-0.0296417871,61.2982027 0.0436652523,60.8359505 0.297900304,59.3087052 C0.628561843,57.3237395 0.541217285,54.2133556 2.63436722,55.7632603 C4.61365728,58.1666701 4.84137702,60.724164 4.84137702,60.724164 C5.2453456,62.1320696 4.35474306,64.0928653 3.52341004,65.154837 L2.08222484,68.1927107 C2.08222484,68.1927107 -0.400856157,65.3920057 0.0561430462,62.0353894" id="Fill-209" fill="#F0AB85"></path>
                    </g>
                </g>
                <g id="query" transform="translate(52.901096, 0.000000)">
                    <text id="Users-who" font-family="Avenir-Light, Avenir" font-size="12.4243451" font-weight="300" fill="#606F7B">
                        <tspan x="21.0989038" y="23">Users who  </tspan>
                    </text>
                    <path d="M87.4464927,11.0002527 L146.817452,11.8485997 C148.082702,11.8666787 149.098904,12.897505 149.098904,14.1628837 L149.098904,29.6854798 C149.098904,30.963754 148.062658,32 146.784384,32 L87.4134241,32 C86.1351498,32 85.0989038,30.963754 85.0989038,29.6854798 L85.0989038,13.3145367 C85.0989038,12.0362625 86.1351498,11.0000165 87.4134241,11.0000165 C87.4244474,11.0000165 87.4354705,11.0000952 87.4464927,11.0002527 Z" id="Rectangle" fill="#C3E3F0"></path>
                    <text id="Signed-Up" font-family="Avenir-Light, Avenir" font-size="11.2948589" font-weight="300" fill="#3677AE">
                        <tspan x="92.0989038" y="25">Signed Up</tspan>
                    </text>
                    <g id="Group-9" transform="translate(177.098904, 12.000000)">
                        <path d="M2.34247132,-0.00336555651 L69.7134309,0.810293375 C70.9807104,0.825598684 72,1.85727284 72,3.12464481 L72,17.6538235 C72,18.9320977 70.963754,19.9683437 69.6854798,19.9683437 L2.31452022,19.9683437 C1.036246,19.9683437 6.00632653e-16,18.9320977 4.4408921e-16,17.6538235 L-4.4408921e-16,2.31098588 C-6.00632653e-16,1.03271166 1.036246,-0.00353433722 2.31452022,-0.00353433722 C2.32383751,-0.00353433722 2.33315471,-0.00347807596 2.34247132,-0.00336555651 Z" id="Rectangle" fill="#C3E3F0"></path>
                        <text id="Last-30-days" font-family="Avenir-Light, Avenir" font-size="11.2948589" font-weight="300" fill="#3677AE">
                            <tspan x="6.46153846" y="13.6086957">Last 30 days</tspan>
                        </text>
                    </g>
                    <text id="in" font-family="Avenir-Light, Avenir" font-size="12.4243451" font-weight="300" fill="#606F7B">
                        <tspan x="157.098904" y="26">in</tspan>
                    </text>
                    <rect id="Rectangle" stroke="#CCCCCC" stroke-width="0.928089406" x="0.562948552" y="0.464044703" width="286.071911" height="39.0719106" rx="2.78426822"></rect>
                </g>
            </g>
        </g>
    </g>
</svg>