<svg width="24" height="24" viewBox="0 0 24 24" fill="none" xmlns="http://www.w3.org/2000/svg">
<path d="M12.0592 7.84139V1.90039C8.77804 1.90039 6.11816 4.56027 6.11816 7.84139H12.0592Z" fill="#EE3C3C"/>
<path d="M12.0592 1.90039L18.0002 1.90039C18.0002 5.18151 15.3403 7.84139 12.0592 7.84139V1.90039Z" fill="#EE3C3C"/>
<path d="M12.0592 9.0362V14.9772H6.11816L6.11816 9.0362H12.0592Z" fill="#EE3C3C"/>
<path d="M12.0592 9.0362H18.0002C18.0002 12.3173 15.3403 14.9772 12.0592 14.9772V9.0362Z" fill="#EE3C3C"/>
<path d="M6.11816 16.1588H12.0592C12.0592 19.4399 9.39929 22.0998 6.11816 22.0998V16.1588Z" fill="#EE3C3C"/>
<path opacity="0.1" fill-rule="evenodd" clip-rule="evenodd" d="M10.5396 7.84127C12.362 5.15939 14.9608 3.07853 18 1.94482C17.9761 5.20544 15.3254 7.84127 12.0592 7.84127H10.5396ZM7.86034 14.9771C8.1255 12.8361 8.80046 10.8271 9.80164 9.03608H12.0592H18.0002C18.0002 12.3172 15.3403 14.9771 12.0592 14.9771H7.86034ZM8.39091 21.6494C7.96386 20.1857 7.73438 18.6338 7.73438 17.0268C7.73438 16.7355 7.74191 16.4461 7.7568 16.1587H12.0592C12.0592 18.6348 10.5444 20.7571 8.39091 21.6494Z" fill="white"/>
</svg>
