<svg width="48" height="48" viewBox="0 0 48 48" fill="none" xmlns="http://www.w3.org/2000/svg">
<path d="M20.0234 30.8906L19.4609 34.4062C19.3203 35.0391 20.0234 35.4609 20.5859 35.1797L23.6797 33.5625L26.8438 35.1797C27.4063 35.4609 28.1094 35.0391 27.9688 34.4062L27.4063 30.8906L29.9375 28.3594C30.3594 27.9375 30.1485 27.1641 29.5156 27.0234L26 26.5312L24.3828 23.3672C24.1016 22.8047 23.3281 22.7344 23.0469 23.3672L21.4297 26.5312L17.9141 27.0234C17.2813 27.1641 17 27.9375 17.4922 28.3594L20.0234 30.8906ZM35 10.5H32.1875V7.6875C32.1875 6.77344 31.4141 6 30.5 6C29.6563 6 28.8125 6.77344 28.8125 7.6875V10.5H18.6875V7.6875C18.6875 6.77344 17.9141 6 17 6C16.0156 6 15.3125 6.77344 15.3125 7.6875V10.5H12.5C9.96875 10.5 8 12.5391 8 15V37.5C8 40.0312 9.96875 42 12.5 42H35C37.461 42 39.5 40.0312 39.5 37.5V15C39.5 12.5391 37.461 10.5 35 10.5ZM36.125 37.5C36.125 38.1328 35.5625 38.625 35 38.625H12.5C11.8672 38.625 11.375 38.1328 11.375 37.5V19.5H36.125V37.5Z" fill="#B37FEB"/>
</svg>
