<svg width="48" height="48" viewBox="0 0 48 48" fill="none" xmlns="http://www.w3.org/2000/svg">
<path d="M32.5 10.5C34.9609 10.5 37 12.5391 37 15V37.5C37 40.0312 34.9609 42 32.5 42H14.5C11.9688 42 10 40.0312 10 37.5V15C10 12.5391 11.9688 10.5 14.5 10.5H17.3125H17.9453C18.5078 7.96875 20.7578 6 23.5 6C26.1719 6 28.4922 7.96875 28.9844 10.5H29.6875H32.5ZM15.625 13.875H14.5C13.8672 13.875 13.375 14.4375 13.375 15V37.5C13.375 38.1328 13.8672 38.625 14.5 38.625H32.5C33.0625 38.625 33.625 38.1328 33.625 37.5V15C33.625 14.4375 33.0625 13.875 32.5 13.875H31.375V15.5625C31.375 16.5469 30.6016 17.25 29.6875 17.25H23.5H17.3125C16.3281 17.25 15.625 16.5469 15.625 15.5625V13.875ZM21.8125 11.625C21.8125 12.6094 22.5156 13.3125 23.5 13.3125C24.4141 13.3125 25.1875 12.6094 25.1875 11.625C25.1875 10.7109 24.4141 9.9375 23.5 9.9375C22.5156 9.9375 21.8125 10.7109 21.8125 11.625ZM30.3203 24.8438L22.7969 32.3672C22.4453 32.6484 22.0234 32.8594 21.6016 32.8594C21.1797 32.8594 20.6875 32.6484 20.4062 32.3672L16.6797 28.5703C15.9766 27.9375 15.9766 26.8828 16.6797 26.1797C17.3125 25.5469 18.3672 25.5469 19.0703 26.1797L21.6016 28.7812L27.9297 22.4531C28.5625 21.8203 29.6172 21.8203 30.3203 22.4531C30.9531 23.0859 30.9531 24.2109 30.3203 24.8438Z" fill="#5CDBD3"/>
</svg>
