<svg width="27" height="24" viewBox="0 0 27 24" fill="none" xmlns="http://www.w3.org/2000/svg">
<path fillRule="evenodd" clipRule="evenodd" d="M17.0353 2.75051C17.4958 2.76359 17.9118 3.02892 18.1178 3.44099L21.8954 10.9961L23.6774 6.7117C23.9425 6.07428 24.6742 5.77247 25.3116 6.03759C25.949 6.30271 26.2508 7.03436 25.9857 7.67178L23.154 14.48C22.9661 14.9317 22.5321 15.2323 22.0432 15.2492C21.5544 15.2662 21.1005 14.9965 20.8818 14.559L16.9247 6.64486L14.6455 10.6216C14.4227 11.0103 14.009 11.25 13.561 11.25H9.99982C9.30946 11.25 8.74982 10.6904 8.74982 10C8.74982 9.30965 9.30946 8.75 9.99982 8.75H12.8367L15.9153 3.37843C16.1444 2.97872 16.5748 2.73743 17.0353 2.75051Z" fill="black"/>
<path d="M10 17C13.4929 17 16.3882 14.4418 16.9146 11.0968L18.7703 14.8082C18.5556 15.1991 18.3155 15.574 18.0522 15.9309L23.5392 21.4179C24.125 22.0037 24.125 22.9535 23.5392 23.5392C22.9535 24.125 22.0037 24.125 21.4179 23.5392L15.9309 18.0522C14.2716 19.2764 12.2203 20 10 20C4.47715 20 0 15.5228 0 10C0 4.47715 4.47715 0 10 0C11.8524 0 13.5871 0.503649 15.0747 1.38148C15.0747 1.47761 13.3413 3.84742 13.3413 3.84742C12.3484 3.30702 11.21 3 10 3C6.13401 3 3 6.13401 3 10C3 13.866 6.13401 17 10 17Z" fill="black"/>
</svg>
