<svg width="48" height="48" viewBox="0 0 48 48" fill="none" xmlns="http://www.w3.org/2000/svg">
<path d="M38.625 10H9.375C7.47656 10 6 11.5469 6 13.375V33.625C6 35.5234 7.47656 37 9.375 37H38.625C40.4531 37 42 35.5234 42 33.625V13.375C42 11.5469 40.4531 10 38.625 10ZM38.625 13.375V16.2578C37.0078 17.5938 34.4766 19.5625 29.1328 23.7812C27.9375 24.6953 25.6172 26.9453 24 26.875C22.3125 26.9453 19.9922 24.6953 18.7969 23.7812C13.4531 19.5625 10.9219 17.5938 9.375 16.2578V13.375H38.625ZM9.375 33.625V20.6172C10.9219 21.8828 13.2422 23.7109 16.6875 26.4531C18.2344 27.6484 20.9766 30.3203 24 30.25C26.9531 30.3203 29.625 27.6484 31.2422 26.4531C34.6875 23.7109 37.0078 21.8828 38.625 20.6172V33.625H9.375Z" fill="#FF7875"/>
</svg>
