<svg width="100" height="100" viewBox="0 0 100 100" fill="none" xmlns="http://www.w3.org/2000/svg">
<circle cx="50.4871" cy="50" r="47.988" fill="#F5F6F8" stroke="white" stroke-width="2"/>
<path d="M63.3479 31.2229H47.5979C45.6995 31.2229 44.2229 32.7698 44.2229 34.5979V67.2229H64.4729C65.6682 67.2229 66.7229 66.2385 66.7229 64.9729V34.5979C66.7229 32.7698 65.176 31.2229 63.3479 31.2229ZM53.2229 52.5979C53.2229 53.2307 52.6604 53.7229 52.0979 53.7229H49.8479C49.2151 53.7229 48.7229 53.2307 48.7229 52.5979V50.3479C48.7229 49.7854 49.2151 49.2229 49.8479 49.2229H52.0979C52.6604 49.2229 53.2229 49.7854 53.2229 50.3479V52.5979ZM53.2229 45.8479C53.2229 46.4807 52.6604 46.9729 52.0979 46.9729H49.8479C49.2151 46.9729 48.7229 46.4807 48.7229 45.8479V43.5979C48.7229 43.0354 49.2151 42.4729 49.8479 42.4729H52.0979C52.6604 42.4729 53.2229 43.0354 53.2229 43.5979V45.8479ZM53.2229 39.0979C53.2229 39.7307 52.6604 40.2229 52.0979 40.2229H49.8479C49.2151 40.2229 48.7229 39.7307 48.7229 39.0979V36.8479C48.7229 36.2854 49.2151 35.7229 49.8479 35.7229H52.0979C52.6604 35.7229 53.2229 36.2854 53.2229 36.8479V39.0979ZM62.2229 52.5979C62.2229 53.2307 61.6604 53.7229 61.0979 53.7229H58.8479C58.2151 53.7229 57.7229 53.2307 57.7229 52.5979V50.3479C57.7229 49.7854 58.2151 49.2229 58.8479 49.2229H61.0979C61.6604 49.2229 62.2229 49.7854 62.2229 50.3479V52.5979ZM62.2229 45.8479C62.2229 46.4807 61.6604 46.9729 61.0979 46.9729H58.8479C58.2151 46.9729 57.7229 46.4807 57.7229 45.8479V43.5979C57.7229 43.0354 58.2151 42.4729 58.8479 42.4729H61.0979C61.6604 42.4729 62.2229 43.0354 62.2229 43.5979V45.8479ZM62.2229 39.0979C62.2229 39.7307 61.6604 40.2229 61.0979 40.2229H58.8479C58.2151 40.2229 57.7229 39.7307 57.7229 39.0979V36.8479C57.7229 36.2854 58.2151 35.7229 58.8479 35.7229H61.0979C61.6604 35.7229 62.2229 36.2854 62.2229 36.8479V39.0979ZM34.0979 40.2229C32.1995 40.2229 30.7229 41.7698 30.7229 43.5979V64.9729C30.7229 66.2385 31.7073 67.2229 32.9729 67.2229H44.2229V40.2229H34.0979ZM39.7229 54.8479C39.7229 55.4807 39.1604 55.9729 38.5979 55.9729H36.3479C35.7151 55.9729 35.2229 55.4807 35.2229 54.8479V52.5979C35.2229 52.0354 35.7151 51.4729 36.3479 51.4729H38.5979C39.1604 51.4729 39.7229 52.0354 39.7229 52.5979V54.8479ZM39.7229 48.0979C39.7229 48.7307 39.1604 49.2229 38.5979 49.2229H36.3479C35.7151 49.2229 35.2229 48.7307 35.2229 48.0979V45.8479C35.2229 45.2854 35.7151 44.7229 36.3479 44.7229H38.5979C39.1604 44.7229 39.7229 45.2854 39.7229 45.8479V48.0979Z" fill="#BAE7FF"/>
</svg>
