<svg width="24" height="24" viewBox="0 0 24 24" fill="none" xmlns="http://www.w3.org/2000/svg">
<g clip-path="url(#clip0_2208_17)">
<path d="M19.3921 7.9067H16.4043C16.4854 7.43732 16.7743 7.17553 17.3611 6.87768L17.9118 6.59779C18.8957 6.0924 19.4191 5.52365 19.4191 4.59385C19.4191 4.00713 19.1935 3.54674 18.7422 3.21275C18.2999 2.87877 17.7583 2.71631 17.1355 2.71631C16.6389 2.71631 16.1876 2.8426 15.7723 3.10439C15.3662 3.35721 15.0592 3.68213 14.8697 4.0883L15.7363 4.95502C16.0703 4.27795 16.5577 3.94396 17.1987 3.94396C17.7402 3.94396 18.0742 4.22385 18.0742 4.61193C18.0742 4.93693 17.9118 5.20771 17.2889 5.52365L16.9369 5.69518C16.1695 6.08326 15.637 6.52561 15.33 7.03115C15.0232 7.5276 14.8697 8.1685 14.8697 8.93584V9.14342H19.3921V7.9067ZM18.9927 10.5717H14.0451L11.5713 14.8564H16.5189L18.9927 19.1411L21.4665 14.8564L18.9927 10.5717Z" fill="#FE492C"/>
<path d="M11.9977 17.7131C8.84758 17.7131 6.28477 15.1503 6.28477 12.0001C6.28477 8.85002 8.84758 6.28717 11.9977 6.28717L13.9536 2.19424C13.3095 2.06653 12.6544 2.00229 11.9977 2.00244C6.47613 2.00244 2 6.47857 2 12.0001C2 17.5217 6.47613 21.9978 11.9977 21.9978C14.1991 21.9978 16.234 21.2857 17.8856 20.0801L15.7198 16.3287C14.7191 17.1904 13.4187 17.7131 11.9977 17.7131Z" fill="#FE492C"/>
</g>
<defs>
<clipPath id="clip0_2208_17">
<rect width="20" height="20" fill="white" transform="translate(2 2)"/>
</clipPath>
</defs>
</svg>
