<svg width="48" height="48" viewBox="0 0 48 48" fill="none" xmlns="http://www.w3.org/2000/svg">
<path d="M38.7842 15.8131H32.8085C32.9709 14.8743 33.5486 14.3507 34.7222 13.755L35.8235 13.1953C37.7913 12.1845 38.8383 11.047 38.8383 9.18739C38.8383 8.01395 38.387 7.09317 37.4844 6.4252C36.5998 5.75723 35.5166 5.43231 34.2709 5.43231C33.2778 5.43231 32.3752 5.68489 31.5447 6.20848C30.7323 6.71411 30.1184 7.36395 29.7395 8.1763L31.4726 9.90973C32.1405 8.55559 33.1155 7.88762 34.3973 7.88762C35.4805 7.88762 36.1484 8.44739 36.1484 9.22356C36.1484 9.87356 35.8235 10.4151 34.5779 11.047L33.8737 11.39C32.3391 12.1662 31.2739 13.0509 30.66 14.062C30.0463 15.0549 29.7395 16.3367 29.7395 17.8714V18.2865H38.7842V15.8131ZM37.9854 21.143H28.0902L23.1426 29.7125H33.0378L37.9854 38.2819L42.933 29.7125L37.9854 21.143Z" fill="#FE492C"/>
<path d="M23.9954 35.4258C17.6952 35.4258 12.5695 30.3002 12.5695 24C12.5695 17.6997 17.6952 12.574 23.9954 12.574L27.9072 4.38817C26.6189 4.13275 25.3087 4.00427 23.9954 4.00458C12.9523 4.00458 4 12.9568 4 24C4 35.0431 12.9523 43.9954 23.9954 43.9954C28.3983 43.9954 32.468 42.5711 35.7712 40.1599L31.4395 32.6572C29.4383 34.3805 26.8374 35.4258 23.9954 35.4258Z" fill="#FE492C"/>
</svg>
