<svg width="48" height="48" viewBox="0 0 48 48" fill="none" xmlns="http://www.w3.org/2000/svg">
<path d="M27.8427 35.2162C26.3946 38.1125 25.0167 38.6186 24.4965 38.6186C24.2786 38.6186 23.913 38.5272 23.4561 38.2179L22.3805 41.8735C23.0765 41.9578 23.7794 42 24.4965 42C34.4367 42 42.493 33.9438 42.493 24.0035C42.493 14.0633 34.4367 6 24.4965 6C14.5562 6 6.5 14.0562 6.5 23.9965C6.5 24.7135 6.54218 25.4165 6.62654 26.1125L9.92355 25.1424C9.89543 24.7627 9.88137 24.3831 9.88137 23.9965C9.88137 22.8366 10.0149 21.7047 10.275 20.6221H15.667C15.5756 21.5571 15.5264 22.5202 15.5123 23.5044L18.9148 22.5062C18.9429 21.8664 18.9921 21.2408 19.0554 20.6292H29.9517C30.0641 21.7047 30.1274 22.8366 30.1274 24.0035C30.1274 25.1705 30.0641 26.3023 29.9517 27.3779H26.6476L25.6564 30.7522H29.3963C29.0026 32.4675 28.4684 33.9789 27.8497 35.2232L27.8427 35.2162ZM21.1503 12.7768C22.5984 9.88049 23.9763 9.37434 24.4965 9.37434C25.0167 9.37434 26.3946 9.88049 27.8427 12.7768C28.4613 14.0211 28.9956 15.5325 29.3893 17.2478H19.6037C19.9974 15.5325 20.5316 14.0211 21.1503 12.7768ZM33.4947 23.9965C33.4947 22.8436 33.4385 21.7118 33.3401 20.6221H38.732C38.9851 21.7047 39.1257 22.8366 39.1257 23.9965C39.1257 25.1564 38.9921 26.2882 38.732 27.3708H33.3401C33.4455 26.2812 33.4947 25.1494 33.4947 23.9965ZM32.841 17.2478C32.3278 14.7241 31.5404 12.4886 30.5492 10.6819C33.5229 12.0387 35.9622 14.3585 37.4666 17.2478H32.841ZM11.5193 17.2478C13.0237 14.3585 15.4631 12.0387 18.4367 10.6819C17.4455 12.4815 16.6582 14.7241 16.145 17.2478H11.5193ZM32.841 30.7452H37.4736C35.9692 33.6344 33.5299 35.9543 30.5562 37.3111C31.5475 35.5114 32.3348 33.2689 32.848 30.7452H32.841ZM9.24165 27.6872C8.2645 27.9754 8.14499 29.3181 9.05888 29.775L13.087 31.7926C13.1784 31.8418 13.2698 31.8981 13.3471 31.9684L7.16081 38.1547C6.28207 39.0334 6.28207 40.4605 7.16081 41.3392C8.03954 42.2179 9.46661 42.2179 10.3453 41.3392L16.5316 35.1529C16.6019 35.2302 16.6652 35.3146 16.7074 35.413L18.725 39.4411C19.1819 40.355 20.5246 40.2355 20.8128 39.2584L25.0448 24.8612C25.2979 24.0105 24.5035 23.2162 23.6459 23.4622L9.24165 27.6872Z" fill="#40A9FF"/>
</svg>
