<svg width="25" height="24" viewBox="0 0 25 24" fill="none" xmlns="http://www.w3.org/2000/svg">
<path fill-rule="evenodd" clip-rule="evenodd" d="M18.7736 16.7873C17.3979 18.4446 15.3222 19.5 13 19.5C8.85786 19.5 5.5 16.1421 5.5 12C5.5 11.312 5.59264 10.6456 5.76612 10.0127L8.04233 11.211L10.0027 9.86317L13.0006 10.3733L11.6522 6.79432L10.0027 6.79432L9.05044 5.62298C10.1975 4.91107 11.5507 4.5 13 4.5C14.6187 4.5 16.1176 5.01277 17.3431 5.88474L14.4838 8.34035L16.9429 10.6702L14.4838 11.8408L15.9541 13.3811L18.4046 12.821L18.7736 16.7873ZM23 12C23 17.5228 18.5228 22 13 22C7.47715 22 3 17.5228 3 12C3 6.47715 7.47715 2 13 2C18.5228 2 23 6.47715 23 12ZM9.42992 15.4645L7.34766 14.6611V13.0851L9.07664 10.8701L10.4995 12.6436L11.7035 13.0851L13.0222 14.6611L11.7035 16.6081V18.8104L10.6644 18.4088L9.42992 15.4645Z" fill="#8C8C8C"/>
</svg>
