<svg width="48" height="48" viewBox="0 0 48 48" fill="none" xmlns="http://www.w3.org/2000/svg">
<path d="M37.5781 15.1104C36.3125 13.6339 33.2188 10.7511 28.9297 10.0479C27.3125 9.83701 25.7656 10.3292 24.4297 11.3839C23.2344 10.3995 21.6172 9.90732 20 10.1183C14.375 11.0323 10.8594 15.7433 10.7188 15.9542C10.1562 16.6573 10.3672 17.712 11.0703 18.2745C11.4219 18.4854 11.7734 18.6261 12.0547 18.6261C12.6172 18.6261 13.1094 18.3448 13.4609 17.9229C13.4609 17.8526 16.2734 14.1261 20.4922 13.4933C21.0547 13.4229 21.5469 13.4933 22.0391 13.7745L17.9609 17.9933C17.0469 18.837 16.5547 19.962 16.5547 21.2276C16.5547 22.4229 16.9766 23.6183 17.8906 24.462C18.8047 25.3761 19.9297 25.7979 21.1953 25.7979C22.3906 25.7979 23.5859 25.3058 24.4297 24.3917L25.2734 23.6183L33.9922 30.7198C34.1328 30.8604 34.1328 31.0714 33.9922 31.2823L32.0938 33.8136C31.9531 33.9542 31.6719 33.9542 31.5312 33.8839L29.9844 32.5479L28.1562 34.5167C28.0156 34.7276 27.8047 34.7276 27.6641 34.7979C27.5234 34.7979 27.3828 34.7979 27.1719 34.6573L24.9219 32.6886L23.7969 33.7433L23.5859 33.9542C23.2344 34.4464 22.6016 34.7276 21.9688 34.7979C21.3359 34.8683 20.7031 34.7276 20.2812 34.3761L13.9531 28.6104H8.75V15.1808H2V33.1104H6.5C7.27344 33.1104 7.97656 32.6886 8.39844 31.9854H12.6172L18.0312 36.9073C19.0859 37.7511 20.3516 38.1729 21.6875 38.1729C21.8984 38.1729 22.1094 38.1729 22.3203 38.1729C23.3047 38.1026 24.1484 37.7511 24.9219 37.2589H24.9922C25.8359 37.962 26.9609 38.3136 28.0156 38.1729C28.9297 38.1026 29.7734 37.6808 30.4062 37.1183C31.8828 37.6808 33.6406 37.2589 34.6953 35.9229L36.6641 33.462C37.9297 31.8448 37.7188 29.4542 36.1016 28.1886L27.6641 21.2979L28.2266 20.6651C28.8594 20.0323 28.8594 18.9776 28.2266 18.2745C27.5938 17.6417 26.5391 17.6417 25.8359 18.2745L22.0391 22.0714C21.6172 22.5636 20.7734 22.5636 20.3516 22.0714C20.0703 21.8604 19.9297 21.5792 19.9297 21.2276C19.9297 20.8761 20.0703 20.5948 20.3516 20.3136L26.3984 14.1964C26.8906 13.6339 27.6641 13.3526 28.4375 13.4933C32.5859 14.1261 35.4688 17.9229 35.4688 17.9229C35.6797 18.2042 35.9609 18.4151 36.3125 18.4854H40.25V30.8604C40.25 32.0558 41.2344 33.1104 42.4297 33.1104H47V15.1808L37.5781 15.1104ZM5.375 30.8604C4.74219 30.8604 4.25 30.3683 4.25 29.8058C4.25 29.1729 4.74219 28.6808 5.375 28.6808C5.9375 28.6808 6.5 29.1729 6.5 29.8058C6.5 30.3683 5.9375 30.8604 5.375 30.8604ZM43.625 30.8604C42.9922 30.8604 42.5 30.3683 42.5 29.8058C42.5 29.1729 42.9922 28.6808 43.625 28.6808C44.1875 28.6808 44.75 29.1729 44.75 29.8058C44.75 30.3683 44.1875 30.8604 43.625 30.8604Z" fill="#85A5FF"/>
</svg>
