<svg width="48" height="48" viewBox="0 0 48 48" fill="none" xmlns="http://www.w3.org/2000/svg">
<path d="M22.625 26.25C21.9922 26.25 21.5 26.8125 21.5 27.375V34.125C21.5 34.7578 21.9922 35.25 22.625 35.25C23.1875 35.25 23.75 34.7578 23.75 34.125V27.375C23.75 26.8125 23.1875 26.25 22.625 26.25ZM27.125 26.25C26.4922 26.25 26 26.8125 26 27.375V34.125C26 34.7578 26.4922 35.25 27.0547 35.25C27.6172 35.25 28.25 34.7578 28.25 34.125L28.1797 27.375C28.1797 26.8125 27.6875 26.25 27.125 26.25ZM34.4375 20.2031C33.5235 19.0078 32.0469 18.2344 30.4297 18.2344H29.5156C29.2344 18.2344 28.9531 18.3047 28.7422 18.3047C27.8281 17.6719 26.7735 17.25 25.6485 17.25H24.8047V11.0625C24.8047 8.32031 22.5547 6 19.7422 6C17 6 14.6797 8.32031 14.6797 11.0625V22.9453C13.9063 22.5938 13.2734 22.5938 12.8516 22.5938C9.75781 22.5938 8 25.1953 8 27.5156C8 28.5703 8.28125 29.5547 8.91406 30.3984L14.4688 37.7812C16.4375 40.4531 19.6719 42 22.9766 42H30.711C31.1328 42 31.625 42 31.9766 41.8594C34.0156 41.4375 35.7735 40.4531 37.1094 38.9766C38.6563 37.4297 39.5 35.3203 39.5 33.0703V25.3359C39.5 22.5234 37.25 20.2734 34.4375 20.2031ZM36.125 33.0703C36.125 34.4062 35.5625 35.7422 34.6485 36.7266C33.8047 37.6406 32.6094 38.2734 31.1328 38.5547C30.9922 38.625 30.8516 38.625 30.711 38.625H22.9766C20.7266 38.625 18.5469 37.5703 17.1406 35.7422L11.6563 28.4297C11.4453 28.1484 11.375 27.7969 11.375 27.5156C11.375 26.3203 12.3594 25.9688 12.8516 25.9688C13.2031 25.9688 13.6953 26.0391 14.1172 26.6016L16.0859 29.2031C16.2969 29.4844 16.6484 29.6953 17 29.6953C17.7734 29.6953 18.125 28.9219 18.125 28.5703V11.0625C18.125 10.1484 18.8281 9.375 19.7422 9.375C20.6563 9.375 21.4297 10.1484 21.4297 11.0625V20.2734C21.4297 20.7656 21.7813 21.3984 22.5547 21.3984C23.3984 21.3984 23.4688 20.625 24.6641 20.625H25.6485C27.125 20.625 26.9141 22.0312 28.1094 22.0312C28.6719 22.0312 28.7422 21.6094 29.5156 21.6094H30.4297C32.3281 21.6094 31.6953 23.5781 33.3125 23.5781H34.2969C35.2813 23.5781 36.0547 24.3516 36.0547 25.3359V33.0703H36.125ZM31.625 26.25C30.9922 26.25 30.5 26.8125 30.5 27.375V34.125C30.5 34.7578 30.9922 35.25 31.625 35.25C32.1875 35.25 32.75 34.7578 32.75 34.125V27.375C32.75 26.8125 32.1875 26.25 31.625 26.25Z" fill="#FFC53D"/>
</svg>
