<svg width="48" height="48" viewBox="0 0 48 48" fill="none" xmlns="http://www.w3.org/2000/svg">
<path fill-rule="evenodd" clip-rule="evenodd" d="M33.0581 32.8245C29.9597 32.8245 27.448 30.4276 27.448 27.4714C27.448 24.5147 29.9597 22.1179 33.0581 22.1179C36.1565 22.1179 38.6682 24.5147 38.6682 27.4714C38.6682 30.4276 36.1565 32.8245 33.0581 32.8245ZM34.7376 17.165V12.4027C36.0403 11.8156 36.9527 10.5581 36.9527 9.09876V8.98883C36.9527 6.9747 35.2258 5.32683 33.1152 5.32683H33.0005C30.8899 5.32683 29.163 6.9747 29.163 8.98883V9.09876C29.163 10.5581 30.0754 11.8161 31.3781 12.4032V17.165C29.4386 17.4511 27.6666 18.2145 26.2051 19.3379L12.5029 9.16656C12.5933 8.83524 12.6568 8.49416 12.6574 8.13561C12.6595 5.85489 10.7249 4.00308 8.3338 4C5.94378 3.99743 4.00269 5.8441 4 8.12534C3.99731 10.4066 5.93194 12.2584 8.32303 12.261C9.10194 12.262 9.82325 12.0509 10.4552 11.7077L23.9335 21.7136C22.7875 23.3646 22.1157 25.3422 22.1157 27.4714C22.1157 29.7003 22.8537 31.7622 24.1004 33.4578L20.0018 37.3695C19.6778 37.2765 19.3419 37.2118 18.9855 37.2118C17.0213 37.2118 15.4285 38.7312 15.4285 40.6056C15.4285 42.4805 17.0213 44 18.9855 44C20.9503 44 22.5426 42.4805 22.5426 40.6056C22.5426 40.2666 22.4747 39.9455 22.3773 39.6363L26.4317 35.7673C28.2722 37.1075 30.5642 37.9129 33.0581 37.9129C39.1015 37.9129 44 33.238 44 27.4714C44 22.2509 39.9811 17.9381 34.7376 17.165Z" fill="#FF7A59"/>
</svg>
