<svg width="20" height="20" viewBox="0 0 20 20" fill="none" xmlns="http://www.w3.org/2000/svg">
<path d="M16.5918 5.11035C17.1191 5.31543 17.5 5.84277 17.5 6.42871V14.0166C17.5 14.6025 17.1191 15.1299 16.5918 15.335L10.6445 17.5908C10.4395 17.6787 10.2051 17.708 10 17.708C9.76562 17.708 9.53125 17.6787 9.32617 17.5908L3.37891 15.335C2.85156 15.1299 2.5 14.6025 2.5 14.0166V6.42871C2.5 5.84277 2.85156 5.31543 3.37891 5.11035L9.32617 2.85449C9.53125 2.7666 9.76562 2.70801 10 2.70801C10.2051 2.70801 10.4395 2.7666 10.6445 2.85449L16.5918 5.11035ZM10 4.6123L5.10742 6.45801L10 8.27441L14.8633 6.45801L10 4.6123ZM10.9375 15.4814L15.625 13.6943V8.18652L10.9375 9.94434V15.4814Z" fill="#40A9FF"/>
</svg>
