<svg width="48" height="48" viewBox="0 0 48 48" fill="none" xmlns="http://www.w3.org/2000/svg">
<path d="M38.0819 38.0827H32.1552V28.8008C32.1552 26.5875 32.1157 23.7382 29.0726 23.7382C25.9858 23.7382 25.5135 26.1498 25.5135 28.6397V38.0821H19.5867V18.9948H25.2764V21.6033H25.3561C25.9255 20.6297 26.7483 19.8288 27.7368 19.2858C28.7254 18.7429 29.8427 18.4782 30.9698 18.5201C36.9768 18.5201 38.0844 22.4713 38.0844 27.6117L38.0819 38.0827ZM12.8994 16.3857C12.2191 16.3859 11.5541 16.1843 10.9884 15.8064C10.4228 15.4286 9.98188 14.8915 9.72145 14.2631C9.46102 13.6346 9.39277 12.9431 9.52536 12.2758C9.65795 11.6086 9.98542 10.9957 10.4663 10.5146C10.9473 10.0335 11.56 9.70581 12.2272 9.57297C12.8943 9.44014 13.5859 9.50813 14.2144 9.76834C14.8429 10.0286 15.3801 10.4693 15.7581 11.0349C16.1362 11.6004 16.338 12.2654 16.3381 12.9456C16.3382 13.3973 16.2493 13.8446 16.0765 14.2619C15.9038 14.6792 15.6505 15.0584 15.3312 15.3779C15.0119 15.6973 14.6328 15.9508 14.2155 16.1237C13.7983 16.2966 13.351 16.3856 12.8994 16.3857ZM15.8627 38.0827H9.92983V18.9948H15.8627V38.0827ZM41.0366 4.00273H6.95165C6.17802 3.99399 5.43253 4.29277 4.87907 4.8334C4.3256 5.37404 4.00944 6.11229 4 6.88594V41.1135C4.00912 41.8875 4.32509 42.6263 4.87854 43.1674C5.43198 43.7086 6.17763 44.008 6.95165 43.9998H41.0366C41.8122 44.0095 42.5599 43.711 43.1155 43.1698C43.6712 42.6286 43.9893 41.889 44 41.1135V6.88347C43.9889 6.10829 43.6706 5.36919 43.115 4.82857C42.5593 4.28796 41.8118 3.99003 41.0366 4.00025" fill="#0A66C2"/>
</svg>
