<svg width="24" height="24" viewBox="0 0 24 24" fill="none" xmlns="http://www.w3.org/2000/svg">
<path d="M9.00938 5.97325L6.9889 1.36475C6.85421 1.05752 6.49263 0.916356 6.18539 1.05105C5.87816 1.18575 5.73699 1.54733 5.87169 1.85457L7.89217 6.46307C8.02687 6.7703 8.38845 6.91147 8.69568 6.77677C9.00291 6.64207 9.14408 6.28049 9.00938 5.97325Z" fill="#8C8C8C"/>
<path d="M6.77677 11.5141C6.64207 11.2069 6.28049 11.0657 5.97325 11.2004L1.36475 13.2209C1.05752 13.3556 0.916356 13.7172 1.05105 14.0244C1.18575 14.3316 1.54733 14.4728 1.85457 14.3381L6.46307 12.3176C6.7703 12.1829 6.92371 11.8493 6.77677 11.5141Z" fill="#8C8C8C"/>
<path d="M3.1564 6.67453C2.835 6.54905 2.49984 6.69599 2.37436 7.0174C2.24888 7.3388 2.39582 7.67397 2.71722 7.79945L4.84653 8.63075C5.00723 8.69349 5.17138 8.68813 5.31103 8.6269C5.45068 8.56568 5.56584 8.44859 5.62858 8.28789C5.75406 7.96648 5.60712 7.63132 5.28571 7.50584L3.1564 6.67453Z" fill="#8C8C8C"/>
<path d="M12.58 5.30689L13.4113 3.17759C13.5368 2.85618 13.3898 2.52102 13.0684 2.39554C12.747 2.27006 12.4118 2.417 12.2864 2.73841L11.4551 4.86771C11.3296 5.18912 11.4765 5.52428 11.7979 5.64976C11.9586 5.7125 12.1228 5.70714 12.2624 5.64591C12.4021 5.58468 12.5172 5.4676 12.58 5.30689Z" fill="#8C8C8C"/>
<path d="M22.36 12.5701L9.61238 8.97151C9.3989 8.91052 9.18542 8.97151 9.00244 9.124C8.84996 9.27648 8.78897 9.52045 8.84996 9.70343L12.3571 22.5426C12.4181 22.7865 12.662 22.9695 12.906 23H12.9365C13.1805 23 13.4245 22.8475 13.516 22.6035L16.0167 16.1382L22.421 13.729C22.665 13.6375 22.8175 13.3935 22.8175 13.1191C22.8175 12.8446 22.6345 12.6311 22.36 12.5701Z" fill="#8C8C8C"/>
</svg>
