<svg
  width="167"
  height="184"
  viewBox="0 0 167 184"
  fill="none"
  xmlns="http://www.w3.org/2000/svg"
>
  <path
    d="M22.1564 102.45C19.9758 101.448 16.9032 102.033 15.5516 100.045C14.9229 99.1255 14.919 97.935 14.5968 96.8702C14.2378 95.76 13.5398 94.7903 12.601 94.0974C11.6622 93.4046 10.5298 93.0235 9.36316 93.0078C7.03711 93.0078 4.27886 94.7681 3.63841 97.0037C2.6129 99.4359 3.02939 102.897 4.26707 105.22C5.55918 107.542 7.39215 109.52 9.6107 110.984C11.9328 112.583 14.6478 113.762 17.469 113.734C20.2901 113.707 23.1859 112.229 24.4118 109.695C25.6376 107.161 24.7182 103.628 22.1564 102.45Z"
    fill="#F7F9FF"
  />
  <path
    d="M149.26 101.916C148.761 100.309 149.681 98.5924 150.832 97.3743C151.983 96.1563 153.425 95.1779 154.345 93.7713C156.223 90.903 155.472 87.0564 154.085 83.9249C153.005 81.481 151.555 78.7148 152.702 76.2984C153.96 73.6463 157.736 73.2062 160.419 74.3928C164.521 76.2081 166.985 80.8366 166.871 85.3197C166.757 89.8029 164.879 94.9343 161.535 97.9205C158.191 100.907 151.182 105.307 149.253 101.916"
    fill="#F7F9FF"
  />
  <path
    d="M101.769 151.96C100.221 149.728 101.301 146.169 103.828 145.174C105.655 144.455 107.757 144.974 109.623 144.33C111.403 143.709 112.641 142.137 113.981 140.793C115.305 139.465 117.099 138.712 118.975 138.695C120.99 138.695 122.998 140.004 123.218 141.878C123.544 144.679 122.967 146.55 121.379 148.137C120.173 149.339 117.89 150.443 116.393 151.249C114.114 152.479 110.892 153.213 108.354 153.606C105.816 153.999 103.694 153.657 101.769 151.925"
    fill="#F7F9FF"
  />
  <path
    d="M8.09816 82.1251C10.8801 82.1251 13.1353 79.8699 13.1353 77.0879C13.1353 74.306 10.8801 72.0508 8.09816 72.0508C5.31622 72.0508 3.061 74.306 3.061 77.0879C3.061 79.8699 5.31622 82.1251 8.09816 82.1251Z"
    fill="#F7F9FF"
    stroke="#EBEBEB"
    stroke-width="0.086731"
    stroke-miterlimit="10"
  />
  <path
    d="M66.2926 25.2148C51.7273 26.2718 35.8221 28.201 24.1605 32.6802L27.846 57.6027C27.846 57.6027 50.4464 49.5126 68.8387 50.0745L66.2926 25.2148Z"
    fill="#597EF7"
  />
  <g opacity="0.8">
    <path
      d="M66.2926 25.2148C51.7273 26.2718 35.8221 28.201 24.1605 32.6802L27.846 57.6027C27.846 57.6027 50.4464 49.5126 68.8387 50.0745L66.2926 25.2148Z"
      fill="white"
    />
  </g>
  <path
    d="M65.2279 46.789L65.0864 46.8125L64.6739 46.8715L63.1022 47.0679C62.4107 47.1504 61.5659 47.2526 60.5876 47.394C59.6092 47.5355 58.4934 47.6769 57.2675 47.8813C52.3521 48.6396 45.5861 49.893 38.2386 51.8104C35.6847 52.4705 33.2211 53.1502 30.9697 53.8575L30.8558 53.8889V53.775C30.07 48.062 29.3077 43.1349 28.7223 39.6301C28.4237 37.8934 28.184 36.4868 28.019 35.5398C27.9364 35.0723 27.8736 34.7069 27.8264 34.4475C27.8264 34.3297 27.795 34.2354 27.7832 34.1646C27.7781 34.1321 27.7781 34.0989 27.7832 34.0664C27.7963 34.0966 27.8055 34.1282 27.8107 34.1607C27.8107 34.2314 27.8461 34.3257 27.8736 34.4397C27.9247 34.699 27.9993 35.0605 28.0975 35.528C28.2861 36.475 28.5494 37.862 28.8559 39.6065C29.4767 43.0956 30.2625 48.0227 31.064 53.7514L30.9344 53.6728C33.1936 52.9577 35.6493 52.274 38.2151 51.6139C44.4954 49.9957 50.8562 48.7077 57.2714 47.7555C58.5012 47.563 59.6289 47.4333 60.5994 47.3037C61.5699 47.174 62.4264 47.0797 63.118 47.009L64.7132 46.8479L65.1297 46.8125C65.1616 46.8017 65.1945 46.7938 65.2279 46.789Z"
    fill="#597EF7"
  />
  <path
    d="M65.7382 40.73C65.7382 40.73 65.6831 40.5572 65.5692 40.231C65.3816 39.7692 65.1289 39.3365 64.8187 38.9462C64.3283 38.326 63.7291 37.8002 63.0506 37.3942C62.862 37.2685 62.6381 37.1742 62.422 37.0602C62.1909 36.9593 61.9533 36.8739 61.7108 36.8048C61.1871 36.6384 60.634 36.5848 60.0881 36.6477C59.4901 36.713 58.9204 36.9368 58.4378 37.296C57.9172 37.693 57.4703 38.1785 57.1176 38.7301C56.3318 39.8656 55.8564 41.2487 55.267 42.6828C54.9792 43.4409 54.5081 44.1159 53.8957 44.6474C53.5683 44.9207 53.1781 45.1084 52.7602 45.1935C52.3277 45.2666 51.8834 45.2148 51.4793 45.0442C49.8212 44.3881 49.0825 42.4746 47.4048 41.9009C46.5811 41.6396 45.6877 41.713 44.9177 42.1052C44.5419 42.2918 44.2067 42.5509 43.9314 42.8675C43.6707 43.1905 43.4504 43.5441 43.2753 43.9205C42.902 44.6592 42.6191 45.4922 41.9865 46.0619C41.6759 46.3515 41.2779 46.5298 40.8549 46.5687C40.4465 46.5932 40.0391 46.5063 39.6762 46.3173C38.999 45.9416 38.4367 45.3888 38.0495 44.7181C37.7134 44.086 37.4257 43.4292 37.189 42.7536C36.9686 42.1342 36.6828 41.5402 36.3364 40.9815C36.0129 40.474 35.5653 40.0575 35.0359 39.7713C34.5781 39.529 34.0707 39.3952 33.5529 39.3802C33.0351 39.3652 32.5208 39.4695 32.0497 39.6849C31.3188 39.9858 30.6688 40.4542 30.152 41.0522C29.8292 41.4331 29.5872 41.8755 29.4408 42.3528C29.3386 42.6789 29.3268 42.8636 29.3111 42.8596C29.3206 42.6838 29.3509 42.5097 29.4015 42.341C29.5318 41.8502 29.7663 41.3932 30.0891 41.0012C30.6058 40.3827 31.2615 39.8953 32.0026 39.5788C32.4895 39.3502 33.0227 39.2373 33.5605 39.2489C34.0982 39.2605 34.6261 39.3963 35.1027 39.6456C35.6578 39.9383 36.1286 40.3685 36.47 40.8951C36.8258 41.4617 37.1196 42.0651 37.3462 42.6946C37.5847 43.3582 37.8724 44.003 38.2067 44.6238C38.581 45.2664 39.1247 45.7937 39.7783 46.1483C40.1109 46.3221 40.4843 46.4022 40.8589 46.3801C41.2397 46.3412 41.5972 46.1783 41.8765 45.9165C42.458 45.3861 42.7409 44.5845 43.1142 43.8341C43.2961 43.4407 43.5257 43.0712 43.7979 42.7339C44.0906 42.3974 44.4471 42.1223 44.8469 41.9245C45.6654 41.5067 46.6158 41.429 47.4912 41.7084C48.3832 42.0031 49.0236 42.6907 49.6169 43.3115C50.1521 43.9695 50.822 44.5054 51.5815 44.8831C51.9531 45.0408 52.3622 45.0885 52.7602 45.0207C53.1457 44.9411 53.5059 44.7684 53.8093 44.5177C54.3963 44.0059 54.8494 43.3585 55.1295 42.6318C55.7149 41.2133 56.2296 39.8106 57.0155 38.6594C57.3785 38.0908 57.8418 37.5928 58.3828 37.1899C58.8895 36.8209 59.4844 36.5918 60.1077 36.5259C60.6719 36.4669 61.2421 36.5271 61.7815 36.7027C62.0297 36.7764 62.2726 36.8669 62.5084 36.9738C63.4527 37.4331 64.2772 38.1057 64.917 38.9384C65.2244 39.3407 65.4694 39.7871 65.6439 40.2625C65.6852 40.3915 65.7193 40.5226 65.746 40.6554C65.7445 40.6804 65.7419 40.7053 65.7382 40.73Z"
    fill="#597EF7"
  />
  <path
    d="M27.1345 37.4563C27.1345 37.5113 26.9537 37.5939 26.7101 37.641C26.4665 37.6882 26.2583 37.6803 26.2504 37.641C26.2426 37.6017 26.4272 37.5035 26.6708 37.4563C26.9144 37.4092 27.1148 37.4013 27.1345 37.4563Z"
    fill="#597EF7"
  />
  <path
    d="M27.7788 41.9947C27.8024 42.0498 27.6609 42.1637 27.4606 42.258C27.2602 42.3523 27.0676 42.3837 27.0676 42.3327C27.0676 42.2816 27.1894 42.1676 27.3898 42.0733C27.5902 41.979 27.7552 41.9555 27.7788 41.9947Z"
    fill="#597EF7"
  />
  <path
    d="M28.5847 46.9806C28.5847 47.0356 28.455 47.1338 28.2547 47.2046C28.0543 47.2753 27.8617 47.2871 27.8617 47.236C27.8617 47.1849 27.9914 47.0828 28.1918 47.012C28.3922 46.9413 28.5651 46.9295 28.5847 46.9806Z"
    fill="#597EF7"
  />
  <path
    d="M29.5514 51.8673C29.5514 51.9223 29.3982 52.0245 29.1585 52.0913C28.9188 52.1581 28.742 52.1777 28.7263 52.1227C28.7106 52.0677 28.8756 51.9695 29.0956 51.8988C29.3157 51.828 29.5318 51.8163 29.5514 51.8673Z"
    fill="#597EF7"
  />
  <path
    d="M57.0193 28.3844C57.1728 28.3288 57.3325 28.2919 57.4948 28.2744C57.8091 28.2233 58.2806 28.1526 58.8503 28.07C60.0291 27.905 61.6832 27.6771 63.6674 27.4453H63.7618V27.5396C63.915 29.2134 64.0957 31.1387 64.2843 33.1819V33.2683V33.3665H64.1861L57.6755 34.1523H57.5851V34.0659C57.4044 32.3567 57.2512 30.9226 57.1412 29.905C57.094 29.4256 57.0586 29.0445 57.0272 28.7537C57.0115 28.6233 57.0037 28.4921 57.0036 28.3608C57.0355 28.4981 57.0591 28.6372 57.0744 28.7773C57.1176 29.068 57.1687 29.457 57.2355 29.956C57.3651 30.9697 57.5419 32.3764 57.758 34.0659L57.6598 33.9873L64.1704 33.1583L64.08 33.2683V33.1858C63.8993 31.1426 63.7303 29.2134 63.581 27.5396L63.6832 27.6221L57.0193 28.3844Z"
    fill="#597EF7"
  />
  <path
    d="M63.0704 29.372C63.0704 29.4349 61.9506 29.431 60.5833 29.5803C59.2159 29.7296 58.1197 29.9732 58.104 29.8985C59.7047 29.3792 61.3963 29.1998 63.0704 29.372Z"
    fill="#597EF7"
  />
  <path
    d="M63.1414 30.8368C63.1414 30.8957 62.0963 30.935 60.8193 31.0608C59.5423 31.1865 58.505 31.3437 58.4932 31.2847C59.2404 31.0431 60.0156 30.8992 60.7996 30.8565C61.576 30.7476 62.3633 30.7409 63.1414 30.8368Z"
    fill="#597EF7"
  />
  <path
    d="M61.5816 32.1067C61.156 32.2668 60.7078 32.3583 60.2535 32.3778C59.8103 32.4677 59.3561 32.4916 58.9059 32.4486C59.3308 32.291 59.7773 32.1996 60.23 32.1774C60.6746 32.0875 61.13 32.0637 61.5816 32.1067Z"
    fill="#597EF7"
  />
  <path
    d="M137.3 32.564C123.037 28.2184 111.002 24.5054 94.8653 24.6075L92.3978 50.0015C109.179 51.4868 114.794 52.5869 130.283 58.1938L137.3 32.564Z"
    fill="#597EF7"
  />
  <g opacity="0.8">
    <path
      d="M137.3 32.564C123.037 28.2184 111.002 24.5054 94.8653 24.6075L92.3978 50.0015C109.179 51.4868 114.794 52.5869 130.283 58.1938L137.3 32.564Z"
      fill="white"
    />
  </g>
  <path
    d="M105.01 36.9144L105.639 31.5275C104.073 31.3706 102.505 31.8051 101.242 32.7456C100.406 33.3582 99.7257 34.1589 99.2561 35.0831C98.7865 36.0073 98.5409 37.029 98.5392 38.0656C98.5324 38.3277 98.5389 38.59 98.5588 38.8514L104.845 38.1442L105.01 36.9144Z"
    fill="#597EF7"
  />
  <path
    d="M111.513 36.0333C111.213 34.9887 110.639 34.0433 109.851 33.2951C109.063 32.5469 108.089 32.0231 107.03 31.7781L106.841 31.7388L106.719 31.7113L106.35 31.6562H106.319L105.698 37.0195L105.549 38.2847L111.489 40.4536C111.639 40.0058 111.742 39.5436 111.796 39.0745C111.914 38.0521 111.817 37.0164 111.513 36.0333Z"
    fill="#597EF7"
  />
  <g opacity="0.3">
    <path
      d="M111.513 36.0333C111.213 34.9887 110.639 34.0433 109.851 33.2951C109.063 32.5469 108.089 32.0231 107.03 31.7781L106.841 31.7388L106.719 31.7113L106.35 31.6562H106.319L105.698 37.0195L105.549 38.2847L111.489 40.4536C111.639 40.0058 111.742 39.5436 111.796 39.0745C111.914 38.0521 111.817 37.0164 111.513 36.0333Z"
      fill="black"
    />
  </g>
  <path
    d="M105.101 38.8906L98.8142 39.5979C99.0775 42.6469 101.301 45.1733 104.288 45.5427C107.274 45.912 110.075 43.971 111.057 41.0634L105.117 38.8946"
    fill="#597EF7"
  />
  <path
    d="M131.787 37.3905C131.596 37.3323 131.411 37.2574 131.233 37.1666C130.884 37.0055 130.373 36.7736 129.736 36.5182C128.086 35.8277 126.396 35.2347 124.676 34.7423C122.953 34.248 121.203 33.8544 119.434 33.5635C118.758 33.4535 118.204 33.3749 117.823 33.3239C117.624 33.3092 117.426 33.275 117.234 33.2217C117.434 33.2138 117.635 33.2217 117.835 33.2453C118.228 33.2728 118.774 33.3317 119.458 33.4221C123.026 33.9073 126.507 34.8996 129.795 36.3689C130.424 36.6518 130.927 36.8954 131.269 37.0762C131.45 37.1659 131.624 37.2711 131.787 37.3905Z"
    fill="#597EF7"
  />
  <path
    d="M131.355 40.0302C131.165 39.9693 130.979 39.8931 130.801 39.8024C130.451 39.6452 129.941 39.4094 129.304 39.158C126.001 37.7674 122.542 36.7806 119.002 36.219C118.326 36.109 117.772 36.0304 117.391 35.9793C117.192 35.9597 116.995 35.9256 116.802 35.8771C117.002 35.8642 117.204 35.8721 117.403 35.9007C117.796 35.9243 118.342 35.9832 119.026 36.0736C120.807 36.3176 122.569 36.6879 124.298 37.1816C126.028 37.6771 127.72 38.2929 129.363 39.0244C129.992 39.3073 130.495 39.5509 130.837 39.7316C131.019 39.8131 131.193 39.9132 131.355 40.0302Z"
    fill="#597EF7"
  />
  <path
    d="M130.923 42.6875C130.732 42.6293 130.547 42.5543 130.369 42.4635C130.019 42.3063 129.509 42.0706 128.872 41.8152C127.221 41.1224 125.531 40.5255 123.811 40.0274C122.088 39.535 120.338 39.1415 118.57 38.8487C117.894 38.7426 117.344 38.6601 116.959 38.609C116.76 38.5944 116.562 38.5601 116.37 38.5069C116.57 38.499 116.771 38.5069 116.971 38.5304C117.364 38.5579 117.91 38.6169 118.593 38.7072C120.375 38.9512 122.137 39.3215 123.866 39.8153C125.597 40.3072 127.289 40.9231 128.931 41.658C129.56 41.9409 130.063 42.1845 130.404 42.3653C130.588 42.4554 130.761 42.5633 130.923 42.6875Z"
    fill="#597EF7"
  />
  <path
    d="M130.058 45.3411C129.873 45.2802 129.693 45.2053 129.52 45.1172C129.182 44.9561 128.687 44.7242 128.074 44.4728C124.876 43.0844 121.519 42.096 118.078 41.5299C117.418 41.4198 116.9 41.3413 116.507 41.2902C116.312 41.2753 116.12 41.241 115.933 41.188C116.128 41.1776 116.324 41.1855 116.518 41.2116C116.892 41.2352 117.43 41.2941 118.09 41.3884C119.824 41.6321 121.538 42.0024 123.218 42.4964C124.898 42.9962 126.541 43.616 128.133 44.351C128.742 44.6339 129.229 44.8775 129.555 45.0582C129.731 45.1365 129.9 45.2312 130.058 45.3411Z"
    fill="#597EF7"
  />
  <path
    d="M128.18 47.4544C128.014 47.4044 127.852 47.3399 127.697 47.2619L126.396 46.6843C123.55 45.3938 120.529 44.5318 117.43 44.1264L116.019 43.93C115.846 43.9141 115.674 43.8838 115.505 43.8396C115.678 43.8191 115.854 43.8191 116.027 43.8396C116.365 43.8396 116.849 43.9025 117.446 43.9693C120.575 44.3004 123.623 45.1698 126.455 46.5389C127.001 46.7983 127.434 47.0183 127.732 47.1794C127.891 47.2549 128.041 47.3471 128.18 47.4544Z"
    fill="#597EF7"
  />
  <path
    d="M121.843 47.7525C121.5 47.7094 121.161 47.6398 120.829 47.5443C120.208 47.3989 119.348 47.2103 118.389 47.0492C117.43 46.8881 116.554 46.7624 115.922 46.6563C115.577 46.6267 115.235 46.5675 114.9 46.4795C115.246 46.4524 115.594 46.4629 115.937 46.5109C116.578 46.5659 117.458 46.6602 118.425 46.8292C119.248 46.9691 120.062 47.1554 120.865 47.3871C121.204 47.471 121.532 47.5937 121.843 47.7525Z"
    fill="#597EF7"
  />
  <path
    d="M97.3208 27.6019L97.6509 27.5822L98.6331 27.5508C99.4976 27.5508 100.755 27.5508 102.358 27.6333C106.794 27.9284 111.182 28.7192 115.442 29.9908L115.513 30.0144V30.089C114.53 35.7195 113.36 42.4108 112.11 49.5697C112.059 49.8604 112.008 50.1512 111.957 50.4341V50.5441L111.847 50.5166C108.969 49.7629 106.053 49.161 103.112 48.7131C100.295 48.2809 97.6116 47.9744 95.1048 47.8173H95.0066V47.723C95.6942 41.7153 96.2717 36.686 96.6764 33.1459C96.8808 31.3935 97.0458 30.0026 97.1558 29.0596C97.2108 28.5959 97.258 28.2384 97.2855 27.9869C97.2855 27.873 97.313 27.7826 97.3208 27.7119C97.3287 27.6412 97.3208 27.6215 97.3208 27.6254C97.3243 27.6581 97.3243 27.691 97.3208 27.7237C97.3208 27.7944 97.3208 27.8887 97.2933 28.0066C97.2697 28.262 97.2304 28.6274 97.1833 29.0989C97.0851 30.0576 96.9358 31.4563 96.7511 33.2087C96.3582 36.745 95.8238 41.7546 95.1794 47.7466L95.093 47.6483C97.6037 47.7976 100.299 48.1002 103.12 48.5285C106.069 48.9748 108.992 49.5755 111.878 50.328L111.753 50.4105C111.804 50.1276 111.855 49.8369 111.906 49.5461C113.167 42.3872 114.346 35.6998 115.336 30.0733L115.395 30.1715C111.15 28.8956 106.778 28.0879 102.358 27.763C100.763 27.6569 99.4976 27.6294 98.6489 27.6333H97.3287L97.3208 27.6019Z"
    fill="#597EF7"
  />
  <path
    d="M81.7451 79.4953L95.6543 82.5757L97.7799 79.4953L97.4381 75.5308L95.3242 73.5977H88.0396L81.2343 79.7271"
    fill="#597EF7"
  />
  <g opacity="0.3">
    <path
      d="M81.7451 79.4953L95.6543 82.5757L97.7799 79.4953L97.4381 75.5308L95.3242 73.5977H88.0396L81.2343 79.7271"
      fill="black"
    />
  </g>
  <path
    d="M102.947 50.8494L120.507 48.492L123.257 47.7061C123.257 47.7061 129.587 46.3152 130.176 46.103C130.86 45.8594 131.143 46.1305 131.214 46.3859C131.328 46.7789 130.942 47.2386 130.361 47.4664C130.165 47.545 126.954 48.6452 126.954 48.6452C127.323 48.7238 127.685 48.8289 128.039 48.9595C128.805 49.2188 129.54 50.209 129.909 51.3642C130.278 52.5193 130.282 52.8729 129.838 53.038C129.753 53.0637 129.663 53.0707 129.575 53.0585C129.487 53.0463 129.403 53.0152 129.328 52.9672C129.079 52.817 128.892 52.5829 128.801 52.3072C128.184 50.4644 127.033 50.319 127.033 50.319L126.672 50.4212C126.672 50.4212 127.85 51.2502 127.85 52.2561C127.847 52.4036 127.815 52.5492 127.756 52.6844C127.843 52.9343 127.864 53.2026 127.816 53.4629C127.767 53.7232 127.652 53.9663 127.481 54.1684C127.31 54.3704 127.089 54.5242 126.84 54.6147C126.591 54.7052 126.323 54.7292 126.063 54.6843C125.811 54.6371 125.536 54.4878 125.501 54.2364C125.494 54.1005 125.522 53.9651 125.583 53.8434C125.608 53.7753 125.629 53.7058 125.646 53.6352L124.593 53.7806C124.593 53.7806 122.208 53.977 121.183 54.1735L104.743 59.1242C104.203 59.2884 103.635 59.3434 103.073 59.2862C102.511 59.2289 101.966 59.0604 101.47 58.7906C100.974 58.5207 100.536 58.1549 100.183 57.7144C99.8294 57.2738 99.5671 56.7674 99.4112 56.2245C99.2453 55.6372 99.2077 55.0211 99.3009 54.418C99.3941 53.8149 99.6159 53.2389 99.9513 52.7291C100.287 52.2193 100.728 51.7875 101.245 51.4632C101.762 51.1389 102.342 50.9296 102.947 50.8494Z"
    fill="#FFBE9D"
  />
  <path
    d="M120.919 48.9351C120.956 49.1164 121.049 49.2814 121.185 49.4069C121.322 49.5324 121.494 49.612 121.677 49.6345C122.039 49.7092 122.416 49.662 122.781 49.7092C123.874 49.8585 124.726 50.8526 125.822 50.9469C125.976 50.9469 126.172 50.9469 126.215 50.7818C126.259 50.6168 126.141 50.5186 126.035 50.4243L123.284 48"
    fill="#FFBE9D"
  />
  <path
    d="M123.296 48C123.411 48.0657 123.519 48.1434 123.618 48.2318C123.815 48.3929 124.101 48.6247 124.447 48.9233L125.661 49.9646L126.007 50.2671C126.113 50.3732 126.294 50.4636 126.325 50.715C126.326 50.7768 126.309 50.8374 126.275 50.8892C126.242 50.941 126.194 50.9816 126.137 51.0058C126.044 51.0443 125.943 51.0605 125.842 51.0529C125.663 51.0393 125.486 51.0036 125.316 50.9469C124.71 50.6924 124.123 50.3956 123.559 50.0589C123.312 49.9324 123.047 49.8449 122.773 49.7995C122.518 49.7603 122.267 49.7681 122.039 49.7524C121.85 49.7578 121.663 49.7219 121.49 49.6472C121.317 49.5725 121.162 49.4609 121.037 49.3202C120.876 49.0962 120.907 48.9273 120.915 48.9273C120.958 49.0468 121.02 49.1583 121.1 49.2573C121.224 49.3767 121.373 49.4684 121.535 49.5266C121.698 49.5849 121.871 49.6082 122.043 49.5952C122.294 49.5902 122.546 49.598 122.797 49.6188C123.089 49.6608 123.372 49.7469 123.638 49.8742C124.198 50.1988 124.778 50.4887 125.374 50.7425C125.529 50.7905 125.689 50.8221 125.85 50.8368C126.003 50.8368 126.133 50.7936 126.117 50.715C126.101 50.6365 125.991 50.5107 125.874 50.4086L125.528 50.1021L124.349 49.0255L123.563 48.2868C123.378 48.1139 123.284 48.0118 123.296 48Z"
    fill="#EB996E"
  />
  <path
    d="M126.659 50.4006C126.887 50.3461 127.124 50.3461 127.351 50.4006C127.588 50.4636 127.799 50.6014 127.952 50.7935C128.139 51.0423 128.285 51.3195 128.384 51.6147C128.486 51.9178 128.618 52.21 128.777 52.487C128.916 52.7191 129.114 52.9102 129.351 53.041C129.434 53.0838 129.526 53.106 129.62 53.106C129.714 53.106 129.806 53.0838 129.889 53.041C130.003 52.9821 130.046 52.9231 130.042 52.9192C130.039 52.9153 129.98 52.9506 129.87 52.9939C129.791 53.0199 129.709 53.0291 129.627 53.021C129.545 53.0129 129.466 52.9875 129.394 52.9467C129.183 52.8132 129.007 52.6297 128.883 52.4123C128.726 52.1386 128.594 51.8505 128.49 51.5519C128.385 51.2449 128.228 50.958 128.027 50.7032C127.857 50.4898 127.62 50.3391 127.355 50.2749C127.178 50.2313 126.993 50.2313 126.817 50.2749C126.714 50.3535 126.656 50.3928 126.659 50.4006Z"
    fill="#EB996E"
  />
  <path
    d="M130.604 47.3789C130.384 47.4301 130.17 47.5024 129.964 47.595L128.439 48.1569L126.915 48.6952C126.698 48.7533 126.487 48.8336 126.286 48.9348C126.511 48.909 126.732 48.8589 126.946 48.7855C127.339 48.6716 127.897 48.4987 128.494 48.2826C129.092 48.0665 129.63 47.8543 130.011 47.6854C130.22 47.6059 130.419 47.5031 130.604 47.3789Z"
    fill="#EB996E"
  />
  <path
    d="M126.196 51.3757C126.196 51.3757 126.243 51.4386 126.333 51.5368C126.4 51.5981 126.452 51.6731 126.487 51.7565C126.521 51.8399 126.537 51.9299 126.534 52.0201C126.525 52.0778 126.501 52.1321 126.464 52.1776C126.428 52.2231 126.38 52.2582 126.326 52.2794C126.189 52.3352 126.047 52.3747 125.901 52.3973C125.717 52.4195 125.548 52.5091 125.426 52.6488C125.369 52.7324 125.332 52.8281 125.318 52.9283C125.305 53.0286 125.315 53.1306 125.347 53.2264C125.38 53.3201 125.432 53.4061 125.5 53.4791C125.567 53.552 125.649 53.6104 125.74 53.6507C125.903 53.7304 126.087 53.7578 126.267 53.7293C126.551 53.6685 126.825 53.5666 127.08 53.4268C127.256 53.3378 127.415 53.2195 127.551 53.0771C127.603 53.0254 127.64 52.962 127.661 52.8924C127.661 52.8924 127.61 52.9513 127.512 53.0378C127.369 53.1609 127.209 53.2628 127.037 53.3403C126.788 53.4642 126.524 53.5541 126.251 53.6075C126.092 53.6353 125.928 53.609 125.786 53.5328C125.643 53.4566 125.53 53.3349 125.465 53.1871C125.438 53.1114 125.429 53.0305 125.439 52.9508C125.448 52.8711 125.476 52.7946 125.52 52.7274C125.622 52.6127 125.761 52.5387 125.913 52.5191C126.068 52.4905 126.218 52.443 126.361 52.3777C126.429 52.3459 126.487 52.2975 126.531 52.2371C126.575 52.1766 126.603 52.1061 126.612 52.0319C126.613 51.9293 126.591 51.8277 126.547 51.7351C126.502 51.6424 126.438 51.5612 126.357 51.4975C126.267 51.4229 126.2 51.3679 126.196 51.3757Z"
    fill="#EB996E"
  />
  <path
    d="M125.819 53.5672C125.819 53.5672 125.744 53.5672 125.646 53.6497C125.577 53.7102 125.524 53.7857 125.49 53.8702C125.456 53.9548 125.442 54.046 125.449 54.1369C125.466 54.2728 125.518 54.4018 125.6 54.5114C125.682 54.621 125.791 54.7073 125.917 54.7617C126.222 54.8841 126.562 54.8841 126.868 54.7617C127.175 54.6542 127.441 54.4519 127.626 54.1841C127.775 53.9675 127.863 53.7152 127.881 53.4533C127.896 53.2782 127.876 53.102 127.822 52.9346C127.81 52.8718 127.783 52.8127 127.744 52.7617C127.787 52.9856 127.801 53.214 127.787 53.4415C127.751 53.7077 127.642 53.9588 127.472 54.1669C127.302 54.3749 127.078 54.5319 126.824 54.6202C126.549 54.7276 126.243 54.7276 125.968 54.6202C125.859 54.5771 125.762 54.5069 125.688 54.4161C125.614 54.3253 125.564 54.217 125.544 54.1016C125.534 54.0226 125.541 53.9426 125.565 53.8667C125.588 53.7908 125.628 53.7208 125.681 53.6615C125.76 53.6026 125.826 53.579 125.819 53.5672Z"
    fill="#EB996E"
  />
  <path
    d="M122.9 52.1253C122.9 52.1253 122.9 51.9996 122.786 51.8188C122.635 51.5791 122.41 51.3954 122.145 51.2963V51.4141C122.281 51.3503 122.412 51.2768 122.538 51.1941C123.003 50.9247 123.384 50.5316 123.638 50.0586C123.282 50.4393 122.887 50.7817 122.459 51.0802C122.326 51.1627 122.196 51.2373 122.067 51.3002L121.933 51.3709L122.074 51.4181C122.319 51.5047 122.533 51.6603 122.691 51.866C122.837 52.0192 122.88 52.1292 122.9 52.1253Z"
    fill="#EB996E"
  />
  <path
    d="M128.365 50.2479C128.341 50.2244 128.157 50.4287 128.133 50.7548C128.11 51.0809 128.267 51.3049 128.298 51.2852C128.33 51.2656 128.247 51.0456 128.271 50.7627C128.294 50.4798 128.4 50.2715 128.365 50.2479Z"
    fill="#EB996E"
  />
  <path
    d="M46.4384 56.3546C46.4384 56.3546 43.8767 52.2015 43.4209 51.8479C42.9651 51.4943 38.9063 50.0091 38.5605 50.1191C38.2148 50.2291 33.2955 51.066 33.8456 51.6515C34.3956 52.2369 37.8415 51.6004 37.8415 51.6004L38.3051 51.8322C38.3051 51.8322 35.3386 52.3037 34.7139 52.6652C34.0892 53.0267 34.321 53.6985 34.8829 53.6435C35.4447 53.5885 37.9987 53.0895 38.1519 53.1956C38.3051 53.3017 35.3504 53.8911 35.0322 54.0757C34.6039 54.3311 34.5607 55.0895 35.1029 55.0541C35.4212 55.0305 38.2069 54.3115 38.2069 54.3115C37.3843 54.6156 36.5789 54.9645 35.7944 55.3566C35.4604 55.6749 35.7237 56.1425 36.1873 56.0482C36.5174 55.9774 38.0772 55.2309 38.5173 55.1366C38.5173 55.1366 38.9102 55.2466 39.3031 56.0796C39.476 56.4725 40.2697 58.8889 41.7196 58.8575C43.0044 58.83 44.2656 59.8869 44.2656 59.8869L46.4384 56.3546Z"
    fill="#FFBE9D"
  />
  <path
    d="M33.8689 51.6653C34.147 51.8093 34.4521 51.8936 34.7647 51.9128C35.1004 51.9608 35.4399 51.9753 35.7784 51.9561C36.1713 51.9128 36.5643 51.8578 36.9965 51.795L37.9159 51.6614H37.8609C38.5476 51.9436 39.2575 52.1658 39.9826 52.3254C39.3254 51.9788 38.6407 51.6871 37.9355 51.4531H37.912H37.8805L36.969 51.5749L35.7627 51.7517C35.4358 51.777 35.1074 51.777 34.7804 51.7517C34.2225 51.7124 33.8767 51.6299 33.8689 51.6653Z"
    fill="#EB996E"
  />
  <path
    d="M44.517 55.864C44.3501 55.9828 44.1502 56.0466 43.9453 56.0466C43.7404 56.0466 43.5406 55.9828 43.3736 55.864C43.024 55.6518 42.7528 55.3296 42.4189 55.0782C41.4209 54.3709 39.9789 54.5399 39.0123 53.7855C38.8787 53.6833 38.7451 53.5104 38.8198 53.3572C38.8944 53.204 39.0791 53.2 39.2402 53.204L43.2911 53.2983"
    fill="#FFBE9D"
  />
  <path
    d="M43.2907 53.3156C43.148 53.28 43.0016 53.2616 42.8545 53.2606C42.5716 53.2606 42.163 53.2174 41.6758 53.1978L39.9038 53.127H39.389C39.2868 53.1076 39.1816 53.1088 39.0798 53.1304C38.9779 53.1519 38.8814 53.1935 38.7957 53.2528C38.7454 53.3034 38.712 53.3683 38.7 53.4386C38.6881 53.509 38.6982 53.5813 38.7289 53.6457C38.7746 53.7488 38.8447 53.8391 38.9333 53.9089C39.0903 54.0307 39.2603 54.1348 39.4401 54.2193C40.1259 54.4686 40.8283 54.6695 41.5422 54.8205C41.8366 54.9095 42.116 55.0419 42.3713 55.2134C42.607 55.3745 42.8035 55.571 43.0038 55.7321C43.1539 55.8763 43.3335 55.9862 43.5303 56.054C43.7271 56.1219 43.9362 56.1461 44.1433 56.125C44.4458 56.07 44.5362 55.9049 44.5362 55.9049C44.4135 55.9708 44.2807 56.0159 44.1433 56.0385C43.952 56.0385 43.7628 55.9994 43.5872 55.9238C43.4115 55.8481 43.2531 55.7374 43.1217 55.5985C42.9371 55.4374 42.7288 55.233 42.4931 55.0484C42.2248 54.8623 41.9292 54.7191 41.6169 54.624C40.9177 54.464 40.2289 54.262 39.5541 54.0189C39.3902 53.9424 39.2348 53.8489 39.0904 53.74C38.9608 53.6339 38.8979 53.4885 38.9686 53.4335C39.0393 53.3785 39.224 53.3667 39.3969 53.3706H39.9077H41.6837C42.1866 53.3706 42.5952 53.3706 42.8624 53.3706C43.0069 53.3711 43.1509 53.3526 43.2907 53.3156Z"
    fill="#EB996E"
  />
  <path
    d="M66.4062 148.387L65.475 158.689L62.3828 166.63C62.3304 166.765 62.3064 166.91 62.3122 167.055C62.318 167.2 62.3535 167.342 62.4165 167.473C62.4795 167.603 62.5686 167.72 62.6784 167.815C62.7881 167.91 62.9162 167.981 63.0547 168.025C63.216 168.076 63.3873 168.087 63.554 168.058C63.7208 168.03 63.8783 167.962 64.0134 167.86C65.754 166.535 72.131 161.624 72.1585 160.866C72.1899 159.989 73.8716 150.045 73.8716 150.045L66.4062 148.387Z"
    fill="#597EF7"
  />
  <g opacity="0.6">
    <path
      d="M63.0549 168.03L72.2373 160.172L72.1901 160.608C72.1464 160.985 71.971 161.334 71.6951 161.594C70.9564 162.286 68.87 164.156 64.045 167.881C63.9062 167.988 63.7431 168.058 63.5703 168.086C63.3975 168.114 63.2204 168.099 63.0549 168.042V168.03Z"
      fill="white"
    />
  </g>
  <g opacity="0.6">
    <path
      d="M70.504 156.618C70.3676 156.697 70.2651 156.823 70.2159 156.973C70.1666 157.123 70.1741 157.286 70.2369 157.431C70.3098 157.566 70.4312 157.67 70.5768 157.72C70.7224 157.77 70.8816 157.764 71.0227 157.702C71.168 157.619 71.2774 157.485 71.3296 157.326C71.3819 157.167 71.3733 156.994 71.3056 156.841C71.214 156.703 71.0722 156.606 70.9103 156.57C70.7483 156.534 70.5787 156.562 70.4372 156.649"
      fill="white"
    />
  </g>
  <path
    d="M65.9187 163.797C65.8558 163.821 65.6869 163.255 65.1054 162.893C64.7463 162.702 64.3545 162.579 63.9502 162.532C63.9502 162.508 64.0838 162.441 64.3431 162.434C64.6643 162.434 64.9784 162.528 65.2468 162.705C65.5181 162.874 65.7328 163.12 65.8637 163.412C65.9462 163.648 65.9423 163.797 65.9187 163.797Z"
    fill="#263238"
  />
  <path
    d="M65.0268 165.098C64.9757 165.137 64.681 164.764 64.1663 164.552C63.8425 164.452 63.5132 164.371 63.1801 164.308C63.3494 164.228 63.5354 164.19 63.7227 164.196C63.9099 164.202 64.093 164.253 64.2567 164.344C64.8343 164.583 65.0857 165.079 65.0268 165.098Z"
    fill="#263238"
  />
  <path
    d="M67.4825 162.194C67.082 161.852 66.6564 161.541 66.2094 161.263C65.4472 160.85 64.7203 160.803 64.7281 160.733C65.2809 160.651 65.8449 160.767 66.3194 161.063C66.8288 161.29 67.2409 161.691 67.4825 162.194Z"
    fill="#263238"
  />
  <path
    d="M68.0292 159.082C67.9938 159.141 67.4555 158.838 66.7168 158.728C65.9782 158.618 65.377 158.728 65.3613 158.662C65.8026 158.485 66.2835 158.431 66.7531 158.505C67.2226 158.579 67.6635 158.778 68.0292 159.082Z"
    fill="#263238"
  />
  <path
    d="M68.3706 156.07C67.9391 155.877 67.4829 155.745 67.0151 155.677C66.5413 155.676 66.0696 155.738 65.6124 155.862C65.6124 155.839 65.7224 155.725 65.9778 155.615C66.3103 155.475 66.6716 155.419 67.0308 155.45C67.3907 155.478 67.739 155.59 68.0484 155.776C68.292 155.913 68.3981 156.047 68.3706 156.07Z"
    fill="#263238"
  />
  <path
    d="M67.1092 155.092C67.0893 154.961 67.1001 154.826 67.1407 154.699C67.2164 154.347 67.3606 154.013 67.565 153.717C67.6974 153.488 67.8999 153.307 68.1426 153.202C68.2265 153.177 68.3161 153.177 68.3996 153.204C68.4831 153.231 68.5566 153.282 68.6102 153.352C68.7053 153.494 68.7445 153.666 68.7202 153.835C68.6572 154.178 68.477 154.488 68.2103 154.712C67.9436 154.937 67.6071 155.061 67.2585 155.065C66.914 155.06 66.5785 154.954 66.2945 154.759C66.0105 154.564 65.7908 154.289 65.6633 153.968C65.632 153.887 65.6183 153.801 65.623 153.714C65.6278 153.627 65.6509 153.543 65.6908 153.465C65.7402 153.393 65.8111 153.337 65.8935 153.307C65.976 153.277 66.0659 153.273 66.1505 153.297C66.3975 153.379 66.6174 153.527 66.787 153.725C67.0427 153.979 67.2504 154.277 67.4 154.605C67.4642 154.72 67.5043 154.847 67.5179 154.978C67.2946 154.559 67.0113 154.176 66.677 153.839C66.5211 153.674 66.3266 153.552 66.1112 153.481C66.0652 153.467 66.0158 153.468 65.9705 153.485C65.9253 153.501 65.8864 153.531 65.8598 153.572C65.8373 153.624 65.8257 153.68 65.8257 153.737C65.8257 153.793 65.8373 153.85 65.8598 153.902C65.977 154.175 66.1706 154.408 66.4173 154.574C66.664 154.74 66.9534 154.831 67.2507 154.837C67.5455 154.834 67.8304 154.73 68.0589 154.544C68.2873 154.358 68.4457 154.099 68.508 153.811C68.5277 153.695 68.5054 153.575 68.4451 153.473C68.4173 153.434 68.3775 153.404 68.3316 153.388C68.2857 153.373 68.236 153.372 68.1897 153.387C67.9831 153.473 67.8086 153.621 67.6907 153.811C67.423 154.201 67.2261 154.634 67.1092 155.092Z"
    fill="#263238"
  />
  <path
    d="M75.8909 154.435L83.6038 93.3562L81.1363 79.1562L66.5984 79.9421L64.7793 153.307C64.7708 153.572 64.8573 153.831 65.0229 154.038C65.1886 154.244 65.4227 154.385 65.683 154.435L74.1542 155.743C74.3544 155.773 74.5587 155.764 74.7551 155.714C74.9515 155.664 75.136 155.576 75.2978 155.454C75.4596 155.332 75.5954 155.179 75.6972 155.004C75.7991 154.829 75.8649 154.635 75.8909 154.435Z"
    fill="#263238"
  />
  <path
    d="M83.3799 95.4018L97.4108 109.287L77.2268 114.195L78.661 124.379L105.984 120.662C107.139 120.504 108.251 120.113 109.25 119.512C110.25 118.912 111.117 118.115 111.799 117.169C112.833 115.737 113.4 114.021 113.424 112.255C113.448 110.489 112.927 108.759 111.933 107.299L90.6448 76.0547L81.1363 79.1548L83.3799 95.4018Z"
    fill="#263238"
  />
  <path
    d="M82.6059 91.8711C82.8344 92.4321 82.9979 93.0174 83.0931 93.6156C83.2591 94.1981 83.3554 94.7982 83.3799 95.4034C83.1542 94.8414 82.9908 94.2564 82.8927 93.6589C82.7313 93.0754 82.6351 92.4758 82.6059 91.8711Z"
    fill="#455A64"
  />
  <path
    d="M80.551 115.471L80.885 115.361L81.8672 115.054L85.6313 113.911L99.3283 109.793L99.293 109.923L82.4527 91.9861L82.6295 91.9311C82.2955 94.7482 81.9458 97.6912 81.5922 100.693C79.8555 115.231 78.221 128.401 76.9597 137.918C76.3311 142.676 75.781 146.522 75.3881 149.179C75.1641 150.499 74.9952 151.536 74.8616 152.224C74.7909 152.566 74.7319 152.825 74.6926 153.01C74.6533 153.194 74.6298 153.277 74.6298 153.277C74.6298 153.277 74.6298 153.182 74.673 153.006C74.7162 152.829 74.7594 152.558 74.8223 152.22C74.9637 151.528 75.0973 150.495 75.3095 149.171C75.7024 146.511 76.2211 142.664 76.8262 137.902C78.056 128.386 79.663 115.219 81.3997 100.673C81.7572 97.6715 82.1069 94.7286 82.4409 91.9114L82.4645 91.6953L82.6138 91.8525L99.4108 109.82L99.4973 109.915L99.3755 109.95L85.6589 114.005L81.879 115.109L80.8928 115.392C80.6806 115.471 80.551 115.471 80.551 115.471Z"
    fill="#455A64"
  />
  <path
    d="M76.0208 153.282C75.9658 153.282 77.5689 140.316 79.6003 124.329C81.6316 108.341 83.3251 95.3945 83.3801 95.4023C83.4351 95.4102 81.8359 108.369 79.8046 124.356C77.7732 140.344 76.0798 153.286 76.0208 153.282Z"
    fill="#455A64"
  />
  <path
    d="M81.1052 85.4062C81.2459 85.7096 81.3539 86.027 81.4274 86.3532C81.6003 86.9425 81.8203 87.7716 82.0168 88.691C82.2132 89.6104 82.3665 90.4513 82.4569 91.0485C82.526 91.3752 82.5589 91.7086 82.5551 92.0426C82.4435 91.7277 82.3632 91.4027 82.3154 91.0721C82.17 90.4002 82.0011 89.6026 81.8164 88.7146C81.6317 87.8266 81.4235 87.0408 81.2899 86.3571C81.1959 86.0473 81.134 85.7287 81.1052 85.4062Z"
    fill="#455A64"
  />
  <path
    d="M82.0049 84.2093C82.0049 84.2093 82.2013 84.0168 82.5746 84.1464C82.6829 84.1862 82.779 84.2535 82.8534 84.3416C82.9279 84.4298 82.978 84.5359 82.9989 84.6494C83.0261 84.7913 83.0104 84.9382 82.9537 85.0712C82.897 85.2042 82.8019 85.3172 82.6807 85.3959C82.5565 85.4624 82.4152 85.4901 82.2751 85.4754C82.135 85.4607 82.0025 85.4043 81.8948 85.3134C81.8061 85.2372 81.7416 85.1367 81.7095 85.0242C81.6774 84.9118 81.679 84.7924 81.7141 84.6808C81.7533 84.5346 81.8477 84.4093 81.9774 84.3311C82.0677 84.28 82.1267 84.28 82.1306 84.2918C81.9954 84.3981 81.8988 84.5458 81.8556 84.7122C81.8365 84.7957 81.8415 84.8828 81.87 84.9635C81.8985 85.0442 81.9494 85.1151 82.0166 85.168C82.0982 85.232 82.1966 85.2709 82.2998 85.28C82.4031 85.289 82.5067 85.2679 82.5982 85.2191C82.6836 85.1602 82.751 85.0786 82.7926 84.9835C82.8343 84.8884 82.8486 84.7836 82.8339 84.6808C82.8197 84.596 82.7851 84.516 82.7331 84.4475C82.6811 84.3791 82.6132 84.3243 82.5353 84.2879C82.3683 84.2162 82.1855 84.1891 82.0049 84.2093Z"
    fill="#455A64"
  />
  <path
    d="M101.544 111.666C101.501 111.709 100.711 110.983 99.5798 110.33C98.4483 109.678 97.4267 109.34 97.4463 109.281C98.2433 109.421 99.0045 109.717 99.6859 110.154C100.398 110.532 101.029 111.046 101.544 111.666Z"
    fill="#455A64"
  />
  <path
    d="M71.2193 37.5193L63.1645 41.4091L66.6379 65.644L65.2745 76.5199C65.1871 77.2101 65.2708 77.9111 65.5182 78.5613C65.7655 79.2116 66.1689 79.791 66.6929 80.2486L79.7023 79.9932L88.8022 74.9993L92.9867 74.2921L91.2736 66.0134L92.0594 54.2692L101.58 59.3495C102.313 59.7422 103.167 59.8446 103.973 59.6364L121.414 55.1061L120.506 48.3794L104.703 50.1672L92.6684 39.5349L83.71 37.5193L82.1226 34.8828H72.9559L72.2998 35.3622C71.9935 35.5924 71.7625 35.9082 71.6357 36.2698L71.2193 37.5193Z"
    fill="#597EF7"
  />
  <path
    d="M63.1646 41.4102C61.4903 42.5617 60.2214 44.2114 59.538 46.1251C58.6185 48.9855 56.54 60.549 56.54 60.549L47.3891 54.8832L42.1162 60.4272L54.2965 71.1852C55.2111 71.9922 56.3434 72.5117 57.5517 72.6787C58.76 72.8457 59.9907 72.6529 61.09 72.1242C62.013 71.679 62.8115 71.0122 63.4141 70.1833C64.0167 69.3544 64.4048 68.3892 64.5437 67.3739L66.0407 56.4077L63.1646 41.4102Z"
    fill="#597EF7"
  />
  <path
    d="M90.6449 76.0556L90.0791 75.2227L84.0558 76.3346L82.9478 78.9003L90.6449 76.0556Z"
    fill="#FFBE9D"
  />
  <path
    d="M66.6932 80.2492C72.0762 82.4142 77.8245 81.6166 82.9481 78.9015C84.4962 78.0803 85.9303 77.0627 87.4862 76.2533C89.0422 75.4439 90.7631 74.8506 92.5116 74.9724C94.2601 75.0942 96.0203 76.0568 96.7197 77.6639C97.4191 79.2709 96.7197 81.4555 95.0734 82.0566L95.6549 82.5753C98.0713 81.4515 99.2186 78.1982 98.0399 75.8054C97.1362 73.9744 95.2345 72.8782 93.8436 71.3812C91.7965 69.1808 91.5843 64.9217 91.5686 61.6055"
    fill="#597EF7"
  />
  <path
    d="M78.4998 42.2071C78.369 42.2176 78.2376 42.2176 78.1069 42.2071C77.7465 42.2359 77.4081 42.3919 77.1521 42.6472C76.8096 43.0831 76.6402 43.6303 76.6767 44.1835C76.6799 44.8936 76.8284 45.5956 77.1128 46.2463L77.266 46.5842L76.9713 46.3641C76.2442 45.8247 75.5646 45.224 74.94 44.5685C73.6033 43.1907 72.5441 41.5686 71.8202 39.7907C71.6076 39.2523 71.4381 38.6979 71.3134 38.1326C71.2673 37.9243 71.237 37.7129 71.223 37.5C71.4194 38.2599 71.6635 39.0066 71.9538 39.7357C72.7104 41.4761 73.7753 43.0654 75.0971 44.4271C75.7138 45.0729 76.3812 45.6681 77.0932 46.207L76.9478 46.3288C76.7912 45.976 76.679 45.6051 76.6138 45.2247C76.5461 44.8819 76.5158 44.5328 76.5234 44.1835C76.4949 43.593 76.6931 43.0139 77.0774 42.5647C77.3557 42.298 77.7254 42.1476 78.1108 42.1442C78.2425 42.1501 78.373 42.1712 78.4998 42.2071Z"
    fill="#263238"
  />
  <path
    d="M78.9792 42.209C79.6432 41.9222 80.6255 42.3426 81.1009 42.8848C81.4152 43.2463 81.5921 43.7413 82.0046 43.9771C82.4172 44.2128 83.7295 44.3975 84.1106 44.1068C84.1106 44.1068 84.3425 42.987 84.4682 42.5351C84.9056 40.7695 85.2038 38.9723 85.3601 37.16C84.0949 36.5432 84.4446 35.7338 82.1618 35.8909C82.4912 36.9332 82.5198 38.0472 82.2443 39.105"
    fill="#597EF7"
  />
  <path
    d="M82.2486 39.091C82.225 39.091 82.3311 38.7884 82.3782 38.2305C82.4304 37.443 82.3345 36.6526 82.0953 35.9005L82.0678 35.8062H82.1621C82.7268 35.7325 83.3009 35.7835 83.8438 35.9555C84.139 36.0912 84.4057 36.2819 84.6296 36.5174C84.8617 36.7379 85.1269 36.9209 85.4154 37.0596L85.4783 37.091V37.1578C85.3761 38.1126 85.2622 39.1538 85.0854 40.2304C84.9675 40.9337 84.8261 41.6135 84.661 42.2618C84.496 42.9101 84.3664 43.5348 84.2288 44.1242V44.1635L84.2053 44.1831C83.9997 44.2996 83.7654 44.3555 83.5294 44.3442C83.3192 44.3472 83.109 44.334 82.9008 44.3049C82.7014 44.2765 82.5043 44.2332 82.3114 44.1753C82.1204 44.1238 81.9441 44.0282 81.7967 43.8963C81.5679 43.6393 81.3652 43.3603 81.1916 43.0633C81.0239 42.8368 80.8129 42.6458 80.5708 42.5015C80.2327 42.283 79.8415 42.1607 79.4392 42.1478C79.2961 42.1553 79.154 42.1764 79.0149 42.2107C79.1437 42.1347 79.2897 42.0928 79.4392 42.0889C79.8542 42.0776 80.2636 42.1868 80.618 42.4032C80.8793 42.5491 81.108 42.747 81.2898 42.9847C81.4645 43.2654 81.6658 43.5285 81.891 43.7706C82.1908 43.9836 82.5453 44.1063 82.9126 44.1242C83.1118 44.1505 83.3128 44.161 83.5137 44.1556C83.7104 44.1621 83.9053 44.1175 84.0795 44.026L84.0442 44.081C84.1778 43.4877 84.3035 42.8511 84.4646 42.2068C84.6257 41.5624 84.7671 40.8866 84.8811 40.1872C85.0618 39.1185 85.1797 38.0812 85.274 37.1303L85.329 37.2286C85.018 37.081 84.7317 36.8861 84.4803 36.651C84.2777 36.4277 84.0335 36.2462 83.7613 36.1166C83.2445 35.9494 82.6982 35.8931 82.1582 35.9516L82.225 35.8534C82.4559 36.6259 82.532 37.4364 82.4489 38.2383C82.4205 38.4549 82.3758 38.6689 82.3153 38.8788C82.3018 38.952 82.2794 39.0232 82.2486 39.091Z"
    fill="#263238"
  />
  <path
    d="M95.6701 76.179C95.6701 76.179 95.6701 76.0258 95.6701 75.7311C95.6351 75.3014 95.5006 74.8857 95.2772 74.517C94.9188 73.9389 94.4218 73.4595 93.8313 73.1221C93.035 72.6987 92.1546 72.4571 91.2537 72.4149C90.2557 72.3245 89.1477 72.3795 87.9572 72.297C86.6853 72.2271 85.4316 71.9621 84.2402 71.5112C82.9123 71.0025 81.7519 70.1345 80.8887 69.0044C80.441 68.4008 80.1141 67.7163 79.926 66.9887C79.7385 66.2405 79.6643 65.4683 79.706 64.698C79.765 63.1264 80.1225 61.6687 80.3386 60.2385C80.5545 58.8648 80.6857 57.4791 80.7315 56.0893C80.8468 52.1345 80.2792 48.1895 79.0538 44.4276C78.8888 43.8893 78.7355 43.4807 78.6373 43.2017C78.5901 43.0681 78.5548 42.9621 78.5273 42.8795C78.5124 42.8443 78.5018 42.8073 78.4958 42.7695C78.4958 42.7695 78.5155 42.801 78.5469 42.8717C78.5783 42.9424 78.6216 43.0564 78.6766 43.186C78.7866 43.4611 78.9516 43.8658 79.1324 44.4041C79.6535 45.9122 80.0632 47.4566 80.3582 49.0247C80.7903 51.3563 80.9786 53.7266 80.9201 56.0972C80.8762 57.4962 80.745 58.8912 80.5272 60.2738C80.315 61.7119 79.9614 63.1814 79.9025 64.7098C79.783 66.1936 80.1861 67.6725 81.0419 68.8904C81.8808 69.9932 83.01 70.8408 84.3031 71.3383C85.475 71.7859 86.7088 72.051 87.9611 72.1241C89.1399 72.2106 90.2479 72.1673 91.2616 72.2695C92.1909 72.3218 93.0962 72.5838 93.9098 73.0357C94.5103 73.3886 95.0107 73.889 95.3636 74.4895C95.5845 74.8701 95.7086 75.2991 95.7251 75.7389C95.7307 75.8532 95.7241 75.9678 95.7055 76.0808C95.6819 76.1554 95.674 76.179 95.6701 76.179Z"
    fill="#263238"
  />
  <path
    d="M89.7924 69.0234C89.6568 69.1944 89.5055 69.3522 89.3405 69.4949C89.1912 69.6403 89.0026 69.8171 88.7747 70.0097C88.5468 70.2022 88.2954 70.434 87.9889 70.658C87.2962 71.2037 86.5705 71.7062 85.8161 72.1628C83.9627 73.2803 81.956 74.1209 79.8595 74.6578C79.0049 74.8755 78.1374 75.0396 77.2623 75.149C76.8891 75.2079 76.5512 75.2275 76.2525 75.2511C75.9539 75.2747 75.6985 75.2904 75.4864 75.2943C75.2694 75.313 75.0511 75.313 74.8341 75.2943C75.0482 75.2539 75.2648 75.2289 75.4824 75.2197C75.6907 75.2197 75.9461 75.1843 76.2408 75.145C76.5354 75.1057 76.8733 75.0822 77.2427 75.0154C78.1082 74.8835 78.966 74.7051 79.8123 74.481C80.8454 74.2006 81.8599 73.8555 82.8496 73.4477C83.8356 73.0289 84.7936 72.5473 85.7178 72.0057C86.4715 71.5605 87.2008 71.0752 87.9024 70.5519C88.205 70.3358 88.4643 70.1157 88.6883 69.9311C88.9122 69.7464 89.1165 69.5814 89.2737 69.4439C89.4363 69.2915 89.6097 69.151 89.7924 69.0234Z"
    fill="#263238"
  />
  <path
    d="M87.2619 56.1406C87.2606 56.214 87.2487 56.2868 87.2265 56.3567L87.089 56.9697C87.021 57.2939 86.9344 57.614 86.8297 57.9284C86.7118 58.2977 86.5978 58.7142 86.4132 59.1778C86.3228 59.4057 86.2324 59.6454 86.1381 59.893C86.0438 60.1405 85.9142 60.388 85.8002 60.6513C85.5723 61.1817 85.2737 61.7161 84.9712 62.2858C83.5925 64.7369 81.7698 66.91 79.5961 68.6942C79.0853 69.0871 78.6099 69.48 78.1266 69.7944C77.8909 69.9555 77.6669 70.1205 77.439 70.2619L76.7829 70.6549C76.3899 70.9181 75.9695 71.1067 75.6238 71.2875C75.3327 71.4432 75.0337 71.5835 74.7279 71.7079L74.1464 71.9515C74.0793 71.9814 74.0096 72.0051 73.9382 72.0222C73.9979 71.9782 74.0625 71.9413 74.1307 71.9122L74.6926 71.6371C74.9401 71.5232 75.2387 71.3778 75.5727 71.1853C75.9067 70.9928 76.3035 70.7924 76.7082 70.5331L77.3526 70.1401C77.5765 69.9987 77.7966 69.8297 78.0323 69.6686C78.5038 69.3504 78.9714 68.9614 79.4743 68.5606C80.5359 67.6625 81.5228 66.6796 82.4251 65.6216C83.3085 64.5487 84.1047 63.407 84.8062 62.2072C85.1126 61.6414 85.4152 61.1149 85.6431 60.5923C85.7649 60.333 85.8906 60.0855 85.9928 59.8419L86.2757 59.1346C86.4721 58.6906 86.5939 58.2702 86.7196 57.9048C86.8454 57.5394 86.9436 57.2211 87.0143 56.9579L87.1872 56.3567C87.2014 56.2814 87.2266 56.2086 87.2619 56.1406Z"
    fill="#263238"
  />
  <path
    d="M70.6926 82.2224C70.421 82.0919 70.1769 81.9105 69.9736 81.688C69.4534 81.1803 69.0404 80.5734 68.7589 79.9033C68.4775 79.2331 68.3334 78.5133 68.3351 77.7864C68.3202 77.487 68.3601 77.1874 68.453 76.9023C68.4883 76.9023 68.453 77.2442 68.4805 77.7825C68.5593 79.1978 69.1242 80.5426 70.0796 81.5898C70.4451 81.9867 70.7279 82.1949 70.6926 82.2224Z"
    fill="#263238"
  />
  <path
    d="M70.4063 79.1602C70.4653 79.1602 70.3552 79.6827 70.4063 80.2996C70.4574 80.9165 70.6499 81.3998 70.5949 81.4273C70.3741 81.0963 70.2407 80.7149 70.2071 80.3185C70.1734 79.9221 70.2406 79.5236 70.4024 79.1602H70.4063Z"
    fill="#263238"
  />
  <path
    d="M66.528 65.095C66.503 65.0362 66.4871 64.9739 66.4809 64.9103C66.4534 64.765 66.4219 64.5882 66.3826 64.376C66.3001 63.8809 66.1862 63.1972 66.0526 62.4114C65.7775 60.7494 65.3846 58.4548 64.9131 55.9283C64.4416 53.4019 63.9819 51.1151 63.6558 49.461C63.4908 48.6751 63.3533 47.9993 63.2629 47.4964C63.2197 47.2842 63.1882 47.1035 63.1607 46.966C63.1424 46.9035 63.1344 46.8385 63.1372 46.7734C63.1658 46.8307 63.1869 46.8915 63.2 46.9542C63.2393 47.0996 63.2825 47.2724 63.3375 47.4807C63.4554 47.9365 63.6165 48.6005 63.8051 49.4217C64.198 51.0641 64.6656 53.3508 65.141 55.8733C65.6164 58.3958 65.9779 60.7062 66.2176 62.3721C66.3394 63.209 66.4298 63.8848 66.4848 64.3367C66.5084 64.5528 66.528 64.7296 66.5437 64.8789C66.551 64.9513 66.5457 65.0244 66.528 65.095Z"
    fill="#263238"
  />
  <path
    d="M91.6747 65.0955C91.6624 65.0321 91.6558 64.9676 91.655 64.903C91.655 64.7498 91.655 64.5651 91.655 64.3451C91.655 63.8579 91.655 63.1663 91.655 62.2901C91.655 60.5574 91.7493 58.1645 91.9497 55.5281C92.1501 52.8916 92.4134 50.5106 92.6177 48.7896C92.7238 47.9527 92.8102 47.2651 92.877 46.7543C92.9084 46.5343 92.9359 46.3496 92.9595 46.2003C92.966 46.1362 92.9791 46.073 92.9988 46.0117C93.0092 46.0768 93.0092 46.1431 92.9988 46.2082C92.9988 46.3575 92.9713 46.5422 92.9556 46.7622C92.9084 47.2769 92.8416 47.9645 92.763 48.8053C92.5941 50.5263 92.3701 52.9074 92.154 55.5438C91.9379 58.1803 91.8554 60.5652 91.8004 62.2941C91.7768 63.1349 91.7572 63.8264 91.7415 64.3451L91.7218 64.903C91.7163 64.9693 91.7004 65.0342 91.6747 65.0955Z"
    fill="#263238"
  />
  <path
    d="M60.2569 66.1065C60.1901 66.134 59.6715 64.7038 58.6853 63.1479C57.6991 61.5919 56.5046 60.6136 56.5557 60.5625C56.8455 60.7331 57.11 60.9434 57.3415 61.1872C57.9193 61.744 58.4332 62.3634 58.8739 63.0339C59.3065 63.7078 59.6748 64.4208 59.974 65.1635C60.1072 65.4649 60.2022 65.7816 60.2569 66.1065Z"
    fill="#263238"
  />
  <path
    d="M60.9332 64.3896C60.7709 64.1367 60.6239 63.8743 60.4931 63.6038C60.1334 63.0058 59.6736 62.4741 59.1336 62.0321C58.5822 61.5946 57.9791 61.2265 57.338 60.9359C57.0654 60.8274 56.8025 60.696 56.5522 60.543C56.847 60.5851 57.1342 60.6698 57.4048 60.7944C58.0807 61.0515 58.7119 61.4135 59.2751 61.8671C59.8375 62.3271 60.299 62.8983 60.6306 63.5448C60.7804 63.8064 60.8828 64.0924 60.9332 64.3896Z"
    fill="#263238"
  />
  <path
    d="M97.8669 76.2166C97.8355 76.2166 97.7805 76.079 97.643 75.8747C97.4644 75.612 97.2267 75.3948 96.949 75.2406C96.6712 75.0863 96.3612 74.9994 96.0438 74.9867C95.8002 74.9867 95.6509 75.0064 95.6509 74.9867C95.6509 74.9671 95.7884 74.8807 96.0438 74.8531C96.3947 74.8256 96.746 74.9022 97.0535 75.0735C97.3611 75.2447 97.6112 75.503 97.7726 75.8158C97.8826 76.0437 97.8905 76.2126 97.8669 76.2166Z"
    fill="#FAFAFA"
  />
  <path
    d="M81.6352 74.2148C81.6352 74.2423 81.1637 74.482 80.4054 74.9182C79.4106 75.459 78.5086 76.1554 77.7335 76.981C76.9734 77.8187 76.4796 78.8636 76.3151 79.9828C76.2766 80.45 76.2845 80.9199 76.3387 81.3855C76.282 81.2693 76.2448 81.1445 76.2287 81.0162C76.159 80.6724 76.1404 80.3202 76.1737 79.971C76.2981 78.8066 76.7909 77.7123 77.5803 76.8474C78.3665 76.002 79.298 75.3046 80.3307 74.7885C80.7236 74.5881 81.0458 74.4388 81.2698 74.3406C81.3842 74.2798 81.5075 74.2374 81.6352 74.2148Z"
    fill="#FAFAFA"
  />
  <g opacity="0.3">
    <path
      d="M75.9027 75.5073C75.5098 75.6683 75.5609 76.2656 75.8752 76.5249C76.2236 76.7515 76.6435 76.8411 77.054 76.7764C79.3646 76.6465 81.6149 75.9899 83.6328 74.8566C85.6506 73.7234 87.3825 72.1437 88.696 70.2383C85.1598 73.1498 80.4841 74.2539 76.001 75.2676"
      fill="black"
    />
  </g>
  <g opacity="0.3">
    <path
      d="M75.1993 71.4987C74.8064 70.9054 75.0735 70.0725 75.5922 69.5695C76.1353 69.1141 76.7482 68.7493 77.4074 68.489C79.7385 67.3314 81.6064 65.415 82.7039 63.055C83.419 61.5069 83.9573 59.6092 85.5408 58.9727C85.0996 61.7049 83.9279 64.2671 82.1496 66.3878C80.3712 68.5085 78.0525 70.1088 75.4389 71.0194"
      fill="black"
    />
  </g>
  <g opacity="0.3">
    <path
      d="M64.0489 51.125C64.4451 55.4258 64.1399 59.7625 63.1452 63.9654C62.8856 64.8457 62.739 65.7554 62.7091 66.6726C62.7415 67.1629 62.8739 67.6415 63.0982 68.0787C63.3226 68.5159 63.6341 68.9025 64.0136 69.2147C64.6658 67.7099 64.6776 66.26 64.9526 64.6412C65.2002 63.1835 65.6166 59.777 65.6166 59.7259C65.6756 56.7476 64.9723 54.1937 63.825 51.5101"
      fill="black"
    />
  </g>
  <g opacity="0.3">
    <path
      d="M71.4515 38.227C72.0402 41.4001 73.5934 44.3144 75.8993 46.5724C76.7676 47.4172 77.8639 48.1991 79.0623 48.1441C78.3653 46.7073 78.1517 45.0837 78.4532 43.5156C79.4733 44.2051 80.5575 44.7946 81.6909 45.2758C82.8328 45.7522 84.088 45.8886 85.3057 45.6687L86.0522 39.1739C86.1059 38.9292 86.0825 38.6739 85.9854 38.4431C85.9579 38.3884 85.9188 38.3405 85.8708 38.3025C85.8228 38.2646 85.7672 38.2376 85.7077 38.2234C85.6482 38.2092 85.5864 38.2081 85.5264 38.2202C85.4665 38.2324 85.4099 38.2575 85.3607 38.2937C85.2965 38.3775 85.2546 38.4762 85.2389 38.5806C84.7988 40.4862 84.5513 42.1954 84.1073 44.1049C83.789 44.4193 82.8107 44.2896 82.1663 44.0499C81.6044 43.8417 81.3805 43.3781 81.019 42.9105C80.6575 42.4429 80.7125 42.5176 80.1624 42.2897C79.1487 41.8614 77.2038 42.2032 76.7794 43.1109C76.3551 44.0185 76.6773 45.2169 76.9602 46.1127C74.1281 44.2657 72.0846 41.4309 71.2276 38.1602"
      fill="black"
    />
  </g>
  <g opacity="0.3">
    <path
      d="M92.8766 47.4453C92.798 47.6025 95.3244 56.1208 95.3244 56.1208L92.0514 54.2545L92.8766 47.4453Z"
      fill="black"
    />
  </g>
  <path
    d="M72.5395 22.7425V36.3019C72.5425 37.0786 72.821 37.829 73.3254 38.4197C74.0908 39.3299 75.0146 40.094 76.0522 40.675L78.8026 42.2192L81.0658 40.1957C81.3945 39.9016 81.661 39.5446 81.8493 39.1457C82.0376 38.7469 82.1439 38.3143 82.162 37.8736C82.2013 36.8834 82.1974 35.909 82.1974 35.909C82.1974 35.909 86.0322 35.634 86.3937 31.8541C86.5626 30.0703 86.6176 26.4241 86.6255 23.0646C86.6411 21.2026 85.9499 19.4039 84.6912 18.0315C83.4326 16.6591 81.7003 15.8152 79.8438 15.67H79.7377C78.7969 15.6474 77.861 15.8139 76.9857 16.1597C76.1104 16.5055 75.3135 17.0236 74.6422 17.6832C73.9709 18.3428 73.4388 19.1305 73.0777 19.9995C72.7165 20.8686 72.5335 21.8013 72.5395 22.7425Z"
    fill="#FFBE9D"
  />
  <path
    d="M82.1658 35.8781C80.4186 35.728 78.751 35.0803 77.3605 34.0117C77.3605 34.0117 78.3506 36.88 82.158 36.8525L82.1658 35.8781Z"
    fill="#EB996E"
  />
  <path
    d="M85.474 25.4646C85.4639 25.6057 85.3991 25.7372 85.2934 25.8312C85.1877 25.9251 85.0495 25.9741 84.9082 25.9676C84.8391 25.9671 84.7708 25.9528 84.7072 25.9255C84.6437 25.8982 84.5863 25.8585 84.5384 25.8087C84.4904 25.7589 84.4529 25.7001 84.428 25.6356C84.4031 25.5711 84.3914 25.5023 84.3935 25.4332C84.4036 25.2921 84.4684 25.1606 84.5741 25.0666C84.6798 24.9727 84.818 24.9238 84.9593 24.9303C85.0286 24.9302 85.0971 24.9441 85.1609 24.9712C85.2247 24.9983 85.2823 25.038 85.3304 25.0879C85.3784 25.1378 85.4159 25.1969 85.4406 25.2616C85.4653 25.3263 85.4766 25.3954 85.474 25.4646Z"
    fill="#263238"
  />
  <path
    d="M85.6273 24.5606C85.5566 24.6235 85.1716 24.2855 84.59 24.2384C84.0085 24.1912 83.5567 24.4506 83.5017 24.372C83.4467 24.2934 83.5488 24.2188 83.7492 24.0969C84.0145 23.9442 84.3205 23.877 84.6254 23.9044C84.9286 23.9276 85.2165 24.0475 85.4466 24.2463C85.6156 24.3995 85.6588 24.5292 85.6273 24.5606Z"
    fill="#263238"
  />
  <path
    d="M79.9892 25.191C79.9791 25.3321 79.9142 25.4636 79.8085 25.5576C79.7028 25.6515 79.5646 25.7005 79.4234 25.694C79.3541 25.6935 79.2856 25.6792 79.2218 25.6519C79.1581 25.6247 79.1004 25.5851 79.0522 25.5354C79.0039 25.4856 78.966 25.4268 78.9407 25.3623C78.9154 25.2978 78.9031 25.2289 78.9047 25.1596C78.9158 25.0189 78.9809 24.888 79.0863 24.7942C79.1918 24.7004 79.3295 24.6512 79.4705 24.6567C79.54 24.6566 79.6087 24.6706 79.6727 24.6976C79.7366 24.7246 79.7945 24.7643 79.8429 24.8141C79.8913 24.8639 79.9291 24.923 79.9543 24.9877C79.9794 25.0525 79.9913 25.1216 79.9892 25.191Z"
    fill="#263238"
  />
  <path
    d="M79.903 24.1957C79.8284 24.2585 79.4433 23.9246 78.8618 23.8774C78.2803 23.8303 77.8324 24.0856 77.7734 24.0071C77.7145 23.9285 77.8245 23.8538 78.021 23.732C78.2867 23.5758 78.5937 23.5046 78.9011 23.5277C79.2039 23.5525 79.4913 23.6721 79.7223 23.8695C79.8873 24.0346 79.9384 24.1642 79.903 24.1957Z"
    fill="#263238"
  />
  <path
    d="M81.6554 28.681C81.9696 28.6086 82.2918 28.5769 82.6141 28.5867C82.7634 28.5867 82.9088 28.5867 82.9402 28.4688C82.9658 28.3166 82.9439 28.1602 82.8774 28.0209C82.7673 27.628 82.6534 27.2586 82.5316 26.8422C82.0562 25.1801 81.7458 23.8206 81.7929 23.801C81.8401 23.7814 82.2998 25.1133 82.7752 26.7754C82.8892 27.1683 82.9992 27.5612 83.1013 27.9541C83.1813 28.1406 83.1924 28.3495 83.1328 28.5435C83.1057 28.5933 83.0681 28.6366 83.0226 28.6705C82.9772 28.7044 82.925 28.7281 82.8695 28.7399C82.7847 28.751 82.6989 28.751 82.6141 28.7399C82.2933 28.7583 81.9715 28.7385 81.6554 28.681Z"
    fill="#263238"
  />
  <path
    d="M79.9108 28.9417C80.0051 28.9417 79.954 29.5782 80.4569 30.0694C80.9599 30.5605 81.6357 30.5487 81.6357 30.6352C81.6357 30.7216 81.4785 30.7491 81.1917 30.7334C80.8213 30.7078 80.4719 30.5519 80.2055 30.2933C79.9493 30.0451 79.7999 29.7069 79.789 29.3503C79.7851 29.0871 79.8676 28.9338 79.9108 28.9417Z"
    fill="#263238"
  />
  <path
    d="M80.2407 21.93C80.17 22.0832 79.5963 21.9614 78.9087 21.985C78.2211 22.0085 77.6514 22.15 77.5728 21.985C77.5374 21.9142 77.6435 21.7728 77.8793 21.6392C78.1919 21.4755 78.5378 21.3854 78.8905 21.3758C79.2433 21.3663 79.5936 21.4376 79.9146 21.5842C80.1582 21.7217 80.2721 21.8553 80.2407 21.93Z"
    fill="#263238"
  />
  <path
    d="M85.5528 22.8584C85.4388 22.9802 85.0498 22.8113 84.5705 22.7641C84.0911 22.717 83.6746 22.7641 83.5921 22.6345C83.5528 22.5637 83.6314 22.4341 83.82 22.3241C84.0707 22.1962 84.3536 22.1452 84.6331 22.1773C84.9127 22.2095 85.1765 22.3234 85.3917 22.5048C85.5606 22.6541 85.6038 22.7956 85.5528 22.8584Z"
    fill="#263238"
  />
  <path
    d="M76.9909 18.9204H76.9674C76.3196 19.3515 75.8657 20.0183 75.7022 20.7789V20.8575C75.4625 21.9223 75.3996 23.0225 75.1521 24.0873C74.9046 25.1521 74.9517 25.9654 73.883 26.2051C73.6037 26.2668 73.3122 26.2424 73.0471 26.1351C72.7819 26.0277 72.5555 25.8425 72.3978 25.6039C72.3204 25.4481 72.2864 25.2744 72.2995 25.101C72.2995 22.4763 71.7888 21.4587 72.0166 18.7358C72.0461 18.3707 72.1619 18.0178 72.3546 17.7063C72.5472 17.3948 72.8112 17.1335 73.1247 16.9441C73.7298 16.5826 74.4606 16.2133 75.0892 16.5512C75.7179 16.8891 76.4251 18.1582 76.8731 18.7043"
    fill="#263238"
  />
  <path
    d="M73.6713 24.5472C73.6124 24.5158 71.137 23.565 71.0035 26.1582C70.8699 28.7514 73.5063 28.3506 73.5142 28.276C73.522 28.2013 73.6713 24.5472 73.6713 24.5472Z"
    fill="#FFBE9D"
  />
  <path
    d="M72.7716 27.2479C72.7716 27.2479 72.7245 27.2793 72.6459 27.3108C72.5924 27.333 72.535 27.3445 72.477 27.3445C72.419 27.3445 72.3616 27.333 72.308 27.3108C72.1448 27.196 72.0154 27.0397 71.9331 26.8579C71.8509 26.6762 71.8189 26.4757 71.8404 26.2774C71.8443 26.0544 71.8994 25.8353 72.0015 25.637C72.0299 25.5571 72.0773 25.4853 72.1396 25.4278C72.2018 25.3703 72.2772 25.3288 72.3591 25.3069C72.4115 25.2964 72.466 25.3043 72.5133 25.3294C72.5606 25.3545 72.5977 25.3951 72.6184 25.4444C72.6498 25.5191 72.6184 25.5702 72.642 25.5741C72.6656 25.578 72.7009 25.5348 72.6852 25.4287C72.6753 25.3628 72.6418 25.3028 72.5909 25.2598C72.5578 25.2307 72.5191 25.2088 72.4772 25.1952C72.4353 25.1817 72.3911 25.1769 72.3473 25.1812C72.2376 25.1975 72.1341 25.2424 72.0472 25.3114C71.9603 25.3803 71.8931 25.4709 71.8522 25.5741C71.732 25.7937 71.666 26.0389 71.6597 26.2892C71.6353 26.5195 71.6794 26.7519 71.7863 26.9573C71.8932 27.1628 72.0583 27.3322 72.2609 27.4444C72.3295 27.4675 72.4024 27.4752 72.4743 27.467C72.5463 27.4589 72.6156 27.4351 72.6774 27.3972C72.7638 27.3108 72.7795 27.2558 72.7716 27.2479Z"
    fill="#EB996E"
  />
  <path
    d="M74.9404 16.9422C74.3864 15.8539 76.2567 14.514 77.5651 14.2154C78.8735 13.9168 80.508 14.683 81.7457 15.2095C82.5315 15.5395 83.2937 15.9953 84.1385 15.9953C84.7071 15.985 85.2711 15.891 85.8123 15.7163C86.3556 15.5397 86.9288 15.4742 87.4979 15.5238C87.7858 15.5533 88.0599 15.6618 88.2901 15.8372C88.5203 16.0126 88.6976 16.2481 88.8024 16.5179C88.8455 16.6528 88.8588 16.7954 88.8414 16.936C88.824 17.0765 88.7763 17.2116 88.7016 17.3319C88.6268 17.4522 88.5269 17.5548 88.4086 17.6327C88.2904 17.7106 88.1566 17.7619 88.0166 17.7831C88.2052 17.6987 88.4114 17.6614 88.6176 17.6744C88.8238 17.6873 89.0238 17.75 89.2004 17.8573C89.377 17.9645 89.5249 18.1129 89.6315 18.2899C89.7381 18.4668 89.8002 18.667 89.8125 18.8732C89.8247 19.0795 89.7867 19.2856 89.7018 19.4739C89.6168 19.6622 89.4874 19.8271 89.3247 19.9545C89.1621 20.0818 88.9709 20.1677 88.7677 20.2049C88.5645 20.2421 88.3553 20.2295 88.158 20.168C88.5509 19.9166 89.0774 20.4234 88.991 20.8792C88.9228 21.1009 88.7983 21.3011 88.6295 21.4601C88.4608 21.6192 88.2536 21.7318 88.0284 21.7869C86.9086 22.1798 85.6709 21.9165 84.5786 21.4489C83.4863 20.9814 82.504 20.3095 81.4353 19.8144C80.3665 19.3194 78.567 18.4392 77.4236 18.7418C76.5788 18.9618 75.9305 19.9009 75.4865 19.6415C75.2793 19.5084 75.1063 19.3285 74.9814 19.1163C74.8565 18.904 74.7832 18.6654 74.7675 18.4196C74.7449 17.9236 74.8033 17.4273 74.9404 16.9501"
    fill="#263238"
  />
  <path
    d="M88.3428 17.7397C88.3231 17.7397 88.1934 17.9165 87.8909 18.1955C87.4591 18.5851 86.9383 18.863 86.3743 19.0049C85.5459 19.2283 84.6629 19.1182 83.9146 18.6984C83.0699 18.2348 82.3823 17.3821 81.5768 16.5649C80.8347 15.7471 79.8596 15.1767 78.7832 14.9304C78.3359 14.837 77.8732 14.8472 77.4306 14.9603C76.9879 15.0733 76.5769 15.2862 76.2292 15.5826C76.0048 15.7898 75.8249 16.0405 75.7006 16.3195C75.5763 16.5985 75.5102 16.8999 75.5063 17.2053C75.5059 17.369 75.5297 17.5319 75.577 17.6886C75.5916 17.7446 75.6155 17.7977 75.6477 17.8458C75.616 17.6351 75.6015 17.4223 75.6045 17.2093C75.6492 16.6333 75.9171 16.0975 76.351 15.7162C76.6815 15.4522 77.0668 15.2654 77.4788 15.1695C77.8908 15.0737 78.319 15.0712 78.7321 15.1622C79.7552 15.4074 80.6808 15.9551 81.3882 16.7338C82.174 17.5197 82.8852 18.4037 83.7928 18.8909C84.4626 19.2438 85.2279 19.3724 85.9762 19.2578C86.7245 19.1432 87.4163 18.7915 87.9498 18.2544C88.0635 18.1329 88.1661 18.0014 88.2563 17.8615C88.3231 17.7947 88.3506 17.7436 88.3428 17.7397Z"
    fill="#455A64"
  />
  <path
    d="M73.0226 24.3825C73.0226 24.3825 73.1405 24.3196 73.2545 24.1232C73.4082 23.8392 73.4802 23.5183 73.4627 23.1959C73.4627 22.3551 72.8105 21.4003 72.8105 20.2412C72.7902 19.7036 72.9356 19.1728 73.227 18.7206C73.4792 18.3616 73.8444 18.0975 74.2643 17.9701C74.546 17.879 74.8466 17.8627 75.1365 17.923C75.3448 17.9741 75.4509 18.033 75.4626 18.0134C75.4744 17.9937 75.3762 17.9112 75.168 17.8287C74.8618 17.7217 74.5304 17.7094 74.2171 17.7933C73.745 17.9107 73.3283 18.1885 73.0384 18.5792C72.704 19.0672 72.5359 19.65 72.559 20.2412C72.579 20.8153 72.7028 21.3811 72.9244 21.9111C73.1015 22.3227 73.223 22.7561 73.2859 23.1998C73.3213 23.6117 73.2294 24.0245 73.0226 24.3825Z"
    fill="#455A64"
  />
  <path
    d="M116.668 164.771C116.647 164.277 116.537 163.791 116.342 163.337C115.976 162.437 114.998 161.317 113.462 160.303C110.377 158.272 105.211 156.567 98.7196 155.522C95.1762 154.958 91.6021 154.607 88.0166 154.473C83.8967 154.301 79.7703 154.377 75.6595 154.7C73.4867 154.869 71.2667 155.121 69.0153 155.486C66.7167 155.84 64.4396 156.322 62.1943 156.928C61.051 157.235 59.9076 157.592 58.7799 158.005C57.637 158.415 56.5227 158.901 55.4441 159.459C54.3461 160.016 53.3295 160.72 52.4226 161.553C51.5307 162.386 50.8038 163.517 50.7841 164.775C50.7645 166.032 51.5267 167.164 52.4186 168.001C53.315 168.828 54.3196 169.53 55.4048 170.087C56.4826 170.646 57.5971 171.132 58.7406 171.541C59.8683 171.957 61.0117 172.327 62.155 172.621C64.4016 173.228 66.6801 173.709 68.9799 174.063C71.2313 174.421 73.4513 174.672 75.6241 174.849C79.7361 175.174 83.864 175.25 87.9852 175.077C91.5814 174.939 95.166 174.585 98.7196 174.016C105.218 172.971 110.377 171.266 113.466 169.234C115.002 168.221 115.976 167.101 116.342 166.201C116.536 165.748 116.647 165.263 116.668 164.771C116.668 164.83 116.668 164.928 116.64 165.144C116.631 165.299 116.603 165.452 116.558 165.6C116.512 165.809 116.444 166.011 116.354 166.205C115.992 167.113 115.018 168.24 113.481 169.262C110.393 171.305 105.23 173.022 98.7275 174.075C95.1763 174.642 91.5944 174.996 88.0009 175.136C83.8772 175.31 79.7468 175.236 75.632 174.916C73.4592 174.743 71.2392 174.495 68.9839 174.13C66.6811 173.78 64.3998 173.299 62.1511 172.692C61.0038 172.386 59.8604 172.028 58.7288 171.611C57.5823 171.199 56.4641 170.712 55.3812 170.154C54.277 169.592 53.254 168.884 52.3401 168.048C51.8815 167.619 51.4918 167.122 51.1849 166.574C50.8582 166.027 50.6858 165.401 50.6858 164.763C50.6858 164.125 50.8582 163.499 51.1849 162.952C51.4996 162.404 51.8972 161.908 52.3636 161.482C53.2775 160.646 54.3006 159.938 55.4048 159.376C56.4867 158.818 57.6036 158.332 58.7485 157.918C59.884 157.502 61.0274 157.133 62.1747 156.838C64.4226 156.233 66.7024 155.753 69.0035 155.4C71.2589 155.042 73.4788 154.791 75.6516 154.614C79.7664 154.291 83.8969 154.218 88.0206 154.394C91.6141 154.53 95.1961 154.883 98.7471 155.451C105.246 156.504 110.413 158.221 113.501 160.264C115.037 161.286 116.012 162.413 116.373 163.321C116.463 163.515 116.531 163.718 116.578 163.926C116.623 164.074 116.651 164.227 116.66 164.382C116.656 164.61 116.664 164.712 116.668 164.771Z"
    fill="#597EF7"
  />
  <path
    d="M132.047 133.863C132.047 133.988 132.01 134.109 131.94 134.213C131.871 134.316 131.773 134.397 131.658 134.444C131.543 134.492 131.416 134.504 131.294 134.479C131.172 134.455 131.06 134.394 130.972 134.306C130.884 134.218 130.825 134.105 130.801 133.983C130.777 133.861 130.79 133.735 130.838 133.62C130.886 133.505 130.968 133.407 131.072 133.338C131.175 133.27 131.297 133.234 131.422 133.234C131.588 133.235 131.747 133.302 131.864 133.42C131.981 133.538 132.047 133.697 132.047 133.863Z"
    fill="#597EF7"
  />
  <path
    d="M82.5155 162.871C82.5155 162.995 82.4786 163.117 82.4093 163.221C82.3401 163.324 82.2416 163.405 82.1265 163.452C82.0114 163.499 81.8848 163.512 81.7628 163.487C81.6407 163.463 81.5287 163.402 81.4409 163.314C81.3532 163.226 81.2936 163.113 81.2698 162.991C81.246 162.869 81.259 162.742 81.3072 162.628C81.3554 162.513 81.4366 162.415 81.5405 162.346C81.6444 162.278 81.7663 162.241 81.8908 162.242C82.0569 162.243 82.2157 162.31 82.3328 162.428C82.4498 162.545 82.5155 162.705 82.5155 162.871Z"
    fill="#597EF7"
  />
  <path
    d="M49.794 53.3787C49.9676 53.3787 50.1084 53.2379 50.1084 53.0643C50.1084 52.8907 49.9676 52.75 49.794 52.75C49.6204 52.75 49.4797 52.8907 49.4797 53.0643C49.4797 53.2379 49.6204 53.3787 49.794 53.3787Z"
    fill="#597EF7"
  />
  <path
    d="M106.346 101.323C91.1132 105.354 76.43 105.048 60.4266 101.323L58.5485 72.0587C75.0862 75.2767 91.6868 74.868 106.339 71.3672L106.346 101.323Z"
    fill="#597EF7"
  />
  <g opacity="0.8">
    <path
      d="M106.346 101.323C91.1132 105.354 76.43 105.048 60.4266 101.323L58.5485 72.0587C75.0862 75.2767 91.6868 74.868 106.339 71.3672L106.346 101.323Z"
      fill="white"
    />
  </g>
  <path
    d="M103.985 96.8633C103.954 96.8835 103.921 96.8994 103.887 96.9104L103.6 97.0322C103.344 97.1344 102.975 97.2994 102.484 97.4762C101.103 97.9897 99.6953 98.4304 98.2679 98.7964C93.5448 99.9825 88.6854 100.537 83.8165 100.447C78.9533 100.349 74.1076 99.831 69.3337 98.8986C67.4988 98.5489 66.0254 98.2267 65.0116 97.9909C64.5048 97.877 64.1119 97.7788 63.8329 97.712L63.5303 97.6334C63.4636 97.6137 63.4282 97.602 63.4321 97.598H63.5382L63.8447 97.657L65.0234 97.8966C66.0411 98.1088 67.5224 98.4114 69.3455 98.7375C74.1165 99.6276 78.9524 100.126 83.8047 100.227C88.6574 100.319 93.5019 99.7908 98.2207 98.655C100.024 98.1992 101.462 97.7434 102.445 97.3937C102.94 97.2326 103.313 97.0794 103.572 97.0008L103.867 96.8986C103.903 96.8787 103.943 96.8666 103.985 96.8633Z"
    fill="#597EF7"
  />
  <path
    d="M81.6008 98.0557C79.6712 98.5791 77.6288 98.5107 75.7385 97.8592V87.447C77.6729 87.0541 79.6665 87.0541 81.6008 87.447V98.0557Z"
    fill="#597EF7"
  />
  <path
    d="M91.0699 97.4388C91.0672 97.4113 91.0672 97.3837 91.0699 97.3563C91.0699 97.2973 91.0699 97.2227 91.0699 97.1323C91.0699 96.9201 91.0699 96.6294 91.0424 96.26C91.0424 95.4938 91.0071 94.3976 90.9796 93.0263C90.9403 90.276 90.8813 86.3979 90.8145 81.9147L90.8931 82.009C88.8885 81.6178 86.8272 81.6178 84.8226 82.009L84.9051 81.9108V82.1151C84.968 88.2682 85.0269 93.8279 85.0662 97.7963L85.0073 97.7256C85.8485 97.9085 86.7047 98.0137 87.5651 98.0399C88.212 98.0513 88.8583 97.9973 89.4944 97.8788C89.8938 97.802 90.2876 97.6983 90.6731 97.5684L90.9678 97.4663C91.0029 97.4508 91.0399 97.4403 91.0778 97.4348L90.9835 97.4781L90.6849 97.6077C90.3011 97.7532 89.9071 97.8701 89.5061 97.9574C88.8665 98.0903 88.2145 98.1548 87.5612 98.1499C86.6923 98.1396 85.8264 98.0448 84.9758 97.867H84.9208V97.7885C84.8619 93.82 84.7833 88.2642 84.6969 82.1112V81.8165H84.7833C86.8121 81.4153 88.8997 81.4153 90.9285 81.8165L91.0071 81.8362V81.9147C91.0424 86.4175 91.0699 90.3035 91.0935 93.0774C91.0935 94.4408 91.0935 95.5292 91.0935 96.2954C91.0935 96.6569 91.0935 96.9398 91.0935 97.148C91.0935 97.2345 91.0935 97.3091 91.0935 97.368C91.0935 97.427 91.0739 97.4388 91.0699 97.4388Z"
    fill="#597EF7"
  />
  <path
    d="M100.083 96.2166C98.5116 97.0653 96.4488 97.1792 94.2171 97.0496V79.8478C96.145 79.3841 98.1554 79.3841 100.083 79.8478V96.2166Z"
    fill="#597EF7"
  />
  <path
    d="M72.3007 97.2053C72.3007 97.2053 72.3007 97.0442 72.2811 96.7613C72.2615 96.4784 72.2811 96.058 72.2575 95.559C72.2575 94.5138 72.23 93.064 72.2143 91.3391L72.2693 91.4216C70.4794 90.6964 68.5514 90.3758 66.6231 90.4825L66.7174 90.3804C66.7174 92.5296 66.7174 94.5374 66.7174 96.2466L66.6664 96.168C67.3954 96.4634 68.1542 96.6794 68.9295 96.8124C69.625 96.9381 70.234 97.0088 70.7409 97.0599L71.9196 97.1581C72.0592 97.1659 72.1983 97.1817 72.3361 97.2053C72.1974 97.2146 72.0583 97.2146 71.9196 97.2053C71.6446 97.2053 71.2477 97.2053 70.7409 97.1542C70.234 97.1031 69.6171 97.0599 68.9178 96.9459C68.1264 96.8263 67.3512 96.6167 66.6074 96.3212L66.5563 96.2976V96.2387C66.5563 94.5295 66.5563 92.5217 66.5563 90.3725V90.2782H66.6585C68.6174 90.1684 70.5758 90.5029 72.3872 91.2566L72.4461 91.2762V91.3391C72.4461 93.0875 72.4108 94.557 72.399 95.6179C72.399 96.109 72.399 96.502 72.3754 96.7966C72.3626 96.9348 72.3376 97.0715 72.3007 97.2053Z"
    fill="#597EF7"
  />
  <path
    d="M75.0506 81.9892C74.6713 82.0501 74.2871 82.0738 73.9033 82.06C73.1921 82.06 72.2098 82.06 71.1293 81.9932C70.0488 81.9264 69.0743 81.8281 68.3789 81.7338C67.9959 81.7034 67.6168 81.6349 67.2473 81.5295C67.6295 81.5201 68.0118 81.5411 68.3907 81.5924C69.0979 81.6474 70.0723 81.726 71.1411 81.7889C72.2098 81.8517 73.196 81.891 73.8915 81.9146C74.2792 81.91 74.6667 81.935 75.0506 81.9892Z"
    fill="#597EF7"
  />
  <path
    d="M74.1749 83.2703C73.8404 83.3038 73.5035 83.3038 73.169 83.2703C72.5482 83.2389 71.6917 83.1839 70.7448 83.1132C69.7978 83.0424 68.9413 82.9639 68.3244 82.8971C67.9889 82.881 67.6558 82.8309 67.3303 82.7477C67.6648 82.7143 68.0017 82.7143 68.3362 82.7477C68.9609 82.7792 69.8136 82.8342 70.7605 82.9049C71.7074 82.9756 72.56 83.0542 73.1769 83.121C73.5137 83.1379 73.8479 83.1879 74.1749 83.2703Z"
    fill="#597EF7"
  />
  <path
    d="M76.3201 84.9478C76.3201 84.9478 76.3201 84.8142 76.3201 84.5823C76.3201 84.3505 76.3397 83.993 76.3593 83.5686C76.3986 82.6806 76.4576 81.4312 76.5322 79.8949L76.6069 79.9774C72.9789 80.0105 69.3525 79.8083 65.7507 79.3723L65.8646 79.278V79.4352V79.6002L65.845 79.9302C65.845 80.1503 65.8214 80.3703 65.8057 80.5864C65.7821 81.0225 65.7585 81.4508 65.731 81.8712C65.6799 82.716 65.6328 83.5333 65.5856 84.3152L65.5031 84.213C68.6464 84.6059 71.3536 84.7631 73.275 84.8377L75.5264 84.9045L76.1157 84.9242H76.3318C76.2665 84.9298 76.2007 84.9298 76.1354 84.9242C76.0018 84.9242 75.7896 84.9242 75.5264 84.9438C74.9999 84.9438 74.2337 84.9438 73.271 84.9438C71.3458 84.9045 68.6268 84.7631 65.4796 84.3898H65.3892V84.2955C65.4324 83.5097 65.4796 82.6964 65.5267 81.8516C65.5503 81.4312 65.5739 81.0029 65.6014 80.5668L65.6367 79.9106V79.5806V79.4155V79.2584L65.7507 79.1641C69.3585 79.5982 72.9887 79.82 76.6226 79.8281H76.7012V79.9067C76.5951 81.4547 76.5087 82.7199 76.4458 83.6158C76.4144 84.0323 76.3868 84.3662 76.3672 84.6098C76.3625 84.7238 76.3467 84.8369 76.3201 84.9478Z"
    fill="#597EF7"
  />
  <path
    d="M77.6597 87.1535C77.3592 86.8408 77.104 86.4877 76.9013 86.1044C76.6423 85.7558 76.4455 85.365 76.3198 84.9492C76.6203 85.2618 76.8756 85.6149 77.0782 85.9983C77.3373 86.3469 77.534 86.7377 77.6597 87.1535Z"
    fill="#597EF7"
  />
  <path
    d="M14.0078 49.0664L18.986 79.195C18.986 79.195 26.5889 93.4264 46.7846 96.6326L43.5274 69.7415C43.5274 69.7415 24.8483 63.9578 14.0078 49.0664Z"
    fill="#597EF7"
  />
  <g opacity="0.8">
    <path
      d="M14.0078 49.0664L18.986 79.195C18.986 79.195 26.5889 93.4264 46.7846 96.6326L43.5274 69.7415C43.5274 69.7415 24.8483 63.9578 14.0078 49.0664Z"
      fill="white"
    />
  </g>
  <path
    d="M44.1795 94.4788L44.0538 94.4474L43.6609 94.3413L42.2385 93.9052C41.6217 93.7087 40.8555 93.5122 40.0028 93.1586L38.6316 92.636C38.1404 92.4514 37.6257 92.2431 37.1031 92.0074C36.0541 91.528 34.8871 91.033 33.7005 90.365C32.5139 89.697 31.2487 88.978 29.96 88.1568C27.1809 86.332 24.6571 84.1452 22.4553 81.6541C21.4237 80.4934 20.5163 79.2278 19.7481 77.8782L17.4692 63.1439C17.1942 61.3051 16.9702 59.8317 16.817 58.7983L16.652 57.6196L16.6127 57.317C16.6083 57.2818 16.6083 57.2462 16.6127 57.2109C16.6251 57.2438 16.633 57.2781 16.6363 57.3131L16.6952 57.6156L16.8956 58.7944C17.0645 59.8238 17.2885 61.2972 17.6068 63.1164C18.1961 66.8177 19.0213 71.9727 19.9642 77.8389V77.8114C20.7277 79.1438 21.6256 80.3946 22.6439 81.5441C24.8374 84.0219 27.3474 86.2003 30.1093 88.0232C31.3902 88.8484 32.6121 89.6224 33.8223 90.2393C35.0325 90.8561 36.1601 91.418 37.2053 91.8974C37.7239 92.1528 38.2387 92.3531 38.7219 92.5378L40.0814 93.0722C40.9262 93.4297 41.6884 93.6419 42.2975 93.858L43.708 94.3295L44.0734 94.4552C44.1095 94.4595 44.145 94.4674 44.1795 94.4788Z"
    fill="#597EF7"
  />
  <path
    d="M42.4034 85.7328C42.4034 85.7328 42.4034 85.7564 42.3366 85.7957L42.1205 85.9685L41.2836 86.6208L38.1167 89.0529L38.0696 89.0922L38.0303 89.0372C36.9616 87.5638 35.6453 85.7407 34.1522 83.67L34.2701 83.6896L31.2957 85.8114L31.1975 85.8821L31.1543 85.7642C29.9756 82.6209 28.6907 79.0847 27.3195 75.3638L26.7694 73.8668H26.954L24.5337 78.6761L24.4276 78.8843L24.353 78.6643C22.243 72.5898 20.4553 67.4269 19.2922 64.0754H19.3983C19.0801 65.4191 18.8286 66.4761 18.6557 67.2187C18.5693 67.5723 18.4985 67.8474 18.4514 68.0438L18.3964 68.256C18.391 68.2809 18.3817 68.3047 18.3689 68.3267V68.2521C18.3689 68.1971 18.3925 68.1263 18.4082 68.0399L18.585 67.2069C18.7461 66.4643 18.9779 65.4034 19.2765 64.0636L19.3197 63.875L19.3865 64.0597C20.5653 67.4034 22.3845 72.5545 24.5258 78.6171H24.3451L26.7615 73.8079L26.8676 73.5957L26.9501 73.8157L27.5002 75.3127C28.8636 79.0375 30.1602 82.5698 31.3154 85.721L31.1739 85.6778L34.1601 83.5718L34.2269 83.5246L34.278 83.5914L38.1167 88.9665H38.0264L41.2365 86.5815L42.093 85.9528L42.317 85.7957L42.4034 85.7328Z"
    fill="#597EF7"
  />
  <path
    d="M41.708 71.2841C41.5633 71.2696 41.4209 71.2379 41.2836 71.1898C41.0165 71.1152 40.6275 70.9973 40.156 70.8401C38.9283 70.4296 37.723 69.9549 36.5451 69.4178C35.3593 68.8834 34.2014 68.2894 33.0757 67.6379C32.6474 67.3864 32.2898 67.1743 32.0698 67.021C31.9433 66.9504 31.8259 66.8647 31.7201 66.7656C31.8582 66.8126 31.9901 66.8759 32.113 66.9542L33.1503 67.5122C34.0265 67.9797 35.2485 68.6084 36.6315 69.2331C38.0146 69.8579 39.2916 70.3569 40.2228 70.7065C40.6589 70.8637 41.0086 71.0012 41.3269 71.0995C41.4616 71.1435 41.5899 71.2057 41.708 71.2841Z"
    fill="#597EF7"
  />
  <path
    d="M42.5097 72.5366C42.179 72.5189 41.8518 72.4608 41.5352 72.3637C40.7601 72.1765 39.9955 71.9483 39.2446 71.6801C38.4942 71.4109 37.7584 71.1027 37.0403 70.7567C36.7356 70.6298 36.4468 70.4676 36.1798 70.2734C36.4978 70.3627 36.8069 70.4811 37.1032 70.6271C37.665 70.8589 38.443 71.1732 39.3153 71.4875C40.1875 71.8019 40.9891 72.0494 41.5745 72.2262C41.8951 72.3008 42.2081 72.4047 42.5097 72.5366Z"
    fill="#597EF7"
  />
  <path
    d="M34.5532 83.6784C34.5532 83.9299 34.3999 84.1303 34.2113 84.1303C34.0227 84.1303 33.8734 83.9299 33.8734 83.6784C33.8734 83.4269 34.0266 83.2266 34.2113 83.2266C34.396 83.2266 34.5532 83.4309 34.5532 83.6784Z"
    fill="#597EF7"
  />
  <path
    d="M26.8243 74.6068C27.0109 74.6068 27.1622 74.4045 27.1622 74.155C27.1622 73.9054 27.0109 73.7031 26.8243 73.7031C26.6377 73.7031 26.4864 73.9054 26.4864 74.155C26.4864 74.4045 26.6377 74.6068 26.8243 74.6068Z"
    fill="#597EF7"
  />
  <path
    d="M19.7013 64.2175C19.7013 64.465 19.548 64.6693 19.3633 64.6693C19.1787 64.6693 19.0254 64.465 19.0254 64.2175C19.0254 63.9699 19.1747 63.7656 19.3633 63.7656C19.5519 63.7656 19.7013 63.9699 19.7013 64.2175Z"
    fill="#597EF7"
  />
  <path
    d="M145.775 54.4258L143.28 85.0338C143.28 85.0338 135.984 98.1217 115.914 98.6207L118.393 67.8045C118.393 67.8045 135.905 67.0933 145.775 54.4258Z"
    fill="#597EF7"
  />
  <path
    d="M145.383 52.8305C144.731 50.7127 143.143 47.6912 139.371 47.0625L134.923 88.232C134.923 88.232 143.296 86.5621 143.52 81.9729C143.54 81.58 145.214 61.1131 145.634 56.0406C145.761 54.9644 145.676 53.8738 145.383 52.8305Z"
    fill="#597EF7"
  />
  <g opacity="0.8">
    <path
      d="M145.775 54.4258L143.28 85.0338C143.28 85.0338 135.984 98.1217 115.914 98.6207L118.393 67.8045C118.393 67.8045 135.905 67.0933 145.775 54.4258Z"
      fill="white"
    />
  </g>
  <path
    d="M145.167 62.2305C143.158 65.1469 142.047 68.5876 141.972 72.128C141.953 73.1456 142.011 74.1947 141.622 75.1338C141.233 76.0728 140.228 76.8586 139.265 76.5915C138.302 76.3243 137.784 75.0984 136.888 74.5326C136.475 74.3013 136.007 74.1848 135.534 74.1952C135.061 74.2056 134.599 74.3424 134.196 74.5915C133.396 75.1047 132.778 75.8566 132.428 76.7408C131.701 78.4185 131.642 80.3124 131.116 82.0608C130.589 83.8093 129.261 85.5735 127.43 85.6521C126.762 85.6796 126.102 85.4792 125.434 85.4988C124.024 85.542 122.798 86.5911 122.142 87.8563C121.486 89.1215 121.285 90.5399 121.097 91.9387C121.097 91.9387 131.792 92.9603 143.795 78.7839L145.167 62.2305Z"
    fill="#597EF7"
  />
  <path
    d="M128.165 80.7931C128.165 81.186 127.977 81.4807 127.745 81.4807C127.513 81.4807 127.328 81.1742 127.328 80.7931C127.328 80.4119 127.513 80.1055 127.745 80.1055C127.977 80.1055 128.165 80.4159 128.165 80.7931Z"
    fill="#597EF7"
  />
  <path
    d="M133.202 68.0704C133.202 68.4633 133.014 68.758 132.782 68.758C132.55 68.758 132.365 68.4476 132.365 68.0704C132.365 67.6932 132.55 67.3828 132.782 67.3828C133.014 67.3828 133.202 67.6893 133.202 68.0704Z"
    fill="#597EF7"
  />
  <path
    d="M144.927 63.707C144.91 63.7667 144.888 63.8246 144.86 63.8799L144.632 64.3789C144.42 64.8229 144.125 65.4516 143.752 66.2453L140.561 72.8894L140.518 72.9798L140.432 72.9248L132.868 68.1391L133.018 68.0919C132.919 68.3356 132.809 68.5988 132.703 68.8778L127.819 80.8263L127.784 80.9088L127.709 80.8656C125.823 79.8047 124.283 78.9521 123.214 78.3706C122.676 78.0798 122.26 77.8559 121.973 77.7105L121.647 77.5533L121.533 77.5022C122.132 77.7038 122.709 77.9672 123.254 78.2881C124.338 78.846 125.886 79.679 127.784 80.7241L127.674 80.7634L132.515 68.7835C132.621 68.5202 132.731 68.257 132.829 67.9976L132.876 67.8837L132.978 67.9505L140.53 72.7598L140.4 72.7951C141.74 70.0722 142.864 67.7973 143.658 66.1863L144.597 64.3514L144.848 63.8681C144.87 63.8124 144.896 63.7585 144.927 63.707Z"
    fill="#597EF7"
  />
  <script xmlns="" id="bw-fido2-page-script" />
</svg>
