<svg width="48" height="48" viewBox="0 0 48 48" fill="none" xmlns="http://www.w3.org/2000/svg">
<path d="M39.75 28.5322L32.8594 25.5791C31.3125 24.876 29.5547 25.3682 28.5 26.6338L26.6016 28.9541C23.4375 27.126 20.8359 24.5244 19.0078 21.4307L21.3984 19.5322C22.5938 18.4776 23.0859 16.7197 22.4531 15.2432L19.4297 8.21194C18.7266 6.59475 16.9688 5.68068 15.2109 6.10256L8.8125 7.57912C7.125 7.93068 6 9.40725 6 11.1651C6 28.1807 19.7812 41.9619 36.7969 41.9619C38.5547 41.9619 40.0312 40.8369 40.3125 39.1494L41.7891 32.751C42.2812 30.9932 41.3672 29.2354 39.75 28.5322ZM38.5547 31.9776L37.0781 38.376C37.0781 38.4463 36.9375 38.5869 36.7969 38.5869C21.6797 38.5869 9.30469 26.2822 9.30469 11.1651C9.30469 11.0244 9.44531 10.8838 9.58594 10.8838L15.9844 9.40725L16.0547 9.33694C16.1953 9.33694 16.2656 9.47756 16.3359 9.54787L19.2891 16.4385C19.3594 16.5791 19.3594 16.7197 19.2188 16.7901L15.7734 19.6026C15.2109 20.0947 15 20.9385 15.3516 21.6416C17.6719 26.3526 21.5391 30.2197 26.25 32.5401C26.9531 32.8916 27.8672 32.751 28.3594 32.1182L31.1719 28.6729C31.2422 28.6026 31.3828 28.5322 31.5234 28.6026L38.4141 31.5557C38.5547 31.6963 38.625 31.8369 38.5547 31.9776Z" fill="#95DE64"/>
</svg>
