<svg xmlns="http://www.w3.org/2000/svg" width="24" height="24" viewBox="0 0 24 24" fill="none">
<path d="M8.50694 16.5119L7.41785 15.4228C7.1368 15.1417 7.0314 14.7202 7.17193 14.2986C7.27732 13.9824 7.41785 13.5959 7.55838 13.1041H3.86952C3.55333 13.1041 3.27227 12.9636 3.13175 12.6825C2.95608 12.4366 2.95608 12.1204 3.13175 11.8393L4.95861 8.74771C5.41533 7.9748 6.25849 7.48296 7.1368 7.48296H10.0528C10.123 7.34243 10.1933 7.23703 10.2987 7.0965C13.1795 2.84553 17.4656 2.705 19.9951 3.19685C20.4167 3.26711 20.7329 3.5833 20.8032 4.00489C21.295 6.53439 21.1545 10.8205 16.9035 13.7013C16.763 13.8067 16.6576 13.877 16.517 13.9472V16.8632C16.517 17.7415 16.0252 18.5847 15.2523 19.0414L12.1607 20.8683C11.8796 21.0439 11.5634 21.0439 11.3175 20.8683C11.0364 20.7277 10.8959 20.4467 10.8959 20.1305V16.3714C10.3689 16.547 9.94736 16.6875 9.63117 16.7929C9.24472 16.9335 8.788 16.8281 8.50694 16.5119ZM16.517 8.88824C17.0089 8.88824 17.4656 8.64231 17.7115 8.1856C17.9575 7.76401 17.9575 7.23703 17.7115 6.78032C17.4656 6.35873 17.0089 6.07767 16.517 6.07767C15.9901 6.07767 15.5333 6.35873 15.2874 6.78032C15.0415 7.23703 15.0415 7.76401 15.2874 8.1856C15.5333 8.64231 15.9901 8.88824 16.517 8.88824Z" fill="#8C8C8C"/>
</svg>